<svg width="62" height="83" viewBox="0 0 62 83" fill="none" xmlns="http://www.w3.org/2000/svg">
<path d="M14.3459 26.7368C13.3605 26.6686 12.6147 26.752 11.9948 27.552C11.2907 28.4614 11.5766 28.9752 12.4019 29.6523C13.4659 30.5249 14.4837 30.5187 15.6671 30.9716C17.4917 31.6693 18.5705 34.4799 17.2872 36.043C15.8957 36.0977 12.9321 36.0036 13.044 37.9936C13.1199 39.346 14.8547 39.8061 15.9928 39.9379C16.8144 42.6337 19.8603 43.7798 22.3761 44.5592C22.4982 44.5968 22.6213 44.5242 22.5806 44.717C21.7025 45.2838 20.7828 45.7959 19.8677 46.3026C18.4826 47.0703 15.3285 48.958 13.8388 48.8863C12.3075 48.8128 10.4903 47.663 9.16539 46.959L9.07101 46.7815C9.24866 44.1144 6.21292 41.5943 3.64165 43.2202C3.43439 43.3512 3.13091 43.7198 2.99398 43.7583C2.7969 43.813 2.56929 43.7449 2.37498 43.7861C0.196949 44.2408 -0.608944 46.56 0.487476 48.3769C0.647545 48.6424 0.926044 48.8684 1.04448 49.0926C1.19992 49.3876 1.25543 49.7688 1.46824 50.1167C2.38331 51.6045 4.70754 52.1471 6.33135 51.5678C6.90778 51.3624 7.27418 50.9221 7.81823 50.7714C10.6819 52.313 14.0239 53.7219 17.1845 52.0431L22.0254 49.4271C21.9273 52.0449 22.8313 54.8959 25.1796 56.389C24.259 58.0993 23.9203 59.8812 24.246 61.8022C24.1359 61.9071 22.6093 61.2049 22.3261 61.1081C20.1897 60.3727 17.2993 59.8786 15.2794 61.1377C13.1412 62.4721 11.634 67.158 11.1519 69.513C11.0945 69.791 11.0279 70.8816 10.8752 70.9488L8.51864 68.5723C7.50642 67.8378 6.43868 66.9894 5.24973 66.5392C3.13554 65.7392 2.12702 66.636 2.75526 68.7776C3.68884 71.9622 7.33155 75.345 10.062 77.2104C11.0807 77.9063 13.2208 79.4973 13.6741 77.5162C13.998 76.1028 14.0155 74.2984 14.2691 72.8016C14.579 70.9721 15.569 66.1715 16.8459 64.8962C18.1005 63.6425 21.2047 64.4362 22.7221 64.9393C23.2551 65.1159 25.0473 65.7993 25.4054 66.1051C25.7088 66.3643 26.4305 68.0387 26.7627 68.5561C27.8785 70.2915 29.8826 72.129 31.6563 73.2294C34.4219 74.945 38.0461 76.2176 41.3511 75.8894C42.4133 77.4104 44.3942 79.7224 46.4066 79.917C49.0344 80.1708 51.7028 78.9341 53.9456 77.7655C53.9613 77.9216 54.0224 78.0659 54.0964 78.2031C55.067 80.0031 58.6588 83.2271 60.9108 82.8549C61.5354 82.7518 62.0091 82.1985 61.9999 81.5815C61.974 79.9726 59.3934 76.4884 58.2942 75.2114C57.3699 74.1379 55.81 72.4528 54.175 73.0079C53.4672 73.2483 53.1739 74.1146 52.4374 74.5522C50.7498 75.554 47.0145 77.2651 45.5295 75.2993C47.553 75.0257 49.8504 74.0357 51.4021 72.7416C56.6195 68.3884 52.9879 61.6085 48.1683 58.6625C45.4287 56.9872 41.9766 56.3254 38.7789 56.6913L37.6667 54.4017C38.6161 53.2699 39.0454 52.0933 39.3812 50.688C39.4738 50.3015 39.298 49.7437 39.9743 50.0136C40.189 50.0997 41.3067 50.9687 41.5519 51.175C42.8778 52.2924 45.2593 55.4438 46.8702 55.616C48.8086 55.8232 51.2642 54.5829 52.8991 53.66C55.4334 55.2295 58.8947 53.6251 59.5655 50.8808C59.9014 49.506 59.6793 47.9823 58.4358 47.0954C58.1943 46.9232 57.778 46.8209 57.6077 46.6425C57.4587 46.4855 57.3773 46.1385 57.2274 45.9349C56.0931 44.3986 53.5459 44.3753 52.3273 45.8371C51.8813 46.3725 52.2829 46.2506 51.5723 46.5384C50.982 46.777 50.5434 46.9716 50.1706 47.5133C49.4785 48.5204 49.843 49.6719 50.0512 50.7606L47.5132 51.6646L47.3282 51.5866C45.7682 49.6253 43.865 47.7994 41.7267 46.4299C41.0208 45.9779 40.1705 45.3932 39.3294 45.2999L43.7003 44.0229C46.5306 43.1422 48.7845 41.2795 50.6147 39.0662C53.4691 35.6126 53.6356 33.2539 53.1027 28.9474C52.5651 24.606 51.6417 20.1362 50.4269 15.9365C54.0742 13.1016 55.3917 7.85438 52.1876 4.18462C49.9892 1.66726 45.053 0.0503059 42.1968 2.3874C39.953 4.22318 39.9401 7.50911 38.6827 9.92781C37.4142 9.75114 36.1234 9.44264 34.829 9.26148C32.552 8.94311 30.2435 8.81845 27.9526 8.61667C27.5353 5.40339 24.9205 1.91478 21.9051 0.533688C19.8825 -0.39272 17.3816 -0.235778 16.4314 1.98653C15.1249 5.04287 17.7628 7.82389 18.763 10.5502L18.0506 11.3573C16.5424 11.4336 14.5439 12.0317 14.2783 13.7097C14.221 14.0693 14.3394 14.7329 14.2108 14.9894C14.1775 15.0549 13.2689 15.6943 13.0514 15.9284C10.8419 18.3041 10.7402 22.2393 13.2874 24.4033C13.4234 24.519 13.7815 24.6696 13.8397 24.7647C13.9591 24.9566 13.8573 25.562 13.9091 25.8633C13.9758 26.2507 14.2358 26.4059 14.3486 26.7368H14.3459ZM19.1636 10.0516C18.4965 7.72255 16.4961 5.75942 16.7534 3.19723C16.8487 2.24481 17.3909 1.33723 18.2902 0.920215C21.3565 -0.499441 25.3711 3.63577 26.5462 6.07869C26.697 6.39257 27.3512 8.28485 27.2938 8.47677C27.2614 8.58349 27.1661 8.60412 27.068 8.62205C26.4333 8.73505 25.3683 8.5817 24.6587 8.61847C23.5484 8.67676 22.2845 8.88661 21.2371 9.24803C20.9096 9.36103 19.3089 10.1744 19.1627 10.0516H19.1636ZM39.1333 10.5843C39.9549 8.8615 40.3028 6.94053 41.0161 5.18995C43.0498 0.197384 48.841 1.6 51.8564 4.8644C54.0122 7.19881 53.6042 10.8201 51.9711 13.2971C51.3364 14.2594 50.5175 14.993 49.7829 15.8441C50.8515 19.6986 51.6741 23.6491 52.2672 27.6049C53.0435 32.7867 53.1619 35.3857 49.4165 39.4303C43.6411 45.6685 31.2539 46.0856 23.4142 44.0919C21.4268 43.587 18.7852 42.5898 17.4325 41.0562C17.2928 40.8984 16.6988 40.1182 17.0892 40.0177C18.4604 40.2401 19.8492 40.2796 21.226 40.4742C24.5717 40.9468 27.6565 41.7611 31.0503 41.9826C34.9946 42.2409 40.1446 42.0337 43.6485 40.2051C46.1587 38.8958 47.3356 36.3955 46.6888 33.6396C45.7025 29.4371 42.0959 29.3806 38.4467 29.334C31.5721 29.247 24.5356 29.0802 17.7702 27.6802L17.0319 27.4551C18.3328 27.4955 19.7798 27.726 21.0465 27.4444C21.5841 27.3251 23.7889 26.6139 24.0203 26.2014C24.135 26.1189 23.9869 25.9413 23.9231 25.9297C23.8417 25.9144 22.7684 26.4014 22.5408 26.4713C20.4988 27.0991 17.4797 27.3825 15.4895 26.483C14.8732 26.2041 14.5929 26.014 14.4615 25.3261C14.4347 25.1871 14.3792 25.0929 14.5799 25.1207C15.0537 25.1871 15.9539 25.6642 16.5665 25.7969C20.2924 26.605 26.5832 25.2508 26.8376 20.7712C27.0865 16.3974 20.645 13.7949 16.894 14.0917C16.2352 14.1437 15.4978 14.3509 14.9038 14.628C14.8261 13.6953 15.2396 12.7626 16.1797 12.4129C17.8035 11.8075 19.2765 11.9923 20.8957 12.4523C21.7654 12.6999 22.5602 13.0954 23.4151 13.3725C23.4808 12.9384 22.8739 12.6586 22.5251 12.4873C21.5138 11.9923 20.2175 11.7223 19.109 11.4919C18.9804 11.465 18.8416 11.5681 18.8824 11.3564C21.3269 9.25969 24.6929 9.12786 27.8138 9.24444C30.6922 9.35206 33.8482 9.78522 36.5315 10.317C36.8831 10.387 38.9889 10.7062 39.1342 10.5825L39.1333 10.5843ZM18.4373 14.7464C21.3518 15.0208 26.227 17.1481 26.1983 20.5039C26.1474 26.5512 12.7415 27.4435 12.0448 20.7622C11.6599 17.07 14.6882 14.3931 18.4373 14.7455V14.7464ZM25.7273 31.7599C21.882 31.663 17.513 31.2253 13.9526 29.7653C13.5131 29.5851 12.3149 28.8936 12.3168 28.3959C12.3186 28.1179 12.7665 27.6722 13.02 27.5583C14.5226 26.8812 16.8625 28.2049 18.3938 28.5098C20.6089 28.951 23.0969 29.2712 25.3119 29.4272C26.054 29.4793 27.0134 29.4237 27.7231 29.5106C27.8998 29.5322 27.811 29.681 27.9877 29.7035C28.4041 29.7573 29.2165 29.6774 29.7531 29.6954C31.3649 29.7519 32.9572 29.8218 34.5672 29.8721C34.7865 29.8792 34.9882 29.9635 35.2074 29.9689C39.3535 30.0765 44.8217 28.7744 46.1069 33.8431C47.5604 39.5747 40.6858 41.0652 36.3205 41.4445C30.708 41.9315 25.4914 40.3702 20.1194 39.6608C18.4429 39.4393 16.2824 39.5451 14.7141 38.981C13.9082 38.6913 13.3753 37.7784 14.1664 37.1901C15.2322 36.3982 17.5657 36.7264 18.8065 36.9865C25.5293 38.3972 33.5494 40.3809 40.3657 38.729C41.1938 38.5281 42.4854 37.8385 43.0258 37.182C44.2554 35.6879 43.6161 33.4037 42.1468 32.2988C39.5811 30.368 33.0849 31.6648 29.8891 31.759C28.5373 31.7984 27.0782 31.793 25.7255 31.759L25.7273 31.7599ZM17.538 31.4926C18.4771 31.7428 19.4551 31.8971 20.4201 32.0163C23.6492 32.4154 27.0393 32.5195 30.3064 32.3867C33.2441 32.2674 39.5358 31.0101 41.8711 32.8378C42.8768 33.6243 43.4653 35.5148 42.7001 36.5964C42.4595 36.9363 41.3576 37.8106 40.9495 37.773C40.7525 37.755 40.2315 36.8412 40.0243 36.6009C37.5761 33.7606 31.7109 33.6476 28.8297 35.8861C28.3171 36.2843 27.2022 37.7371 26.8367 37.9003C26.5776 38.0169 26.1048 37.8725 25.8032 37.8286C23.2468 37.4546 20.7097 36.7641 18.181 36.2466C18.2606 35.7623 18.5215 35.3337 18.577 34.8279C18.7066 33.6459 18.1172 32.4854 17.538 31.4917V31.4926ZM27.6704 38.1263C29.6754 34.8332 34.8947 34.1104 38.1877 35.8699C39.137 36.3775 39.7078 37.1058 40.2519 37.9927C40.2408 38.1523 39.1869 38.3272 38.976 38.3676C36.6656 38.807 34.0435 38.8285 31.697 38.6644C30.3462 38.5694 29.0037 38.3443 27.6713 38.1263H27.6704ZM19.2506 49.9652C15.0315 52.1417 13.7916 52.7175 9.195 50.5194C8.72589 50.2952 7.81915 50.036 7.96164 49.4271C7.78307 49.2441 7.11134 50.0602 6.94572 50.1912C5.55414 51.2799 3.52784 51.2261 2.41199 49.8298C2.38794 49.6486 2.41847 49.7132 2.54708 49.697C2.83391 49.6612 3.10778 49.7159 3.43254 49.6567C4.29765 49.4979 4.85928 48.8029 5.00269 47.994C5.14703 48.0164 5.135 48.1877 5.28304 48.3034C5.72623 48.6531 6.61633 49.0316 7.12984 48.6639C6.83839 48.0245 5.87891 48.1419 5.69016 47.3716C5.45237 46.4039 6.21292 46.4443 6.20552 45.6614C5.19052 45.3968 4.82042 47.2469 3.84335 46.56C2.9801 45.9519 3.31689 44.4507 4.17367 43.9171C5.95847 42.805 8.15779 44.5861 8.24199 46.4281C8.26605 46.9608 7.99217 47.4559 8.05602 47.9931L8.70832 47.7617C9.79826 48.3662 10.977 49.0379 12.1697 49.4307C13.8518 49.9849 14.4069 50.0127 15.9826 49.3544C16.782 49.0199 17.7545 48.5105 18.5104 48.0828L22.303 45.6614L21.8839 48.6173C21.0622 49.1634 20.1194 49.5177 19.2506 49.9661V49.9652ZM4.26249 47.455C4.17089 49.2791 2.16866 49.2397 1.26099 47.9868C0.461571 46.8837 1.01117 44.735 2.59612 44.674C2.38701 45.8596 2.86259 47.3294 4.26249 47.4541V47.455ZM40.3463 46.5573C42.9101 48.0756 45.1613 50.1024 46.9424 52.4484C47.2893 52.7193 48.3025 52.3435 48.7216 52.2081C49.2305 52.044 50.4491 51.3741 50.7775 51.3247C51.0301 51.2871 51.1273 51.5023 51.3567 51.4889C50.9959 50.3822 50.2862 49.4352 50.821 48.2343C51.3956 46.9447 53.1915 47.2406 53.8734 48.2881C54.1898 48.7751 54.534 49.7876 53.8299 50.0773C52.9972 50.4199 52.2524 48.9939 51.8675 49.0675C51.5251 49.3849 51.8878 49.9616 52.1127 50.2629C52.6697 51.01 53.3599 51.1005 54.2241 50.7714C54.4286 52.5112 57.6096 51.9319 57.4708 50.4566C57.4051 49.7598 56.936 50.4898 56.6612 50.6665C56.0922 51.0333 54.918 51.1992 54.609 50.4755C54.9865 49.9903 54.9245 49.3724 55.1327 48.8262C55.9284 46.7348 58.5598 47.2308 58.8429 49.2988C59.1954 51.8736 56.5502 54.0367 53.9881 53.1964C53.3645 52.9919 53.0139 52.4502 52.3736 52.3857L52.4587 52.9112C50.9367 53.7264 48.5838 54.9891 46.798 54.6959C45.7645 54.5264 43.9529 52.1543 43.1118 51.3633C41.9266 50.2486 40.3056 49.0406 38.7299 48.5258C38.2099 48.3563 37.4919 48.1698 37.4863 48.9186L38.6632 49.4405C38.4597 55.0932 32.2124 58.0786 26.9986 56.3083C22.8322 54.8941 22.3779 50.2961 23.1357 46.6452C23.256 46.0658 23.2838 45.4425 23.6585 44.934C24.8234 45.1627 25.992 45.4156 27.1735 45.5564C30.2167 45.9187 33.0868 45.8622 36.1345 45.6587C36.5315 45.6318 37.0404 45.4955 37.4308 45.4811C38.6762 45.4354 39.3581 45.9717 40.3444 46.5564L40.3463 46.5573ZM52.9297 46.7357C53.5783 45.2282 55.8979 45.2497 56.6316 46.69C55.8275 47.0138 55.227 47.4702 54.733 48.1715C54.3296 47.8837 54.1371 47.3985 53.7161 47.0954C53.4941 46.9357 53.1998 46.8003 52.9297 46.7348V46.7357ZM37.663 56.1532C40.2704 62.273 32.2568 67.0871 26.7757 64.1501C26.5564 64.0326 25.6126 63.4586 25.5007 63.3232C25.0991 62.8416 24.9427 60.3709 24.9992 59.7064C25.0473 59.1414 25.2129 58.8589 25.3572 58.3943C25.521 57.8679 25.6006 57.3415 25.9707 56.8626C26.5739 56.9818 27.1282 57.2545 27.7231 57.4016C30.6515 58.1244 33.691 57.467 36.1197 55.7783C36.4371 55.5577 36.6592 55.2026 37.0552 55.077C37.1514 55.0976 37.5927 55.9873 37.663 56.1523V56.1532ZM26.2825 65.6594C26.2196 65.5034 25.8245 64.7644 25.9133 64.6729C26.5083 64.794 26.9922 65.1644 27.5538 65.3689C28.7807 65.8146 29.7624 65.8253 31.0475 65.8379C31.6674 65.8442 31.3316 65.7975 31.5268 65.75C32.8212 65.4343 33.5929 65.4756 34.8892 64.8092C36.6342 63.9115 39.0509 61.3475 39.0509 59.3369V57.4984C40.5656 57.2886 42.1681 57.5495 43.654 57.8796C45.7682 61.265 44.6663 65.7679 41.9664 68.5301C41.1115 69.4054 41.1836 68.7176 40.5785 68.079C39.9752 67.4432 39.5626 66.871 38.6494 67.4665C38.2598 67.7203 37.8638 68.575 37.8444 69.0261C37.8157 69.7112 38.2404 70.3847 38.3635 71.0394C38.2432 71.2645 36.8803 71.5856 36.5518 71.6672C35.3592 71.9649 34.1499 72.1801 32.898 72.1147C31.5333 72.0429 31.1188 71.8914 30.1186 71.0421C28.3097 69.5041 27.1494 67.8082 26.2816 65.6585L26.2825 65.6594ZM47.2856 72.2062C47.0145 72.4994 46.8101 72.8277 46.4538 73.1487C46.068 73.4976 44.9827 74.5486 44.5062 74.1361C44.2425 73.9083 43.7244 72.8474 43.4921 72.4743C43.2599 72.1012 41.8257 69.9049 41.8313 69.7381C41.8415 69.4278 42.6215 68.8404 42.8417 68.5705C45.2889 65.5724 46.3678 61.7027 44.5099 58.1262C45.6794 58.3773 46.7888 58.8508 47.7973 59.4678C49.3147 60.3969 49.8754 61.2049 50.2196 62.9492C50.8867 66.3356 49.5747 69.7229 47.2866 72.2044L47.2856 72.2062ZM11.9402 74.0886C11.9865 73.6554 11.7228 73.2823 11.6728 72.8689C11.4063 70.6556 13.527 63.8084 15.2702 62.2955C17.5972 60.2749 21.9088 61.7448 24.382 62.882L24.9853 64.942C23.219 64.264 21.3111 63.4676 19.3866 63.3295C16.8366 63.1465 16.2371 63.7304 15.2545 65.8684C14.3875 67.7562 13.8055 70.1462 13.4465 72.1873C13.1726 73.7451 13.1763 75.606 12.8405 77.0705C12.6619 77.8489 11.9282 77.3386 11.4147 77.0642C9.27919 75.9226 5.73271 72.4555 4.49843 70.4054C3.68513 69.0547 2.36666 66.1778 5.37465 67.5831C7.37226 68.5167 9.49755 70.5946 10.6828 72.3927C10.9123 72.7416 11.4036 73.815 11.6192 73.9962C11.7357 74.0939 11.7774 74.1128 11.9393 74.0886H11.9402ZM48.9511 71.399C50.8478 68.6727 51.6445 64.968 50.5249 61.804C50.7673 61.9959 50.97 62.2452 51.1541 62.4928C52.4994 64.3061 53.4117 66.7508 52.8371 68.9776C52.109 71.7972 49.1037 73.5397 46.3604 74.1783C47.2995 73.3308 48.2294 72.4366 48.9511 71.399ZM54.7792 76.3315C54.4508 76.3369 54.275 76.6463 54.0113 76.7969C52.0479 77.9198 48.2201 79.456 45.9681 78.9072C43.716 78.3583 40.8755 73.9173 39.8346 71.938C39.3507 71.0188 38.085 68.9086 39.2656 68.1831C39.731 68.2225 41.0892 70.3193 41.402 70.7784C42.3522 72.173 43.1812 73.7451 44.1564 75.1038C45.6526 77.188 46.7999 77.5906 49.3684 76.8705C50.2918 76.6122 52.7853 75.5262 53.5172 74.9728C54.138 74.5047 54.0464 73.5272 55.3372 73.8617C56.6603 74.2043 59.2648 77.9099 59.9986 79.1188C60.3039 79.6219 61.3568 81.2559 60.9839 81.7635C60.5907 82.1429 60.0115 81.9348 59.5646 81.7814C58.0102 81.2478 55.3279 78.8901 54.7616 77.3799C54.5794 76.8947 54.6423 76.814 54.7783 76.3315H54.7792ZM39.0509 72.3855L40.6238 75.0751C38.035 75.0688 35.3814 74.2661 33.1284 73.059C32.9924 72.9864 32.7194 72.8815 32.6676 72.7442C33.765 72.7747 34.8457 72.7353 35.9245 72.5371C36.5676 72.4196 37.2023 72.1425 37.849 72.1156C37.9203 71.9317 38.5892 71.7308 38.7132 71.7658L39.0518 72.3846L39.0509 72.3855Z" fill="#090C0B"/>
<path d="M39.1333 10.5843C38.988 10.708 36.8821 10.3888 36.5305 10.3188C33.8473 9.78701 30.6913 9.35296 27.8129 9.24623C24.692 9.12965 21.3259 9.26238 18.8814 11.3582C18.8407 11.5699 18.9795 11.4667 19.1081 11.4937C20.2166 11.7241 21.5119 11.9941 22.5241 12.4891C22.873 12.6604 23.4799 12.9402 23.4142 13.3743C22.5593 13.0981 21.7645 12.7017 20.8948 12.4541C19.2756 11.9941 17.8026 11.8093 16.1788 12.4147C15.2387 12.7644 14.8261 13.6971 14.9029 14.6298C15.4959 14.3527 16.2343 14.1455 16.8931 14.0935C20.644 13.7967 27.0856 16.3983 26.8367 20.773C26.5813 25.2517 20.2915 26.6068 16.5655 25.7987C15.953 25.666 15.0527 25.1889 14.579 25.1225C14.3773 25.0938 14.4338 25.1889 14.4606 25.3279C14.592 26.0158 14.8733 26.2059 15.4885 26.4848C17.4778 27.3843 20.4978 27.1009 22.5399 26.4731C22.7675 26.4032 23.8417 25.9162 23.9222 25.9315C23.9869 25.9431 24.135 26.1207 24.0193 26.2032C23.788 26.6157 21.5832 27.3269 21.0456 27.4462C19.7789 27.7269 18.3318 27.4973 17.0309 27.4569L17.7693 27.682C24.5347 29.0829 31.5712 29.2488 38.4458 29.3358C42.095 29.3824 45.7016 29.4389 46.6879 33.6414C47.3347 36.3964 46.1568 38.8967 43.6476 40.2069C40.1436 42.0355 34.9937 42.2427 31.0494 41.9844C27.6565 41.762 24.5708 40.9477 21.2251 40.476C19.8492 40.2814 18.4595 40.2428 17.0883 40.0195C16.6988 40.1208 17.2928 40.9002 17.4316 41.058C18.7843 42.5916 21.4259 43.5879 23.4133 44.0937C31.2529 46.0873 43.6402 45.6694 49.4156 39.4321C53.16 35.3875 53.0425 32.7894 52.2663 27.6067C51.6732 23.6509 50.8506 19.7004 49.782 15.8459C50.5166 14.9957 51.3355 14.2612 51.9702 13.2989C53.6042 10.8228 54.0122 7.2015 51.8554 4.8662C48.8401 1.60179 43.0489 0.199177 41.0152 5.19174C40.3019 6.94232 39.9549 8.8633 39.1323 10.5861L39.1333 10.5843ZM46.3807 4.07341C48.012 4.26264 49.8921 5.67064 50.574 7.09388C51.6288 9.29377 50.9774 11.4533 49.2555 13.0963C48.9483 13.1743 48.5005 12.4479 48.2932 12.2631C47.3846 11.4533 46.2003 10.6318 45.1261 10.0417C44.3156 9.59599 43.1063 9.20857 42.3892 8.7485C42.293 8.68662 42.144 8.57721 42.1181 8.46959C42.0663 8.24898 42.6002 6.79793 42.7334 6.4984C43.4422 4.91104 44.4581 3.85011 46.3789 4.07341H46.3807ZM32.02 14.8101C32.0597 14.8531 32.6806 14.5939 32.8296 14.5643C36.2021 13.8953 39.7106 14.9177 42.2911 17.096C45.0974 19.4654 45.2954 23.8509 41.8896 25.7664C39.1388 27.3134 35.5405 27.6175 32.5029 26.6731C26.9644 24.9512 25.8985 17.5534 31.3279 15.08C31.3242 13.5778 31.6452 12.4263 33.2977 12.0569C35.4776 11.569 39.8855 12.8487 41.8211 13.9653C42.4854 14.3491 43.5624 14.9903 43.5856 15.7966L42.4124 14.9168C40.8848 13.8711 39.4108 13.4783 37.6418 13.0837C35.6321 12.6353 31.8294 11.5762 32.0209 14.8101H32.02ZM30.0769 26.1099C30.7857 26.3987 31.3464 26.8866 32.0496 27.2013C33.9315 28.0444 36.3039 28.1242 38.3616 27.9968C39.0981 27.9511 40.0141 27.6417 40.6747 27.6318C40.8487 27.6291 40.9717 27.6085 41.0846 27.7681C40.2741 28.421 38.9279 28.5609 37.8934 28.6192C35.8311 28.7358 33.3384 28.5394 31.5277 27.5269C31.277 27.3861 29.7642 26.4462 30.076 26.1099H30.0769Z" fill="#48CAFA"/>
<path d="M40.3463 46.5573C39.248 46.8801 38.0905 47.0882 36.9534 47.2595C32.9174 47.8684 28.5771 48.202 24.5967 47.159C24.1193 47.0344 23.5382 46.9169 23.1366 46.6461C22.3789 50.297 22.8341 54.895 26.9996 56.3092C32.2133 58.0786 38.4615 55.094 38.6642 49.4414L37.4873 48.9195C37.4919 48.1707 38.2108 48.3572 38.7308 48.5267C40.3065 49.0415 41.9275 50.2495 43.1128 51.3642C43.9538 52.1552 45.7655 54.5273 46.799 54.6968C48.5847 54.99 50.9385 53.7282 52.4596 52.9121L52.3745 52.3866C53.0148 52.4511 53.3645 52.9928 53.9891 53.1973C56.5502 54.0376 59.1954 51.8736 58.8438 49.2997C58.5607 47.2317 55.9293 46.7357 55.1336 48.8271C54.9254 49.3733 54.9883 49.9912 54.6099 50.4764C54.9189 51.2001 56.0931 51.0342 56.6621 50.6674C56.9369 50.4898 57.406 49.7598 57.4717 50.4575C57.6096 51.9328 54.4295 52.5121 54.225 50.7723C53.3617 51.1014 52.6706 51.0109 52.1136 50.2638C51.8887 49.9625 51.5251 49.3858 51.8684 49.0684C52.2533 48.9948 52.9972 50.4199 53.8308 50.0782C54.535 49.7885 54.1908 48.776 53.8743 48.289C53.1934 47.2415 51.3974 46.9456 50.8219 48.2352C50.2871 49.4361 50.9968 50.3822 51.3577 51.4898C51.1282 51.5032 51.032 51.288 50.7785 51.3256C50.45 51.375 49.2314 52.0449 48.7225 52.209C48.3034 52.3444 47.2903 52.7202 46.9433 52.4493C45.1631 50.1033 42.9111 48.0756 40.3472 46.5582L40.3463 46.5573Z" fill="#89573D"/>
<path d="M25.7273 31.7599H29.891C33.0858 31.6666 39.5829 30.3698 42.1487 32.2997C43.618 33.4055 44.2573 35.6888 43.0276 37.1829C42.4873 37.8394 41.1957 38.529 40.3676 38.7299C33.5512 40.3818 25.5312 38.3981 18.8083 36.9874C17.5676 36.7273 15.2341 36.3991 14.1682 37.191C13.3771 37.7784 13.9101 38.6922 14.716 38.9819C16.2852 39.546 18.4447 39.4402 20.1213 39.6617C25.4933 40.3711 30.7098 41.9324 36.3224 41.4454C40.6877 41.067 47.5623 39.5756 46.1087 33.844C44.8235 28.7753 39.3553 30.0774 35.2093 29.9698C34.99 29.9644 34.7883 29.8792 34.569 29.873C32.9591 29.8236 31.3667 29.7528 29.7549 29.6963C29.2183 29.6774 28.4059 29.7582 27.9896 29.7044C27.8119 29.681 27.9017 29.5331 27.725 29.5115C27.0162 29.4245 26.0558 29.4802 25.3138 29.4281C23.0978 29.2721 20.6107 28.9519 18.3957 28.5107C16.8644 28.2058 14.5244 26.8821 13.0218 27.5592C12.7683 27.6731 12.3205 28.1188 12.3186 28.3968C12.3159 28.8945 13.5141 29.586 13.9545 29.7662C17.5148 31.2262 21.8839 31.6639 25.7292 31.7607L25.7273 31.7599Z" fill="#DC95AD"/>
<path d="M36.5528 71.6681C36.8812 71.5865 38.2441 71.2654 38.3644 71.0403C38.2413 70.3856 37.8166 69.7121 37.8453 69.027C37.8638 68.5759 38.2608 67.7212 38.6503 67.4674C39.5635 66.8719 39.9762 67.4441 40.5794 68.0799C41.1845 68.7176 41.1124 69.4054 41.9673 68.531C44.6672 65.7688 45.7682 61.2659 43.655 57.8805C42.169 57.5504 40.5665 57.2895 39.0518 57.4993V59.3378C39.0518 61.3484 36.6351 63.9124 34.8901 64.8101C33.5938 65.4774 32.8222 65.4361 31.5277 65.7509C31.3325 65.7984 31.6684 65.8451 31.0485 65.8388C29.7624 65.8262 28.7807 65.8155 27.5547 65.3697C26.9931 65.1653 26.5092 64.7949 25.9142 64.6738C25.8254 64.7653 26.2205 65.5034 26.2834 65.6603C26.4916 65.6469 26.5221 65.7993 26.6202 65.9168C27.6408 67.1329 28.6854 68.1866 30.0483 69.0512C32.0597 70.3282 34.2674 71.0125 36.5537 71.669L36.5528 71.6681Z" fill="#89573D"/>
<path d="M17.538 31.4926C18.1162 32.4863 18.7066 33.6467 18.577 34.8287C18.5215 35.3345 18.2606 35.7623 18.181 36.2475C20.7088 36.765 23.2458 37.4555 25.8032 37.8295C26.1049 37.8734 26.5767 38.0169 26.8367 37.9012C27.2022 37.738 28.3171 36.2852 28.8297 35.887C31.7109 33.6476 37.577 33.7606 40.0243 36.6017C40.2306 36.8412 40.7525 37.7551 40.9495 37.7739C41.3576 37.8116 42.4605 36.9372 42.7001 36.5973C43.4653 35.5157 42.8768 33.6252 41.8711 32.8387C39.5358 31.011 33.2441 32.2683 30.3064 32.3876C27.0393 32.5203 23.6492 32.4163 20.4201 32.0172C19.4551 31.898 18.4762 31.7446 17.538 31.4935L17.538 31.4926Z" fill="#A42122"/>
<path d="M18.4373 14.7464C14.6882 14.3939 11.6599 17.0709 12.0448 20.7631C12.7415 27.4444 26.1465 26.5521 26.1983 20.5048C26.227 17.149 21.3518 15.0217 18.4373 14.7473V14.7464ZM13.3207 20.5138C13.3207 18.9695 14.6123 17.7166 16.2065 17.7166C17.8007 17.7166 19.0924 18.9686 19.0924 20.5138C19.0924 22.059 17.8007 23.311 16.2065 23.311C14.6123 23.311 13.3207 22.059 13.3207 20.5138Z" fill="#FEFEFE"/>
<path d="M11.9402 74.0886C11.7783 74.1128 11.7367 74.0939 11.6201 73.9962C11.4045 73.815 10.9132 72.7416 10.6837 72.3927C9.49848 70.5946 7.37318 68.5167 5.37557 67.5831C2.36852 66.1778 3.68607 69.0538 4.49936 70.4053C5.73365 72.4555 9.28012 75.9226 11.4156 77.0642C11.9291 77.3386 12.6628 77.8489 12.8414 77.0705C13.1773 75.606 13.1736 73.746 13.4474 72.1873C13.8055 70.1462 14.3875 67.7553 15.2554 65.8684C16.238 63.7304 16.8376 63.1456 19.3875 63.3295C21.3121 63.4676 23.2199 64.264 24.9862 64.942L24.383 62.882C21.9098 61.7439 17.5981 60.2749 15.2711 62.2955C13.5279 63.8084 11.4073 70.6556 11.6737 72.8689C11.7237 73.2823 11.9865 73.6554 11.9411 74.0886H11.9402Z" fill="#643826"/>
<path d="M47.2856 72.2062C49.5747 69.7238 50.8867 66.3374 50.2187 62.951C49.8745 61.2058 49.3138 60.3978 47.7964 59.4696C46.7879 58.8517 45.6785 58.3791 44.509 58.128C46.3669 61.7054 45.288 65.5742 42.8407 68.5723C42.6205 68.8422 41.8406 69.4296 41.8304 69.7399C41.8248 69.9067 43.2691 72.121 43.4912 72.4761L47.2847 72.2071L47.2856 72.2062Z" fill="#89573D"/>
<path d="M25.3572 58.3952C25.2129 58.8598 25.0473 59.1423 24.9992 59.7073C24.9427 60.3718 25.0991 62.8416 25.5007 63.3241C25.6126 63.4586 26.5564 64.0335 26.7757 64.151C32.2568 67.0871 40.2704 62.2739 37.6631 56.1541C37.0848 56.8428 36.3279 57.3711 35.5368 57.815C32.3743 59.5889 28.677 60.1664 25.3572 58.3961V58.3952Z" fill="#89573D"/>
<path d="M19.1636 10.0516C19.3098 10.1744 20.9105 9.36103 21.238 9.24803C22.2854 8.88661 23.5493 8.67676 24.6596 8.61847C25.3683 8.5817 26.4342 8.73505 27.069 8.62205C27.168 8.60412 27.2633 8.58349 27.2947 8.47677C27.3521 8.28485 26.6979 6.39257 26.5471 6.07869C25.3711 3.63577 21.3574 -0.499441 18.2911 0.920216C17.3918 1.33634 16.8496 2.24481 16.7543 3.19723C16.4971 5.75942 18.4965 7.72345 19.1646 10.0516L19.1636 10.0516Z" fill="#48CAFA"/>
<path d="M54.7792 76.3315C54.6432 76.814 54.5803 76.8947 54.7626 77.3799C55.3288 78.8901 58.0111 81.2478 59.5655 81.7814C60.0124 81.9348 60.5916 82.1438 60.9849 81.7635C61.3568 81.2559 60.3048 79.6219 59.9995 79.1188C59.2658 77.9108 56.6612 74.2052 55.3381 73.8617C54.0474 73.5272 54.138 74.5047 53.5181 74.9728C52.7862 75.5253 50.2927 76.6113 49.3693 76.8705C46.8008 77.5897 45.6535 77.188 44.1574 75.1038C43.1822 73.7451 42.3531 72.173 41.4029 70.7784C41.0902 70.3193 39.7319 68.2225 39.2665 68.1831C38.0859 68.9086 39.3516 71.0188 39.8355 71.938C40.8764 73.9164 43.6772 78.3484 45.969 78.9072C48.2608 79.4659 52.0488 77.9198 54.0122 76.7969C54.2759 76.6463 54.4508 76.3369 54.7802 76.3315H54.7792Z" fill="#643826"/>
<path d="M18.5104 48.0819C17.7545 48.5096 16.782 49.019 15.9826 49.3535C14.4069 50.0118 13.8518 49.984 12.1697 49.4298C10.977 49.037 9.79919 48.3653 8.70832 47.7608L8.05602 47.9922C7.99218 47.455 8.26605 46.9599 8.24199 46.4272C8.15872 44.5852 5.95848 42.8041 4.17368 43.9162C3.31689 44.4498 2.9801 45.9519 3.84336 46.5591C4.8195 47.246 5.19053 45.3959 6.20552 45.6605C6.21292 46.4434 5.45237 46.403 5.69016 47.3707C5.87891 48.1411 6.83932 48.0236 7.12984 48.663C6.61633 49.0307 5.72624 48.6522 5.28305 48.3025C5.13593 48.1859 5.14704 48.0155 5.0027 47.9931C4.85928 48.802 4.29766 49.497 3.43255 49.6558C3.10872 49.715 2.83391 49.6603 2.54708 49.6961C2.41755 49.7123 2.38702 49.6477 2.412 49.8289C3.52693 51.2261 5.55415 51.2799 6.94572 50.1903C7.11227 50.0602 7.78307 49.2432 7.96164 49.4262C7.81916 50.0351 8.7259 50.2943 9.195 50.5185C13.7916 52.7175 15.0305 52.1417 19.2506 49.9643L18.5104 48.081V48.0819Z" fill="#89573D"/>
<path d="M27.6704 38.1263C29.0027 38.3443 30.3453 38.5694 31.6961 38.6644C34.0426 38.8294 36.6656 38.8079 38.9751 38.3676C39.186 38.3272 40.2399 38.1523 40.251 37.9927C39.7069 37.1058 39.136 36.3766 38.1867 35.8699C34.8938 34.1104 29.6745 34.8332 27.6694 38.1263H27.6704Z" fill="#DD4D4F"/>
<path d="M40.3463 46.5573C39.359 45.9735 38.678 45.4363 37.4327 45.482C37.0422 45.4963 36.5324 45.6336 36.1364 45.6596C33.0886 45.864 30.2176 45.9196 27.1754 45.5573C25.9938 45.4165 24.8252 45.1636 23.6603 44.9349C23.2856 45.4434 23.2579 46.0667 23.1376 46.6461C23.5391 46.9169 24.1202 47.0335 24.5976 47.159C28.578 48.2011 32.9184 47.8684 36.9543 47.2595C38.0914 47.0882 39.248 46.8801 40.3472 46.5573H40.3463Z" fill="#643826"/>
<path d="M37.663 56.1532C37.5927 55.9891 37.1514 55.0985 37.0552 55.0779C36.6601 55.2035 36.438 55.5577 36.1197 55.7792C33.691 57.4679 30.6506 58.1253 27.7231 57.4025C27.1282 57.2554 26.5739 56.9827 25.9707 56.8635C25.6006 57.3424 25.521 57.8688 25.3572 58.3952C28.677 60.1655 32.3734 59.588 35.5368 57.8141C36.3279 57.3702 37.0848 56.8419 37.663 56.1532Z" fill="#643826"/>
<path d="M48.9511 71.399C50.4657 70.9847 51.5464 69.7489 52.8371 68.9776C53.4117 66.7508 52.4994 64.3052 51.1541 62.4928C50.97 62.2452 50.7673 61.9959 50.5249 61.804C51.6445 64.968 50.8488 68.6727 48.9511 71.399Z" fill="#89573D"/>
<path d="M26.2825 65.6594C27.1504 67.8091 28.3106 69.505 30.1195 71.043C31.1188 71.8923 31.5342 72.0447 32.8989 72.1156C34.1517 72.181 35.3601 71.9658 36.5528 71.6681C34.2665 71.0116 32.0588 70.3273 30.0473 69.0503C28.6854 68.1848 27.6398 67.1311 26.6193 65.9159C26.5203 65.7984 26.4907 65.646 26.2825 65.6594Z" fill="#643826"/>
<path d="M37.8481 72.1165C37.2014 72.1443 36.5676 72.4205 35.9236 72.538C34.8447 72.7353 33.7641 72.7747 32.6667 72.7451C32.7185 72.8824 32.9915 72.9864 33.1275 73.0599C35.3805 74.267 38.0341 75.0697 40.6229 75.076L39.05 72.3864C38.8307 72.0743 38.2099 72.1021 37.8472 72.1174L37.8481 72.1165Z" fill="#643826"/>
<path d="M18.5104 48.0819L19.2506 49.9652C20.1194 49.5168 21.0622 49.1625 21.8839 48.6164L22.303 45.6605L18.5104 48.0819Z" fill="#643826"/>
<path d="M4.26249 47.455C2.86259 47.3303 2.38702 45.8605 2.59613 44.6749C1.01117 44.735 0.460651 46.8837 1.26099 47.9877C2.16959 49.2405 4.17183 49.28 4.2625 47.4559L4.26249 47.455Z" fill="#89573D"/>
<path d="M48.9511 71.399C48.2294 72.4366 47.2995 73.3308 46.3604 74.1783C49.1037 73.5397 52.109 71.7972 52.8371 68.9776C51.5464 69.7489 50.4657 70.9847 48.9511 71.399Z" fill="#643826"/>
<path d="M52.9297 46.7357C53.1989 46.8003 53.4941 46.9357 53.7161 47.0963C54.1371 47.3994 54.3296 47.8837 54.733 48.1724C55.227 47.4711 55.8275 47.0147 56.6316 46.6909C55.8988 45.2506 53.5792 45.2291 52.9297 46.7366L52.9297 46.7357Z" fill="#89573D"/>
<path d="M43.4921 72.4752C43.7253 72.8483 44.2434 73.9092 44.5062 74.137C44.9818 74.5495 46.068 73.4976 46.4538 73.1496C46.8101 72.8277 47.0145 72.5003 47.2856 72.2071L43.4921 72.4761V72.4752Z" fill="#643826"/>
<path d="M25.7273 31.7599C27.0801 31.7939 28.5392 31.7993 29.891 31.7599H25.7273Z" fill="#FEFEFE"/>
<path d="M37.8481 72.1165C38.2108 72.1012 38.8316 72.0734 39.0509 72.3855L38.7123 71.7667C38.5883 71.7317 37.9184 71.9335 37.8481 72.1165Z" fill="#89573D"/>
<path d="M32.02 14.8101C31.8284 11.5762 35.6312 12.6353 37.6408 13.0837C39.4099 13.4783 40.8838 13.8711 42.4114 14.9168L43.5846 15.7966C43.5606 14.9912 42.4845 14.3491 41.8202 13.9653C39.8846 12.8478 35.4767 11.569 33.2968 12.0568C31.6443 12.4263 31.3232 13.5778 31.3269 15.08C25.8985 17.5534 26.9644 24.9512 32.502 26.6731C35.5405 27.6175 39.1379 27.3135 41.8887 25.7664C45.2945 23.8509 45.0965 19.4654 42.2902 17.096C39.7106 14.9177 36.2021 13.8953 32.8286 14.5643C32.6806 14.5939 32.0588 14.8531 32.019 14.8101H32.02ZM35.7385 15.0163C38.5615 15.2423 42.3929 17.0342 43.4699 19.7192C46.4668 27.1861 31.0485 29.3519 28.6844 22.3917C27.0736 17.6503 31.1687 14.6513 35.7376 15.0172L35.7385 15.0163Z" fill="#090C0B"/>
<path d="M46.3807 4.07341C44.4599 3.85011 43.444 4.91104 42.7353 6.4984C42.6011 6.79793 42.0672 8.24898 42.12 8.46959C42.1459 8.57721 42.2948 8.68662 42.3911 8.7485C43.1081 9.20767 44.3174 9.59599 45.128 10.0417C46.2022 10.6318 47.3865 11.4542 48.2951 12.2631C48.5023 12.4479 48.9502 13.1743 49.2573 13.0963C50.9792 11.4524 51.6306 9.29377 50.5758 7.09388C49.893 5.67064 48.0138 4.26264 46.3826 4.07341H46.3807ZM44.5386 5.0635C44.7986 4.85364 45.9718 4.67966 46.3169 4.69132C46.9248 4.71194 48.2312 5.45809 48.7179 5.84462C50.9404 7.60865 50.896 10.3798 49.1824 12.4775C47.3967 10.5628 45.1243 9.29018 42.6705 8.34225C42.5336 8.13419 43.2229 6.68135 43.3839 6.40961C43.6105 6.02757 44.1999 5.33702 44.5386 5.0635Z" fill="#090C0B"/>
<path d="M30.0769 26.1099C29.7651 26.4462 31.277 27.3861 31.5287 27.5269C33.3394 28.5394 35.832 28.7358 37.8944 28.6192C38.9288 28.5609 40.275 28.421 41.0855 27.7681C40.9727 27.6076 40.8496 27.6291 40.6757 27.6318C40.0141 27.6408 39.0981 27.9511 38.3625 27.9968C36.3057 28.1242 33.9334 28.0444 32.0505 27.2013C31.3473 26.8866 30.7866 26.3987 30.0779 26.1099L30.0769 26.1099Z" fill="#090C0B"/>
<path d="M13.3207 20.5138C13.3207 22.0581 14.6123 23.311 16.2065 23.311C17.8007 23.311 19.0924 22.059 19.0924 20.5138C19.0924 18.9686 17.8007 17.7166 16.2065 17.7166C14.6123 17.7166 13.3207 18.9686 13.3207 20.5138ZM14.5281 20.2959C14.5281 19.8726 14.8816 19.53 15.3183 19.53C15.755 19.53 16.1085 19.8726 16.1085 20.2959C16.1085 20.7192 15.755 21.0618 15.3183 21.0618C14.8816 21.0618 14.5281 20.7192 14.5281 20.2959Z" fill="#090C0B"/>
<path d="M35.7385 15.0163C31.1697 14.6513 27.0745 17.6494 28.6854 22.3908C31.0494 29.351 46.4677 27.1861 43.4708 19.7183C42.3929 17.0333 38.5615 15.2414 35.7395 15.0154L35.7385 15.0163ZM33.7974 17.974C38.7622 18.5229 37.2402 25.6839 32.4826 24.0015C28.6613 22.65 29.8086 17.5328 33.7974 17.974Z" fill="#FEFEFE"/>
<path d="M44.5386 5.0635C44.199 5.33702 43.6096 6.02757 43.3839 6.40961C43.2229 6.68135 42.5336 8.13419 42.6705 8.34225C45.1243 9.29018 47.3967 10.5628 49.1824 12.4775C50.895 10.3798 50.9394 7.60865 48.7179 5.84462C48.2312 5.45809 46.9248 4.71194 46.3169 4.69132C45.9718 4.67966 44.7986 4.85454 44.5386 5.0635Z" fill="#DC95AD"/>
<path d="M15.3183 21.0618C14.8816 21.0618 14.5281 20.7192 14.5281 20.2959C14.5281 19.8726 14.8816 19.53 15.3183 19.53C15.755 19.53 16.1085 19.8726 16.1085 20.2959C16.1085 20.7192 15.755 21.0618 15.3183 21.0618Z" fill="#FEFEFE"/>
<path d="M32.4826 24.0015C28.6613 22.65 29.8086 17.5328 33.7974 17.974C38.7622 18.5238 37.2402 25.6839 32.4826 24.0015ZM31.7128 20.7676C31.7128 20.3066 32.0986 19.9327 32.5742 19.9327C33.0498 19.9327 33.4356 20.3066 33.4356 20.7676C33.4356 21.2286 33.0498 21.6025 32.5742 21.6025C32.0986 21.6025 31.7128 21.2286 31.7128 20.7676Z" fill="#090C0B"/>
<path d="M32.5742 21.6025C32.0986 21.6025 31.7128 21.2286 31.7128 20.7676C31.7128 20.3066 32.0986 19.9327 32.5742 19.9327C33.0498 19.9327 33.4356 20.3066 33.4356 20.7676C33.4356 21.2286 33.0498 21.6025 32.5742 21.6025Z" fill="#FEFEFE"/>
</svg>
