<svg width="39" height="56" viewBox="0 0 39 56" fill="none" xmlns="http://www.w3.org/2000/svg">
<path d="M15.1853 54.883C14.5098 54.5116 13.924 54.2771 13.4945 54.1285C12.7526 53.8744 12.405 53.8431 12.1668 53.5187C11.8427 53.0769 12.0106 52.4866 12.1121 51.9667C12.1902 51.5562 12.1473 50.5476 12.0575 48.5344C11.9637 46.3765 11.7139 45.8213 11.8896 44.2146C11.9716 43.4875 12.0145 43.1161 12.2215 42.7174C12.6471 41.9043 13.3656 41.5211 15.3181 40.7237C18.6607 39.3593 18.442 39.7033 19.4143 39.117C20.7186 38.3312 21.1638 37.6783 22.2377 37.6783C22.8546 37.6783 23.5223 37.8934 24.0651 38.0654C24.7407 38.2843 25.2796 38.5345 25.6583 38.7339C22.1673 44.1169 18.6763 49.5 15.1892 54.883H15.1853Z" fill="#663E16" stroke="black" stroke-width="1.67297" stroke-linecap="round" stroke-linejoin="round"/>
<path d="M25.6545 38.7336C25.0141 38.331 24.1941 39.277 21.8824 40.4342C17.9618 42.3927 15.6149 42.0252 14.998 43.7375C14.8691 44.0893 14.9823 44.0659 15.0917 45.7195C15.2283 47.7953 15.162 49.574 15.0917 51.5756C14.994 54.2573 14.8496 54.6404 15.1854 54.8789C15.9664 55.4301 17.3682 53.7843 21.035 51.9508C24.2214 50.3598 25.1468 50.6139 25.8458 49.402C26.6073 48.0807 25.7599 47.3379 25.7521 43.6398C25.7443 40.4967 26.3535 39.1637 25.6584 38.7297L25.6545 38.7336Z" fill="#80521A" stroke="black" stroke-width="1.67297" stroke-linecap="round" stroke-linejoin="round"/>
<path d="M25.9355 46.4153C25.2834 46.8688 24.2721 47.5334 22.9561 48.2019C21.7573 48.8117 20.9333 49.1049 19.469 49.6991C18.4264 50.1213 16.9191 50.7468 15.0916 51.5795" stroke="black" stroke-width="1.67297" stroke-linecap="round" stroke-linejoin="round"/>
<path d="M21.5346 47.4944C21.3121 47.4162 21.2066 47.596 20.6092 47.7915C19.9141 48.0182 19.7149 47.8892 19.5743 48.0886C19.3791 48.3661 19.7344 48.6515 19.8086 49.5624C19.8516 50.0979 19.754 50.3169 19.9063 50.4185C20.082 50.5397 20.3085 50.309 21.0543 50.0471C21.7026 49.8204 21.8548 49.879 22.0149 49.6757C22.2492 49.3747 22.1516 48.9408 22.0501 48.4912C21.9563 48.069 21.8509 47.5999 21.5307 47.4905L21.5346 47.4944Z" fill="#FFCC00" stroke="black" stroke-width="1.39414" stroke-linecap="round" stroke-linejoin="round"/>
<path d="M20.906 39.3865C20.8787 38.5499 20.7538 37.5179 20.2422 37.3498C19.9259 37.2481 19.6877 37.5413 19.02 37.9049C17.4931 38.7376 16.6184 38.3584 16.2084 38.9799C16.0053 39.2927 15.896 39.883 16.5403 41.1261" fill="#663E16"/>
<path d="M20.906 39.3865C20.8787 38.5499 20.7538 37.5179 20.2422 37.3498C19.9259 37.2481 19.6877 37.5413 19.02 37.9049C17.4931 38.7376 16.6184 38.3584 16.2084 38.9799C16.0053 39.2927 15.896 39.883 16.5403 41.1261" stroke="black" stroke-width="1.67297" stroke-linecap="round" stroke-linejoin="round"/>
<path d="M22.6398 24.1325C22.7452 24.6133 22.8936 25.3366 23.0342 26.2201C23.7176 30.5398 23.0342 31.1848 22.8311 31.3451C22.7686 31.3959 22.4211 31.6696 22.1556 31.5562C21.6284 31.3295 22.0307 29.8049 21.9018 28.0535C21.8393 27.1974 21.6284 25.9972 20.9568 24.5704C21.2497 24.5078 21.5542 24.4374 21.8705 24.3553C22.1361 24.285 22.3938 24.2107 22.6359 24.1325H22.6398Z" fill="black" stroke="black" stroke-width="1.67297" stroke-linecap="round" stroke-linejoin="round"/>
<path d="M19.2074 31.6188C19.2621 32.1074 19.3363 32.8424 19.3871 33.7337C19.6292 38.1003 18.8833 38.6711 18.6607 38.8118C18.5944 38.8548 18.2195 39.0933 17.9696 38.9526C17.4658 38.675 18.0203 37.1973 18.075 35.442C18.1023 34.582 18.0125 33.3662 17.4893 31.8807C17.786 31.8494 18.0984 31.8103 18.4225 31.7595C18.6959 31.7165 18.9575 31.6696 19.2074 31.6188Z" fill="black" stroke="black" stroke-width="1.67297" stroke-linecap="round" stroke-linejoin="round"/>
<path d="M8.60551 28.6752C8.66018 29.1638 8.73436 29.8988 8.78512 30.7901C9.02723 35.1567 8.28139 35.7275 8.05881 35.8682C7.99243 35.9112 7.61754 36.1497 7.36763 36.0089C6.86389 35.7314 7.4184 34.2537 7.47307 32.4984C7.5004 31.6384 7.41059 30.4226 6.88733 28.9371C7.1841 28.9058 7.4965 28.8667 7.82061 28.8159C8.09396 28.7729 8.35559 28.726 8.60551 28.6752Z" fill="black" stroke="black" stroke-width="1.67297" stroke-linecap="round" stroke-linejoin="round"/>
<path d="M37.67 21.0403C37.6192 16.2319 33.8509 13.4407 33.273 13.0263C28.9034 9.8989 23.3193 11.3219 19.7268 12.2327C17.7431 12.737 15.5407 13.816 11.1359 15.9778C4.35697 19.3007 3.60334 20.4266 3.29876 21.0012C1.54544 24.3006 2.2249 28.9722 5.05988 31.9354C8.49232 35.5202 13.7991 35.2544 17.212 33.6086C20.1759 32.1817 21.6676 29.7306 22.2299 28.6712C26.0333 31.1809 30.8168 31.1184 34.0618 28.6086C37.6465 25.8409 37.67 21.3921 37.666 21.0364L37.67 21.0403Z" fill="#FFDF00" stroke="black" stroke-width="2.23062" stroke-linecap="round" stroke-linejoin="round"/>
<path d="M22.2337 28.6752C22.3314 28.1904 22.4096 27.5923 22.4096 26.9121C22.4096 26.0325 22.2845 25.2819 22.1438 24.7073" stroke="black" stroke-width="2.23062" stroke-linecap="round" stroke-linejoin="round"/>
<path d="M32.2187 29.711C32.7966 28.2372 33.6597 25.407 33.152 21.9316C32.1875 15.3367 27.0681 11.7597 26.1153 11.1186C25.4202 11.1577 24.6861 11.228 23.9168 11.3297C22.3548 11.5447 20.953 11.8692 19.7346 12.2327C20.9139 12.8504 24.2214 14.7855 26.1582 18.8707C28.7433 24.3163 26.9275 29.4296 26.5683 30.3834C27.4703 30.5359 28.8058 30.6415 30.356 30.3131C31.0823 30.1567 31.7071 29.9378 32.2226 29.711H32.2187Z" fill="black" stroke="black" stroke-width="1.67297" stroke-linecap="round" stroke-linejoin="round"/>
<path d="M10.1401 16.4743C11.4522 16.8809 14.6191 18.0615 17.169 21.2084C20.5546 25.3874 20.4492 30.0746 20.3867 31.263C19.9767 31.7048 19.4261 32.2208 18.7193 32.7212C17.993 33.2333 17.3018 33.5851 16.7355 33.8275C16.8878 32.5453 17.1534 28.8471 14.9744 25.0356C12.2136 20.2116 7.55117 18.7221 6.52026 18.4172C7.07476 18.0966 7.64485 17.7761 8.2384 17.4594C8.88271 17.1115 9.51921 16.7831 10.1401 16.4743Z" fill="black" stroke="black" stroke-width="1.67297" stroke-linecap="round" stroke-linejoin="round"/>
<path d="M2.43567 18.6518C3.5642 18.3039 4.806 19.1052 5.11059 20.2233C5.35269 21.1146 4.98559 22.174 4.23584 22.5806C3.04483 23.2217 1.08069 22.1076 1.00259 20.6729C0.95573 19.8402 1.54925 18.9254 2.43567 18.6557V18.6518Z" fill="white" stroke="black" stroke-width="1.67297" stroke-linecap="round" stroke-linejoin="round"/>
<path d="M6.9773 21.8066C8.10582 21.4587 9.34758 22.26 9.65217 23.3781C9.89427 24.2694 9.52721 25.3288 8.77747 25.7354C7.58646 26.3765 5.62231 25.2624 5.54421 23.8277C5.49736 22.995 6.09088 22.0802 6.9773 21.8105V21.8066Z" fill="white" stroke="black" stroke-width="1.67297" stroke-linecap="round" stroke-linejoin="round"/>
<path d="M29.2784 27.858C29.3838 28.3389 29.5322 29.0621 29.6728 29.9456C30.3562 34.2653 29.6728 34.9103 29.4697 35.0706C29.4072 35.1214 29.0597 35.3951 28.7942 35.2817C28.267 35.055 28.6693 33.5304 28.5404 31.779C28.4779 30.9229 28.267 29.7227 27.5953 28.2959C27.8882 28.2333 28.1928 28.163 28.5091 28.0809C28.7747 28.0105 29.0324 27.9362 29.2745 27.858H29.2784Z" fill="black" stroke="black" stroke-width="1.67297" stroke-linecap="round" stroke-linejoin="round"/>
<path opacity="0.58" d="M19.8988 15.4071C19.8988 13.5893 19.6606 10.6261 18.1689 7.43612C17.6652 6.35716 15.041 0.735638 12.4091 1.15002C10.2341 1.49013 8.55103 5.78251 9.3242 9.05456C9.5585 10.0514 11.2103 11.7754 14.5139 15.2234C14.9981 15.7277 15.7751 16.5173 16.8295 16.5486C17.5207 16.5682 18.2548 16.2632 18.6492 16.0951C19.1881 15.8684 19.6098 15.6065 19.8988 15.4071Z" fill="white" stroke="black" stroke-width="1.67297" stroke-linecap="round" stroke-linejoin="round"/>
<path opacity="0.58" d="M22.6478 15.5009C23.9286 14.6213 26.3067 12.6824 27.4118 9.39858C27.6148 8.80046 29.2823 3.83569 26.8886 1.83414C25.803 0.927195 24.1121 0.81774 22.925 1.22821C19.6293 2.37754 18.0126 8.34308 18.6452 16.0912C19.3715 15.9427 20.1447 15.8098 20.953 15.6964C21.5349 15.6143 22.1011 15.5518 22.6438 15.5009H22.6478Z" fill="white" stroke="black" stroke-width="1.67297" stroke-linecap="round" stroke-linejoin="round"/>
</svg>
