<svg width="76" height="79" viewBox="0 0 76 79" fill="none" xmlns="http://www.w3.org/2000/svg">
<path d="M64.4613 56.3968C64.4694 56.325 64.4919 56.26 64.5121 56.1912C64.7702 55.2893 64.7859 55.2386 65.6182 55.4667C66.1753 55.6139 66.7642 55.5155 67.2677 55.6591C68.627 56.0526 69.5631 55.3278 70.5387 54.6512C71.0309 54.3076 71.1597 53.8903 70.9301 53.3652C70.1606 51.5968 69.1372 50.0383 67.2721 49.2248C66.8259 49.0312 66.4051 48.7604 65.9432 48.6175C64.3956 48.1422 62.846 47.7659 61.1918 48.0599C60.4708 48.1866 60.0283 48.5104 59.799 49.1531C59.6866 49.4782 59.6755 49.8348 59.6176 50.1734C60.1903 51.5564 60.5283 52.9937 60.6941 54.4783C60.6828 54.4851 60.6738 54.4956 60.6624 54.5025C60.5976 54.557 60.5457 54.6244 60.5104 54.7023C60.4614 54.7319 60.4185 54.7631 60.3778 54.7979C60.3899 54.8009 60.3959 54.8024 60.4057 54.8016C60.4382 54.7871 60.4706 54.7727 60.503 54.7583C60.4814 55.1315 60.3305 55.4439 60.0986 55.7074L60.1009 55.7112C60.0173 55.8028 59.9254 55.8892 59.8289 55.968C59.6704 55.4926 59.6381 55.013 59.7734 54.5299C60.0429 53.1272 59.8111 51.8316 59.0025 50.6374C58.7431 50.2589 58.4103 49.8527 58.7186 49.3322C59.0315 48.6235 59.4096 47.9373 59.6296 47.2025C59.8556 46.4691 59.8813 45.6766 60.0665 44.9268C60.2427 44.2132 60.0705 43.4167 60.4416 42.6936C62.3561 43.0862 64.1537 43.2767 65.9852 42.9271C67.0112 42.7346 67.8531 42.3394 68.4005 41.448C68.5366 41.2218 68.7018 40.8648 68.6174 40.6739C68.1879 39.7241 67.8651 38.5761 66.8909 38.1045C64.229 36.8151 61.43 35.8863 58.4433 35.6523C57.3977 35.5737 56.3993 35.6672 55.4547 36.3097C55.4674 35.206 55.1113 34.3097 55.1131 33.3156C55.115 32.3985 54.4428 31.3792 53.6279 30.8731C52.6948 30.2994 51.5676 29.9665 50.4187 29.9554C49.5975 29.9418 48.9788 30.4595 48.347 30.8873C47.9475 31.1544 47.6571 31.5767 47.1164 31.6356C45.4513 31.8179 43.9039 32.4847 42.2885 32.8685C42.1542 32.646 41.989 32.4833 41.9583 32.2961C41.4831 29.3364 39.8607 27.0076 37.972 24.7831C36.8988 23.5171 35.6639 22.5031 34.1274 21.944C33.3743 21.6681 32.9854 21.1775 32.6475 20.5583C32.3385 20.0039 32.1215 19.389 31.7461 18.8952C30.4618 17.2114 28.9378 15.7442 27.2873 14.4255C26.6831 13.9362 25.9783 13.6466 25.1803 13.5522C23.8633 13.3905 23.8611 13.4124 23.1442 14.7303C22.7647 15.4225 22.55 16.1491 22.2997 16.8765C21.8645 18.1581 21.9098 19.4942 21.8984 20.8131C21.8935 21.4695 21.671 21.8509 21.1288 22.1629C19.9704 22.8263 18.8219 23.5148 17.6931 24.2273C16.924 24.7174 16.2362 24.8395 15.3707 24.3434C13.5124 23.2685 11.4288 22.911 9.31497 22.7932C7.65363 22.7004 6.32611 24.1915 6.74831 25.7683C7.01402 26.7706 7.27604 27.801 7.87007 28.708C8.59765 29.8277 9.23099 31.0043 9.95253 32.1225C10.2909 32.6488 10.3376 33.1351 10.1746 33.7172C9.9854 34.3923 9.73658 35.088 9.73777 35.7716C9.74113 38.2907 9.96048 40.7927 10.5476 43.2475C11.2372 44.0402 10.7894 45.1647 11.3969 46.0173C12.131 47.0456 12.7212 48.1762 13.3807 49.2598C13.597 49.618 13.8321 49.9391 14.2112 50.1836C16.2174 51.4779 18.2812 52.6036 20.6546 53.1256C23.2411 53.6939 25.8064 53.7244 28.3806 53.1475C29.3258 52.9318 29.2917 52.9266 29.4995 53.7479C30.0869 56.0327 30.042 58.3186 29.655 60.6259C29.4648 61.7595 29.5132 61.7714 28.3806 61.9151C26.6514 62.1361 25.8045 63.162 25.5055 64.7885C25.4333 65.1973 25.3704 65.647 25.1478 65.9769C24.3429 67.1833 24.7009 68.2277 25.4502 69.2725C25.7331 69.6728 25.9293 70.1512 26.448 70.3114C27.5155 70.6392 28.5815 70.973 29.6595 71.2585C30.5175 71.4865 31.4235 71.351 32.0573 70.7985C33.4098 69.6216 34.5969 68.1535 34.2788 66.272C34.0437 64.8858 34.3092 63.6554 34.5374 62.3547C34.7567 61.116 34.9775 59.8713 34.8832 58.5904C34.8322 57.9009 34.9578 57.1973 35.0101 56.4403C35.3433 56.4809 35.6094 56.5466 35.8723 56.5473C36.7938 56.5311 37.2876 56.9996 37.4933 57.8685C37.6645 58.578 38.0981 59.1086 38.6629 59.5753C39.2573 60.0653 39.8479 60.5834 40.3323 61.181C41.2669 62.3198 42.6071 62.8946 43.8668 63.3276C46.1275 64.0977 48.4988 64.4204 50.9235 63.8515C52.8711 63.3957 54.7183 62.7227 56.2003 61.3853C56.7993 60.8435 57.3102 60.6585 58.0431 60.7304C58.949 60.8162 59.9055 60.8664 60.7279 60.5242C62.5907 59.7491 64.1799 58.6403 64.4613 56.3968ZM52.2956 39.2155C53.1122 38.7018 53.9706 38.2658 54.8537 37.7685C55.3334 39.892 55.4025 41.8981 55.2383 43.9268C55.2149 44.2033 55.2218 44.4873 55.1787 44.7654C54.9687 46.0962 54.6388 46.4189 53.227 46.1344C50.7623 45.6315 48.3665 45.7455 45.8605 46.6568C45.4919 45.3307 44.9892 44.3788 44.1574 43.5639C43.6302 43.0487 43.0606 42.4974 43.0958 41.6014C43.1392 40.3866 43.2552 39.1898 43.9616 38.1869C44.6606 37.1886 45.8249 37.0206 46.9272 36.8437C47.2179 36.7968 47.3872 37.1113 47.5367 37.3504C47.9746 38.0584 48.3347 38.7826 49.1412 39.232C50.2435 39.8475 51.2309 39.8893 52.2956 39.2155Z" fill="#FEFEFE"/>
<path d="M64.4615 56.3969C64.4696 56.3251 64.4921 56.2601 64.5123 56.1913C64.7703 55.2894 64.786 55.2388 65.6184 55.4668C66.1755 55.614 66.7644 55.5156 67.2679 55.6592C68.6272 56.0527 69.5633 55.3279 70.5388 54.6514C71.0311 54.3078 71.1599 53.8905 70.9302 53.3654C70.1608 51.597 69.1374 50.0385 67.2723 49.2249C66.8261 49.0313 66.4053 48.7606 65.9434 48.6176C64.3958 48.1423 62.8462 47.766 61.192 48.06C60.471 48.1867 60.0285 48.5105 59.7992 49.1532C59.6868 49.4784 59.6757 49.8349 59.6178 50.1735C60.1905 51.5565 60.5284 52.9938 60.6943 54.4784C60.683 54.4852 60.6739 54.4958 60.6626 54.5026C60.6732 54.5116 60.674 54.5215 60.6808 54.5328C60.7516 54.701 60.6993 54.9127 60.6516 55.1575C60.557 55.6058 60.4301 56.1455 61.0032 56.3191C61.0659 56.3378 61.1422 56.3534 61.2299 56.3623L61.2322 56.366C61.4216 56.3134 61.5921 56.2207 61.736 56.0927C61.8579 55.9367 61.9572 55.7687 62.0276 55.5873C62.0599 55.4958 62.0944 55.408 62.1243 55.3128C62.185 55.1321 62.2434 54.9476 62.2836 54.7586C62.3098 54.6656 62.336 54.5727 62.3584 54.482C62.4085 54.2922 62.4548 54.1048 62.4829 53.9128C62.5565 53.4979 62.5886 53.0824 62.5119 52.6656C62.0753 50.2897 62.5478 49.8963 64.8932 50.6873C65.2894 50.8237 65.694 50.9653 66.0474 51.1841C66.904 51.7165 68.58 52.2171 68.1278 53.1127C67.5727 54.2043 65.9892 53.5758 64.9144 53.1082C62.8066 52.1994 62.8217 52.1647 62.6911 54.6155C62.5462 57.3065 61.7229 58.133 59.0729 58.6269C57.6709 58.887 56.2911 58.1869 54.9224 58.715C54.8983 58.7347 54.8742 58.7545 54.8538 58.7719C54.8116 58.8128 54.7732 58.8514 54.7393 58.8976C54.7393 58.8976 54.7378 58.9036 54.7356 58.8999C54.6144 59.04 54.531 59.2087 54.4703 59.3894C54.4688 59.3954 54.465 59.3976 54.4635 59.4037C54.4568 59.4181 54.4561 59.434 54.4493 59.4483C53.6159 61.2122 51.9093 61.4195 50.3508 61.8975C50.1176 61.9715 49.8904 62.0469 49.6663 62.1359C49.4468 62.2325 49.2369 62.2512 49.0389 62.2216C48.8696 62.2054 48.7033 62.1515 48.5414 62.0794C48.4839 62.0524 48.4287 62.0291 48.369 61.9983C48.2971 61.9645 48.2253 61.9308 48.1572 61.8947C46.5974 61.6634 44.9683 61.7519 43.5278 60.9341C43.192 60.8127 42.8954 60.6368 42.6281 60.4072C42.5517 60.3402 42.4752 60.2731 42.3949 60.2084L42.3926 60.2046C42.3373 60.1557 42.2829 60.1166 42.2261 60.0737C42.2178 60.0684 42.2072 60.0594 42.2026 60.0519C42.0467 59.9299 41.8983 59.8035 41.7551 59.6686C41.7173 59.64 41.6832 59.6092 41.6491 59.5783C41.5786 59.5128 41.5022 59.4457 41.4317 59.3802C40.9713 58.9585 40.5582 58.4876 40.1083 58.0492C39.9235 57.8881 39.7478 57.7164 39.5886 57.5295C39.4318 57.3464 39.2877 57.1504 39.1692 56.9287L39.167 56.9249C39.1533 56.9023 39.1434 56.8774 39.1297 56.8547C38.961 56.4987 39.0396 56.2197 39.3895 56.0239C39.7388 55.8695 40.0942 55.7167 40.4245 55.5224C40.8815 55.2567 41.3407 54.9948 41.7356 54.6432C41.9736 54.4068 42.1602 54.1449 42.1939 53.8004C42.1917 53.7966 42.1856 53.7951 42.1833 53.7913C42.1727 53.7823 42.1621 53.7733 42.1478 53.7665C41.9706 53.6265 41.7997 53.5394 41.6364 53.4991C41.4202 53.4393 41.2102 53.4579 41.0095 53.5174C40.4321 53.686 39.9093 54.1921 39.3135 54.2535C39.0342 54.3449 38.7573 54.4401 38.4872 54.5466C38.1378 54.6753 37.7784 54.7277 37.4118 54.666C36.1726 54.5139 34.9625 54.2567 33.9255 53.4937C33.7899 53.38 33.6582 53.2641 33.5302 53.1459C33.3976 53.0201 33.2666 52.8883 33.1393 52.7542C32.5734 52.1749 32.0572 51.5502 31.4695 50.9943C31.4626 50.983 31.452 50.974 31.4414 50.965C31.3824 50.9183 31.3256 50.8754 31.2635 50.8408C31.1129 50.7363 30.9473 50.6665 30.7772 50.6149C30.688 50.5864 30.5912 50.5625 30.499 50.5461C30.332 50.5081 30.1605 50.4882 29.9852 50.4705C29.9633 50.4683 29.9512 50.4654 29.9353 50.4647C29.9315 50.4669 29.9255 50.4654 29.9255 50.4654C29.8499 50.4596 29.7766 50.4575 29.7034 50.4555C29.4835 50.4493 29.263 50.459 29.0448 50.4982C19.5939 53.0306 13.5127 49.1546 12.4245 39.9224C12.3704 39.7647 12.3224 39.6085 12.2804 39.4538L12.2781 39.45C12.0355 38.588 11.962 37.7165 12.0328 36.8454C12.0766 36.3044 12.1778 35.7648 12.3258 35.2175C12.5957 34.2415 13.0106 33.25 12.6073 32.2072L12.605 32.2035C12.605 32.2035 12.6012 32.1801 12.5944 32.1688C12.5625 32.116 12.5306 32.0632 12.4987 32.0104C12.4987 32.0104 12.498 32.0091 12.4964 32.0066C12.3455 31.7736 12.1553 31.5695 11.984 31.3539C11.9354 31.2906 11.8892 31.2311 11.8445 31.1655L11.7625 31.0298C11.2229 30.1362 10.6192 29.2813 10.121 28.3626C10.0633 28.2585 10.0056 28.1545 9.95398 28.0519L9.9517 28.0481C9.78762 27.7253 9.64317 27.4009 9.51679 27.0553C8.97733 25.148 9.1234 24.9723 10.9947 25.319C12.2886 25.5616 13.5354 25.9818 14.7882 26.3778C14.9575 26.4197 15.1314 26.4691 15.3037 26.4988C15.3301 26.5085 15.3581 26.5122 15.3861 26.5159L15.4042 26.5204C15.6023 26.5757 15.8056 26.6228 16.0111 26.6479C16.1676 26.6769 16.3202 26.6825 16.4697 26.6745C16.6865 26.6671 16.8964 26.6227 17.0948 26.5594L17.1024 26.5549C17.6073 26.394 18.0657 26.0966 18.5386 25.8317C19.691 25.1924 20.7309 24.3328 22.0436 23.9929C23.3552 23.5662 24.0635 22.6857 24.092 21.2844C24.0964 21.2149 24.0947 21.1439 24.0952 21.0767C24.101 20.9755 24.1045 20.8704 24.1102 20.7692C24.1216 20.2427 24.139 19.7177 24.2259 19.197C24.3907 18.1918 24.1103 16.8072 25.2211 16.4143C26.4451 15.9788 27.0796 17.3193 27.8741 18.0384C28.0082 18.1838 28.1461 18.327 28.2907 18.4557C28.6208 18.7297 28.8522 19.0788 29.0798 19.4302C29.1276 19.5093 29.1754 19.5885 29.2308 19.6631C29.2354 19.6707 29.246 19.6797 29.2505 19.6873C30.5282 21.1385 31.3486 23.0254 33.0775 24.0395C37.1815 26.439 39.5263 29.9471 40.0881 34.6606C40.1579 35.066 40.2414 35.4684 40.223 35.8809C40.2227 36.0509 40.2609 36.2078 40.3399 36.3557C40.3543 36.3881 40.3748 36.422 40.393 36.4522C40.3991 36.4537 40.4013 36.4575 40.4074 36.459C40.5784 36.5718 40.7515 36.6113 40.9207 36.6018C41.0113 36.5985 41.0966 36.5779 41.1834 36.5512C41.3049 36.5138 41.4211 36.4592 41.5388 36.3984C41.7039 36.2884 41.8659 36.1648 42.0068 36.0231C42.8838 35.226 43.8299 34.5518 45.0288 34.3218C46.7175 33.94 48.4471 33.8732 49.9599 32.723C51.1749 31.8041 52.3794 32.4865 52.6006 34.0201C52.6814 34.5629 52.994 35.0636 52.9134 35.6628C52.3284 35.8103 51.5672 35.6062 51.214 36.2569C50.3341 37.8842 49.888 36.9495 49.5959 35.9631C49.2435 34.7661 48.4474 34.5213 47.3552 34.5531C42.6428 34.6821 39.1136 40.2554 41.0798 44.4913C41.2029 44.7462 41.3443 45.057 41.6081 45.119C43.3784 45.5626 43.6553 47.0522 44.028 48.4788C44.1001 48.6153 44.1896 48.7209 44.2873 48.8059C44.3342 48.8496 44.3804 48.8835 44.4341 48.9128C44.5484 48.9827 44.6747 49.0299 44.8054 49.059C44.9347 49.0942 45.0684 49.1111 45.2067 49.11C45.2346 49.1137 45.2626 49.1174 45.2883 49.1174C45.4643 49.1191 45.6387 49.1012 45.8078 49.066C45.8078 49.066 45.8509 49.0606 45.8682 49.0553C45.9128 49.0438 45.9633 49.0338 46.0056 49.0186C46.0871 49.0002 46.1664 48.9781 46.2456 48.956C46.3573 48.9194 46.469 48.8829 46.5822 48.8402C46.6169 48.8296 46.6494 48.8151 46.6841 48.8044C47.8982 48.3697 49.1301 48.0323 50.4391 48.2915C50.4882 48.2875 50.5335 48.2859 50.5826 48.282C50.6574 48.278 50.7336 48.268 50.8099 48.2579C50.816 48.2594 50.8197 48.2571 50.8235 48.2549C50.8824 48.2502 50.9428 48.2394 51.0032 48.2287C51.0659 48.2217 51.1308 48.2185 51.1958 48.2153C53.3142 48.068 54.9653 48.7998 55.8851 50.8685C56.1071 51.3724 56.2265 51.928 56.7072 52.2809C56.7919 52.3275 56.8774 52.3582 56.9627 52.3633C56.9809 52.3678 56.9968 52.3685 57.0104 52.3654C57.0738 52.3683 57.1402 52.359 57.2082 52.3437C57.2692 52.2914 57.3227 52.2437 57.38 52.1937C57.3875 52.1891 57.3966 52.1785 57.4079 52.1717C57.4425 52.1353 57.4832 52.1005 57.5179 52.0641C57.5247 52.0754 57.5361 52.12 57.5568 52.2053C57.5759 52.2709 57.5912 52.3389 57.6042 52.4031C57.8617 53.4259 57.8782 54.4501 57.7096 55.4832C57.6896 55.6033 57.6657 55.7258 57.6419 55.8482C57.6354 55.9396 57.6213 56.0356 57.6148 56.127C57.6105 56.2222 57.6002 56.3159 57.5997 56.4088C57.6 56.7843 57.4749 57.1736 57.5818 57.5465C57.5986 57.6084 57.6214 57.6717 57.6578 57.732C57.6631 57.7494 57.6745 57.7683 57.6836 57.7833C57.7593 57.8405 57.8388 57.8955 57.9145 57.9527C58.096 58.0232 58.2804 58.0559 58.4776 58.05C58.6655 58.0034 58.8413 57.9282 59.0004 57.8167C59.0388 57.778 59.0772 57.7394 59.111 57.6932C59.2436 57.5463 59.3444 57.398 59.4414 57.2262L59.4564 57.2171C59.6745 56.8539 59.8365 56.4576 60.0106 56.0643C60.045 55.9509 60.0772 55.8338 60.0995 55.7174C60.0197 55.8067 59.9278 55.8931 59.8313 55.9719C59.6729 55.4965 59.6405 55.0169 59.7759 54.5338C60.0454 53.1311 59.8136 51.8355 59.0049 50.6413C58.7455 50.2628 58.4128 49.8566 58.721 49.3361C59.034 48.6274 59.412 47.9412 59.632 47.2064C59.858 46.473 59.8837 45.6805 60.0689 44.9307C60.2452 44.2171 60.073 43.4207 60.4441 42.6975C62.3586 43.0901 64.1561 43.2806 65.9877 42.931C67.0137 42.7385 67.8556 42.3433 68.403 41.452C68.539 41.2257 68.7042 40.8687 68.6198 40.6778C68.1904 39.728 67.8676 38.58 66.8933 38.1084C64.2315 36.819 61.4324 35.8902 58.4458 35.6562C57.4001 35.5776 56.4018 35.6711 55.4571 36.3136C55.4698 35.2099 55.1138 34.3136 55.1155 33.3195C55.1174 32.4024 54.4453 31.3831 53.6303 30.877C52.6973 30.3033 51.5701 29.9704 50.4211 29.9593C49.6 29.9457 48.9813 30.4634 48.3495 30.8912C47.9499 31.1583 47.6595 31.5806 47.1188 31.6395C45.4538 31.8218 43.9064 32.4886 42.2909 32.8724C42.1566 32.6499 41.9915 32.4872 41.9607 32.3C41.4855 29.3403 39.8632 27.0115 37.9745 24.787C36.9013 23.521 35.6664 22.507 34.1299 21.9479C33.3767 21.672 32.9878 21.1814 32.6499 20.5622C32.3409 20.0078 32.1239 19.3929 31.7486 18.8992C30.4642 17.2153 28.9402 15.7481 27.2898 14.4294C26.6856 13.9401 25.9807 13.6505 25.1828 13.5561C23.8657 13.3944 23.8635 13.4163 23.1466 14.7342C22.7671 15.4265 22.5524 16.153 22.3022 16.8804C21.8669 18.162 21.9122 19.4981 21.9009 20.817C21.8959 21.4734 21.6734 21.8548 21.1312 22.1668C19.9728 22.8303 18.8244 23.5187 17.6956 24.2312C16.9265 24.7213 16.2387 24.8434 15.3731 24.3473C13.5149 23.2724 11.4313 22.9149 9.31741 22.7971C7.65608 22.7043 6.32855 24.1954 6.75075 25.7722C7.01646 26.7746 7.27848 27.8049 7.87251 28.7119C8.60009 29.8316 9.23341 31.0082 9.95494 32.1264C10.2933 32.6527 10.3401 33.139 10.177 33.7211C9.98784 34.3962 9.73902 35.0919 9.74021 35.7755C9.74358 38.2946 9.96292 40.7966 10.55 43.2514C11.2397 44.0441 10.7919 45.1686 11.3994 46.0212C12.1335 47.0495 12.7236 48.1801 13.3831 49.2637C13.5994 49.6219 13.8345 49.943 14.2136 50.1875C16.2198 51.4818 18.2836 52.6074 20.657 53.1295C23.2435 53.6977 25.8089 53.7283 28.3831 53.1514C29.3282 52.9357 29.2942 52.9305 29.502 53.7518C30.0893 56.0366 30.0444 58.3225 29.6574 60.6298C29.4673 61.7634 29.5157 61.7753 28.383 61.919C26.6538 62.14 25.8069 63.1659 25.5079 64.7924C25.4358 65.2012 25.3728 65.6508 25.1502 65.9808C24.3453 67.1871 24.7033 68.2316 25.4526 69.2764C25.7355 69.6767 25.9318 70.1551 26.4504 70.3153C27.5179 70.6431 28.5839 70.977 29.6619 71.2625C30.5199 71.4904 31.426 71.3549 32.0597 70.8024C33.4123 69.6255 34.5993 68.1574 34.2812 66.2759C34.0462 64.8897 34.3116 63.6593 34.5398 62.3586C34.7591 61.1199 34.98 59.8752 34.8857 58.5943C34.8346 57.9048 34.9603 57.2012 35.0125 56.4442C35.3458 56.4848 35.6118 56.5505 35.8747 56.5512C36.7962 56.535 37.2901 57.0035 37.4957 57.8724C37.6669 58.5819 38.1005 59.1125 38.6653 59.5792C39.2597 60.0693 39.8504 60.5873 40.3347 61.1849C41.2693 62.3236 42.6095 62.8985 43.8692 63.3315C46.13 64.1016 48.5012 64.4242 50.9259 63.8553C52.8735 63.3996 54.7207 62.7266 56.2028 61.3892C56.8017 60.8474 57.3126 60.6624 58.0455 60.7343C58.9515 60.8202 59.9079 60.8703 60.7303 60.5281C62.5931 59.7531 64.1823 58.6442 64.4638 56.4007L64.4615 56.3969ZM52.2958 39.2156C53.1124 38.7019 53.9708 38.2659 54.8539 37.7686C55.3335 39.8921 55.4027 41.8982 55.2385 43.9269C55.2151 44.2034 55.2219 44.4874 55.1789 44.7655C54.9689 46.0963 54.639 46.419 53.2271 46.1345C50.7624 45.6316 48.3667 45.7456 45.8607 46.6569C45.4921 45.3308 44.9893 44.379 44.1576 43.564C43.6304 43.0488 43.0608 42.4975 43.096 41.6015C43.1394 40.3867 43.2554 39.1899 43.9618 38.187C44.6607 37.1887 45.825 37.0207 46.9274 36.8439C47.2181 36.797 47.3874 37.1115 47.5369 37.3505C47.9747 38.0585 48.3349 38.7827 49.1414 39.2321C50.2437 39.8477 51.2311 39.8894 52.2958 39.2156Z" fill="#050704"/>
<path d="M60.6254 54.7053C60.5854 54.7243 60.5469 54.7373 60.5069 54.7563C60.4707 54.773 60.4382 54.7874 60.4058 54.8018C60.396 54.8026 60.39 54.8012 60.3779 54.7982C60.4186 54.7633 60.4615 54.7322 60.5105 54.7026C60.5458 54.6247 60.5977 54.5573 60.6625 54.5027C60.6738 54.4959 60.6829 54.4853 60.6942 54.4785C60.6897 54.4967 60.6815 54.5171 60.677 54.5352C60.6598 54.5919 60.6426 54.6486 60.6254 54.7053Z" fill="#5D5C5C"/>
<path d="M29.3997 50.7366C27.571 51.8408 25.5279 51.9168 23.5009 51.7979C20.636 51.6293 18.0407 50.6033 15.7259 48.9088C14.15 47.756 13.0715 46.2514 12.5917 44.3235C12.2341 42.8878 11.9672 41.4488 12.0544 39.9657C12.102 38.3831 11.0532 36.4077 13.5719 35.7049C13.7819 35.6862 13.9791 35.7317 14.1615 35.8377C14.3729 36.0599 14.4938 36.3368 14.5973 36.619C14.7426 36.9789 14.8705 37.3441 14.9811 37.7147C15.1062 38.6631 16.0702 38.9814 16.4839 39.7092C16.5974 40.289 16.2514 40.8067 16.253 41.3717C16.3356 42.2583 16.9893 42.9234 17.1579 43.7735C17.2191 44.5649 17.5183 45.3927 16.8359 46.0775C16.5474 46.1282 16.2912 46.0617 16.0558 45.8848C15.9974 46.095 16.2127 46.0936 16.299 46.1599C17.0355 46.6979 17.9059 46.4862 18.7234 46.5533C19.5772 46.6552 20.2484 47.068 20.752 47.7569C21.2001 48.3713 21.6995 48.9085 22.5207 48.9734C23.1025 49.0337 23.6969 49.004 24.2647 49.186C26.9435 50.069 27.3253 49.9002 28.8954 47.1409C29.0148 46.8784 29.1364 46.6197 29.2558 46.3573C29.4892 45.8407 29.7008 45.3219 29.7241 44.747C29.7978 43.02 28.9236 42.4416 27.347 43.1878C26.2826 43.6917 25.3719 44.5864 24.0663 44.4692C22.9576 44.2692 21.9526 43.883 21.2911 42.8984C21.2023 42.7256 21.1421 42.5407 21.109 42.3497C21.0848 42.071 21.118 41.7937 21.1656 41.5232C21.2704 40.9299 21.3095 40.33 21.301 39.728C21.2899 39.2665 20.9596 38.9411 20.8029 38.5367C20.7645 38.3283 20.7987 38.1378 20.8964 37.9502C21.3379 37.5396 21.9458 37.2342 22.4374 37.4262C24.5169 38.2285 25.6095 36.7404 27.0283 35.7498C28.61 34.6455 29.44 33.285 29.588 31.3999C29.7405 29.4966 30.9948 28.5746 32.7076 28.1731C34.4205 27.7717 35.8696 28.1521 37.0106 29.6241C39.7369 33.1334 39.4256 37.0826 38.2852 40.8945C36.9165 45.4616 33.663 48.62 29.4072 50.732L29.3997 50.7366Z" fill="#F5D795"/>
<path d="M13.8918 35.8514C13.6581 35.9925 13.4251 36.1435 13.1868 36.2771C12.5163 36.6409 12.2111 37.175 12.2579 37.9597C12.2953 38.6266 12.4959 39.3338 12.0521 39.962C11.1488 38.4236 11.3232 36.7953 11.6933 35.1672C11.9051 34.2314 12.1835 33.3121 12.4317 32.3853C12.7339 30.2784 13.8024 28.5373 15.4767 27.3564C17.4971 25.9306 19.5871 24.5604 21.9117 23.63C22.9958 23.3973 23.6241 22.8018 23.549 21.6123C23.5356 21.4197 23.6377 21.214 23.687 21.0144C24.0445 20.5413 24.3595 20.8244 24.6737 21.0721C25.06 21.4562 25.0227 22.1271 25.5809 22.3869C25.9143 22.5045 26.2626 22.536 26.6154 22.5494C27.5681 22.3291 28.6478 22.9583 29.4884 22.1008C29.5935 21.0906 27.9961 20.0897 29.473 19.0846C30.4008 20.2121 31.4122 21.2735 32.0996 22.5821C32.2955 22.9578 32.5938 23.2047 32.9932 23.406C37.5948 25.7263 40.1645 29.4279 40.5206 34.6103C40.5316 34.7477 40.5856 34.8798 40.6162 35.0157C40.5197 35.3415 40.8583 35.6978 40.5412 36.0077C40.4318 36.048 40.3905 36.1245 40.4134 36.2392C40.3452 43.8544 35.8865 49.32 29.9589 50.8619C29.77 50.8217 29.5871 50.7829 29.4019 50.7404C31.0728 49.1448 32.9855 47.8304 34.5684 46.1233C36.6959 43.8352 38.1201 41.2773 38.2727 38.0876C38.3126 37.2506 38.4099 36.4148 38.4513 35.5717C38.5396 33.6558 37.8921 32.0298 36.9298 30.4191C35.553 28.1221 34.1871 28.3398 32.4494 28.7511C31.2333 29.0378 30.0251 29.6954 30.1165 31.5594C30.1445 32.1085 29.9678 32.668 29.8576 33.2182C29.6363 34.3088 29.0699 35.1602 28.069 35.6926C27.0583 36.2257 26.2097 36.9079 25.5795 37.9008C25.1125 38.6356 24.7548 38.7333 23.9823 38.3147C23.1108 37.8428 22.2675 37.7244 21.3636 38.085C21.2028 38.1512 21.1038 38.3705 20.9735 38.5212C20.4146 39.0953 19.6306 38.8536 18.9771 39.0836C18.074 39.1813 17.3766 40.1736 16.3403 39.6931C15.9561 39.534 15.5336 39.4393 15.2029 39.2068C14.7275 38.8712 14.4293 38.403 14.7834 37.7879C15.4942 36.9882 16.9556 37.4229 17.3902 36.1829C17.9164 34.7537 16.9345 33.4429 17.0581 32.0459C17.0558 31.4967 18.1816 32.3811 17.8999 31.3266C17.6708 30.4616 17.3595 29.9035 16.3935 29.9569C14.8566 30.036 14.1027 31.6335 14.78 33.3856C14.9353 34.3671 14.6332 35.1876 13.8933 35.8453L13.8918 35.8514Z" fill="#E6B346"/>
<path d="M44.8817 33.8909C45.7732 33.6973 46.6564 33.4727 47.5579 33.3296C48.202 33.2289 48.6991 32.9955 49.1971 32.525C50.4755 31.3105 51.8309 31.4079 53.0462 32.6962C53.3333 33.0013 53.5806 33.3767 53.0748 33.7491C52.8472 33.9174 52.9747 34.1286 53.0659 34.3051C53.2595 34.6769 53.5068 35.0267 53.6756 35.4084C53.8618 35.8362 53.6892 36.2235 53.4334 36.5837C53.2468 36.8456 52.8804 36.8353 52.6777 36.4741C52.5282 36.2094 52.4156 35.9634 52.0844 36.0966C51.8354 36.1955 51.6101 36.3676 51.4006 36.5404C51.2672 36.6518 51.4057 36.7534 51.468 36.8907C51.7849 37.5689 51.6003 37.9788 51.0126 37.9941C50.064 38.0164 49.3405 37.5426 49.1159 36.6594C48.996 36.1967 48.9998 35.7004 48.9424 35.1537C47.3483 34.8145 45.8643 35.1602 44.4201 35.7338C42.7383 36.3996 41.9408 37.8226 41.6887 39.4671C41.4454 41.0495 41.481 42.6848 41.4554 44.2954C41.4476 44.7683 41.7854 45.0891 42.3128 44.8632C42.7964 44.6587 43.0991 44.8361 43.3924 45.194C44.1982 46.179 44.299 47.3685 44.3885 48.5647C44.7393 50.5345 43.7916 51.9815 42.308 53.0266C41.3611 53.691 40.3682 54.3729 39.2127 54.7002C38.969 54.8165 38.7269 54.9267 38.4832 55.0429C38.15 55.0023 37.8501 55.2555 37.5091 55.1681C36.1996 55.0019 34.8714 54.8984 33.8074 53.9715C32.5668 53.0588 33.1894 52.3175 34.079 51.7031C35.2211 50.9105 36.3837 50.1518 37.378 49.1655C38.5449 48.0133 39.4174 46.7145 39.6 45.0401C39.4794 42.7358 39.5915 40.4505 40.1547 38.1964C40.3676 37.3475 40.7433 36.6575 41.3981 36.0974C41.5083 36.0412 41.5926 35.9594 41.6512 35.852C42.5838 34.9595 43.6773 34.3249 44.887 33.8826L44.8817 33.8909Z" fill="#8E5C3F"/>
<path d="M42.3084 60.6361C42.2288 60.5298 42.1492 60.4235 42.062 60.3218C42.6083 59.0195 44.113 59.0318 45.0244 58.1213C47.5952 55.545 48.1314 53.374 46.5976 50.0245C46.3627 49.5077 46.0916 49.0077 46.3573 48.4253C46.8863 48.2447 47.426 48.099 47.9383 47.8822C48.7675 47.5256 49.5676 47.5981 50.3708 47.9312C53.0377 49.6806 54.2698 53.732 53.0352 57.0554C52.1521 59.4358 51.0882 61.7299 48.1291 62.1636C46.3151 62.5592 44.6722 62.054 43.1031 61.1852C42.7615 61.1137 42.6418 60.728 42.3145 60.6376L42.3084 60.6361Z" fill="#8E5C3F"/>
<path d="M62.0477 54.1807C62.0991 53.4138 62.2239 52.6491 61.7528 51.9456C61.4706 51.5295 61.4186 51.0258 61.421 50.5355C61.4209 50.2372 61.5931 49.9685 61.883 49.9118C62.3556 49.8168 62.8613 49.6915 63.3253 49.7612C65.5282 50.1031 67.4435 51.051 69.0035 52.6714C69.0489 52.7211 69.0801 52.7898 69.1218 52.8418C69.469 53.3061 69.297 53.8988 68.7503 53.9819C66.8 54.2798 64.884 54.3872 63.4341 52.6849C63.0657 53.0206 63.1815 53.3828 63.181 53.7228C63.1841 54.2817 63.2128 54.8406 63.1865 55.402C63.0968 57.3496 62.0374 58.5604 60.2225 58.9206C58.7655 59.2087 57.3363 59.4492 55.8756 58.9987C55.6163 58.9186 55.3255 58.9398 55.049 58.9164C54.0134 58.9397 53.3863 58.3613 53.6147 57.4104C53.8679 56.3726 54.7906 56.7673 55.5034 56.9594C56.2866 57.1657 57.1611 57.1058 57.8072 57.7241C57.9879 57.7848 58.1708 57.8235 58.3597 57.8381C58.4896 57.806 58.6163 57.7604 58.734 57.6996C59.5625 57.1118 60.4282 56.5942 61.3432 56.1497C61.4457 56.0723 61.5354 55.9822 61.6204 55.8845C61.6894 55.7091 61.738 55.5254 61.7586 55.338L61.7631 55.3199C61.8336 55.1384 61.8799 54.9509 61.9081 54.759L61.9111 54.7469C61.9755 54.5639 62.018 54.3787 62.0485 54.1905L62.0477 54.1807Z" fill="#5C321F"/>
<path d="M58.0712 39.7052C59.0968 42.5539 58.6288 45.8773 57.4797 48.2177C57.3505 48.481 57.1314 48.7059 56.822 48.5686C56.459 48.4019 56.0046 48.2801 55.9692 47.7612C55.9628 47.6313 56.0409 47.4966 56.0919 47.3681C56.8015 45.5864 57.1657 43.7612 56.9494 41.8182C56.8177 40.6372 56.8664 39.4397 56.8524 38.2493C56.8456 37.6926 57.0368 37.4896 57.5965 37.4707C60.62 37.3737 63.4193 38.1325 65.9868 39.7258C66.1034 39.7995 66.1951 39.9088 66.2996 40.0052C66.7442 40.4262 66.6475 40.9477 66.0928 41.1282C64.2129 41.7386 62.3583 41.6752 60.5477 40.9008C59.7233 40.5496 58.9305 40.1228 58.0712 39.7052Z" fill="#5B321F"/>
<path d="M27.6187 66.5329C27.4867 66.3142 27.3531 66.1015 27.2173 65.8851C27.2677 65.5511 27.0101 65.2693 27.0703 64.9345C27.5278 63.7835 28.4334 63.4683 29.5869 63.4869C30.6475 63.505 30.8391 63.4048 31.0016 62.3702C31.3162 60.3691 31.7796 58.3758 31.6454 56.3216C31.5909 55.4901 31.5168 54.6601 31.4462 53.7508C32.441 54.0094 32.8681 54.6313 33.0285 55.5275C33.2604 56.8488 33.3118 58.1864 33.1901 59.5102C33.0685 60.834 32.8358 62.1527 32.5925 63.4625C32.434 64.2991 32.3962 65.0886 32.5482 65.9538C32.9497 68.2377 31.9636 69.4506 29.5777 69.8366C28.492 68.9589 28.0308 68.0077 29.7682 67.4936C31.5736 66.9643 30.7706 66.1628 30.2538 65.3069C30.7062 66.0731 30.5758 66.7178 29.7666 67.1756C28.8457 67.6957 28.1962 67.208 27.6187 66.5329Z" fill="#88593C"/>
<path d="M41.2936 59.7054C40.601 59.4445 40.1983 58.8799 39.8197 58.2955C38.6916 57.3817 39.0705 56.484 40.104 56.0143C42.5053 54.9295 44.2252 53.3044 45.232 50.839C45.7083 49.6766 46.5189 49.6811 47.1921 50.813C48.8237 55.0657 45.8692 59.5202 41.2936 59.7054Z" fill="#8D5C3E"/>
<path d="M50.8912 47.6684C51.9497 47.4871 52.9791 47.658 53.9501 48.0646C55.0906 48.5388 55.8605 49.4219 56.3343 50.5558C56.5739 51.1315 56.7577 51.7255 56.9686 52.3133C57.6065 52.9778 57.7373 53.825 57.6143 54.6608C57.4928 55.5162 57.7227 56.6637 56.7215 57.0676C55.5995 57.5188 54.6343 56.5168 53.5543 56.3303C53.1916 56.2664 53.2324 55.7375 53.279 55.4058C53.6253 52.8607 52.5445 50.7812 51.1867 48.7712C50.9781 48.4598 50.5753 48.1421 50.8973 47.6699L50.8912 47.6684Z" fill="#85573B"/>
<path d="M39.9699 44.6985C40.3141 45.1235 40.3251 45.5593 40.1287 46.069C39.2227 48.3604 37.6844 50.1074 35.604 51.3997C35.1274 51.6926 34.6334 51.9652 34.1637 52.2695C33.3629 52.7839 33.3675 52.7914 33.8044 53.9837C32.6852 53.2806 31.8877 52.2752 31.1972 51.1743C31.222 50.5933 31.6533 50.3277 32.087 50.0915C34.2773 48.913 36.2251 47.4693 37.6498 45.3638C38.1748 44.5888 38.9384 44.0042 39.9737 44.6962L39.9699 44.6985Z" fill="#693E29"/>
<path d="M50.8912 47.6684C51.3717 48.5153 51.8168 49.3888 52.3464 50.2061C53.2865 51.6605 53.7472 53.2244 53.601 54.9592C53.571 55.3014 53.5909 55.6496 53.5845 56.0651C54.458 56.1653 55.251 56.3965 56.0187 56.7304C56.5284 56.9526 56.8308 56.7546 56.9131 56.2264C57.0822 55.126 57.2808 54.0234 56.9355 52.9147C56.8775 52.7336 56.9585 52.5098 56.97 52.3073C57.0906 52.2344 57.2113 52.1616 57.3357 52.0864C58.6317 53.3208 57.7726 54.8378 57.8815 56.2281L57.8859 56.1843C57.8132 56.362 57.8739 56.4797 58.0561 56.5343C57.9749 56.9281 57.8975 57.3196 57.8162 57.7134C56.6909 57.7755 55.5953 57.6653 54.5507 57.1795C54.4154 57.1172 54.1052 57.2171 54.0104 57.3412C53.9178 57.4691 53.9412 57.738 54.0029 57.9168C54.1788 58.4126 54.6727 58.6084 55.0519 58.9042C55.0071 59.0856 54.9563 59.2655 54.9092 59.4431C52.1803 58.9969 51.1331 61.3272 49.5099 62.7036C48.9771 62.8778 48.5163 62.6912 48.1275 62.1439C48.5889 61.8344 49.0609 61.534 49.5132 61.2094C52.5512 59.0147 53.5316 54.7335 52.599 51.911C52.3522 51.1699 51.9455 50.5306 51.5727 49.8707C51.1954 49.2032 50.7751 48.5669 50.3714 47.9154C50.5464 47.8303 50.7252 47.7429 50.9002 47.6578L50.8912 47.6684Z" fill="#17130B"/>
<path d="M39.9699 44.6984C38.7445 44.9186 38.432 44.989 38.0598 45.5997C36.5846 48.0135 34.334 49.4755 31.9022 50.7227C31.6555 50.8511 31.4317 51.0171 31.1964 51.1643C30.7829 51.059 30.3717 50.9575 29.9582 50.8521C30.5103 50.5394 31.0495 50.2138 31.6046 49.9146C34.5242 48.3419 36.8036 46.1267 38.4338 43.2282C38.8961 42.4088 39.1604 41.5855 39.2098 40.6449C39.2878 39.0954 39.5297 37.5704 40.4089 36.2316C40.7591 36.3855 41.0707 36.2283 41.3868 36.1042C40.6146 37.6202 40.2521 39.2438 40.1496 40.9316C40.0738 42.1865 40.0275 43.439 39.9676 44.6946L39.9699 44.6984Z" fill="#17150B"/>
<path d="M46.9063 51.0215C46.6677 50.7797 46.5646 50.4045 46.0521 50.2715C45.7563 50.9235 45.4773 51.6117 45.1408 52.2729C44.3137 53.894 43.2806 55.3102 41.424 55.8911C41.0346 56.0131 40.6742 56.2513 40.3175 56.4615C39.3862 57.0239 39.3862 57.0239 39.8121 58.3C39.1325 58.129 38.9555 57.495 38.6104 57.0087C38.7868 56.6192 38.0668 56.066 38.835 55.7874L39.9483 55.2026C40.5978 55.1705 41.0994 54.8934 41.4142 54.3071C41.6374 54.1569 41.8643 54.0044 42.0875 53.8542C42.8944 52.3019 44.327 51.1127 44.667 49.2814C44.7205 48.9867 45.1332 48.8095 45.5125 48.8326L45.5186 48.8597C46.6299 49.1663 47.3649 49.7104 46.8927 51.0246L46.9063 51.0215Z" fill="#673E29"/>
<path d="M8.95795 26.837C8.81977 26.5912 8.68764 26.3468 8.54569 26.1032C8.02878 25.2216 8.26031 24.557 9.61473 24.5675C10.7539 24.5794 11.8201 24.9646 12.9033 25.2418C13.5791 25.4151 14.2332 25.6633 14.9023 25.8767C15.0831 25.963 15.2939 25.9798 15.4476 26.1237L15.4091 26.1109C15.4572 27.6306 14.8764 28.2026 13.5205 27.9254C12.7813 27.7749 12.1335 27.3583 11.4424 27.0913C10.0537 26.4789 10.8593 28.4519 9.93072 28.3798C9.3624 28.018 9.13869 27.4431 8.96022 26.8408L8.95795 26.837Z" fill="#DCAD43"/>
<path d="M29.467 19.083C29.0872 19.6725 29.2542 20.2046 29.5798 20.7695C29.9047 21.3245 30.4666 21.829 30.156 22.5928C28.2689 21.7257 28.0512 19.5418 26.7128 18.2456C26.4888 18.0876 26.2647 17.9296 25.9919 17.8782C25.0806 18.2947 25.3369 19.1793 25.1719 19.8861C25.0414 20.4537 25.403 21.1975 24.5935 21.5269C24.3705 21.2088 24.1061 20.967 23.6772 21.0151C23.401 19.2369 23.8246 17.5611 24.4809 15.9299C24.7247 15.3196 25.1276 15.1689 25.6241 15.4968C26.6086 16.1474 27.6302 16.7655 28.2428 17.8311C28.2749 17.9609 28.09 18.2938 28.4852 18.0963C29.0114 18.2262 29.2459 18.6402 29.4624 19.0755L29.467 19.083Z" fill="#D3A540"/>
<path d="M11.3258 26.5236C12.0276 26.7996 12.7294 27.0756 13.4289 27.3478C14.3976 27.725 14.5418 27.6997 15.1467 26.861C15.2942 26.6536 15.3243 26.3627 15.409 26.1109C16.2518 26.3223 17.0029 26.1517 17.7343 25.6587C18.7038 25.0063 19.7333 24.4361 20.7385 23.8342C21.1005 23.6156 21.4769 23.4552 21.9057 23.6285C20.6502 24.3866 19.4219 25.1901 18.1406 25.897C16.1133 27.0131 14.6381 28.6346 13.5636 30.6469C13.2353 31.262 12.9296 31.889 12.4257 32.3837C12.1396 32.1912 11.8474 31.9971 11.5614 31.8045C11.6677 31.4779 11.6992 31.1296 11.8237 30.8074C11.9075 30.5458 12.0141 30.2963 12.1411 30.055C13.2369 28.6317 12.0246 28.1238 11.1261 27.4881C10.9362 27.1139 10.7501 26.7375 11.3236 26.5199L11.3258 26.5236Z" fill="#241E0F"/>
<path d="M49.5092 62.7194C49.313 62.5137 48.7271 62.353 49.2284 61.9988C50.072 61.4019 50.9482 60.8677 51.5652 60.0063C51.9617 59.453 52.2949 58.6756 52.8419 58.4482C53.496 58.1766 53.8179 59.2634 54.5026 59.4005C54.6372 59.4273 54.7724 59.4383 54.9062 59.4553C55.1407 59.8436 55.2271 60.2082 54.7936 60.5214C54.0089 61.0879 53.1718 61.5677 52.2602 61.8815C51.3523 62.193 50.4254 62.4389 49.5069 62.7157L49.5092 62.7194Z" fill="#88593B"/>
<path d="M46.9064 51.0216C47.0234 49.9373 46.2748 49.3963 45.5322 48.8568C45.8053 48.7125 46.0783 48.5682 46.3513 48.4239C46.6307 48.9035 46.8565 49.4309 47.2067 49.8575C48.9684 52.0249 47.9202 56.1258 46.1055 57.9008C44.9342 59.0455 43.5933 59.8244 42.0621 60.322C41.6338 60.3285 41.4486 60.0389 41.2936 59.7054C42.3342 59.3241 43.4008 59.0454 44.3591 58.4255C46.8586 56.8132 47.8868 53.9233 46.9064 51.0216Z" fill="#2B1F14"/>
<path d="M27.6187 66.5328C28.1569 66.6401 28.6105 67.0761 29.21 66.9611C29.6305 66.8821 30.0449 66.7503 30.1697 66.2839C30.2698 65.9044 30.0386 65.6066 29.7773 65.3785C29.5713 65.1993 29.3007 65.1004 29.0586 64.9636C28.8785 64.8614 28.6779 64.6995 28.8503 64.5079C28.9595 64.3906 29.2329 64.3747 29.4225 64.399C29.8457 64.4522 30.2201 64.6377 30.5202 64.9557C30.896 65.3565 31.2778 65.7588 31.6923 66.198C31.4674 66.8225 31.2343 67.4675 31.0087 68.0823C30.5504 68.4054 30.3909 67.8687 30.0857 67.8318C29.2696 67.7329 28.7872 68.3741 29.1164 69.1323C29.2274 69.3843 29.4146 69.6006 29.5717 69.8351C28.8838 69.6844 28.3684 69.0695 27.6101 69.1004C27.7797 68.4268 27.3768 67.7852 27.4935 67.1178C27.5315 66.9251 27.5694 66.7324 27.6112 66.5374L27.6187 66.5328Z" fill="#271B12"/>
<path d="M45.5237 48.8259C45.0027 49.1559 44.8947 49.7099 44.7459 50.2474C44.3227 51.779 43.4257 52.969 42.1025 53.8452C41.5595 53.6277 41.1715 53.9906 40.7492 54.22C40.268 54.4797 39.8447 54.9205 39.2134 54.71C40.1834 53.9391 41.3476 53.4727 42.2294 52.5131C43.0547 51.6134 43.726 50.7141 44.0066 49.5259C44.085 49.1955 44.2602 48.8891 44.3907 48.5685C44.7709 48.6528 45.1511 48.737 45.5313 48.8213L45.5237 48.8259Z" fill="#17130C"/>
<path d="M12.0638 31.0174C12.0263 31.3642 11.8782 31.6389 11.5637 31.8082C10.9741 30.8573 10.3581 29.9224 9.79863 28.9533C9.41833 28.298 8.93687 27.6626 8.96023 26.8407C9.44331 27.2487 9.52647 28.0681 10.3161 28.1572C11.6764 28.6376 11.9983 29.7501 12.0638 31.0174Z" fill="#C5953A"/>
<path d="M59.1087 57.6894C58.9871 57.7011 58.8648 57.7029 58.7341 57.6995C59.1177 57.1334 59.1268 56.3304 59.829 55.9681C59.9255 55.8893 60.0174 55.8029 60.0972 55.7135L60.0949 55.7098C60.3306 55.444 60.4815 55.1316 60.5031 54.7583C60.4707 54.7728 60.4382 54.7872 60.4058 54.8017C60.396 54.8024 60.39 54.801 60.3779 54.798C60.4186 54.7631 60.4615 54.732 60.5105 54.7024C60.5458 54.6245 60.5977 54.5571 60.6625 54.5026C60.6738 54.4957 60.6829 54.4852 60.6942 54.4783C60.9185 54.4664 61.1196 54.5353 61.1007 54.7937C61.0745 55.1337 60.9705 55.4641 60.9442 55.8041C60.923 56.0587 61.1227 56.1336 61.3433 56.1496C61.3057 56.2237 61.2659 56.2941 61.226 56.3645C60.7396 57.1779 60.0339 57.6196 59.1087 57.6894Z" fill="#17130B"/>
<path d="M57.8742 56.2329C57.6236 55.7925 57.7303 55.3216 57.7282 54.8495C57.7211 53.9174 57.8241 52.9547 57.3283 52.0912C57.2657 51.8255 57.1833 51.5613 57.1622 51.2963C57.1543 51.1981 57.3013 51.0836 57.4135 50.9285C58.3044 52.6595 58.7112 54.3897 57.8727 56.239L57.8742 56.2329Z" fill="#85573B"/>
<path d="M27.507 67.1148C28.4553 68.0291 28.4524 68.0412 27.6237 69.0973C27.1387 68.8139 26.726 68.4713 26.5069 67.9296C26.3738 67.5984 26.2912 67.2315 26.5654 66.9785C26.8804 66.6905 27.1992 66.9714 27.5047 67.111L27.507 67.1148Z" fill="#744C33"/>
<path d="M44.8817 33.8909C43.7996 34.5444 42.7258 35.2031 41.6459 35.8603C42.3828 34.6436 43.4876 34.0278 44.8817 33.8909Z" fill="#17150B"/>
<path d="M60.5069 54.756C60.4707 54.7727 60.4382 54.7872 60.4058 54.8016C60.396 54.8024 60.3899 54.8009 60.3778 54.798C60.4185 54.7631 60.4615 54.732 60.5105 54.7024C60.5098 54.7183 60.5113 54.7379 60.5069 54.756Z" fill="#606262"/>
<path d="M41.4255 54.3003C41.2283 55.0728 40.7291 55.3538 39.9596 55.1958C40.4498 54.8998 40.9377 54.6001 41.4255 54.3003Z" fill="#17130C"/>
<path d="M38.8464 55.7807C38.772 56.1858 38.6962 56.597 38.6218 57.0021C38.5148 56.8249 38.3851 56.6613 38.3106 56.4697C38.1127 55.9717 38.185 55.8869 38.8464 55.7807Z" fill="#17130C"/>
<path d="M40.539 36.0038C40.4686 35.6656 40.4261 35.3311 40.614 35.0118C40.8295 35.3602 40.9158 35.6991 40.539 36.0038Z" fill="#17150B"/>
<path d="M28.4936 18.1017C28.4486 18.2061 28.4096 18.312 28.3646 18.4164C28.2911 18.3373 28.1685 18.2621 28.1554 18.1722C28.1393 18.0688 28.2145 17.9462 28.2512 17.8365C28.385 17.8792 28.463 17.9658 28.4936 18.1017Z" fill="#E6B346"/>
<path d="M42.3084 60.6362C42.6944 60.6449 42.9278 60.8694 43.0971 61.1839C42.7058 61.1835 42.4672 60.9673 42.3084 60.6362Z" fill="#2B1F14"/>
<path d="M37.5038 55.1764C37.8122 55.0056 38.133 54.9148 38.4779 55.0513C38.1756 55.275 37.8609 55.3929 37.5038 55.1764Z" fill="#17130C"/>
<path d="M27.0741 64.9322C27.2577 65.2278 27.3342 65.5418 27.2211 65.8828C26.9869 65.5972 26.881 65.2855 27.0741 64.9322Z" fill="#271B12"/>
<path d="M58.3636 57.8358C58.1769 57.7994 57.994 57.7606 57.8111 57.7218C57.9978 57.7583 58.1807 57.7971 58.3636 57.8358Z" fill="#17130B"/>
<path d="M58.0486 56.539C57.7065 56.5603 57.6744 56.4305 57.8784 56.189C57.9467 56.3021 58.0052 56.416 58.0486 56.539Z" fill="#85573B"/>
<path d="M61.9097 54.7529C61.8634 54.9404 61.8133 55.1302 61.7647 55.3138C61.811 55.1264 61.8611 54.9366 61.9097 54.7529Z" fill="#17130B"/>
<path d="M62.0477 54.1807C62.0014 54.3681 61.9589 54.5533 61.9103 54.737C61.9566 54.5496 61.9992 54.3644 62.0477 54.1807Z" fill="#17130B"/>
<path d="M15.4477 26.1238C15.2083 26.1705 15.0343 26.0698 14.9023 25.8768C15.1364 25.8384 15.3239 25.9103 15.4477 26.1238Z" fill="#241E0F"/>
<path d="M19.1668 38.5626C19.7631 38.1356 20.3699 38.4587 20.9759 38.525C21.0918 38.6403 21.2077 38.7555 21.3198 38.873C21.5739 38.9871 21.6833 39.1938 21.7105 39.4603C21.7549 40.2156 21.8213 40.973 21.4448 41.6789C21.4212 41.8783 21.3492 42.0659 21.3196 42.2639C20.709 43.5022 20.844 44.2284 22.4781 44.0546C22.9463 44.0034 23.4451 44.0881 23.9228 44.1804C24.7562 44.274 25.3743 43.7979 26.0189 43.3829C26.6056 43.0081 27.1663 42.5819 27.7887 42.2833C28.8312 41.7773 29.7501 42.1742 30.1157 43.2398C30.5452 44.488 30.5978 45.6912 29.6021 46.7349C29.3182 47.0401 29.0297 47.3378 28.56 47.0966C27.4969 45.4129 26.3065 46.4919 25.1839 46.9846C24.4068 47.3252 23.8731 47.9665 23.5762 48.7787C23.3643 49.1434 23.109 49.4364 22.6345 49.3833C22.09 49.6916 21.5816 49.6847 21.1632 49.1707C20.9464 48.9054 20.7363 48.6258 20.5686 48.3309C20.1321 47.5655 19.454 47.1413 18.6413 46.8861C18.0376 46.3039 18.7427 45.8781 18.8138 45.3824C18.9471 43.9075 17.4916 44.488 16.9325 43.92C16.3885 43.0703 15.585 42.336 15.7343 41.1859C17.3349 40.914 17.8248 39.1775 19.1797 38.5754L19.1668 38.5626Z" fill="#090C08"/>
<path d="M17.8185 36.4746C17.2539 37.9424 16.024 37.8825 14.7819 37.7938C14.4071 37.4799 14.1529 37.0931 14.0473 36.6115L14.0544 36.4271C14.0017 36.2377 13.9468 36.0445 13.8941 35.8551C14.0883 35.0689 14.0867 34.2312 14.5439 33.5229C14.8601 32.6065 15.5204 32.3621 16.4107 32.5499C16.621 32.6339 16.7694 32.7861 16.8569 32.9905C16.8575 33.196 16.8021 33.3941 16.6916 33.5689C16.3486 34.0745 15.7209 34.3557 15.5361 34.987C15.3087 35.7778 15.138 36.5601 16.4173 36.4461C16.8862 36.4048 17.3549 36.2607 17.8148 36.4769L17.8185 36.4746Z" fill="#453F2A"/>
<path d="M16.9196 43.9072C17.5434 43.5768 18.1635 43.8198 18.7719 43.9412C19.6471 44.1125 19.7142 44.3344 19.3171 45.4746C18.225 46.4325 17.349 46.5808 16.6889 45.9194C16.7151 45.5794 16.7572 45.2401 16.7578 44.9002C16.7621 44.558 16.6569 44.2048 16.9196 43.9072Z" fill="#895C3E"/>
<path d="M29.3228 47.3458C29.0341 48.0861 28.3037 48.6403 28.3947 49.5579C28.4063 49.6795 28.1427 49.9416 27.9917 49.9556C27.0499 50.0406 26.1029 50.1082 25.1587 50.1124C24.7319 50.1129 24.4093 49.8087 24.1725 49.4422C25.6289 48.1048 27.4367 47.6306 29.3228 47.3458Z" fill="#DDC076"/>
<path d="M29.3228 47.346C27.7782 48.4691 26.0245 49.0753 24.1726 49.4424C23.6588 49.4182 23.1413 49.3962 22.6253 49.3682C22.8845 49.1242 23.1853 48.9066 23.1539 48.4882C24.902 47.7619 26.6151 46.9178 28.5623 46.8534C28.9321 47.0057 29.2548 46.7902 29.5967 46.7175C29.5044 46.9224 29.4144 47.1312 29.322 47.3362L29.3228 47.346Z" fill="#372B1D"/>
<path d="M23.9196 44.1667C22.88 44.6092 21.7715 44.4862 20.6893 44.5686C20.3456 44.596 20.1111 44.2077 20.1607 43.8382C20.2598 43.0991 20.6549 42.5775 21.3164 42.2501C21.9093 43.2659 22.9739 43.6315 23.9196 44.1667Z" fill="#8A5C3E"/>
<path d="M19.1668 38.5626C18.8377 38.9208 18.1846 39.0322 18.5472 39.8371C18.7585 40.3064 18.2394 40.7588 17.757 40.8803C17.0988 41.0513 16.4017 41.0813 15.7251 41.1708C15.5609 40.5239 16.1552 40.1959 16.3389 39.6991C17.2751 39.2984 18.038 38.4827 19.1668 38.5626Z" fill="#312316"/>
<path d="M16.6926 45.9171C17.079 46.327 17.5354 46.3755 18.0227 46.143C18.4625 45.934 18.8863 45.6986 19.3208 45.4723C19.299 46.0412 18.5102 46.2345 18.6344 46.8747C17.9049 47.2175 17.1815 47.3147 16.4633 46.8582C15.7596 46.4085 15.0724 45.9436 14.8048 45.0915C14.7736 44.9972 14.8501 44.8172 14.9338 44.7512C15.0137 44.6876 15.2191 44.6613 15.2887 44.717C15.768 45.1017 16.2276 45.5136 16.6949 45.9209L16.6926 45.9171Z" fill="#403927"/>
<path d="M21.7081 39.4563C21.5799 39.2611 21.4457 39.0643 21.3174 38.869C21.7254 38.8799 21.9064 39.0433 21.7081 39.4563Z" fill="#E6B346"/>
<path d="M14.0522 36.4234L14.1287 36.5161L14.0414 36.61L13.9882 36.5135L14.0522 36.4234Z" fill="#E6B346"/>
<path d="M21.3173 42.2601C21.1519 42.0203 21.2178 41.8313 21.4425 41.675C21.5134 41.8947 21.5298 42.1008 21.3173 42.2601Z" fill="#8A5C3E"/>
<path d="M23.2743 30.7517C21.9575 30.9398 21.4846 30.685 21.2748 29.6643C20.9616 28.1658 21.4204 27.2044 22.7353 26.5956C23.9778 26.0203 25.2256 26.2804 26.1019 27.3566C26.4044 27.7296 26.6028 28.1861 26.8555 28.6046C26.7851 28.7861 26.6707 28.9375 26.5161 29.0565C26.348 29.1529 26.1653 29.2169 25.9751 29.2597C24.7739 29.2133 24.3183 30.5123 23.2781 30.7494L23.2743 30.7517Z" fill="#EEC76B"/>
<path d="M16.549 32.8214C15.7616 32.7103 15.1448 33.1033 14.5394 33.5152C13.2992 32.4839 13.3284 32.4045 14.0167 31.1244C14.6825 29.8837 15.5847 29.1794 17.0416 29.3853C17.7232 29.4831 18.2215 29.6606 18.3168 30.5087C18.3696 30.9965 18.4607 31.4457 18.2967 31.9409C18.1319 32.4263 18.1863 32.4398 17.522 32.064C17.404 31.9963 17.2605 31.9801 17.1289 31.9412L16.9266 31.981L16.8471 32.1732L16.9933 32.3215C17.0367 32.4702 17.022 32.6077 16.9559 32.7454C16.8361 32.8538 16.7018 32.8783 16.5528 32.8191L16.549 32.8214Z" fill="#EEC66A"/>
<path d="M26.5246 17.3971C26.8858 17.7141 27.339 17.9704 27.5871 18.3557C28.4786 19.7469 29.5435 21.0333 30.156 22.5929C30.0563 22.8538 29.9105 23.1322 29.6114 23.1225C28.5281 23.0923 27.4469 23.0145 26.3636 22.9587C26.0107 22.647 25.9271 22.2189 26.0476 21.822C26.4398 20.5458 26.6319 19.2876 26.1153 17.989C26.0065 17.7151 26.1984 17.4706 26.5185 17.3957L26.5246 17.3971Z" fill="#14130A"/>
<path d="M26.1861 28.8595C26.2909 28.7859 26.4087 28.7765 26.5252 28.8245C26.7094 28.8058 26.8855 28.8333 27.0534 28.9068C29.0158 29.677 29.2092 30.4659 28.7674 32.3843C28.4721 32.9177 27.8722 32.8785 27.4166 33.1125C26.1626 33.3706 25.385 32.9604 25.2995 31.5919C25.3861 31.2155 25.6498 31.0047 25.9735 30.8505C26.1348 30.7427 26.3188 30.647 26.3522 30.4211C26.3259 30.2157 26.2144 30.0567 26.0818 29.9052C25.9182 29.7365 25.7794 29.5578 25.7251 29.323C25.75 29.0405 25.9014 28.8822 26.1838 28.8557L26.1861 28.8595Z" fill="#161710"/>
<path d="M26.1862 28.8595C26.0991 29.0562 26.0143 29.2566 25.9273 29.4532C25.9126 29.8634 25.5632 29.9921 25.3077 30.2081C24.4834 30.922 24.0744 31.8636 24.8156 32.7332C25.4848 33.5177 26.4709 33.6168 27.3114 32.7594C27.7976 32.6356 28.2776 32.5104 28.7637 32.3866C27.982 33.7591 26.7315 34.4062 25.222 34.6077C24.4398 34.7096 23.8556 34.3472 23.5491 33.6266C23.1529 32.6979 23.1253 31.7318 23.272 30.7479C23.4947 30.4179 23.7022 30.0714 23.9438 29.7557C24.5074 29.0191 25.2003 28.5647 26.1816 28.852L26.1862 28.8595Z" fill="#333123"/>
<path d="M26.5245 17.3972C26.1856 18.0289 26.6876 18.4255 26.96 18.8681C27.2734 19.3786 27.3329 19.8521 27.0596 20.4134C26.6705 21.2091 26.2566 22.0148 26.3673 22.9564C26.0606 22.9512 25.7516 22.9423 25.4487 22.9348C24.7337 20.9329 25.1249 19.0244 25.9376 17.1495C26.1838 17.1141 26.3932 17.1626 26.5245 17.3972Z" fill="#653D27"/>
<path d="M16.8642 32.6106C16.7898 32.4703 16.7191 32.3278 16.6447 32.1875C16.6874 32.0537 16.7634 31.9666 16.8728 31.9263C16.9823 31.8859 17.0449 31.8789 17.0586 31.9015L17.1289 31.9414C17.7955 33.386 18.376 34.8415 17.8186 36.4747C17.4037 36.6481 17.0467 37.054 16.5218 36.7896C15.5133 36.5084 15.0434 35.9432 15.7742 34.9977C16.1452 34.5215 16.2722 34.0332 16.3069 33.4771C16.4698 33.3634 16.6303 33.2458 16.7932 33.1321C16.8229 32.9597 16.8488 32.7897 16.8665 32.6144L16.8642 32.6106Z" fill="#191913"/>
<path d="M25.9377 17.1496C25.8861 17.3454 25.7545 17.5535 25.7905 17.7324C26.025 18.9132 25.7631 20.0386 25.4535 21.162C25.2928 21.7479 25.046 22.3446 25.4487 22.9349C24.9685 22.9831 24.7652 22.6891 24.6832 22.2806C24.6319 22.0338 24.6214 21.7777 24.5972 21.5248C24.7476 20.2145 24.5904 18.8636 25.1277 17.5976C25.289 17.2171 25.5325 17.0495 25.9392 17.1435L25.9377 17.1496Z" fill="#9D5B2C"/>
<path d="M27.0534 28.9068C26.8774 28.8794 26.7013 28.8519 26.5252 28.8245C26.6186 28.7321 26.7294 28.66 26.8456 28.6053C26.9169 28.7063 26.9821 28.8058 27.0534 28.9068Z" fill="#333123"/>
<path d="M12.0639 31.0175C11.4818 30.0621 10.8982 29.1128 10.3161 28.1574C10.2204 27.9733 10.0975 27.7954 10.0403 27.5984C9.72594 26.4813 10.0636 26.2054 11.3297 26.5214C11.0278 26.8735 11.2085 27.1812 11.4186 27.4865C12.5613 28.2371 12.2625 29.3952 12.2572 30.4686C12.1965 30.6493 12.1321 30.8323 12.0691 31.0092L12.0639 31.0175Z" fill="#9E5E2C"/>
<path d="M12.2496 30.4732C11.891 30.0157 11.7716 29.4858 11.7103 28.9156C11.6621 28.4353 11.512 27.9652 11.4109 27.4911C11.8468 27.48 12.2346 27.6111 12.6114 27.8261C13.5012 28.3281 13.5827 28.5825 13.0203 29.483C12.8015 29.8364 12.51 30.1461 12.2496 30.4732Z" fill="#653D27"/>
<path d="M28.5645 46.8571C26.9582 48.0483 25.0949 48.3965 23.1561 48.4919C23.4311 47.1579 24.5514 46.6358 25.5977 46.1532C26.4041 45.7845 27.336 45.6746 28.2207 45.4953C28.6933 45.4003 28.9353 45.7328 28.8318 46.2943C28.7961 46.4908 28.6562 46.668 28.5645 46.8571Z" fill="#BC623F"/>
<path d="M16.3068 33.4771C16.6089 33.7217 16.5127 34.1503 16.6924 34.3968C17.0943 34.9516 16.9691 35.0169 16.3528 35.0444C15.7403 35.0695 15.5632 35.5006 15.8811 35.993C15.9517 36.1099 16.0969 36.1713 16.1788 36.2814C16.3062 36.4412 16.4094 36.6207 16.5239 36.7933C16.1237 37.1019 15.6969 37.3494 15.2214 36.9625C14.8262 36.6403 14.6036 36.2036 14.7064 35.6836C14.897 34.7041 15.1935 33.7892 16.3091 33.4809L16.3068 33.4771Z" fill="white"/>
<path d="M16.8642 32.6107C17.0581 32.8125 16.9884 32.9782 16.7909 33.1283C16.706 33.0304 16.6226 32.9263 16.549 32.8216C16.6409 32.7352 16.748 32.6654 16.8642 32.6107Z" fill="#E6B346"/>
<path d="M17.0585 31.9016C16.9198 31.9957 16.7834 32.0935 16.6447 32.1876C16.3311 32.1711 16.1019 32.0471 16.2543 31.703C16.3451 31.5041 16.5831 31.5147 16.7677 31.6245C16.8797 31.6906 16.9601 31.8067 17.0585 31.9016Z" fill="#E6B346"/>
<path d="M27.3174 32.7607C27.2734 32.9519 27.2923 33.2132 27.1747 33.3253C26.499 33.9701 25.6766 34.0396 24.8703 33.6673C24.0784 33.3016 23.8934 32.5181 23.9236 31.7332C23.9721 30.4587 24.7201 29.7292 25.9347 29.4485C26.12 29.5167 26.3015 29.5872 26.4868 29.6554C26.547 30.3857 25.9422 30.7561 25.6182 31.2759C25.5115 31.7725 25.5642 32.2346 26.0115 32.5408C26.4043 32.8078 26.8295 33.0348 27.3235 32.7622L27.3174 32.7607Z" fill="white"/>
<path d="M25.6083 31.2767C25.4059 30.4728 26.1014 30.1506 26.4769 29.6562C26.644 29.967 26.8088 30.274 26.9758 30.5847C26.808 30.7838 26.5538 30.9167 26.5055 31.2031C26.2072 31.2289 25.9066 31.251 25.6083 31.2767Z" fill="#333123"/>
<path d="M26.5056 31.2032C26.1602 30.6142 26.6355 30.6515 26.9759 30.5848C26.9322 30.8787 26.8082 31.1079 26.5056 31.2032Z" fill="#D4D5D4"/>
</svg>
