<svg width="37" height="37" viewBox="0 0 37 37" fill="none" xmlns="http://www.w3.org/2000/svg">
<path d="M31.5257 13.6045L28.8193 14.9645L28.7013 15.0247L24.9888 16.8883" fill="black"/>
<path d="M11.813 21.6869L9.41621 23.3847C8.80949 22.1968 8.43427 20.9044 8.31055 19.5763L9.64717 18.6304L11.813 21.6869Z" fill="black"/>
<path d="M13.6151 12.9522L12.082 16.3748L8.90503 14.9473C9.3371 13.7554 9.98141 12.6516 10.8068 11.6893L13.6151 12.9522Z" fill="black"/>
<path d="M35.6472 12.3306L31.7221 14.1291L28.9666 15.392L28.8437 15.4473L25.055 17.1586C25.055 17.1439 25.0489 17.1291 25.0439 17.1144C24.8203 16.1821 24.389 15.3124 23.7823 14.5701L23.4321 13.8048L27.2123 12.0726L30.0084 10.7912L33.9678 8.97672C34.1873 9.31906 34.3921 9.66919 34.5821 10.0271L35.6165 12.2839L35.6472 12.3306Z" fill="black"/>
<path d="M36.2872 22.7004C35.9962 23.9383 35.5741 25.1417 35.028 26.2901L22.7515 24.1943L22.8669 23.5174C23.7625 22.7899 24.4422 21.8315 24.8326 20.7458L36.2872 22.7004Z" fill="black"/>
<path d="M14.1593 24.6525L9.1998 28.1648L5.65431 30.6759C4.8078 29.7512 4.06047 28.7404 3.42456 27.6599L6.95162 25.1611L9.42953 23.4056L11.9922 21.5911L14.1593 24.6525Z" fill="black"/>
<path d="M14.6322 9.2261L13.0991 12.6487L10.8533 11.6426L8.00934 10.3686L4.00562 8.57376C4.73535 7.49149 5.58153 6.49248 6.52898 5.59462L10.8976 7.55164L14.2379 9.05042L14.6322 9.2261Z" fill="black"/>
<path d="M32.0378 21.9744C31.4382 24.3029 30.2324 26.4309 28.5431 28.142C26.8539 29.8531 24.7414 31.086 22.4208 31.7154C20.1002 32.3448 17.6542 32.3482 15.3319 31.7252C13.0096 31.1021 10.8938 29.875 9.1998 28.1685C8.31598 27.2758 7.55946 26.2654 6.95162 25.166L3.42456 27.6648C5.23471 30.7497 7.92753 33.2214 11.1557 34.7614C14.3839 36.3014 17.9995 36.8389 21.5361 36.3046C25.0726 35.7704 28.3681 34.1889 30.9973 31.764C33.6266 29.3392 35.4691 26.1823 36.2873 22.7004L32.0378 21.9744Z" fill="black"/>
<path d="M10.8978 7.55163C12.6187 6.31134 14.6056 5.49026 16.7 5.15387C18.7944 4.81747 20.9385 4.97506 22.9613 5.61407C24.984 6.25307 26.8295 7.35583 28.3506 8.8344C29.8716 10.313 31.0262 12.1265 31.7223 14.1303L35.6474 12.3318C35.64 12.3133 35.6339 12.2949 35.6265 12.2777L34.5921 10.0209C34.398 9.66385 34.1932 9.31372 33.9778 8.97056C32.3807 6.4632 30.1848 4.39263 27.588 2.94542C24.9913 1.49822 22.0752 0.71986 19.1027 0.680496C16.1301 0.641131 13.1945 1.34199 10.5603 2.71993C7.92609 4.09786 5.67614 6.10956 4.01318 8.57375L8.01691 10.3686C8.83206 9.29184 9.80299 8.34244 10.8978 7.55163Z" fill="black"/>
<path d="M5.50333 15.9817C5.65347 15.2098 5.86966 14.4523 6.14953 13.7175L2.21829 11.9558C0.670972 15.8539 0.536243 20.1705 1.83745 24.1574L5.56722 21.5161C5.16614 19.6953 5.1444 17.8113 5.50333 15.9817Z" fill="black"/>
<path d="M29.0551 21.4658C28.4763 23.5141 27.2938 25.3405 25.6619 26.707C24.03 28.0735 22.0243 28.9168 19.9061 29.1268C17.788 29.3368 15.6557 28.9039 13.7872 27.8845C11.9187 26.8651 10.4006 25.3065 9.43082 23.4117C9.42511 23.4038 9.42056 23.3951 9.4173 23.3859C8.46744 21.518 8.09269 19.4104 8.34044 17.3296C8.5882 15.2487 9.44732 13.2881 10.8092 11.6954L10.8547 11.6438C12.0895 10.2207 13.6814 9.15252 15.4663 8.5492C17.2513 7.94588 19.1648 7.82925 21.0098 8.21132C22.8548 8.59338 24.5646 9.46034 25.9632 10.7229C27.3617 11.9855 28.3985 13.598 28.9666 15.3944L28.8438 15.4485L25.055 17.1586C25.055 17.1438 25.0489 17.1291 25.044 17.1144C24.6908 15.6284 23.8146 14.3192 22.5757 13.4261C21.3367 12.5329 19.8177 12.1154 18.2963 12.2499C16.7749 12.3844 15.3527 13.0619 14.2897 14.1586C13.2267 15.2552 12.5938 16.6978 12.5067 18.2227C12.4197 19.7475 12.8842 21.2528 13.8156 22.4633C14.7469 23.6738 16.0827 24.5088 17.5789 24.8156C19.0751 25.1224 20.6317 24.8805 21.9643 24.1341C23.2968 23.3878 24.3163 22.1868 24.8364 20.7508L29.0551 21.4658Z" fill="black"/>
</svg>
