<svg width="24" height="30" viewBox="0 0 24 30" fill="none" xmlns="http://www.w3.org/2000/svg">
<path d="M7.25983 0.808972C7.46011 0.879245 7.62977 1.01851 7.83132 1.08879C8.24462 1.23316 8.8582 1.29449 9.28937 1.22422C9.3659 1.21144 9.49347 1.11817 9.55342 1.13989C9.58659 1.15267 9.968 1.61264 10.019 1.68163C10.2754 2.03044 10.4834 2.4278 10.6466 2.82899C10.7091 2.98487 10.8686 3.35923 10.8737 3.50617C10.8763 3.58666 10.8673 3.54578 10.8201 3.55727C8.66558 4.09518 6.92434 5.02661 5.82857 7.05047C4.08733 10.269 5.72142 13.918 8.82248 15.4628L8.61328 16.0198C6.6858 15.3938 4.30291 15.3082 2.65479 16.6459C2.04377 15.8231 0.756653 15.8601 0.211956 16.7392C-0.288092 17.5467 0.135418 18.542 1.07556 18.68C1.13169 18.7196 1.08066 18.9726 1.19802 19.1144C1.73251 19.7507 2.96605 19.3099 3.07958 18.464C3.1102 18.2366 3.01197 17.6502 3.19439 17.5352C4.18428 17.3205 5.1257 16.9551 5.99695 16.4415C6.81846 16.7302 7.5915 17.1493 8.43469 17.3793L8.54185 18.0718C6.44215 18.2558 4.17407 19.3942 3.05917 21.2289C1.77205 23.3474 2.40732 25.7443 4.50446 26.99L4.54656 27.7145C3.56687 27.6787 2.44814 27.9061 1.85625 28.7609C1.75165 28.9117 1.42636 29.4687 1.72103 29.5518C1.78609 29.5697 2.04122 29.5901 2.12923 29.5952C3.19822 29.6604 4.34756 29.5914 5.42292 29.6208C5.6857 29.4969 6.11049 29.2681 6.02247 28.9321C5.95103 28.6612 5.46629 28.1936 5.45609 28.1463C5.4446 28.0901 5.50456 27.9751 5.50456 27.901C5.50456 27.7796 5.45991 27.6365 5.48287 27.5062C8.28927 28.5399 12.2743 27.6238 14.1674 25.26C14.7223 24.5663 14.9647 23.9581 15.1764 23.1033C15.1879 23.056 15.1471 23.0471 15.2274 23.0497C15.3359 23.0535 15.554 23.1557 15.6701 23.1979C16.3334 23.4393 16.9789 23.7409 17.5746 24.1152C17.3743 24.7094 16.9955 25.2524 16.7977 25.8427C16.6 26.433 16.2531 27.8384 16.2849 28.43C16.29 28.5169 16.35 28.6459 16.3385 28.6932C16.313 28.8082 15.9546 29.1813 16.0566 29.3193C16.2671 29.4176 16.4992 29.3716 16.7187 29.387C17.6486 29.4534 19.1628 29.5761 20.0519 29.4534C20.1131 29.4445 20.2968 29.3908 20.3096 29.3308C19.9562 28.1796 18.6359 27.6059 17.5006 27.8895C17.7825 27.0654 18.0606 26.2004 18.2481 25.3495C18.3846 24.7298 18.5645 24.1229 18.127 23.5901C17.3858 22.6893 16.3309 22.1795 15.2249 21.8691C15.0897 20.9951 14.647 20.2886 14.0947 19.6242C14.2401 19.4197 14.4302 19.2677 14.5756 19.0607C14.9238 18.5675 15.0922 18.0156 15.1815 17.4214C15.85 17.2208 16.5095 16.9845 17.1064 16.6191C17.6333 16.8835 18.1499 17.1723 18.7086 17.3691C19.1156 17.5122 19.5404 17.5965 19.9511 17.7255C20.1042 17.8482 20.0162 18.3963 20.0404 18.611C20.131 19.3929 21.0877 19.8414 21.7498 19.4261C21.9909 19.2754 22.024 19.1553 22.0317 18.8729C22.9616 18.7145 23.4196 17.7651 22.9272 16.9372C22.3914 16.0377 21.0877 15.9904 20.4716 16.8209C18.9408 15.565 16.762 15.5867 14.9302 16.0556C15.0489 15.9189 15.2823 15.8984 15.4507 15.8294C17.1779 15.1242 18.6219 13.8567 19.2738 12.0718C19.3375 11.8967 19.6105 11.0573 19.5722 10.9397C19.5557 10.8886 19.483 10.8465 19.4881 10.7903C19.4932 10.734 19.608 10.5679 19.6373 10.4874C20.1565 9.1101 19.8912 7.62415 18.8707 6.55728C18.6015 6.27619 18.2558 6.14714 17.9701 5.92866C17.7774 5.78173 17.5861 5.52363 17.3973 5.3537C16.637 4.67525 15.8959 4.3175 14.9787 3.91247C14.9468 3.89842 14.9162 3.93291 14.9315 3.85881C15.1126 3.6301 15.1879 3.2979 15.3627 3.07303C15.6293 2.73061 16.4036 2.19015 16.771 1.87328C16.8768 1.78257 16.9598 1.66502 17.0707 1.57942C17.183 1.62414 17.2072 1.71485 17.3322 1.76213C17.7749 1.92695 18.6882 1.72507 19.048 1.40437H19.0977C19.1934 1.62414 19.4319 1.79279 19.6756 1.81707C20.1004 1.86051 20.7701 1.51298 20.4728 1.01851C20.2687 0.67737 19.6756 0.682481 19.3337 0.751476C19.2406 0.770641 19.1245 0.854969 19.048 0.847302C18.988 0.840914 18.9459 0.77703 18.8898 0.76042C18.1844 0.538102 17.271 0.888188 16.6613 1.24339C16.3079 1.44909 14.9494 2.52746 14.7401 2.8341C14.5743 3.07686 14.4289 3.39629 14.2975 3.66204L14.2503 3.67099C13.3803 3.487 12.4874 3.3669 11.597 3.45378C11.463 3.07559 11.3151 2.69739 11.1237 2.34475C10.6645 1.49637 10.065 1.02107 9.30978 0.471663C8.8582 0.143298 8.14385 -0.0713537 7.5864 0.0219174C7.4499 0.0449157 7.30958 0.177795 7.22794 0.188017C7.11696 0.202071 6.87459 0.138187 6.70876 0.152241C6.46128 0.172684 6.1462 0.315785 5.99823 0.518937C5.42674 1.30216 7.22412 1.75063 7.24963 0.814083L7.25983 0.808972ZM7.48052 0.587932C7.36061 0.466552 7.39122 0.341339 7.54685 0.278732C7.83387 0.162463 8.5546 0.33495 8.84672 0.455053C8.91561 0.483162 9.49474 0.773197 9.4131 0.879245C8.96791 1.0364 7.81473 0.929074 7.47924 0.58921L7.48052 0.587932ZM7.09783 0.397557C7.25856 0.449942 6.91924 1.00062 6.84142 1.03512C6.6858 1.1054 6.24698 1.05173 6.17171 0.869023C6.0365 0.540658 6.86949 0.322174 7.09655 0.397557H7.09783ZM19.2457 1.05301C19.5506 0.934185 20.1016 0.923964 20.2458 1.27277C19.9218 1.72891 19.4932 1.40565 19.2457 1.05301ZM18.3859 0.992959C19.0301 1.06579 18.8809 1.23444 18.3859 1.3916C18.0364 1.50276 17.5019 1.63947 17.2685 1.27788C17.2455 1.17311 17.7608 1.01468 17.8565 0.999347C18.0249 0.973793 18.2175 0.973793 18.3872 0.992959H18.3859ZM11.6723 3.83709C11.6825 3.78726 11.7143 3.77576 11.759 3.76809C11.9567 3.73359 12.4733 3.75532 12.6966 3.76809C12.9198 3.78087 13.1737 3.81281 13.3867 3.8422C13.5028 3.85881 14.1521 3.9623 14.1699 4.0313C14.1176 4.18206 14.1011 4.42738 14.2975 4.46315C14.6151 4.52193 14.6496 4.19995 14.7197 4.18334C14.9596 4.12712 16.1689 4.77108 16.4291 4.9359C16.785 5.16077 17.0988 5.43675 17.4394 5.68207C17.4483 5.73701 17.3909 5.71912 17.3539 5.71656C17.0095 5.69101 16.7365 5.62074 16.3628 5.64757C14.2184 5.79706 13.4683 8.3716 14.2273 10.1361C14.5922 10.9845 14.994 11.8878 15.8181 12.3708C16.1153 12.5445 16.5758 12.7886 16.9189 12.7132C16.5975 12.6429 15.6739 12.0616 15.4417 11.8086L15.1815 11.4253C16.3551 12.4372 18.127 12.4436 19.1768 11.2515C18.5951 13.8363 16.1382 15.6314 13.5959 15.9802C13.3752 16.0109 13.1749 16.0083 12.9581 16.0198C12.916 16.0224 12.8624 16.0543 12.819 16.0543C12.8025 16.0543 12.7782 16.0403 12.7846 16.0198C12.4389 15.97 11.9784 16.0237 11.5906 15.9802C7.96908 15.5829 4.82337 12.5011 5.57472 8.67441C6.09135 6.04621 8.42704 4.31239 10.9681 3.87797C11.0702 3.88181 11.1365 4.19867 11.1926 4.29961C11.2207 4.34944 11.4911 4.72891 11.5141 4.74297C11.5842 4.78769 11.6939 4.77491 11.7909 4.81324C11.9274 4.8669 12.5473 5.30643 12.5933 5.29748C12.6443 5.28726 12.6379 5.2336 12.6315 5.19271C12.5843 4.83624 12.023 4.55259 11.7233 4.42993L11.6723 3.83709ZM16.8488 5.9951C20.1182 6.14076 20.7037 11.4725 17.3348 11.8431C15.4558 12.0501 13.9939 10.1476 14.2465 8.3486C14.4353 7.01214 15.4456 5.93249 16.8488 5.9951ZM9.30978 15.7068C10.5408 16.2191 11.8827 16.4593 13.2183 16.3329C13.7043 16.2869 14.1763 16.1578 14.6585 16.0914C14.8856 16.826 14.8996 17.4943 14.6088 18.2111C13.9391 19.8618 11.8572 20.5428 10.3188 19.674C9.5075 19.2153 8.90795 18.4628 8.79059 17.516C9.15925 17.5875 9.13757 17.8546 9.56363 17.7856C9.98969 17.7166 10.3086 17.3512 10.1275 16.9244C10.056 16.7545 9.77028 16.5948 9.6121 16.5002C9.51643 16.4427 9.03169 16.2217 9.01383 16.1936C8.97556 16.1323 9.17201 15.6518 9.31105 15.7055L9.30978 15.7068ZM7.29427 16.0198C8.03797 16.1374 9.01383 16.4108 9.6542 16.8056C9.92463 16.973 10.1963 17.1467 9.81365 17.4125C9.72181 17.4764 9.70012 17.4559 9.62231 17.4815C9.54067 17.5083 9.4654 17.5658 9.37101 17.5454L6.0314 16.1936C5.09381 16.5437 4.19959 17.0036 3.26582 17.3601C3.19184 17.3882 3.12168 17.3614 3.03749 17.4087C2.74664 17.5722 2.87675 18.0858 2.84741 18.3669C2.79256 18.9151 2.20832 19.3469 1.67638 19.1578C1.53989 19.1093 1.22098 18.9125 1.33451 18.7323C1.34982 18.7081 1.73379 18.5049 1.81543 18.4474C1.89707 18.3899 2.00039 18.3171 2.0731 18.2558C2.09862 18.2341 2.13816 18.2558 2.11648 18.1766C2.03994 18.1817 1.98891 18.2098 1.90727 18.1983C1.74144 18.1727 1.3511 17.7792 1.28732 18.0271L1.32686 18.1676L1.7695 18.3503C1.43529 18.5228 1.22991 18.542 0.882938 18.3861C-0.485815 17.7677 0.532141 15.8767 1.98764 16.4095C2.18536 16.4823 2.49789 16.6957 2.49917 16.9244H2.55019C2.85379 16.7545 3.11402 16.5909 3.43803 16.4555C4.69198 15.9329 5.95231 15.8064 7.293 16.0198H7.29427ZM15.1114 16.7162C15.0999 16.6178 15.0973 16.5181 15.0731 16.4197L15.0961 16.3635C16.6676 15.9163 18.4867 16.0173 19.9639 16.7443C20.1795 16.8503 20.3631 17.0024 20.5838 17.0982H20.6349C20.6387 16.8618 20.9627 16.6459 21.1719 16.5743C22.6108 16.0875 23.5981 17.9121 22.2753 18.5496C21.9283 18.717 21.7038 18.7017 21.3645 18.5241L21.8072 18.3414L21.8467 18.2008C21.7829 17.953 21.3926 18.3452 21.2267 18.372C21.1451 18.3848 21.0941 18.3554 21.0175 18.3503C20.9959 18.4308 21.0367 18.4091 21.0609 18.4295C21.1885 18.5394 21.3632 18.6544 21.5061 18.7477C21.5903 18.8026 21.8097 18.8652 21.8174 18.9598C21.8084 19.1668 21.6069 19.2843 21.4334 19.3418C20.9321 19.5079 20.3529 19.0914 20.2904 18.5726C20.256 18.2852 20.3912 17.7485 20.0978 17.5824C20.0136 17.5352 19.9422 17.562 19.8695 17.5339C19.5187 17.3997 19.1768 17.2362 18.8286 17.0982C18.8043 17.088 18.7775 17.0854 18.7597 17.0637C18.7329 17.0535 18.7061 17.0343 18.6908 17.0292C18.1512 16.8516 17.6397 16.5782 17.1077 16.3686C16.4725 16.5884 15.8525 16.8746 15.1943 17.0254C15.1228 17.042 15.1573 17.019 15.1458 16.9794C15.119 16.8886 15.1228 16.8043 15.1114 16.7162ZM6.42557 22.5973C6.4345 22.3405 6.30566 22.1054 6.28652 21.8486C6.22274 20.9696 6.50338 19.7251 6.95241 18.9674C7.18074 18.5816 7.2037 18.5816 7.63359 18.4666C7.92061 18.3899 8.22039 18.3516 8.50995 18.2826C7.82877 19.2881 7.87852 20.6284 8.30203 21.7272L7.58384 21.9649L6.42684 22.5973H6.42557ZM8.44107 19.1169C8.50358 18.8869 8.58267 18.6621 8.7013 18.4564C9.45265 20.1263 11.3878 20.9121 13.0959 20.2132C13.3446 20.111 13.564 19.9551 13.8026 19.8529C14.1789 20.2081 14.4799 20.7102 14.6521 21.1983C14.6878 21.3005 14.7771 21.7183 14.7963 21.7439C14.8269 21.7847 14.8907 21.7413 14.9047 21.7809C14.9047 21.8384 13.8816 21.5688 13.7924 21.5548C13.4875 21.5062 13.2898 21.5266 13.4377 21.8921C13.5206 22.0978 13.6074 22.1272 13.7566 22.2498C14.0679 22.5054 14.411 22.7149 14.7937 22.8465C14.8703 22.9704 14.5412 23.8968 14.4276 24.0616C13.0448 24.7847 11.2526 24.5113 9.97311 23.691C9.64272 23.479 9.26003 23.1749 9.10185 22.8069C9.08782 22.7992 9.07761 22.7839 9.06741 22.7724C9.05337 22.7647 9.03551 22.7532 9.03296 22.7379C9.02914 22.7187 9.02659 22.6906 9.03934 22.674C9.30467 22.5526 9.91953 21.97 9.90039 21.6774C9.89529 21.6033 9.76007 21.3593 9.69247 21.3286C9.51515 21.2468 9.54067 21.3682 9.45265 21.3989C9.16946 21.4973 8.79952 21.5024 8.51251 21.6238C8.31478 20.7549 8.20253 19.9947 8.44234 19.1182L8.44107 19.1169ZM5.0364 24.5126C4.9739 24.5267 4.96752 24.4947 4.93818 24.4551C4.64989 24.0769 4.34246 22.987 4.2774 22.5066C4.18173 21.7937 4.13836 20.3371 4.72643 19.835C5.2826 19.3597 6.12707 18.9892 6.80826 18.7362C6.66411 19.0799 6.4447 19.3712 6.32097 19.7277C6.08242 20.4163 6.03905 21.5113 6.15258 22.2294C6.18192 22.4159 6.17299 22.6101 6.39112 22.6523C5.79668 23.1442 5.27877 23.7767 5.0364 24.5152V24.5126ZM4.54911 26.6003C4.5236 26.6233 4.3348 26.4828 4.29526 26.4547C2.57443 25.2511 2.23894 23.1621 3.3194 21.3823C3.41635 21.2226 3.91895 20.493 4.04651 20.4393C4.1205 20.4087 4.09371 20.4841 4.08988 20.5173C4.07458 20.6719 4.00697 20.852 3.99421 21.013C3.88961 22.3316 4.19448 23.6451 4.9318 24.7388C4.73791 25.3431 4.61672 25.9666 4.54911 26.5991V26.6003ZM4.89736 27.8525C4.99941 27.6097 4.87567 27.3452 4.86292 27.105C4.78638 25.6255 5.35531 23.8725 6.534 22.9321C7.10038 22.4798 8.73574 21.6991 9.43989 21.5956C9.49092 21.588 9.54067 21.5752 9.58914 21.6033C9.68481 21.7362 9.56235 21.8831 9.48199 21.9879C9.12991 22.4504 7.66421 23.2311 7.09783 23.4981C6.89373 23.5939 6.19213 23.9236 6.01736 23.9504C5.8949 23.9696 5.75969 23.8354 5.73162 24.0807C5.72014 24.1817 5.77117 24.2609 5.76734 24.3542C5.75586 24.6519 5.70101 25.025 5.65636 25.3252C5.52369 26.2221 5.15248 27.0859 5.24561 27.993L4.89863 27.8525H4.89736ZM13.7566 21.763C15.2695 22.0007 16.9023 22.5258 17.9203 23.7294L17.7417 23.9172C17.3322 23.6425 16.873 23.3831 16.4214 23.1851C15.7441 22.8874 14.9379 22.7136 14.3026 22.3495C14.1955 22.2881 13.6087 21.9163 13.7566 21.7643V21.763ZM13.027 24.6519C13.4518 24.6174 13.8421 24.5612 14.2427 24.4091C14.1483 24.5113 14.0972 24.6404 14.0143 24.7541C13.4416 25.5373 12.6009 26.2388 11.7424 26.6898C11.6136 26.7575 11.213 26.9696 11.0957 26.9836C10.9426 27.0015 10.8023 26.9159 10.6645 26.8802C9.96928 26.6949 9.35825 26.3831 8.76381 25.9832C7.99332 25.4658 7.22029 24.7886 6.91541 23.8904L8.8582 22.8439C9.0572 23.3077 9.56108 23.7332 9.99479 23.9862C10.8367 24.4768 12.0639 24.7324 13.0282 24.6544L13.027 24.6519ZM16.6064 28.4108C16.8054 26.829 17.1932 25.223 18.0823 23.8865C18.2622 24.0833 18.1958 24.3516 18.1588 24.5893C17.9803 25.7213 17.4904 26.944 17.1945 28.0441L16.6051 28.4108H16.6064ZM10.0739 27.0181C10.1632 27.0054 10.4068 27.091 10.5089 27.1216C10.5586 27.137 10.5701 27.0999 10.5599 27.1919C10.1173 27.3082 9.67333 27.4385 9.21666 27.5011C8.94112 27.5394 8.29565 27.6174 8.04817 27.5675C7.96781 27.5522 7.93337 27.4947 7.88362 27.4704C7.45373 27.2647 6.87459 26.9619 6.48297 26.6974C6.23167 26.5288 6.00333 26.3218 5.80688 26.0905C5.94975 25.4696 6.03905 24.841 6.01099 24.2008L6.66411 24.0616C7.22029 25.5092 8.72554 26.401 10.0726 27.0169L10.0739 27.0181ZM5.73162 26.3218C5.83622 26.3129 5.85919 26.4368 5.92297 26.4956C6.09773 26.6566 6.30438 26.792 6.49955 26.9274L7.64252 27.5394C6.93582 27.5139 6.22912 27.3491 5.56196 27.1178L5.73162 26.3218ZM1.90982 29.3154C2.28614 28.4581 3.29899 28.0646 4.18428 28.0262C5.02747 27.9892 5.51221 28.4479 5.86812 29.1595C5.56196 29.5007 5.12825 29.4304 4.70601 29.4215C3.99421 29.4061 3.26582 29.3844 2.5553 29.3486C2.34099 29.3384 2.11903 29.3819 1.9111 29.3154H1.90982ZM16.6179 28.8401C17.6154 27.8397 19.3299 28.0352 20.0111 29.2796C19.8057 29.249 19.599 29.318 19.4026 29.3167C19.3299 29.3167 19.2597 29.2809 19.1947 29.2796C18.3476 29.2669 17.3935 29.272 16.5592 29.171C16.5158 29.1659 16.3704 29.1544 16.3985 29.0893C16.489 29.0254 16.549 28.9104 16.6192 28.8401H16.6179Z" fill="#040404"/>
<path d="M11.6723 3.83709L11.7233 4.42993C12.023 4.55387 12.5843 4.83624 12.6315 5.19271C12.6366 5.2336 12.6443 5.28726 12.5933 5.29748C12.5473 5.30643 11.9287 4.8669 11.7909 4.81324C11.6939 4.77491 11.5842 4.78769 11.5141 4.74297C11.4911 4.72763 11.2207 4.34944 11.1926 4.29961C11.1365 4.19867 11.0702 3.88053 10.9681 3.87797C8.42704 4.31111 6.09008 6.04621 5.57472 8.67441C4.82337 12.5011 7.96908 15.5829 11.5906 15.9802C11.9784 16.0224 12.4389 15.9687 12.7846 16.0198C12.8012 16.0224 12.8152 16.0377 12.819 16.0543C12.8624 16.0543 12.916 16.0224 12.9581 16.0198C12.9377 15.9278 13.004 15.9508 13.0614 15.9342C14.7771 15.4334 16.1956 14.6795 17.3884 13.306C17.4624 13.2204 17.794 12.8026 17.8221 12.7311C17.8578 12.6352 17.6422 12.7144 17.5988 12.7157C17.4432 12.7208 17.0465 12.7413 16.9202 12.7144C16.5771 12.7898 16.1178 12.5471 15.8193 12.372C14.9953 11.8891 14.5935 10.9857 14.2286 10.1374C13.4696 8.37287 14.2197 5.79834 16.364 5.64885C16.3679 5.57219 16.3143 5.55685 16.2645 5.52236C16.0158 5.34859 15.7007 5.18377 15.4264 5.05728C15.2542 5.11477 15.0871 5.15183 14.9162 5.22465C14.7299 5.30515 14.4365 5.51341 14.2809 5.56324C14.2006 5.5888 14.096 5.59391 14.0526 5.50958C13.888 5.18377 14.7159 4.92184 14.9391 4.88351C14.957 4.80302 14.8996 4.80941 14.8486 4.78513C14.4327 4.58837 13.7069 4.31878 13.263 4.17823C12.7616 4.0198 12.1914 3.93419 11.6735 3.83964L11.6723 3.83709ZM11.324 12.7822C10.7015 13.3635 9.72308 13.4555 8.91433 13.3341C8.8059 13.3175 8.37729 13.2294 8.31861 13.1655C8.29565 13.1412 8.28672 13.0965 8.31861 13.0952C9.21921 13.2472 10.2512 13.3009 11.0102 12.7132C9.06613 13.3814 6.86438 12.4819 6.26739 10.4504C5.43312 7.60498 7.93847 4.84135 10.8431 5.37925C11.8955 5.57346 12.8318 6.38479 13.337 7.31878C13.351 7.34434 13.3612 7.35711 13.3714 7.38778C13.3752 7.398 13.3676 7.41205 13.3714 7.42227C13.3867 7.42866 13.402 7.44144 13.4058 7.45677C13.4084 7.46699 13.4033 7.48105 13.4058 7.49127C13.4862 7.47338 13.4811 7.53088 13.5041 7.58198C14.2082 9.11521 13.9646 10.7596 12.7808 11.9644C12.8037 12.0041 12.8331 12.0028 12.8688 12.0156C13.1864 12.1178 13.9518 12.2379 14.2924 12.2609C14.8396 12.2966 15.4405 12.0309 15.8397 12.5215C15.8678 12.556 15.8653 12.5982 15.8729 12.6084C15.9482 12.7144 16.0489 12.8128 16.0732 12.947C16.1956 13.6254 15.9061 14.0854 15.4022 14.4866C14.5807 15.1421 13.1494 15.1791 12.3841 14.415C12.0103 14.042 11.5842 13.1719 11.773 12.6429L11.3215 12.7822H11.324Z" fill="#9D735D"/>
<path d="M16.8488 5.9951C13.9952 6.80515 13.5181 11.1812 16.8067 11.7639C16.9751 11.7932 17.1715 11.7715 17.3361 11.8431C20.705 11.4725 20.1195 6.14076 16.85 5.9951H16.8488ZM17.4802 7.63948C19.2929 7.67653 18.9548 10.5999 17.1434 10.0684C15.7976 9.67356 16.0426 7.61009 17.4802 7.63948Z" fill="#FEFEFE"/>
<path d="M8.44107 19.1169C8.20125 19.9934 8.31351 20.7536 8.51123 21.6225C8.79952 21.5011 9.16818 21.496 9.45137 21.3976C9.53939 21.3669 9.51388 21.2456 9.69119 21.3273C9.7588 21.358 9.89402 21.6033 9.89912 21.6761C9.91825 21.9687 9.3034 22.5501 9.03807 22.6727C9.02531 22.6893 9.02786 22.7162 9.03169 22.7366C9.04572 22.7468 9.05465 22.7596 9.06613 22.7711C9.07761 22.7826 9.08782 22.7979 9.10057 22.8056C9.33912 22.9449 9.52663 23.1212 9.77156 23.2643C10.8482 23.8904 12.0549 24.0309 13.2872 24.0245C13.3433 24.022 13.3586 23.9888 13.3829 23.9453C13.4441 23.8316 13.5449 23.3921 13.5806 23.2387C13.6571 22.9129 13.7043 22.5795 13.7566 22.2498C13.6061 22.1259 13.5206 22.0978 13.4377 21.8921C13.2898 21.5266 13.4862 21.5062 13.7924 21.5548C13.8332 21.4168 13.624 20.6744 13.5283 20.6527C11.9975 21.3107 10.0892 20.8495 8.9105 19.7111L8.44234 19.1195L8.44107 19.1169Z" fill="#9E745E"/>
<path d="M9.30978 15.7068C9.17073 15.6531 8.97301 16.1335 9.01255 16.1949C9.03041 16.223 9.51515 16.444 9.61083 16.5015C9.769 16.5961 10.0535 16.7545 10.1262 16.9257C10.3073 17.3537 9.97438 17.7217 9.56235 17.7869C9.15032 17.852 9.15798 17.5888 8.78932 17.5173C8.90668 18.464 9.50622 19.2166 10.3175 19.6753C11.0153 19.8759 11.7973 19.7289 12.4708 19.4824C13.5053 19.1029 14.3562 17.9134 14.1049 16.7864C13.1188 16.9283 12.0588 16.8708 11.0816 16.6651C10.5293 16.5488 10.079 16.3444 9.58659 16.0748C9.43734 15.993 9.28681 15.9074 9.30978 15.7081V15.7068Z" fill="#9E745E"/>
<path d="M13.027 24.6519C12.0626 24.7298 10.8354 24.4743 9.99352 23.9836C9.5598 23.7307 9.05592 23.3052 8.85693 22.8414L6.91414 23.8878C7.21901 24.786 7.99332 25.4632 8.76253 25.9807C9.35825 26.3806 9.968 26.6923 10.6632 26.8776C10.6415 26.783 10.7142 26.8137 10.7653 26.7894C11.5549 26.4266 12.1761 25.9385 12.6928 25.2383C12.8152 25.0722 12.9823 24.8486 13.0257 24.6493L13.027 24.6519Z" fill="#9E745E"/>
<path d="M7.29427 16.0198C5.95358 15.8077 4.69326 15.9329 3.43931 16.4555C3.1153 16.5909 2.85507 16.7558 2.55147 16.9244H2.50044C2.50044 16.6957 2.18664 16.4823 1.98891 16.4095C0.534691 15.8767 -0.484541 17.7677 0.884214 18.3861C1.23119 18.5433 1.43656 18.5228 1.77078 18.3503L1.32814 18.1676L1.28859 18.0271C1.35237 17.7792 1.74272 18.1714 1.90855 18.1983C1.99019 18.2111 2.04121 18.1817 2.11775 18.1766C2.13944 18.257 2.09862 18.2353 2.07438 18.2558C2.00167 18.3184 1.89707 18.3925 1.8167 18.4474C1.73634 18.5024 1.34982 18.7081 1.33579 18.7323C1.22226 18.9125 1.53989 19.1093 1.67766 19.1578C2.2096 19.3469 2.79256 18.9151 2.84869 18.3669C2.87675 18.0858 2.74792 17.5722 3.03876 17.4087C3.12295 17.3614 3.19439 17.3882 3.2671 17.3601C4.20086 17.0024 5.09508 16.5424 6.03267 16.1936L9.37228 17.5454C9.46668 17.5671 9.54194 17.5096 9.62358 17.4815C9.59424 17.226 9.29702 17.042 9.0993 16.9104C8.54184 16.5373 7.90403 16.2932 7.29555 16.0198H7.29427Z" fill="#9D735D"/>
<path d="M5.0364 24.5126C5.28005 23.7741 5.79668 23.1416 6.39112 22.6497C6.17299 22.6076 6.18192 22.4134 6.15258 22.2268C6.03905 21.5088 6.08242 20.4138 6.32097 19.7251C6.4447 19.3686 6.66411 19.0773 6.80826 18.7336C6.12835 18.9866 5.2826 19.3584 4.72643 19.8324C4.13836 20.3346 4.18045 21.7911 4.2774 22.5041C4.34246 22.9845 4.64989 24.0744 4.93818 24.4526C4.96752 24.4922 4.9739 24.5241 5.0364 24.51V24.5126Z" fill="#9D735D"/>
<path d="M18.8298 17.0982C19.1781 17.2362 19.5199 17.3997 19.8707 17.5339C19.9447 17.562 20.0149 17.5352 20.0991 17.5824C20.3925 17.7473 20.2573 18.2852 20.2917 18.5726C20.3529 19.0914 20.9334 19.5079 21.4347 19.3418C21.6082 19.2843 21.811 19.1668 21.8186 18.9598C21.811 18.8652 21.5916 18.8026 21.5074 18.7477C21.3645 18.6557 21.1898 18.5394 21.0622 18.4295C21.0367 18.4078 20.9971 18.4295 21.0188 18.3503C21.0954 18.3554 21.1464 18.3835 21.228 18.372C21.3939 18.3465 21.7842 17.953 21.848 18.2008L21.8084 18.3414L21.3658 18.5241C21.7038 18.7004 21.9283 18.717 22.2766 18.5496C23.6007 17.9134 22.6134 16.0888 21.1732 16.5743C20.9627 16.6459 20.64 16.8618 20.6361 17.0982H20.5851C20.3644 17.0024 20.182 16.8503 19.9651 16.7443C18.4892 16.0173 16.6702 15.9163 15.0973 16.3635L15.0744 16.4197C15.0986 16.5168 15.0999 16.6178 15.1126 16.7162C15.4902 16.5526 15.8933 16.3035 16.3117 16.2639C17.1575 16.1859 17.9088 16.4785 18.6053 16.9244C18.65 16.9538 18.7074 16.9538 18.6908 17.0292C18.7061 17.0343 18.7329 17.0535 18.7597 17.0637C18.7826 17.0726 18.8158 17.0611 18.8286 17.0982H18.8298Z" fill="#9D735D"/>
<path d="M4.54911 26.6003C4.61672 25.9679 4.73791 25.3444 4.9318 24.74C4.19448 23.6476 3.88961 22.3329 3.99421 21.0143C4.00697 20.852 4.07458 20.6732 4.08988 20.5186C4.09371 20.4853 4.11922 20.41 4.04651 20.4406C3.91895 20.4943 3.41635 21.2238 3.3194 21.3835C2.24021 23.1634 2.5757 25.2524 4.29526 26.456C4.3348 26.4841 4.5236 26.6246 4.54911 26.6016V26.6003Z" fill="#9D735D"/>
<path d="M10.0739 27.0181C8.72809 26.4023 7.22156 25.5105 6.66539 24.0629L6.01226 24.2021C6.0416 24.8422 5.95103 25.4709 5.80816 26.0918C6.00461 26.3231 6.23295 26.5288 6.48425 26.6987C6.87587 26.9619 7.455 27.266 7.88489 27.4717L9.52408 27.183C9.68991 27.1817 9.93866 27.0386 10.0739 27.0194V27.0181Z" fill="#9D735D"/>
<path d="M6.42557 22.5973L7.58257 21.9649L8.30075 21.7272C7.87724 20.6284 7.82749 19.2869 8.50868 18.2826C8.22039 18.3516 7.91934 18.3899 7.63232 18.4666C7.20243 18.5816 7.18074 18.5816 6.95113 18.9674C6.50211 19.7251 6.22147 20.9696 6.28525 21.8486C6.30438 22.1054 6.43195 22.3405 6.42429 22.5973H6.42557Z" fill="#9D735D"/>
<path d="M9.30978 15.7068C9.28681 15.9061 9.43606 15.9917 9.58659 16.0735C10.079 16.3431 10.5293 16.5475 11.0816 16.6638C12.0588 16.8695 13.1175 16.927 14.1049 16.7852C14.3549 17.9121 13.5053 19.1029 12.4708 19.4811C11.7985 19.7277 11.0153 19.8746 10.3175 19.674C11.8559 20.5441 13.9378 19.8618 14.6075 18.2111C14.8983 17.4943 14.8856 16.8248 14.6572 16.0914C14.175 16.1565 13.7031 16.2869 13.217 16.3329C11.8815 16.4593 10.5395 16.2191 9.3085 15.7068H9.30978Z" fill="#714039"/>
<path d="M12.9581 16.0198C13.1749 16.007 13.3752 16.0109 13.5959 15.9802C16.1382 15.6314 18.5951 13.8363 19.1768 11.2515C18.127 12.4436 16.3551 12.4372 15.1815 11.4253L15.4417 11.8086C15.6726 12.0616 16.5975 12.6429 16.9189 12.7132C17.0465 12.7413 17.4419 12.7208 17.5976 12.7144C17.6409 12.7132 17.8578 12.634 17.8208 12.7298C17.794 12.8013 17.4611 13.2191 17.3871 13.3047C16.1944 14.6783 14.7759 15.4334 13.0601 15.9329C13.0027 15.9495 12.9364 15.9266 12.9568 16.0185L12.9581 16.0198Z" fill="#714039"/>
<path d="M4.89736 27.8525L5.24433 27.993C5.15249 27.0859 5.52242 26.2209 5.65509 25.3252C5.69973 25.025 5.75459 24.6531 5.76607 24.3542C5.76989 24.2609 5.71887 24.1817 5.73035 24.0807C5.75841 23.8354 5.89363 23.9696 6.01609 23.9504C6.19085 23.9236 6.89245 23.5952 7.09655 23.4981C7.66293 23.2311 9.12736 22.4504 9.48071 21.9879C9.56108 21.8831 9.68354 21.7362 9.58786 21.6033C9.53811 21.5752 9.48964 21.588 9.43862 21.5956C8.73447 21.6991 7.0991 22.4798 6.53272 22.9321C5.35531 23.8725 4.78638 25.6255 4.86164 27.105C4.8744 27.3452 4.99813 27.6097 4.89608 27.8525H4.89736Z" fill="#714039"/>
<path d="M8.44107 19.1169L8.90923 19.7085C10.0879 20.8482 11.9963 21.3082 13.527 20.6502C13.6227 20.6719 13.8319 21.4142 13.7911 21.5522C13.8804 21.5663 14.9022 21.8358 14.9034 21.7784C14.8894 21.7387 14.8243 21.7822 14.795 21.7413C14.7771 21.717 14.6878 21.2979 14.6509 21.1957C14.4786 20.7089 14.1776 20.2055 13.8013 19.8503C13.564 19.9525 13.3433 20.1097 13.0946 20.2106C11.3865 20.9095 9.45137 20.1237 8.70002 18.4538C8.58139 18.6608 8.5023 18.8844 8.43979 19.1144L8.44107 19.1169Z" fill="#714039"/>
<path d="M1.90982 29.3154C2.11775 29.3819 2.33971 29.3384 2.55402 29.3486C3.26455 29.3844 3.99421 29.4061 4.70474 29.4215C5.12697 29.4304 5.56069 29.4994 5.86684 29.1595C5.51221 28.4492 5.0262 27.9905 4.183 28.0262C3.29771 28.0646 2.28486 28.4581 1.90855 29.3154H1.90982Z" fill="#714039"/>
<path d="M9.10057 22.8069C9.25875 23.1749 9.64144 23.4802 9.97183 23.691C11.2513 24.51 13.0436 24.7847 14.4263 24.0616C14.5399 23.898 14.869 22.9704 14.7924 22.8465C14.4098 22.7149 14.0666 22.5054 13.7554 22.2498C13.7031 22.5795 13.6559 22.9129 13.5793 23.2387C13.5436 23.3921 13.4428 23.8316 13.3816 23.9453C13.3586 23.9888 13.3433 24.022 13.2859 24.0245C12.0537 24.0322 10.8469 23.8904 9.77028 23.2643C9.52536 23.1212 9.33784 22.9449 9.0993 22.8056L9.10057 22.8069Z" fill="#714039"/>
<path d="M16.6179 28.8401C16.5477 28.9104 16.4878 29.0254 16.3972 29.0893C16.3691 29.1544 16.5146 29.1659 16.5579 29.171C17.3922 29.2733 18.3476 29.2681 19.1934 29.2796C19.2597 29.2796 19.3286 29.3167 19.4013 29.3167C19.5978 29.3167 19.8044 29.249 20.0098 29.2796C19.3299 28.0352 17.6142 27.8384 16.6166 28.8401H16.6179Z" fill="#714039"/>
<path d="M16.6064 28.4108L17.1957 28.0441C17.4917 26.944 17.9815 25.7226 18.1601 24.5893C18.1971 24.3516 18.2634 24.0833 18.0836 23.8865C17.1945 25.223 16.8054 26.829 16.6077 28.4108H16.6064Z" fill="#714039"/>
<path d="M11.6723 3.83709C12.1914 3.93164 12.7604 4.01724 13.2617 4.17567C13.7056 4.31622 14.4314 4.58581 14.8473 4.78258C14.8983 4.80685 14.9557 4.80046 14.9379 4.88096C15.1764 4.84007 15.3422 4.82857 15.5629 4.95123C15.6152 5.01256 15.4609 5.04322 15.4239 5.05472C15.6982 5.18121 16.0145 5.34604 16.262 5.5198C16.3117 5.5543 16.3653 5.56963 16.3615 5.64629C16.7352 5.62074 17.0082 5.68973 17.3526 5.71529C17.3896 5.71784 17.4483 5.73701 17.4381 5.68079C17.0975 5.43547 16.7837 5.16077 16.4278 4.93462C16.1676 4.7698 14.9583 4.12584 14.7185 4.18206C14.6483 4.19867 14.6139 4.52065 14.2962 4.46188C14.0998 4.4261 14.1176 4.18079 14.1687 4.03002C14.1508 3.9623 13.5028 3.85753 13.3854 3.84092C13.1724 3.81153 12.9071 3.77831 12.6953 3.76681C12.4733 3.75532 11.9554 3.73232 11.7577 3.76681C11.7131 3.77448 11.6799 3.78598 11.671 3.83581L11.6723 3.83709Z" fill="#714039"/>
<path d="M13.7566 21.763C13.6087 21.9151 14.1942 22.2856 14.3026 22.3482C14.9379 22.7136 15.7441 22.8861 16.4214 23.1838C16.873 23.3831 17.3322 23.6412 17.7417 23.9159L17.9203 23.7281C16.9023 22.5245 15.2695 22.0007 13.7566 21.7617V21.763Z" fill="#714039"/>
<path d="M13.027 24.6519C12.9836 24.8512 12.8165 25.0748 12.694 25.2409C12.1774 25.9411 11.5562 26.4291 10.7666 26.792C10.7155 26.815 10.6441 26.7843 10.6645 26.8802C10.8023 26.9172 10.9426 27.0028 11.0957 26.9836C11.213 26.9696 11.6136 26.7575 11.7424 26.6898C12.6009 26.2388 13.4416 25.5373 14.0143 24.7541C14.0972 24.6416 14.1495 24.5113 14.2427 24.4091C13.8421 24.5624 13.4518 24.6174 13.027 24.6519Z" fill="#714039"/>
<path d="M17.3348 11.8431C17.1702 11.7715 16.9738 11.7932 16.8054 11.7639C13.5181 11.1812 13.9952 6.80515 16.8475 5.9951C15.4443 5.93249 14.434 7.01214 14.2452 8.3486C13.9914 10.1463 15.4545 12.0488 17.3335 11.8431H17.3348Z" fill="#D3B8BA"/>
<path d="M7.48052 0.587932C7.81601 0.927797 8.96918 1.03512 9.41438 0.877967C9.49602 0.773197 8.91688 0.483162 8.848 0.453775C8.55588 0.33495 7.83514 0.161185 7.54813 0.277455C7.3925 0.340061 7.36188 0.465274 7.48179 0.586655L7.48052 0.587932Z" fill="#9D735D"/>
<path d="M15.1114 16.7162C15.1216 16.8043 15.119 16.8886 15.1458 16.9794C15.1573 17.019 15.1228 17.042 15.1943 17.0254C15.8525 16.8759 16.4725 16.5884 17.1077 16.3686C17.6397 16.5769 18.1512 16.8503 18.6908 17.0292C18.7074 16.9551 18.6512 16.9538 18.6053 16.9244C17.9088 16.4785 17.1562 16.1859 16.3117 16.2639C15.892 16.3022 15.4902 16.5526 15.1126 16.7162H15.1114Z" fill="#714039"/>
<path d="M5.73162 26.3218L5.56196 27.1178C6.22912 27.3491 6.93582 27.5139 7.64252 27.5394L6.49955 26.9274C6.30566 26.792 6.09773 26.6566 5.92297 26.4956C5.85919 26.4368 5.83622 26.3129 5.73162 26.3218Z" fill="#9D735D"/>
<path d="M7.29427 16.0198C7.90275 16.2932 8.54057 16.5373 9.09802 16.9104C9.29447 17.042 9.59297 17.226 9.62231 17.4815C9.70012 17.4559 9.72181 17.4751 9.81365 17.4125C10.1963 17.1467 9.92463 16.973 9.6542 16.8056C9.01383 16.4108 8.03797 16.1374 7.29427 16.0198Z" fill="#714039"/>
<path d="M10.0739 27.0181C9.93866 27.0373 9.68991 27.1804 9.52408 27.1817L7.88489 27.4704C7.93464 27.4947 7.96908 27.5509 8.04945 27.5675C8.29692 27.6161 8.94239 27.5382 9.21793 27.5011C9.67461 27.4385 10.1173 27.3095 10.5612 27.1919C10.5714 27.0999 10.5599 27.137 10.5101 27.1216C10.4081 27.091 10.1632 27.0054 10.0752 27.0181H10.0739Z" fill="#714039"/>
<path d="M18.3859 0.992959C18.2163 0.973793 18.0236 0.972516 17.8552 0.999347C17.7596 1.01468 17.2442 1.17311 17.2672 1.27788C17.5019 1.63947 18.0351 1.50276 18.3846 1.3916C18.8796 1.23444 19.0288 1.06706 18.3846 0.992959L18.3859 0.992959Z" fill="#9D735D"/>
<path d="M7.09783 0.397557C6.87077 0.323451 6.03778 0.540658 6.17299 0.869023C6.24826 1.05173 6.68707 1.1054 6.8427 1.03512C6.91924 1.00062 7.25983 0.449942 7.0991 0.397557H7.09783Z" fill="#9D735D"/>
<path d="M19.2457 1.05301C19.4932 1.40693 19.9218 1.73018 20.2458 1.27277C20.1016 0.922686 19.5506 0.934185 19.2457 1.05301Z" fill="#9D735D"/>
<path d="M18.7597 17.0637C18.7788 17.0854 18.8043 17.0892 18.8286 17.0982C18.8158 17.0611 18.7814 17.0726 18.7597 17.0637Z" fill="#714039"/>
<path d="M9.06613 22.7724C9.05465 22.7609 9.04444 22.7468 9.03169 22.7379C9.03551 22.7532 9.0521 22.7647 9.06613 22.7724Z" fill="#714039"/>
<path d="M12.7846 16.0198C12.8012 16.0224 12.8152 16.0377 12.819 16.0543C12.8037 16.0543 12.7782 16.0403 12.7846 16.0198Z" fill="#714039"/>
<path d="M13.3395 7.3175C12.8344 6.38479 11.898 5.57346 10.8456 5.37798C7.94102 4.84007 5.43567 7.60371 6.26994 10.4491C6.86566 12.4819 9.06868 13.3801 11.0127 12.7119C10.2537 13.2996 9.22176 13.246 8.32116 13.0939C8.28799 13.0952 8.29692 13.1399 8.32116 13.1642C8.38111 13.2281 8.80845 13.3162 8.91688 13.3328C9.72691 13.453 10.704 13.3622 11.3266 12.7809C11.4414 12.6736 11.546 12.4972 11.6557 12.3963C12.0639 12.0156 12.4313 11.8661 12.8203 11.3703C13.7936 10.1271 13.8472 8.95677 13.4122 7.48999C13.4097 7.47977 13.4148 7.46572 13.4122 7.45549C13.3969 7.44911 13.3829 7.43633 13.3778 7.421C13.3739 7.41078 13.3816 7.39672 13.3778 7.3865L13.3433 7.3175H13.3395ZM12.4019 6.55217C12.4134 6.56367 12.4249 6.57517 12.4364 6.58667C12.4478 6.59817 12.4606 6.60967 12.4708 6.62117C13.8676 8.17611 13.5755 10.4351 12.0192 11.7549C11.4477 12.2392 10.3749 12.68 9.62103 12.6071C6.73172 12.519 5.51604 9.30175 7.29427 7.09135C8.24972 5.90311 9.76135 5.41375 11.2283 5.86222C11.7666 6.02704 12.0001 6.14714 12.4006 6.55089L12.4019 6.55217Z" fill="#040404"/>
<path d="M11.7769 12.6429C11.5881 13.1706 12.0154 14.0407 12.3879 14.415C13.1533 15.1804 14.5845 15.1421 15.406 14.4866C15.9099 14.0854 16.1995 13.6254 16.077 12.947C16.0528 12.8128 15.952 12.7132 15.8767 12.6084C15.4392 12.289 15.0284 12.533 14.573 12.5726C14.1176 12.6122 13.5615 12.533 13.1252 12.4231C12.6303 12.2992 12.2846 11.9568 11.8815 12.4857C11.8623 12.5113 11.7832 12.625 11.7769 12.6429ZM13.027 12.6442C12.8624 13.1872 12.2641 13.1361 12.1289 12.5969C12.3522 12.2379 12.7157 12.6403 13.027 12.6442ZM14.3128 12.8179L15.3206 12.7144C15.2976 13.2779 14.2516 13.5769 14.3128 12.8179ZM13.2005 12.7132C13.3918 12.7374 13.5819 12.7962 13.7745 12.8167C13.8459 12.8243 14.0857 12.7771 14.0653 12.8652C13.9135 13.5411 13.2298 13.292 13.2005 12.7132ZM12.3318 13.8618C12.7476 13.7941 12.8203 14.1557 12.8356 14.4879C12.6213 14.3282 12.4019 14.134 12.3318 13.8618ZM14.1738 14.6974C14.2873 14.2387 14.7822 13.8823 14.9379 14.5237L14.1738 14.6974ZM14.0347 14.7319H13.4964C13.4569 14.7319 13.0104 14.6105 12.9925 14.5926C12.9721 14.5122 13.0078 14.5352 13.0359 14.5134C13.2987 14.309 13.4492 14.1314 13.7732 14.3844C13.8919 14.4764 13.9352 14.6246 14.0334 14.7319H14.0347Z" fill="#040404"/>
<path d="M13.4097 7.49255C13.8447 8.95805 13.7911 10.1297 12.8178 11.3729C12.4287 11.8686 12.0613 12.0181 11.6531 12.3989C11.5447 12.4998 11.4401 12.6761 11.324 12.7834L11.7756 12.6442C11.782 12.6276 11.861 12.5126 11.8802 12.487C12.2833 11.9581 12.629 12.3005 13.1239 12.4244C13.5602 12.5343 14.124 12.6122 14.5718 12.5739C15.0195 12.5356 15.4379 12.289 15.8755 12.6097C15.8678 12.5982 15.8704 12.5573 15.8423 12.5228C15.443 12.0322 14.8422 12.2979 14.295 12.2621C13.9544 12.2392 13.1903 12.1203 12.8713 12.0168C12.8356 12.0053 12.8063 12.0053 12.7833 11.9657C13.9671 10.7621 14.2108 9.11649 13.5066 7.58326C13.4824 7.53215 13.4875 7.47466 13.4084 7.49255H13.4097Z" fill="#714039"/>
<path d="M14.9379 4.88223C14.7146 4.92057 13.8867 5.18377 14.0513 5.5083C14.0947 5.59391 14.198 5.58879 14.2796 5.56196C14.434 5.51213 14.7287 5.30387 14.9149 5.22338C15.0846 5.15055 15.2517 5.11222 15.4252 5.056C15.4609 5.0445 15.6152 5.01384 15.5642 4.95251C15.3435 4.82985 15.1777 4.84007 14.9391 4.88223H14.9379Z" fill="#040404"/>
<path d="M13.3739 7.38778C13.3637 7.35583 13.3523 7.34306 13.3395 7.31878L13.3739 7.38778Z" fill="#714039"/>
<path d="M13.4097 7.45677C13.4046 7.44016 13.3905 7.42866 13.3752 7.42227C13.3803 7.43761 13.3944 7.45038 13.4097 7.45677Z" fill="#714039"/>
<path d="M17.4802 7.63948C16.0426 7.61009 15.7964 9.67484 17.1434 10.0684C18.9548 10.5999 19.2929 7.67653 17.4802 7.63948ZM17.5504 7.81325C18.4586 7.86308 18.8745 9.00405 18.1856 9.61478C17.3858 10.3226 16.1829 9.59817 16.4916 8.57858C16.6192 8.15822 17.1052 7.78897 17.5516 7.81325H17.5504Z" fill="#040404"/>
<path d="M9.62231 12.6084C10.3749 12.6812 11.449 12.2404 12.0205 11.7562C13.5755 10.4363 13.8689 8.17739 12.4721 6.62244L12.4376 6.58795C12.4262 6.57645 12.4147 6.56495 12.4032 6.55345C12.083 6.43973 11.8049 6.25191 11.4835 6.13564C9.0993 5.2681 6.96006 6.75277 6.80826 9.24936C6.71004 10.8733 7.98184 12.4525 9.62358 12.6097L9.62231 12.6084ZM12.0549 8.64119C12.12 10.2166 9.76008 10.2089 9.7588 8.65907C9.7588 7.68164 10.9477 7.16035 11.6735 7.82347C11.9784 8.102 11.6952 7.99851 11.6263 8.22977C11.5421 8.50959 11.7896 8.69102 12.0562 8.64119H12.0549Z" fill="#FEFEFE"/>
<path d="M9.62231 12.6084C7.98057 12.4512 6.70876 10.872 6.80698 9.24809C6.95878 6.75149 9.09802 5.26554 11.4822 6.13437C11.8036 6.25191 12.0817 6.43973 12.4019 6.55217C12.0014 6.14842 11.7692 6.02832 11.2296 5.8635C9.76135 5.41503 8.251 5.90438 7.29555 7.09263C5.51732 9.30303 6.733 12.5202 9.62231 12.6084Z" fill="#D3B8BA"/>
<path d="M12.4708 6.62244C12.4593 6.60967 12.4478 6.59944 12.4364 6.58795L12.4708 6.62244Z" fill="#D3B8BA"/>
<path d="M14.3128 12.8179C14.2516 13.5756 15.2976 13.2779 15.3206 12.7144L14.3128 12.8179Z" fill="#F4FF92"/>
<path d="M12.1289 12.5969C12.3522 12.2379 12.7157 12.6403 13.027 12.6442C12.8624 13.1872 12.2629 13.1361 12.1289 12.5969Z" fill="#F4FF92"/>
<path d="M13.2005 12.7132C13.2298 13.292 13.9135 13.5424 14.0653 12.8652C14.0857 12.7771 13.8459 12.8243 13.7745 12.8167C13.5819 12.7949 13.3931 12.7374 13.2005 12.7132Z" fill="#F4FF92"/>
<path d="M14.0347 14.7319C13.9352 14.6246 13.8919 14.4764 13.7745 14.3844C13.4505 14.1314 13.3 14.309 13.0372 14.5134C13.0091 14.5352 12.9734 14.5134 12.9938 14.5926C13.0117 14.6118 13.4581 14.7319 13.4977 14.7319H14.036L14.0347 14.7319Z" fill="#F4FF92"/>
<path d="M14.9379 14.5237L14.1738 14.6974C14.2873 14.2387 14.7822 13.8823 14.9379 14.5237Z" fill="#F4FF92"/>
<path d="M12.3318 13.8618C12.4019 14.134 12.6213 14.3269 12.8356 14.4879C12.8203 14.157 12.7463 13.7941 12.3318 13.8618Z" fill="#F4FF92"/>
<path d="M17.5504 7.81325C17.1039 7.78897 16.6179 8.15822 16.4903 8.57858C16.1816 9.59817 17.3845 10.3226 18.1844 9.61478C18.8732 9.00405 18.4573 7.86435 17.5491 7.81325H17.5504ZM17.5874 8.33326C17.9522 8.39843 18.127 9.38224 17.3603 9.22509C17.0758 9.16632 16.9546 8.73829 17.1256 8.51853C17.2047 8.41631 17.4611 8.31027 17.5874 8.33326Z" fill="#FEFEFE"/>
<path d="M12.0549 8.64119C11.7883 8.69102 11.5421 8.51086 11.6251 8.22977C11.6939 7.99851 11.9771 8.102 11.6722 7.82347C10.9477 7.16035 9.75752 7.68164 9.75752 8.65907C9.75752 10.2089 12.1187 10.2166 12.0537 8.64119H12.0549Z" fill="#040404"/>
<path d="M17.5874 8.33326C17.4611 8.31027 17.2059 8.41759 17.1256 8.51853C16.9546 8.73701 17.0758 9.16632 17.3603 9.22509C18.127 9.38352 17.9522 8.39843 17.5874 8.33326Z" fill="#040404"/>
</svg>
