<svg width="440" height="1371" viewBox="0 0 440 1371" fill="none" xmlns="http://www.w3.org/2000/svg">
<mask id="mask0_2074_1522" style="mask-type:luminance" maskUnits="userSpaceOnUse" x="0" y="0" width="440" height="1363">
<path d="M440 0H0V1363H440V0Z" fill="white"/>
</mask>
<g mask="url(#mask0_2074_1522)">
<path d="M440 0H0V1363H440V0Z" fill="#009FEC"/>
<path opacity="0.6" d="M481.521 734.685C285.49 750.979 19.5675 750.082 -257.926 748.145L-262.999 642.881C205.857 643.198 641.064 664.785 1167.25 662.456L1172.11 763.182C867.236 767.947 558.119 774.763 368.518 784.474C336.01 786.137 55.8905 818.083 27.685 800.477C144.664 784.558 847.144 717.024 481.549 734.683L481.521 734.685Z" fill="url(#paint0_linear_2074_1522)"/>
<path opacity="0.6" d="M495.079 353.028C298.919 366.616 33.2581 371.168 -243.942 375.313L-246.999 311.881C221.419 303.093 655.811 307.787 1181.56 296.304L1184.48 357.001C879.803 365.716 570.841 375.749 381.23 385.242C348.72 386.867 68.2482 411.512 40.4052 401.427C157.581 389.579 860.703 335.367 495.108 353.027L495.079 353.028Z" fill="url(#paint1_linear_2074_1522)"/>
<path d="M33.0724 119.931C33.4352 119.732 33.7496 119.606 33.9803 119.526C34.3786 119.389 34.5653 119.373 34.6931 119.198C34.8672 118.961 34.777 118.644 34.7225 118.365C34.6806 118.145 34.7036 117.603 34.7519 116.522C34.8022 115.364 34.9364 115.066 34.842 114.203C34.798 113.812 34.7749 113.613 34.6638 113.399C34.4353 112.962 34.0495 112.757 33.0012 112.328C31.2064 111.596 31.3238 111.781 30.8018 111.466C30.1015 111.044 29.8624 110.693 29.2859 110.693C28.9546 110.693 28.5961 110.809 28.3046 110.901C27.9419 111.019 27.6526 111.153 27.4492 111.26C29.3236 114.15 31.198 117.041 33.0703 119.931H33.0724Z" fill="#663E16" stroke="black" stroke-width="0.898259" stroke-linecap="round" stroke-linejoin="round"/>
<path d="M27.4503 111.26C27.7942 111.043 28.2345 111.551 29.4757 112.173C31.5807 113.224 32.8408 113.027 33.1721 113.946C33.2413 114.135 33.1805 114.123 33.1218 115.011C33.0484 116.125 33.084 117.08 33.1218 118.155C33.1742 119.595 33.2518 119.8 33.0715 119.928C32.6521 120.224 31.8994 119.341 29.9307 118.356C28.2198 117.502 27.7229 117.638 27.3476 116.988C26.9388 116.278 27.3937 115.88 27.3979 113.894C27.4021 112.206 27.075 111.491 27.4482 111.258L27.4503 111.26Z" fill="#80521A" stroke="black" stroke-width="0.898259" stroke-linecap="round" stroke-linejoin="round"/>
<path d="M27.2988 115.385C27.6489 115.628 28.1919 115.985 28.8985 116.344C29.5422 116.671 29.9846 116.829 30.7708 117.148C31.3307 117.375 32.14 117.71 33.1212 118.158" stroke="black" stroke-width="0.898259" stroke-linecap="round" stroke-linejoin="round"/>
<path d="M29.6627 115.963C29.7822 115.921 29.8388 116.018 30.1596 116.123C30.5328 116.244 30.6397 116.175 30.7152 116.282C30.8201 116.431 30.6293 116.584 30.5894 117.074C30.5664 117.361 30.6188 117.479 30.537 117.533C30.4427 117.598 30.321 117.474 29.9206 117.334C29.5725 117.212 29.4908 117.244 29.4048 117.134C29.279 116.973 29.3314 116.74 29.3859 116.498C29.4363 116.272 29.4929 116.02 29.6648 115.961L29.6627 115.963Z" fill="#FFCC00" stroke="black" stroke-width="0.748549" stroke-linecap="round" stroke-linejoin="round"/>
<path d="M30.0024 111.61C30.0171 111.161 30.0842 110.607 30.3588 110.517C30.5287 110.462 30.6566 110.62 31.0151 110.815C31.8349 111.262 32.3046 111.058 32.5247 111.392C32.6337 111.56 32.6925 111.877 32.3465 112.544" fill="#663E16"/>
<path d="M30.0024 111.61C30.0171 111.161 30.0842 110.607 30.3588 110.517C30.5287 110.462 30.6566 110.62 31.0151 110.815C31.8349 111.262 32.3046 111.058 32.5247 111.392C32.6337 111.56 32.6925 111.877 32.3465 112.544" stroke="black" stroke-width="0.898259" stroke-linecap="round" stroke-linejoin="round"/>
<path d="M29.0688 103.42C29.0122 103.678 28.9326 104.066 28.8571 104.541C28.4902 106.86 28.857 107.206 28.9661 107.293C28.9996 107.32 29.1863 107.467 29.3289 107.406C29.6119 107.284 29.3959 106.466 29.4651 105.525C29.4986 105.066 29.6118 104.421 29.9725 103.655C29.8152 103.621 29.6517 103.584 29.4818 103.54C29.3393 103.502 29.2009 103.462 29.0709 103.42H29.0688Z" fill="black" stroke="black" stroke-width="0.898259" stroke-linecap="round" stroke-linejoin="round"/>
<path d="M30.9096 107.439C30.8802 107.702 30.8404 108.096 30.8132 108.575C30.6832 110.92 31.0836 111.226 31.2031 111.302C31.2388 111.325 31.4401 111.453 31.5742 111.377C31.8447 111.228 31.547 110.435 31.5176 109.492C31.503 109.03 31.5512 108.378 31.8321 107.58C31.6728 107.563 31.505 107.542 31.331 107.515C31.1843 107.492 31.0438 107.467 30.9096 107.439Z" fill="black" stroke="black" stroke-width="0.898259" stroke-linecap="round" stroke-linejoin="round"/>
<path d="M36.605 105.859C36.5757 106.122 36.5358 106.516 36.5086 106.995C36.3786 109.339 36.779 109.646 36.8985 109.721C36.9342 109.745 37.1355 109.873 37.2697 109.797C37.5401 109.648 37.2424 108.855 37.213 107.912C37.1984 107.45 37.2466 106.798 37.5275 106C37.3682 105.983 37.2005 105.962 37.0264 105.935C36.8797 105.912 36.7392 105.887 36.605 105.859Z" fill="black" stroke="black" stroke-width="0.898259" stroke-linecap="round" stroke-linejoin="round"/>
<path d="M20.998 101.76C21.0253 99.1779 23.0486 97.6792 23.3589 97.4567C25.705 95.7775 28.7032 96.5416 30.6322 97.0306C31.6973 97.3014 32.8798 97.8807 35.2448 99.0414C38.8846 100.826 39.2893 101.43 39.4528 101.739C40.3942 103.51 40.0294 106.018 38.5072 107.609C36.6642 109.534 33.8149 109.392 31.9824 108.508C30.391 107.742 29.5901 106.426 29.2882 105.857C27.2461 107.204 24.6777 107.171 22.9353 105.823C21.0106 104.337 20.998 101.949 21.0001 101.758L20.998 101.76Z" fill="#FFDF00" stroke="black" stroke-width="1.19768" stroke-linecap="round" stroke-linejoin="round"/>
<path d="M29.2879 105.859C29.2354 105.599 29.1934 105.278 29.1934 104.912C29.1934 104.44 29.2606 104.037 29.3361 103.729" stroke="black" stroke-width="1.19768" stroke-linecap="round" stroke-linejoin="round"/>
<path d="M23.926 106.416C23.6157 105.625 23.1523 104.105 23.4249 102.239C23.9427 98.6984 26.6915 96.7778 27.203 96.4336C27.5763 96.4546 27.9705 96.4924 28.3835 96.5469C29.2222 96.6624 29.9748 96.8366 30.629 97.0318C29.9958 97.3635 28.22 98.4024 27.18 100.596C25.792 103.52 26.767 106.265 26.9599 106.777C26.4755 106.859 25.7585 106.916 24.9261 106.74C24.5361 106.656 24.2007 106.538 23.9239 106.416H23.926Z" fill="black" stroke="black" stroke-width="0.898259" stroke-linecap="round" stroke-linejoin="round"/>
<path d="M35.779 99.3086C35.0745 99.5269 33.3741 100.161 32.005 101.85C30.1872 104.094 30.2438 106.611 30.2773 107.249C30.4975 107.486 30.7931 107.763 31.1726 108.032C31.5626 108.307 31.9337 108.496 32.2377 108.626C32.1559 107.938 32.0134 105.952 33.1833 103.905C34.6656 101.315 37.169 100.516 37.7226 100.352C37.4248 100.18 37.1187 100.008 36.8 99.8375C36.4541 99.6507 36.1123 99.4744 35.779 99.3086Z" fill="black" stroke="black" stroke-width="0.898259" stroke-linecap="round" stroke-linejoin="round"/>
<path d="M39.9165 100.478C39.3105 100.291 38.6438 100.721 38.4802 101.321C38.3502 101.8 38.5473 102.369 38.9499 102.587C39.5894 102.931 40.644 102.333 40.6859 101.563C40.7111 101.116 40.3924 100.625 39.9165 100.48V100.478Z" fill="white" stroke="black" stroke-width="0.898259" stroke-linecap="round" stroke-linejoin="round"/>
<path d="M37.479 102.171C36.873 101.984 36.2063 102.415 36.0427 103.015C35.9128 103.493 36.1098 104.062 36.5124 104.281C37.1519 104.625 38.2065 104.027 38.2484 103.256C38.2736 102.809 37.9549 102.318 37.479 102.173V102.171Z" fill="white" stroke="black" stroke-width="0.898259" stroke-linecap="round" stroke-linejoin="round"/>
<path d="M25.5024 105.42C25.4458 105.678 25.3661 106.066 25.2906 106.541C24.9237 108.86 25.2906 109.206 25.3996 109.293C25.4332 109.32 25.6198 109.467 25.7624 109.406C26.0454 109.284 25.8294 108.466 25.8986 107.525C25.9322 107.066 26.0454 106.421 26.406 105.655C26.2488 105.621 26.0852 105.584 25.9154 105.54C25.7728 105.502 25.6345 105.462 25.5045 105.42H25.5024Z" fill="black" stroke="black" stroke-width="0.898259" stroke-linecap="round" stroke-linejoin="round"/>
<path opacity="0.58" d="M30.54 98.735C30.54 97.759 30.6679 96.168 31.4688 94.4552C31.7393 93.8759 33.1482 90.8576 34.5614 91.0801C35.7292 91.2627 36.6329 93.5674 36.2177 95.3242C36.0919 95.8594 35.2051 96.7851 33.4313 98.6364C33.1713 98.9072 32.7541 99.3312 32.188 99.3479C31.8169 99.3584 31.4227 99.1947 31.2109 99.1045C30.9216 98.9827 30.6951 98.8421 30.54 98.735Z" fill="white" stroke="black" stroke-width="0.898259" stroke-linecap="round" stroke-linejoin="round"/>
<path d="M263.328 749.786C263.538 749.809 263.763 749.768 263.973 749.786C264.089 750.331 263.645 750.026 263.328 750.108V749.786Z" fill="#181612"/>
<path d="M177.507 737.684C177.551 737.654 177.826 736.71 177.989 737.684H177.667H177.504H177.507Z" fill="#181612"/>
<path d="M202.673 748.012C202.578 748.269 202.353 748.45 202.188 748.175C202.214 748.175 202.649 748.027 202.673 748.012Z" fill="#181612"/>
<path d="M208.801 732.357C208.836 732.342 208.836 732.212 208.881 732.197C209.688 732.437 208.827 732.49 208.801 732.52V732.357Z" fill="#181612"/>
<path d="M237.68 736.555C237.697 736.555 237.905 736.292 238.002 736.395C238.325 736.745 237.7 736.697 237.68 736.718V736.555Z" fill="#181612"/>
<path d="M148.307 747.85C148.348 747.782 148.215 747.515 148.39 747.527C148.733 747.477 148.606 747.592 148.629 747.85H148.307Z" fill="#181612"/>
<path d="M243.487 746.882L243.404 747.042L243.164 746.882C243.179 746.882 243.235 746.764 243.359 746.77C243.416 746.77 243.454 746.882 243.487 746.882Z" fill="#181612"/>
<path d="M173.151 757.694L173.012 757.472L173.151 757.371C173.151 757.436 173.151 757.673 173.151 757.694Z" fill="#181612"/>
<path d="M226.342 754.665C227.987 754.715 229.825 754.671 231.446 754.81C232.393 754.893 235.112 755.376 233.08 756.255C231.1 756.021 229.094 755.873 227.102 755.749C226.505 755.71 225.845 756.296 225.727 755.195L226.339 754.662L226.342 754.665Z" fill="#945C1A"/>
<path d="M215.371 751.588C215.655 751.508 215.918 751.526 216.051 751.822C216.38 752.852 214.19 753.716 213.714 754.291C213.367 754.708 213.261 755.963 212.418 755.285C211.852 754.829 212.364 754.145 212.678 753.743C212.888 753.473 215.169 751.644 215.368 751.588H215.371Z" fill="#945C1A"/>
</g>
<defs>
<linearGradient id="paint0_linear_2074_1522" x1="415.971" y1="-97.494" x2="485.119" y2="1334.03" gradientUnits="userSpaceOnUse">
<stop offset="0.05" stop-color="white"/>
<stop offset="1" stop-color="white" stop-opacity="0"/>
</linearGradient>
<linearGradient id="paint1_linear_2074_1522" x1="445.492" y1="-147.957" x2="487.16" y2="714.68" gradientUnits="userSpaceOnUse">
<stop offset="0.05" stop-color="white"/>
<stop offset="1" stop-color="white" stop-opacity="0"/>
</linearGradient>
</defs>
</svg>
