<svg width="2500" height="803" viewBox="0 0 2500 803" fill="none" xmlns="http://www.w3.org/2000/svg">
<g clip-path="url(#clip0_2010_12488)">
<path d="M2500 0H0V803H2500V0Z" fill="#009FEC"/>
<path opacity="0.5" d="M1228.04 25.1445C1424.62 29.5324 1689.83 20.8666 1966.89 11.0037L1967.13 -56.9966C1498.86 -42.2318 1065.33 -14.8408 539.676 0.00298309V89.5618C844.402 83.1578 1153.47 53.2903 1343.3 53.6461C1375.85 53.7054 1657.17 65.5449 1684.49 53.3496C1566.89 46.748 862.018 25.1445 1228.01 25.1445H1228.04Z" fill="url(#paint0_linear_2010_12488)"/>
<path opacity="0.5" d="M2705.19 25.1448C2508.61 29.5327 2244.06 20.8629 1967 11L1966 -57C2434.27 -42.2353 2867.9 -14.8405 3393.56 0.00325012V89.5621C3088.83 83.1581 2779.76 53.2906 2589.93 53.6464C2557.38 53.7057 2276.07 65.5452 2248.74 53.3499C2366.34 46.7483 3071.21 25.1448 2705.22 25.1448H2705.19Z" fill="url(#paint1_linear_2010_12488)"/>
<path opacity="0.5" d="M-148.812 25.1448C-345.386 29.5327 -610.94 20.6976 -888 10.8347V-57C-419.733 -42.2353 13.9008 -14.8405 539.555 0.00325012V89.5621C234.829 83.1581 -74.2363 53.2906 -264.073 53.6464C-296.621 53.7057 -577.935 65.5452 -605.258 53.3499C-487.656 46.7483 217.213 25.1448 -148.783 25.1448H-148.812Z" fill="url(#paint2_linear_2010_12488)"/>
<path opacity="0.6" d="M2713.35 228.83C2909.9 223.354 3174.76 202.153 3451.06 179.43L3447.95 116C2980.89 152.623 2548.89 199.007 2024.5 238.5L2027.5 299C2331.59 278.164 2640.15 258.782 2829.78 249.864C2862.3 248.334 3143.84 245.697 3170.57 232.962C3052.8 232.52 2347.74 246.665 2713.32 228.831L2713.35 228.83Z" fill="url(#paint3_linear_2010_12488)"/>
<path opacity="0.6" d="M-89.85 324.17C-286.405 329.646 -551.257 350.847 -827.555 373.57L-824.454 437C-357.388 400.377 74.6136 356.993 599 317.5L596 254C291.909 274.836 -16.6448 294.218 -206.285 303.136C-238.799 304.666 -520.339 307.303 -547.074 320.038C-429.302 320.48 275.765 306.335 -89.8215 324.169L-89.85 324.17Z" fill="url(#paint4_linear_2010_12488)"/>
<path d="M2121.87 158.746C2119.96 158.735 2117.19 158.952 2114.07 160.045C2109.49 161.646 2106.5 164.317 2104.96 165.901C2104.87 163.971 2104.51 161.322 2103.34 158.417C2101 152.64 2096.86 149.366 2094.89 148" stroke="black" stroke-width="4.13223" stroke-linecap="round" stroke-linejoin="round"/>
<path d="M2092.53 184.132C2089.69 183.776 2085.6 183.586 2080.83 184.456C2075.34 185.46 2071.13 187.473 2068.48 189.012C2068.53 186.882 2068.37 184.054 2067.5 180.876C2065.94 175.138 2062.88 171.217 2061 169.159" stroke="black" stroke-width="4.13223" stroke-linecap="round" stroke-linejoin="round"/>
<path d="M391.869 191.746C389.964 191.735 387.19 191.952 384.065 193.045C379.492 194.646 376.495 197.317 374.963 198.901C374.874 196.971 374.512 194.322 373.337 191.417C370.997 185.64 366.858 182.366 364.886 181" stroke="black" stroke-width="4.13223" stroke-linecap="round" stroke-linejoin="round"/>
<path d="M362.534 217.132C359.688 216.776 355.604 216.586 350.831 217.456C345.338 218.46 341.133 220.473 338.476 222.012C338.531 219.882 338.37 217.054 337.501 213.876C335.935 208.138 332.883 204.217 331 202.159" stroke="black" stroke-width="4.13223" stroke-linecap="round" stroke-linejoin="round"/>
<path opacity="0.6" d="M1338.09 295.088C1141.93 308.676 876.266 313.227 599.066 317.373L596.009 253.94C1064.43 245.153 1498.82 249.847 2024.57 238.364L2027.49 299.061C1722.81 307.776 1413.85 317.809 1224.24 327.301C1191.73 328.927 911.256 353.572 883.413 343.487C1000.59 331.639 1703.71 277.427 1338.12 295.087L1338.09 295.088Z" fill="url(#paint5_linear_2010_12488)"/>
<path d="M211.484 253.883C212.16 253.512 212.746 253.277 213.175 253.129C213.917 252.875 214.265 252.843 214.503 252.519C214.827 252.077 214.659 251.487 214.558 250.967C214.48 250.556 214.523 249.548 214.612 247.534C214.706 245.377 214.956 244.821 214.78 243.215C214.698 242.488 214.655 242.116 214.448 241.718C214.023 240.904 213.304 240.521 211.352 239.724C208.009 238.359 208.228 238.703 207.255 238.117C205.951 237.331 205.506 236.678 204.432 236.678C203.815 236.678 203.147 236.893 202.605 237.065C201.929 237.284 201.39 237.535 201.011 237.734C204.502 243.117 207.993 248.5 211.481 253.883H211.484Z" fill="#663E16" stroke="black" stroke-width="1.67297" stroke-linecap="round" stroke-linejoin="round"/>
<path d="M201.015 237.734C201.656 237.331 202.476 238.277 204.787 239.434C208.708 241.393 211.055 241.025 211.672 242.738C211.801 243.089 211.687 243.066 211.578 244.72C211.441 246.795 211.508 248.574 211.578 250.576C211.676 253.257 211.82 253.641 211.484 253.879C210.703 254.43 209.302 252.784 205.635 250.951C202.448 249.36 201.523 249.614 200.824 248.402C200.063 247.081 200.91 246.338 200.918 242.64C200.925 239.497 200.316 238.164 201.011 237.73L201.015 237.734Z" fill="#80521A" stroke="black" stroke-width="1.67297" stroke-linecap="round" stroke-linejoin="round"/>
<path d="M200.734 245.415C201.386 245.869 202.398 246.533 203.714 247.202C204.913 247.812 205.736 248.105 207.201 248.699C208.243 249.121 209.751 249.747 211.578 250.58" stroke="black" stroke-width="1.67297" stroke-linecap="round" stroke-linejoin="round"/>
<path d="M205.135 246.494C205.358 246.416 205.463 246.596 206.061 246.792C206.756 247.018 206.955 246.889 207.095 247.089C207.291 247.366 206.935 247.652 206.861 248.562C206.818 249.098 206.916 249.317 206.764 249.419C206.588 249.54 206.361 249.309 205.615 249.047C204.967 248.82 204.815 248.879 204.655 248.676C204.421 248.375 204.518 247.941 204.62 247.491C204.713 247.069 204.819 246.6 205.139 246.491L205.135 246.494Z" fill="#FFCC00" stroke="black" stroke-width="1.39414" stroke-linecap="round" stroke-linejoin="round"/>
<path d="M205.764 238.387C205.791 237.55 205.916 236.518 206.428 236.35C206.744 236.248 206.982 236.541 207.65 236.905C209.177 237.738 210.051 237.358 210.461 237.98C210.664 238.293 210.774 238.883 210.129 240.126" fill="#663E16"/>
<path d="M205.764 238.387C205.791 237.55 205.916 236.518 206.428 236.35C206.744 236.248 206.982 236.541 207.65 236.905C209.177 237.738 210.051 237.358 210.461 237.98C210.664 238.293 210.774 238.883 210.129 240.126" stroke="black" stroke-width="1.67297" stroke-linecap="round" stroke-linejoin="round"/>
<path d="M204.03 223.133C203.925 223.613 203.776 224.337 203.636 225.22C202.952 229.54 203.636 230.185 203.839 230.345C203.901 230.396 204.249 230.67 204.514 230.556C205.041 230.33 204.639 228.805 204.768 227.054C204.83 226.197 205.041 224.997 205.713 223.57C205.42 223.508 205.116 223.437 204.799 223.355C204.534 223.285 204.276 223.211 204.034 223.133H204.03Z" fill="black" stroke="black" stroke-width="1.67297" stroke-linecap="round" stroke-linejoin="round"/>
<path d="M207.462 230.619C207.408 231.107 207.334 231.842 207.283 232.734C207.041 237.1 207.786 237.671 208.009 237.812C208.075 237.855 208.45 238.093 208.7 237.953C209.204 237.675 208.649 236.197 208.595 234.442C208.567 233.582 208.657 232.366 209.181 230.881C208.884 230.849 208.571 230.81 208.247 230.76C207.974 230.717 207.712 230.67 207.462 230.619Z" fill="black" stroke="black" stroke-width="1.67297" stroke-linecap="round" stroke-linejoin="round"/>
<path d="M218.064 227.675C218.01 228.164 217.935 228.899 217.885 229.79C217.643 234.157 218.388 234.727 218.611 234.868C218.677 234.911 219.052 235.15 219.302 235.009C219.806 234.731 219.251 233.254 219.197 231.498C219.169 230.638 219.259 229.423 219.782 227.937C219.486 227.906 219.173 227.867 218.849 227.816C218.576 227.773 218.314 227.726 218.064 227.675Z" fill="black" stroke="black" stroke-width="1.67297" stroke-linecap="round" stroke-linejoin="round"/>
<path d="M189 220.04C189.051 215.232 192.819 212.441 193.397 212.026C197.766 208.899 203.35 210.322 206.943 211.233C208.927 211.737 211.129 212.816 215.534 214.978C222.313 218.301 223.066 219.426 223.371 220.001C225.124 223.301 224.445 227.972 221.61 230.935C218.177 234.52 212.871 234.254 209.458 232.609C206.494 231.182 205.002 228.731 204.44 227.671C200.637 230.181 195.853 230.118 192.608 227.609C189.023 224.841 189 220.392 189.004 220.036L189 220.04Z" fill="#FFDF00" stroke="black" stroke-width="2.23062" stroke-linecap="round" stroke-linejoin="round"/>
<path d="M204.436 227.675C204.338 227.19 204.26 226.592 204.26 225.912C204.26 225.033 204.385 224.282 204.526 223.707" stroke="black" stroke-width="2.23062" stroke-linecap="round" stroke-linejoin="round"/>
<path d="M194.451 228.711C193.873 227.237 193.01 224.407 193.518 220.932C194.482 214.337 199.602 210.76 200.554 210.119C201.25 210.158 201.984 210.228 202.753 210.33C204.315 210.545 205.717 210.869 206.935 211.233C205.756 211.85 202.448 213.786 200.512 217.871C197.927 223.316 199.742 228.43 200.102 229.384C199.2 229.536 197.864 229.642 196.314 229.313C195.587 229.157 194.963 228.938 194.447 228.711H194.451Z" fill="black" stroke="black" stroke-width="1.67297" stroke-linecap="round" stroke-linejoin="round"/>
<path d="M216.53 215.474C215.218 215.881 212.051 217.061 209.501 220.208C206.115 224.387 206.221 229.075 206.283 230.263C206.693 230.705 207.244 231.221 207.951 231.721C208.677 232.233 209.368 232.585 209.934 232.827C209.782 231.545 209.516 227.847 211.695 224.036C214.456 219.212 219.119 217.722 220.15 217.417C219.595 217.097 219.025 216.776 218.431 216.459C217.787 216.111 217.151 215.783 216.53 215.474Z" fill="black" stroke="black" stroke-width="1.67297" stroke-linecap="round" stroke-linejoin="round"/>
<path d="M224.234 217.652C223.106 217.304 221.864 218.105 221.559 219.223C221.317 220.115 221.684 221.174 222.434 221.581C223.625 222.222 225.589 221.108 225.667 219.673C225.714 218.84 225.121 217.925 224.234 217.656V217.652Z" fill="white" stroke="black" stroke-width="1.67297" stroke-linecap="round" stroke-linejoin="round"/>
<path d="M219.693 220.807C218.564 220.459 217.322 221.26 217.018 222.378C216.776 223.269 217.143 224.329 217.892 224.735C219.083 225.376 221.047 224.262 221.126 222.828C221.172 221.995 220.579 221.08 219.693 220.81V220.807Z" fill="white" stroke="black" stroke-width="1.67297" stroke-linecap="round" stroke-linejoin="round"/>
<path d="M197.391 226.858C197.286 227.339 197.138 228.062 196.997 228.946C196.314 233.265 196.997 233.91 197.2 234.071C197.263 234.121 197.61 234.395 197.876 234.282C198.403 234.055 198.001 232.53 198.129 230.779C198.192 229.923 198.403 228.723 199.074 227.296C198.782 227.233 198.477 227.163 198.161 227.081C197.895 227.01 197.637 226.936 197.395 226.858H197.391Z" fill="black" stroke="black" stroke-width="1.67297" stroke-linecap="round" stroke-linejoin="round"/>
<path opacity="0.58" d="M206.771 214.407C206.771 212.589 207.009 209.626 208.501 206.436C209.005 205.357 211.629 199.736 214.261 200.15C216.436 200.49 218.119 204.782 217.346 208.054C217.111 209.051 215.459 210.775 212.156 214.223C211.672 214.728 210.895 215.517 209.84 215.549C209.149 215.568 208.415 215.263 208.021 215.095C207.482 214.868 207.06 214.606 206.771 214.407Z" fill="white" stroke="black" stroke-width="1.67297" stroke-linecap="round" stroke-linejoin="round"/>
<path opacity="0.58" d="M204.022 214.501C202.741 213.621 200.363 211.682 199.258 208.399C199.055 207.8 197.388 202.836 199.781 200.834C200.867 199.927 202.558 199.818 203.745 200.228C207.041 201.378 208.657 207.343 208.025 215.091C207.298 214.943 206.525 214.81 205.717 214.696C205.135 214.614 204.569 214.552 204.026 214.501H204.022Z" fill="white" stroke="black" stroke-width="1.67297" stroke-linecap="round" stroke-linejoin="round"/>
<path d="M2339.32 281.184C2338.82 280.914 2338.4 280.744 2338.09 280.636C2337.55 280.451 2337.29 280.428 2337.12 280.192C2336.88 279.871 2337.01 279.442 2337.08 279.063C2337.14 278.765 2337.11 278.032 2337.04 276.567C2336.97 274.998 2336.79 274.595 2336.92 273.426C2336.98 272.897 2337.01 272.627 2337.16 272.337C2337.47 271.746 2337.99 271.467 2339.41 270.887C2341.84 269.895 2341.68 270.145 2342.39 269.719C2343.34 269.148 2343.66 268.673 2344.44 268.673C2344.89 268.673 2345.38 268.829 2345.77 268.954C2346.26 269.113 2346.66 269.295 2346.93 269.44C2344.39 273.355 2341.85 277.27 2339.32 281.184Z" fill="#663E16" stroke="black" stroke-width="1.2166" stroke-linecap="round" stroke-linejoin="round"/>
<path d="M2346.93 269.44C2346.46 269.148 2345.87 269.835 2344.19 270.677C2341.33 272.101 2339.63 271.834 2339.18 273.079C2339.09 273.335 2339.17 273.318 2339.25 274.52C2339.35 276.03 2339.3 277.324 2339.25 278.779C2339.18 280.729 2339.07 281.008 2339.32 281.181C2339.88 281.582 2340.9 280.385 2343.57 279.052C2345.89 277.895 2346.56 278.08 2347.07 277.198C2347.62 276.238 2347.01 275.697 2347 273.008C2346.99 270.722 2347.44 269.753 2346.93 269.437V269.44Z" fill="#80521A" stroke="black" stroke-width="1.2166" stroke-linecap="round" stroke-linejoin="round"/>
<path d="M2347.13 275.026C2346.66 275.356 2345.92 275.84 2344.97 276.326C2344.09 276.769 2343.5 276.982 2342.43 277.414C2341.67 277.722 2340.58 278.176 2339.25 278.782" stroke="black" stroke-width="1.2166" stroke-linecap="round" stroke-linejoin="round"/>
<path d="M2343.93 275.811C2343.77 275.754 2343.69 275.885 2343.26 276.027C2342.75 276.192 2342.61 276.098 2342.51 276.243C2342.37 276.445 2342.62 276.653 2342.68 277.315C2342.71 277.704 2342.64 277.864 2342.75 277.938C2342.88 278.026 2343.04 277.858 2343.58 277.667C2344.06 277.503 2344.17 277.545 2344.28 277.397C2344.45 277.179 2344.38 276.863 2344.31 276.536C2344.24 276.229 2344.16 275.888 2343.93 275.808V275.811Z" fill="#FFCC00" stroke="black" stroke-width="1.01383" stroke-linecap="round" stroke-linejoin="round"/>
<path d="M2343.48 269.915C2343.46 269.307 2343.37 268.556 2342.99 268.434C2342.76 268.36 2342.59 268.573 2342.1 268.838C2340.99 269.443 2340.36 269.167 2340.06 269.619C2339.91 269.847 2339.83 270.276 2340.3 271.18" fill="#663E16"/>
<path d="M2343.48 269.915C2343.46 269.307 2343.37 268.556 2342.99 268.434C2342.76 268.36 2342.59 268.573 2342.1 268.838C2340.99 269.443 2340.36 269.167 2340.06 269.619C2339.91 269.847 2339.83 270.276 2340.3 271.18" stroke="black" stroke-width="1.2166" stroke-linecap="round" stroke-linejoin="round"/>
<path d="M2344.74 258.822C2344.81 259.172 2344.92 259.698 2345.02 260.34C2345.52 263.482 2345.02 263.951 2344.88 264.067C2344.83 264.104 2344.58 264.303 2344.38 264.221C2344 264.056 2344.29 262.947 2344.2 261.674C2344.15 261.051 2344 260.178 2343.51 259.141C2343.73 259.095 2343.95 259.044 2344.18 258.984C2344.37 258.933 2344.56 258.879 2344.73 258.822H2344.74Z" fill="black" stroke="black" stroke-width="1.2166" stroke-linecap="round" stroke-linejoin="round"/>
<path d="M2342.24 264.266C2342.28 264.622 2342.33 265.156 2342.37 265.804C2342.55 268.98 2342 269.395 2341.84 269.497C2341.79 269.528 2341.52 269.702 2341.34 269.6C2340.97 269.398 2341.38 268.323 2341.42 267.047C2341.44 266.421 2341.37 265.537 2340.99 264.457C2341.21 264.434 2341.43 264.406 2341.67 264.369C2341.87 264.337 2342.06 264.303 2342.24 264.266Z" fill="black" stroke="black" stroke-width="1.2166" stroke-linecap="round" stroke-linejoin="round"/>
<path d="M2334.53 262.126C2334.57 262.481 2334.62 263.015 2334.66 263.664C2334.84 266.839 2334.3 267.254 2334.13 267.356C2334.08 267.388 2333.81 267.561 2333.63 267.459C2333.26 267.257 2333.67 266.182 2333.71 264.906C2333.73 264.28 2333.66 263.396 2333.28 262.316C2333.5 262.293 2333.72 262.265 2333.96 262.228C2334.16 262.197 2334.35 262.163 2334.53 262.126Z" fill="black" stroke="black" stroke-width="1.2166" stroke-linecap="round" stroke-linejoin="round"/>
<path d="M2355.67 256.573C2355.63 253.077 2352.89 251.047 2352.47 250.746C2349.29 248.471 2345.23 249.506 2342.62 250.169C2341.18 250.535 2339.57 251.32 2336.37 252.892C2331.44 255.308 2330.89 256.127 2330.67 256.545C2329.4 258.944 2329.89 262.342 2331.95 264.497C2334.45 267.103 2338.31 266.91 2340.79 265.713C2342.94 264.676 2344.03 262.893 2344.44 262.123C2347.2 263.948 2350.68 263.902 2353.04 262.077C2355.65 260.065 2355.67 256.829 2355.66 256.571L2355.67 256.573Z" fill="#FFDF00" stroke="black" stroke-width="1.62213" stroke-linecap="round" stroke-linejoin="round"/>
<path d="M2344.44 262.126C2344.51 261.773 2344.57 261.338 2344.57 260.843C2344.57 260.204 2344.48 259.658 2344.38 259.24" stroke="black" stroke-width="1.62213" stroke-linecap="round" stroke-linejoin="round"/>
<path d="M2351.7 262.879C2352.12 261.807 2352.75 259.749 2352.38 257.222C2351.68 252.426 2347.96 249.825 2347.26 249.358C2346.76 249.387 2346.22 249.438 2345.67 249.512C2344.53 249.668 2343.51 249.904 2342.62 250.168C2343.48 250.618 2345.89 252.025 2347.3 254.996C2349.18 258.956 2347.85 262.674 2347.59 263.368C2348.25 263.479 2349.22 263.555 2350.35 263.317C2350.88 263.203 2351.33 263.044 2351.71 262.879H2351.7Z" fill="black" stroke="black" stroke-width="1.2166" stroke-linecap="round" stroke-linejoin="round"/>
<path d="M2335.65 253.253C2336.6 253.549 2338.9 254.407 2340.76 256.696C2343.22 259.735 2343.14 263.143 2343.1 264.008C2342.8 264.329 2342.4 264.704 2341.89 265.068C2341.36 265.44 2340.85 265.696 2340.44 265.872C2340.55 264.94 2340.75 262.251 2339.16 259.479C2337.15 255.971 2333.76 254.888 2333.01 254.666C2333.42 254.433 2333.83 254.2 2334.26 253.969C2334.73 253.716 2335.2 253.478 2335.65 253.253Z" fill="black" stroke="black" stroke-width="1.2166" stroke-linecap="round" stroke-linejoin="round"/>
<path d="M2330.04 254.837C2330.86 254.584 2331.77 255.166 2331.99 255.979C2332.17 256.628 2331.9 257.398 2331.35 257.694C2330.49 258.16 2329.06 257.35 2329 256.306C2328.97 255.701 2329.4 255.036 2330.04 254.839V254.837Z" fill="white" stroke="black" stroke-width="1.2166" stroke-linecap="round" stroke-linejoin="round"/>
<path d="M2333.35 257.131C2334.17 256.878 2335.07 257.46 2335.29 258.273C2335.47 258.922 2335.2 259.692 2334.66 259.988C2333.79 260.454 2332.36 259.644 2332.3 258.6C2332.27 257.995 2332.7 257.33 2333.35 257.134V257.131Z" fill="white" stroke="black" stroke-width="1.2166" stroke-linecap="round" stroke-linejoin="round"/>
<path d="M2349.56 261.531C2349.64 261.881 2349.75 262.407 2349.85 263.05C2350.35 266.191 2349.85 266.66 2349.7 266.777C2349.66 266.814 2349.41 267.013 2349.21 266.93C2348.83 266.765 2349.12 265.656 2349.03 264.383C2348.98 263.76 2348.83 262.888 2348.34 261.85C2348.55 261.804 2348.77 261.753 2349 261.694C2349.2 261.642 2349.39 261.588 2349.56 261.531Z" fill="black" stroke="black" stroke-width="1.2166" stroke-linecap="round" stroke-linejoin="round"/>
<path opacity="0.58" d="M2342.74 252.477C2342.74 251.155 2342.57 249 2341.49 246.68C2341.12 245.896 2339.21 241.808 2337.3 242.109C2335.72 242.356 2334.49 245.478 2335.05 247.857C2335.22 248.582 2336.43 249.836 2338.83 252.343C2339.18 252.71 2339.74 253.284 2340.51 253.307C2341.01 253.321 2341.55 253.1 2341.83 252.977C2342.23 252.812 2342.53 252.622 2342.74 252.477Z" fill="white" stroke="black" stroke-width="1.2166" stroke-linecap="round" stroke-linejoin="round"/>
<path opacity="0.58" d="M2344.74 252.545C2345.67 251.906 2347.4 250.496 2348.21 248.108C2348.35 247.673 2349.57 244.062 2347.83 242.607C2347.04 241.947 2345.81 241.867 2344.94 242.166C2342.55 243.002 2341.37 247.34 2341.83 252.974C2342.36 252.866 2342.92 252.77 2343.51 252.687C2343.93 252.628 2344.34 252.582 2344.74 252.545Z" fill="white" stroke="black" stroke-width="1.2166" stroke-linecap="round" stroke-linejoin="round"/>
</g>
<defs>
<linearGradient id="paint0_linear_2010_12488" x1="1253.45" y1="-511.919" x2="1253.45" y2="410.589" gradientUnits="userSpaceOnUse">
<stop offset="0.05" stop-color="white"/>
<stop offset="1" stop-color="white" stop-opacity="0"/>
</linearGradient>
<linearGradient id="paint1_linear_2010_12488" x1="2679.78" y1="-511.919" x2="2679.78" y2="410.589" gradientUnits="userSpaceOnUse">
<stop offset="0.05" stop-color="white"/>
<stop offset="1" stop-color="white" stop-opacity="0"/>
</linearGradient>
<linearGradient id="paint2_linear_2010_12488" x1="-174.222" y1="-511.919" x2="-174.222" y2="410.589" gradientUnits="userSpaceOnUse">
<stop offset="0.05" stop-color="white"/>
<stop offset="1" stop-color="white" stop-opacity="0"/>
</linearGradient>
<linearGradient id="paint3_linear_2010_12488" x1="2714.18" y1="-274.603" x2="2756.26" y2="588.014" gradientUnits="userSpaceOnUse">
<stop offset="0.05" stop-color="white"/>
<stop offset="1" stop-color="white" stop-opacity="0"/>
</linearGradient>
<linearGradient id="paint4_linear_2010_12488" x1="-90.6805" y1="827.603" x2="-132.76" y2="-35.0141" gradientUnits="userSpaceOnUse">
<stop offset="0.05" stop-color="white"/>
<stop offset="1" stop-color="white" stop-opacity="0"/>
</linearGradient>
<linearGradient id="paint5_linear_2010_12488" x1="1288.5" y1="-205.897" x2="1330.17" y2="656.74" gradientUnits="userSpaceOnUse">
<stop offset="0.05" stop-color="white"/>
<stop offset="1" stop-color="white" stop-opacity="0"/>
</linearGradient>
<clipPath id="clip0_2010_12488">
<rect width="2500" height="803" fill="white"/>
</clipPath>
</defs>
</svg>
