<svg width="127" height="94" viewBox="0 0 127 94" fill="none" xmlns="http://www.w3.org/2000/svg">
<g filter="url(#filter0_d_2010_19499)">
<path d="M70.2982 44.6347C70.0983 44.6734 69.8176 44.5744 69.6206 44.7307C69.364 45.4564 68.7614 45.9812 68.3815 46.6438C67.4387 48.2857 67.2005 50.335 66.7057 52.1404C66.5682 52.6438 66.0862 53.1012 66.9765 53.1959C66.3059 55.2408 65.3886 57.6844 64.0361 59.368C63.8079 59.6505 62.4483 60.7576 63.1118 61.0931C63.3443 61.2107 63.5513 61.0014 63.7696 60.9727C63.8901 60.9569 63.9014 60.9655 63.883 61.0888C63.3117 61.7844 62.7446 62.4913 62.1463 63.1625C60.2579 65.2834 58.524 66.934 56.2103 68.5774C56.1181 68.6419 56.0458 68.7337 55.9225 68.7108C58.0292 66.0564 59.7092 63.1094 60.8505 59.8986C62.6397 54.8608 63.3982 48.5381 61.3694 43.4674C60.5372 41.3866 59.5377 39.9511 57.3303 39.267C54.7202 38.4582 52.5355 39.5883 50.2487 40.724C49.4534 39.1624 48.8764 37.4487 47.7308 36.0792C48.3617 36.1451 49.1613 37.9606 49.5498 37.9994C50.4671 37.8387 49.52 36.7102 49.1954 36.3172C45.9332 32.3722 40.8676 33.518 36.9334 35.7149C36.6782 35.8569 36.1806 36.2828 36.0176 36.3531C35.8545 36.4233 35.8956 36.181 35.9042 36.082C35.9453 35.6375 36.4613 34.0945 35.5738 34.1791C34.9585 34.2379 33.5039 34.9979 32.9127 35.3234C31.8891 35.8885 30.9648 36.5954 30.0277 37.2909C30.4076 34.8144 31.9685 32.104 33.9321 30.571C34.1292 30.4176 35.0507 29.8683 35.0932 29.788C35.2279 29.5328 34.8919 29.355 34.6849 29.3349C34.2964 29.2976 33.3296 30.0662 33.0049 30.3373C32.6278 30.6528 31.7658 31.6881 31.461 31.8244C30.3736 32.3163 28.3718 32.2159 27.1383 32.3779C25.9659 32.5328 24.8118 32.9845 23.7188 33.1423C23.6039 33.1595 23.5019 33.1982 23.5331 33.0333C25.4909 31.4859 27.8826 30.1666 30.3155 29.5744C30.6968 29.4812 31.6538 29.5299 31.1505 28.7684C31.0002 28.5404 28.522 27.0447 28.634 26.8984C29.0324 26.7694 29.4237 26.6518 29.8419 26.5944C30.9818 26.4396 32.676 26.517 33.7549 26.9157C34.1433 27.0591 34.8054 27.5337 35.2052 27.4118C35.4136 27.3487 35.588 27.1078 35.5738 26.8784C35.537 26.322 35.0181 25.2034 34.8692 24.5366C34.5219 22.9778 34.4425 21.2942 34.5857 19.7053L37.3361 24.31C37.5275 24.5222 37.6834 24.7947 38.0095 24.6943C38.2051 24.5997 38.2732 24.4118 38.2973 24.201C38.371 23.57 38.1881 22.6479 38.215 21.9295C38.2618 20.6661 38.4717 19.2163 38.707 17.9715C39.345 14.5829 40.6408 11.309 42.6639 8.52982C42.7759 8.60439 42.7716 8.67896 42.7844 8.79798C42.9701 10.625 43.1402 12.4361 43.5117 14.2373C43.7555 15.4161 44.2446 16.6752 44.4616 17.8095C44.5041 18.0332 44.4587 18.2598 44.4913 18.4835L44.6062 18.6025C45.3519 18.6699 45.1846 17.9816 45.2895 17.5155C45.3831 17.1025 45.8325 16.1905 46.0367 15.7689C47.84 12.036 51.7189 7.33526 54.9556 4.77837C55.2802 4.52167 56.2656 3.72865 56.5775 3.60389C56.6781 3.56373 56.7122 3.61106 56.688 3.71574C56.5364 4.36106 56.1777 5.14405 55.9764 5.81088C55.4759 7.46432 55.0364 9.13355 54.7727 10.8472C54.6862 11.4137 54.4424 12.7531 54.4764 13.2478C54.509 13.7139 54.9357 13.8343 55.259 13.5274C56.3393 11.6403 57.8974 10.103 59.4739 8.64454C63.0111 5.37493 67.0431 2.69184 71.5728 1.02692C71.0099 2.13973 70.2741 3.18084 69.7156 4.30657C69.4434 4.85437 69.1768 5.4624 68.9457 6.02885C68.7671 6.46336 68.2071 7.754 68.1475 8.11968C68.1121 8.33909 68.2113 8.67035 68.441 8.73489C68.6707 8.79942 69.174 8.10534 69.3696 7.94329C70.3578 7.11585 71.896 6.34291 73.0827 5.83669C77.0112 4.15743 81.2091 3.4275 85.4467 3.06039C83.968 4.68372 82.1405 5.93707 80.5768 7.4758C80.3981 7.67656 80.3712 7.97054 80.4605 8.21863C80.6845 8.6933 82.2426 8.26309 82.7034 8.21863C87.7987 7.73679 92.6913 8.42083 97.6604 9.5064L97.737 9.62399C96.8339 9.8477 95.9194 10.1345 95.049 10.4629C94.6109 10.6293 93.5532 10.8401 93.851 11.4811C94.0211 11.8453 95.3098 11.7636 95.7564 11.8224C100.557 12.4534 104.926 15.2426 108.907 17.831C109.001 17.9701 108.836 17.8998 108.771 17.8898C107.811 17.7306 104.623 17.5714 103.866 18.049C102.991 18.6011 104.461 18.9567 104.823 19.146C107.165 20.3736 110.352 23.8468 112.154 25.8803C113.265 27.1336 114.288 28.4659 115.359 29.7522C115.422 29.9056 115.06 29.897 114.952 30.1236C114.925 30.1795 114.903 30.2355 114.903 30.2986C114.903 30.6183 116.172 31.5691 116.482 31.8989C118.963 34.5333 121.227 38.7451 122.529 42.1208C122.822 42.8823 123.042 43.6939 123.243 44.4855L70.7959 44.4812C70.6016 44.4282 70.4287 44.616 70.2968 44.6418L70.2982 44.6347ZM53.4485 33.0663C53.4967 33.2914 53.3238 33.6958 53.7066 33.756C54.0284 33.5495 54.1503 33.2885 54.5303 33.1064C56.1989 32.3091 58.1908 32.507 59.9786 32.3621C61.9719 32.2015 64.2672 31.9491 66.2038 31.4673C66.4534 31.4056 66.8447 31.3597 66.7341 31.007L66.6674 30.9152C66.5157 30.8048 66.3442 30.7904 66.1641 30.7933C65.1916 30.8119 63.6562 31.3397 62.5986 31.4931C61.497 31.6523 60.2735 31.7699 59.1691 31.6996C60.3968 30.7689 61.9336 29.9659 62.9544 28.8057C64.6032 26.93 66.3031 22.843 66.5781 20.3549C66.7624 18.68 66.5696 16.8702 66.9198 15.2282C67.2345 13.7555 68.2936 12.0561 68.0398 10.5346C67.9831 10.1933 67.7279 9.43613 67.3295 9.46194C67.002 9.48345 66.1032 10.5848 65.7757 10.8659C63.7824 12.5724 61.3467 13.3568 59.0401 14.4495C54.8011 16.4586 52.218 20.309 50.8016 24.7216C50.6911 25.0657 50.5762 25.9448 50.3239 26.114C50.0928 26.2689 49.0706 26.5041 48.7516 26.5571C48.1817 26.6504 47.5721 26.6962 46.995 26.735C46.6534 26.7579 45.5093 26.5629 45.6539 27.1508C45.7531 27.5552 46.9709 27.4563 47.3084 27.4434C48.3532 27.4061 49.3938 27.224 50.3579 26.8153C50.0871 28.5447 50.1878 30.4133 50.8243 32.051L51.3631 31.8961C51.3914 32.0165 53.104 33.3402 53.45 33.0691L53.4485 33.0663ZM89.6786 19.0944C89.5581 18.9682 88.7457 18.6972 88.5118 18.5939C88.1446 18.4333 87.9036 18.1207 87.457 18.2139C87.3138 18.9567 88.3516 19.1302 88.8478 19.4257C88.6011 19.7311 86.6248 20.2402 87.026 20.7995C87.1721 20.9257 87.3705 20.8812 87.5364 20.8353C87.7845 20.7665 89.3213 19.9663 89.5241 19.7971C89.7268 19.6279 89.9026 19.3296 89.6772 19.093L89.6786 19.0944ZM99.8806 26.4353C99.183 26.6418 100.511 27.3502 100.711 27.5194C100.969 27.7388 101.694 28.6394 101.946 28.615C102.318 28.5031 102.213 28.2923 102.068 28.0227C101.831 27.5825 100.363 26.2933 99.8806 26.4353ZM78.2446 31.3698C77.9341 31.3913 76.8737 31.4314 77.0324 31.9205C77.0721 32.0079 77.1671 32.071 77.255 32.0968C77.4323 32.1485 78.5381 31.9577 78.9209 31.9692C80.1288 32.0022 81.5678 32.3779 82.7261 32.7336C83.4009 32.9401 84.932 33.6901 85.4311 33.756C85.9982 33.8306 85.7742 33.2355 85.3999 33.0003C84.8966 32.6862 83.5739 32.2933 82.9586 32.1083C81.4983 31.6695 79.7772 31.2665 78.246 31.3712L78.2446 31.3698ZM69.9126 39.1624C69.4107 39.3789 68.2071 39.7188 67.83 40.0658C67.6173 40.2623 67.6315 40.5534 67.8782 40.7169L68.1546 40.7097C68.6338 40.2494 70.6498 39.7417 70.8781 39.2398C71.0043 38.9616 70.8696 38.7737 70.6357 38.6275C70.0671 38.2733 68.4353 37.79 67.7307 37.5792C65.9657 37.05 64.4728 36.7632 62.6057 36.8923C62.298 36.9138 62.0031 36.9841 62.2229 37.3655C62.4029 37.6796 63.6888 37.4343 64.0773 37.4444C65.4085 37.4788 68.6055 38.3765 69.8035 38.9989C69.8843 39.0405 69.9495 38.9587 69.914 39.1609L69.9126 39.1624ZM87.9121 42.1237C88.1234 41.9889 87.8185 41.5228 87.6924 41.3866C87.4854 41.1643 86.0861 39.9511 85.8791 39.8593C85.3106 39.6069 85.1248 39.9626 85.5218 40.377C85.8054 40.6724 87.0345 41.7537 87.3535 41.963C87.4925 42.0534 87.7434 42.2298 87.9107 42.1237H87.9121ZM111.96 43.8531L110.712 41.0137L110.515 40.8158C110.08 40.7943 110.139 41.0825 110.22 41.4325C110.394 42.1882 110.99 43.0228 111.225 43.7757L111.96 43.8531ZM120.693 42.9941C120.334 42.7632 119.318 41.9501 119.299 42.878C119.285 43.5634 120.214 43.073 120.655 43.1504L120.693 42.9956V42.9941Z" fill="#C98C3C"/>
<path d="M70.2982 44.6347C68.6197 46.5749 67.9363 48.9956 67.606 51.4994C67.9576 51.6428 68.0058 51.802 67.9717 52.1691C67.8101 53.9373 65.8338 58.0128 64.7649 59.4799C64.6571 59.6276 64.1708 59.9717 64.5976 59.9359C64.8457 59.9144 65.0626 59.8039 65.1646 60.1883C65.2398 60.4736 64.4033 61.4431 64.1893 61.7127C62.1293 64.2997 59.6128 66.8508 56.9035 68.728C56.0458 69.3217 54.9301 69.8752 54.1475 70.4746C53.8427 70.7084 53.5889 71.0841 53.2926 71.3308C50.0261 74.0612 44.4701 75.6042 41.0009 72.4249C39.2358 70.8073 38.1527 68.4684 37.6777 66.1309C36.9292 66.3733 36.5719 65.553 36.3578 64.9651C36.2997 64.9235 36.1466 64.9837 36.0757 65.0181C35.4987 65.3035 34.0384 66.7734 33.5422 67.3025C29.4308 71.6979 25.8269 77.5086 23.7216 83.1645C23.5217 83.4957 23.2793 83.3308 23.1077 83.4814C22.9461 83.6234 22.5832 84.5784 22.2231 84.9312C20.889 86.2434 19.0559 85.8433 17.4864 86.1602C15.9539 86.4699 16.1552 87.4623 14.0853 86.7453C11.0032 85.6784 7.43191 82.9738 5.53925 80.3021C3.82947 77.8886 1.98926 73.3298 3.65367 70.5291C4.17256 69.6558 6.79252 69.3489 7.7268 69.4135C8.0387 69.435 8.42716 69.5712 8.73197 69.5755C9.21542 69.5827 9.92853 69.1854 10.368 68.9574C15.3471 66.3833 18.6717 61.0989 21.2066 56.2447C21.0393 55.4903 20.6196 54.6959 20.4623 53.9545C20.3616 53.4827 20.2865 52.5907 20.2808 52.1017C20.2765 51.7489 20.397 51.5353 20.4353 51.2083C19.389 50.8398 18.5809 50.0166 18.0323 49.0644C15.8518 45.2857 17.787 39.4277 21.9268 37.9678C22.1947 37.8732 22.7703 37.8201 22.9575 37.681C23.1148 37.5648 23.5345 36.8794 23.7259 36.66C24.9238 35.2761 26.2679 34.0873 27.8614 33.1824C27.1171 33.1308 26.3373 33.3215 25.6058 33.4807C24.8742 33.6399 22.423 34.4587 21.8871 34.2995C21.6943 34.2422 21.5738 34.0199 21.612 33.8277C21.6914 33.419 23.0326 32.431 23.4069 32.1356L23.4466 31.9463C19.854 28.8287 17.0002 24.7115 16.2927 19.8716C15.8362 16.754 16.8499 14.4352 17.0399 11.5313C17.0781 10.9404 16.7861 9.05037 17.5417 8.98441C18.0096 8.94425 19.8796 9.91223 20.3659 10.2019C24.0519 12.3931 26.628 16.9333 27.3609 21.1049C27.6572 22.7871 27.609 24.5108 28.4894 26.0222C30.4544 25.6236 32.6363 25.5189 34.5077 26.3435C34.4326 25.7785 34.2043 25.2593 34.0824 24.7029C33.7265 23.0839 33.6174 20.8468 33.7322 19.1876C33.7761 18.5552 33.8669 17.6403 34.6651 18.2512L37.5218 23.0595C37.4821 18.3042 38.7892 13.483 41.2773 9.46481C41.6445 8.87112 42.3676 8.03651 42.627 7.46863C42.8113 7.06566 42.7957 6.23822 43.5046 6.80897C43.8817 7.11298 43.428 7.34673 43.3543 7.57761C43.1955 8.07666 43.4833 9.94665 43.5627 10.5805C43.7881 12.3587 44.1865 14.9457 44.7919 16.6063C44.8217 16.6895 44.8273 16.7942 44.9422 16.8042C46.1033 13.8731 47.9293 11.2402 49.9269 8.82953C51.5346 6.89214 53.294 5.07091 55.3086 3.56373C55.612 3.33716 57.1318 2.22004 57.3544 2.18849C57.672 2.14403 57.8648 2.2774 57.9059 2.60149C57.2679 4.38831 56.6285 6.18516 56.172 8.0322C55.9395 8.9715 55.6276 10.1976 55.5411 11.1469C55.5298 11.2674 55.4872 11.4739 55.5695 11.5671C58.4304 8.25448 61.7578 5.26307 65.5276 3.03457C67.2331 2.02644 69.2491 0.958081 71.1248 0.331406C71.6323 0.162189 73.1904 -0.468789 72.9054 0.644026C72.8431 0.887813 71.8762 2.14403 71.6536 2.50685C70.8101 3.88496 69.9807 5.39787 69.5213 6.95524C69.6021 7.03411 70.793 6.23965 70.9873 6.13353C74.1431 4.40265 78.0802 3.28696 81.6273 2.74633C82.7388 2.57711 84.4032 2.2903 85.4835 2.26449C86.0478 2.25015 86.5865 2.38352 86.4306 3.07042C86.3753 3.31421 85.3843 4.25638 85.1348 4.49443C84.114 5.46527 82.9784 6.32856 81.9406 7.2822C81.8655 7.35103 81.7748 7.35104 81.8102 7.50161C85.9627 6.98966 90.0869 7.28794 94.1912 7.99492C96.0017 8.30754 97.8249 8.78364 99.6353 9.05468C100.022 9.11204 100.995 8.94426 100.734 9.71577C100.648 9.97246 99.5942 9.96099 99.2624 10.0255C98.1665 10.2363 97.1047 10.6436 96.0328 10.9419C96.0144 10.9663 96.0768 11.0451 96.108 11.0595C96.2838 11.1426 97.1259 11.2215 97.4236 11.2918C102.265 12.4261 105.829 14.9844 109.951 17.5399C110.25 17.7249 111.306 18.2096 111.381 18.4419C111.47 18.7201 111.326 18.9051 111.061 18.994C110.423 18.8779 109.778 18.7459 109.133 18.68C108.001 18.5638 106.542 18.4405 105.422 18.5236C105.308 18.5323 105.198 18.4634 105.231 18.6398C107.512 20.1384 109.537 22.0543 111.417 24.0318C113.696 26.431 115.517 29.0194 117.636 31.5003C117.969 31.8903 119.01 32.6834 118.997 33.181C118.993 33.3617 118.82 33.4491 118.864 33.6098C118.914 33.7933 119.837 35.028 120.026 35.3349C121.376 37.4989 123.178 40.6366 123.74 43.0701C123.897 43.7556 124.443 44.6289 123.24 44.4741C123.039 43.6825 122.819 42.8708 122.526 42.1093C121.224 38.735 118.96 34.5218 116.479 31.8875C116.169 31.5576 114.901 30.6054 114.9 30.2871C114.9 30.224 114.924 30.1681 114.95 30.1121C115.057 29.8856 115.419 29.8942 115.356 29.7407C114.283 28.4544 113.261 27.1236 112.151 25.8688C110.349 23.8353 107.162 20.3621 104.82 19.1346C104.458 18.9453 102.99 18.5896 103.863 18.0375C104.62 17.5585 107.809 17.7192 108.768 17.8783C108.832 17.8884 108.998 17.9586 108.904 17.8195C104.923 15.2311 100.554 12.4419 95.7536 11.8109C95.307 11.7521 94.0183 11.8338 93.8481 11.4696C93.549 10.83 94.6066 10.6178 95.0461 10.4514C95.9152 10.1216 96.831 9.83479 97.7341 9.61252L97.6576 9.49493C92.6898 8.41079 87.7959 7.72675 82.7005 8.20716C82.2412 8.25018 80.6817 8.68182 80.4577 8.20716C80.3684 7.95907 80.3953 7.66509 80.5739 7.46432C82.1377 5.9256 83.9651 4.67225 85.4438 3.04891C81.2063 3.41603 77.0084 4.14595 73.0798 5.82522C71.8932 6.33287 70.3535 7.10438 69.3668 7.93182C69.1726 8.0953 68.6565 8.78508 68.4382 8.72341C68.2085 8.66031 68.1093 8.32762 68.1447 8.10821C68.2043 7.74253 68.7657 6.45189 68.9429 6.01738C69.1754 5.45093 69.4419 4.8429 69.7127 4.29509C70.2713 3.16937 71.0085 2.12826 71.5699 1.01544C67.0417 2.6818 63.0097 5.36489 59.4711 8.63307C57.8931 10.0901 56.3365 11.6288 55.2561 13.516C54.9329 13.8229 54.5062 13.7024 54.4736 13.2363C54.4395 12.743 54.6834 11.4036 54.7699 10.8358C55.0321 9.12208 55.4731 7.45285 55.9735 5.7994C56.1748 5.13401 56.5349 4.34959 56.6852 3.70427C56.7093 3.60102 56.6753 3.55226 56.5746 3.59241C56.2641 3.71861 55.2788 4.5102 54.9528 4.76689C51.7161 7.32379 47.8372 12.0246 46.0338 15.7574C45.8297 16.179 45.3817 17.091 45.2867 17.504C45.1803 17.9687 45.3476 18.6584 44.6033 18.591L44.4885 18.472C44.4559 18.2483 44.5027 18.0217 44.4587 17.798C44.2418 16.6623 43.7527 15.4046 43.5089 14.2258C43.136 12.4247 42.9673 10.6135 42.7816 8.78651C42.7688 8.66749 42.773 8.59291 42.661 8.51834C40.6379 11.2975 39.3421 14.5714 38.7042 17.9601C38.4702 19.2048 38.259 20.6546 38.2122 21.918C38.1853 22.6365 38.3682 23.56 38.2944 24.1895C38.2703 24.4003 38.2023 24.5882 38.0066 24.6829C37.6806 24.7818 37.5246 24.5108 37.3332 24.2985L34.5828 19.6938C34.4396 21.2827 34.519 22.9663 34.8664 24.5251C35.0152 25.1919 35.5327 26.3105 35.571 26.8669C35.5866 27.0963 35.4122 27.3373 35.2024 27.4004C34.8012 27.5208 34.1405 27.0476 33.752 26.9042C32.6731 26.5055 30.9775 26.4281 29.8391 26.583C29.4209 26.6403 29.0296 26.7565 28.6312 26.887C28.5192 27.0332 30.996 28.5289 31.1477 28.757C31.651 29.5184 30.694 29.4697 30.3126 29.5629C27.8798 30.1552 25.4881 31.4759 23.5302 33.0218C23.499 33.1867 23.5997 33.148 23.7159 33.1308C24.809 32.9745 25.9616 32.5213 27.1355 32.3664C28.3689 32.2044 30.3693 32.3048 31.4582 31.8129C31.7616 31.6752 32.6235 30.6399 33.0021 30.3258C33.3253 30.0548 34.2922 29.2861 34.6821 29.3234C34.8891 29.3435 35.2251 29.5213 35.0904 29.7766C35.0478 29.8569 34.1263 30.4061 33.9293 30.5596C31.9657 32.0925 30.4048 34.8029 30.0248 37.2795C30.9605 36.584 31.8863 35.877 32.9099 35.312C33.4997 34.985 34.9543 34.2264 35.571 34.1676C36.4585 34.083 35.941 35.626 35.9013 36.0706C35.8928 36.1695 35.8503 36.4133 36.0147 36.3416C36.1792 36.2699 36.6754 35.8454 36.9306 35.7035C40.8648 33.5065 45.9303 32.3607 49.1925 36.3058C49.5172 36.6987 50.4642 37.8273 49.547 37.9879C49.1585 37.9506 48.3589 36.1337 47.728 36.0677C48.8735 37.4386 49.4505 39.1509 50.2459 40.7126C52.5313 39.5782 54.7174 38.4468 57.3274 39.2556C59.5348 39.9396 60.5343 41.3751 61.3666 43.4559C63.3953 48.5266 62.6354 54.8493 60.8477 59.8871C59.7078 63.0994 58.0264 66.0449 55.9196 68.6993C56.043 68.7222 56.1153 68.6305 56.2074 68.5659C58.5212 66.9225 60.2551 65.2719 62.1435 63.151C62.7418 62.4799 63.3103 61.7729 63.8802 61.0774C63.8972 60.954 63.8873 60.9454 63.7668 60.9612C63.5484 60.9899 63.3429 61.1993 63.1089 61.0817C62.4454 60.7475 63.8065 59.6405 64.0333 59.3565C65.3858 57.673 66.3031 55.2308 66.9737 53.1844C66.0833 53.0898 66.5639 52.6309 66.7029 52.129C67.1991 50.3249 67.4373 48.2757 68.3786 46.6323C68.7586 45.9698 69.3625 45.4463 69.6177 44.7193C69.8148 44.563 70.0955 44.6619 70.2954 44.6232L70.2982 44.6347ZM69.4873 7.03698V7.11585C69.5369 7.09004 69.5369 7.06423 69.4873 7.03698ZM27.2475 29.7823C27.3099 29.8497 28.8439 29.2187 28.97 29.1413C29.0523 29.0911 29.1061 29.0882 29.1061 28.9649C29.1061 28.8961 28.4838 27.908 28.3959 27.8019C28.1449 27.4993 27.5778 27.2785 27.6345 26.7809C27.653 26.6188 27.8047 26.5084 27.7763 26.3234C27.748 26.1384 27.4517 25.7154 27.3652 25.483C26.6152 23.4783 26.6946 20.9558 26.0311 18.7803C25.0401 15.5251 21.4348 11.091 18.1825 9.98967C18.0592 9.94808 17.9529 9.90506 17.8182 9.92801C17.9869 12.2053 17.1717 14.3707 16.969 16.6121C16.4742 22.05 19.4117 27.842 23.5373 31.2292C23.7358 31.3913 23.9527 31.6222 24.2334 31.5792C24.2873 31.5318 23.509 30.538 23.4281 30.4004C21.965 27.9252 22.2075 23.9372 21.5823 21.0906C21.079 18.8033 19.8881 16.3769 19.6059 14.0996C19.5733 13.8372 19.3593 12.3272 20.0114 12.8119C20.1248 12.8965 20.1901 14.1254 20.2368 14.3993C20.7685 17.5055 23.4409 20.2717 25.0387 22.9104C26.3146 25.017 27.2858 27.2469 27.2489 29.7823H27.2475ZM39.0728 67.9278C42.6908 77.4355 51.8635 73.1247 56.2627 66.9025C60.6067 60.759 63.4407 51.7016 60.7952 44.3579C59.9899 42.1237 59.3676 40.605 56.9276 39.9052C54.122 39.1007 52.7212 40.6366 50.3792 41.4109C50.1197 41.497 50.0106 41.5644 49.7766 41.3521C49.5143 41.1141 49.0323 39.6299 48.8253 39.1867C48.1179 37.6638 46.5499 34.8774 44.7976 34.506C42.3959 33.9984 38.2831 35.5256 36.2969 36.9396C36.07 37.1002 35.0081 38.2431 34.9826 37.3211C34.967 36.7876 35.3583 35.6848 35.4363 35.051C35.459 34.8703 35.3172 34.9248 35.1882 34.9578C33.7251 35.3292 31.4199 36.9396 30.2262 37.9119C29.9625 38.127 29.8079 38.5127 29.3869 38.3665C28.9658 38.2202 29.3628 36.7847 29.4507 36.4248C29.7583 35.1743 30.3367 34.0228 30.8811 32.8698C30.8811 32.7909 30.6968 32.8311 30.6203 32.8397C30.3807 32.8698 29.5201 32.9515 29.3854 32.9974C29.2819 33.0333 29.2437 33.2082 29.1302 33.2871C28.5901 33.6614 27.8231 33.9339 27.2234 34.3296C26.4493 34.8416 25.498 35.6375 24.8487 36.3058C24.6899 36.4692 23.8265 37.4487 23.7797 37.5706C23.7599 37.6208 23.7344 37.7513 23.8081 37.7556C24.5439 37.7398 25.2542 38.0295 25.8794 38.3951C26.0297 38.4841 26.5188 38.9516 26.628 38.8483C26.6379 38.4726 25.6426 37.43 26.1644 37.1676C26.5982 36.9511 26.7683 37.3225 26.9512 37.6236C28.9729 40.9607 28.3916 45.8679 26.7485 49.248C26.6591 49.4301 25.8808 50.6648 25.9347 50.7293C28.6454 49.9248 31.1831 50.8957 33.4245 52.4172C33.7846 52.661 34.4184 52.9363 34.115 53.454L33.718 53.4483C32.2493 52.4029 30.7224 51.389 28.8992 51.1294C25.7844 50.6877 24.4432 52.2279 22.9178 54.6371C22.7164 54.9555 22.4031 55.2523 22.3365 55.651C24.9522 54.4664 27.5282 55.3455 29.9511 56.5128C29.9582 56.5286 30.0107 56.5817 30.0291 56.5917L30.1071 56.748C30.0971 56.8226 30.1156 56.9072 30.1071 56.9832C29.8235 57.2815 29.5031 57.0362 29.1799 56.9043C26.9739 56.0152 25.6965 55.1964 23.1687 55.9449C21.3441 56.4841 21.035 58.1319 20.1376 59.6405C20.0936 59.7136 19.6981 60.2241 19.7506 60.2657C21.9239 59.7638 24.2873 60.3431 25.9347 61.8675C26.5131 62.4024 27.2759 63.2557 27.1709 64.096C26.9484 64.1778 26.8676 64.2638 26.7073 64.0172C26.7031 64.01 26.6436 63.8895 26.6294 63.8608C25.576 61.5492 22.5633 60.1409 20.0965 60.8895C18.8248 61.2753 18.5157 62.2318 17.7714 63.227C17.5176 63.5654 17.2256 63.8795 16.9647 64.2093C16.8726 64.3255 16.7833 64.3857 16.813 64.5635C16.5295 64.6094 16.4161 64.8977 16.2715 65.1099C18.7241 64.7743 21.4136 65.6032 23.0354 67.5334C23.1914 67.7198 23.5004 68.1185 23.6139 68.3164C23.7457 68.5459 23.9697 68.9087 23.7698 69.1381L23.5104 69.2414C23.1092 68.7882 22.8823 68.2103 22.457 67.7285C20.9103 65.9703 17.4538 65.0023 15.3499 66.1725C15.048 66.3403 14.4936 67.0057 14.186 67.2624C12.9625 68.2863 11.6539 69.2614 10.2419 69.9971C12.3217 70.76 13.9719 72.3059 15.883 73.3599C16.5777 73.7428 17.322 74.0626 18.0507 74.3724C19.9264 75.1668 23.2764 75.8968 23.845 78.1654C23.9924 78.7519 23.9952 79.5134 24.0009 80.12C24.0208 80.1472 24.0874 80.0784 24.1157 80.0426C24.3114 79.7873 24.6885 78.7835 24.887 78.3992C26.7867 74.7223 29.4464 70.8073 32.1528 67.6912C34.8961 64.5334 37.8961 62.5616 41.6474 60.8006C44.9308 59.259 49.3527 58.0673 51.2837 54.7963C52.2973 53.0783 52.7907 51.5711 53.216 49.638C53.3181 49.1734 53.5818 48.6342 53.5279 48.1151C53.5194 48.0333 53.5364 47.9416 53.4103 47.9975C53.2486 48.0692 52.6248 48.6858 52.4802 48.855C52.2279 49.1548 52.096 49.466 51.9018 49.7943C51.7416 50.0639 51.5488 50.6419 51.132 50.3006C50.6925 49.942 51.5119 48.8249 51.7941 48.4736C52.9764 47.0037 54.8223 46.2049 56.6767 46.8029C57.2608 46.9908 57.8648 47.2217 57.6209 47.9186C57.1247 47.9803 56.7632 47.6304 56.2911 47.5042C55.4957 47.2919 54.9216 47.4009 54.1446 47.6089C54.122 47.7164 54.1489 47.8182 54.1787 47.9201C54.4098 48.7202 55.0619 49.7398 55.3809 50.6132C56.4626 53.5845 56.9588 57.0506 56.362 60.128C55.8261 62.8914 54.2992 66.2944 52.0507 68.0396C49.5399 69.9871 44.2517 71.6893 41.7778 68.9832C40.7627 67.8733 41.0477 66.346 40.0227 65.282L38.449 65.7122C38.527 66.488 38.8006 67.2108 39.0728 67.9278ZM23.4211 33.1437V33.2226C23.4707 33.1968 23.4707 33.1709 23.4211 33.1437ZM26.8052 40.4688C26.7159 40.3985 26.5557 40.0715 26.4366 39.9439C23.3119 36.6055 19.2841 39.6557 18.2605 43.2465C17.8877 44.5544 17.8139 45.7116 18.1017 47.0438C18.622 49.4487 20.5275 51.2183 23.0723 50.6533L21.8048 50.0209C20.6976 48.4922 21.8984 45.6155 24.0009 46.2379C25.2896 46.6194 25.7078 48.2198 25.3151 49.4043C25.4668 49.1906 25.8369 49.1404 25.9701 49.0114C26.0779 48.9052 26.3501 48.1968 26.4337 47.9946C27.2376 46.0429 27.6643 43.5864 27.3921 41.4798C27.3751 41.345 27.2702 40.6136 27.2376 40.5806C27.2007 40.5448 26.9498 40.5806 26.8052 40.4688ZM26.6662 38.9286V39.0075C26.7159 38.9817 26.7159 38.9559 26.6662 38.9286ZM21.8346 55.2638C21.8998 55.0616 22.0274 54.8536 22.1437 54.6758C22.6938 53.8326 23.0808 53.2862 23.5019 52.3742C23.6876 51.9698 24.7254 51.3144 24.8133 50.7308C23.8251 51.3761 22.8029 51.5453 21.6404 51.5152C21.4773 51.5109 21.191 51.3632 21.0988 51.508C20.8209 51.944 21.3739 54.6299 21.6645 55.1648C21.7127 55.2552 21.6617 55.2968 21.836 55.2638H21.8346ZM55.999 58.314V56.672C55.5581 56.9488 55.4972 57.6486 55.724 58.0831C55.7864 58.2021 55.8332 58.3427 55.999 58.314ZM50.511 56.9846L48.0909 58.5606L45.566 59.7996C45.5518 59.9029 45.6099 59.976 45.6553 60.0592C45.746 60.2213 46.6066 61.4674 46.6817 61.5248C46.8008 61.6166 46.8292 61.5893 46.9568 61.5649C47.5012 61.4617 48.6991 60.9784 49.2251 60.7246C49.5711 60.5583 51.1972 59.5516 51.1929 59.2275L50.511 56.9846ZM55.5354 60.6601C53.5322 60.0492 51.234 60.5955 49.8957 62.2633C49.5087 62.7452 49.106 63.5124 49.0437 64.1376C48.9983 64.6008 49.2918 65.652 48.814 65.7868C47.9364 66.0334 48.3064 63.5095 48.5021 63.0822C47.4827 63.2586 46.5825 64.3456 46.0735 65.1988C45.8835 65.5172 44.8571 67.5865 45.0244 67.7715C46.4847 67.2581 47.2857 67.7643 47.582 69.2485C47.6911 69.3432 48.9246 69.0076 49.0111 68.8657C48.6396 67.2667 49.8121 65.5717 51.5148 66.0922C51.7529 66.1654 52.4689 66.6486 52.5993 66.564L54.3672 63.8824C54.1957 63.4106 53.7519 63.0291 53.6966 62.4698C53.6499 61.9894 53.8994 61.2796 54.3219 61.0315L55.5354 60.6572V60.6601ZM55.3809 61.3627C54.5813 61.3326 54.1531 61.8274 54.3176 62.6347C54.3431 62.7609 54.5374 63.1166 54.6479 63.1596C54.7869 63.2141 54.8407 62.9158 54.8748 62.8441C54.957 62.6706 55.4504 61.4287 55.3809 61.3627ZM41.2362 61.8317C40.438 62.2117 39.6271 62.619 38.8658 63.0693C38.4632 63.3073 37.1844 64.0344 36.9419 64.3284C36.7505 64.5592 37.0681 65.2633 37.2567 65.4268C37.5119 65.6477 37.6664 65.3709 37.8833 65.2805C38.1598 65.1658 38.4391 65.054 38.7226 64.9579C39.1422 64.8145 40.9924 64.4302 41.1568 64.2939C41.4489 64.0516 41.395 62.2576 41.2348 61.8331L41.2362 61.8317ZM52.0577 66.9914C50.6528 66.0176 49.2308 66.9698 49.5852 68.6319C49.7298 68.7366 51.7501 67.413 51.9755 67.1807C52.0379 67.1161 52.0875 67.1118 52.0577 66.9914ZM43.2466 69.0994C43.1261 68.5659 42.61 68.1472 42.0883 68.0841C42.0543 68.2318 42.1705 68.2691 42.2428 68.358C42.3548 68.4957 43.1034 69.2356 43.248 69.0994H43.2466ZM46.9568 69.4909C47.0021 67.6209 44.7309 67.7313 44.8741 69.564C45.5603 69.7203 46.2607 69.5052 46.9568 69.4909ZM6.28355 70.2954C4.75666 70.4517 3.94997 71.044 3.8238 72.6544C3.50339 76.7199 6.54725 81.1152 9.67618 83.3911C10.7196 84.1497 13.8996 86.0956 15.0806 86.2118C15.7625 86.2778 16.0985 85.8175 16.6812 85.5808C18.2109 84.9585 20.5346 85.6855 21.7978 84.1884C22.4613 83.4011 23.1503 81.1998 23.2297 80.1645C23.5061 76.5679 20.4268 76.304 17.8962 75.2342C13.9478 73.5664 10.7735 69.8351 6.28355 70.2968V70.2954Z" fill="#181613"/>
<path d="M51.3616 31.8932C51.3574 31.876 51.4481 31.7168 51.4269 31.5591C51.3999 31.3669 51.2539 31.3784 51.1958 31.2379C51.0824 30.9654 51.0115 30.3688 50.976 30.0562C50.3664 24.5294 54.0114 17.8052 58.9621 15.3874C61.4275 14.1842 63.7441 13.5375 65.9954 11.7908C66.3584 11.5083 66.6533 11.157 66.9751 10.906C67.0531 10.8458 67.0729 10.754 67.2076 10.7899C67.2076 12.4132 66.2478 13.8702 65.994 15.4634C65.5815 18.0562 66.0479 20.2416 65.1221 22.8674C63.4577 27.5925 60.238 31.3597 55.1016 31.962C55.0151 31.9721 54.5515 32.0567 54.6097 31.8559C54.9428 30.7173 56.895 29.1986 57.7017 28.2594C58.7338 27.0591 59.4058 25.4013 59.4767 23.8009C59.5519 22.1073 58.7324 19.6408 60.1374 18.3716C61.4218 17.2115 62.7375 16.5533 63.9596 15.1235C64.1978 14.8453 65.1533 13.7827 64.6585 13.483C64.2077 13.2105 63.5768 14.1455 63.2677 14.4223C59.5533 17.7478 56.2627 19.4974 54.5742 24.6255C53.932 26.5758 53.0984 30.9467 53.3734 32.9085L53.4514 32.9874C53.4556 33.0132 53.4457 33.0404 53.4514 33.0663C53.1055 33.3373 51.3928 32.0151 51.3645 31.8932H51.3616Z" fill="#F4B292"/>
<path d="M51.3616 31.8932L50.8229 32.0481C50.1863 30.4104 50.0857 28.5419 50.3565 26.8124C49.3924 27.2211 48.3532 27.4032 47.3069 27.4405C46.9695 27.452 45.7517 27.5524 45.6525 27.148C45.5078 26.56 46.652 26.7565 46.9936 26.7321C47.5692 26.6919 48.1788 26.6475 48.7502 26.5543C49.0678 26.5027 50.0914 26.2675 50.3225 26.1112C50.5748 25.9419 50.6896 25.0629 50.8002 24.7187C52.2165 20.3062 54.7996 16.4558 59.0386 14.4467C61.3453 13.3539 63.7809 12.5681 65.7743 10.863C66.1018 10.5819 67.0006 9.48059 67.3281 9.45907C67.7265 9.43326 67.9817 10.1904 68.0384 10.5317C68.2922 12.0533 67.2331 13.7526 66.9184 15.2254C66.5682 16.8659 66.7624 18.6757 66.5767 20.3521C66.3017 22.8401 64.6004 26.9271 62.953 28.8029C61.9336 29.963 60.3954 30.7661 59.1677 31.6967C60.2721 31.767 61.4956 31.6494 62.5971 31.4902C63.6548 31.3368 65.1902 30.8105 66.1627 30.7904C66.3428 30.7876 66.5143 30.8005 66.666 30.9123L66.7327 31.0041C66.8432 31.3554 66.4534 31.4013 66.2024 31.4644C64.2658 31.9463 61.9705 32.2001 59.9772 32.3593C58.1894 32.5027 56.1975 32.3062 54.5289 33.1035C54.1489 33.2857 54.027 33.5467 53.7052 33.7532C53.3224 33.6944 53.4953 33.29 53.4471 33.0634C53.4415 33.039 53.4514 33.0103 53.4471 32.9845C53.4372 32.9286 53.3706 32.9114 53.3691 32.9056C53.0941 30.9439 53.9277 26.5744 54.57 24.6226C56.2585 19.4945 59.549 17.7464 63.2635 14.4194C63.574 14.1412 64.2034 13.2077 64.6543 13.4801C65.149 13.7784 64.1935 14.841 63.9553 15.1207C62.7332 16.5504 61.4176 17.2086 60.1331 18.3688C58.7282 19.6379 59.5476 22.1044 59.4725 23.798C59.4016 25.3984 58.7296 27.0562 57.6975 28.2565C56.8908 29.1943 54.9386 30.7144 54.6054 31.8531C54.5473 32.0524 55.0095 31.9692 55.0974 31.9592C60.2338 31.3569 63.4534 27.5897 65.1179 22.8645C66.0422 20.2388 65.5758 18.0533 65.9898 15.4605C66.2435 13.8673 67.2033 12.4103 67.2033 10.787C67.0701 10.7511 67.0488 10.8429 66.9708 10.9032C66.6476 11.1541 66.3541 11.5055 65.9912 11.788C63.7412 13.5346 61.4233 14.1799 58.9578 15.3845C54.0071 17.8023 50.3636 24.5265 50.9718 30.0533C51.0058 30.366 51.0781 30.964 51.1915 31.235C51.2496 31.3755 51.3957 31.364 51.4226 31.5562C51.4453 31.714 51.3546 31.8731 51.3574 31.8903L51.3616 31.8932Z" fill="#181613"/>
<path d="M69.9126 39.1624C69.9481 38.9587 69.8828 39.0419 69.802 39.0003C68.6041 38.3779 65.4071 37.4788 64.0758 37.4458C63.6874 37.4358 62.4001 37.681 62.2214 37.3669C62.0017 36.9841 62.2966 36.9152 62.6042 36.8937C64.4714 36.7632 65.9642 37.05 67.7293 37.5806C68.4339 37.7929 70.0657 38.2747 70.6342 38.6289C70.8682 38.7737 71.0028 38.963 70.8767 39.2412C70.6484 39.7431 68.6324 40.2494 68.1532 40.7111L67.8768 40.7183C67.6301 40.5548 67.6159 40.2651 67.8286 40.0672C68.2057 39.7202 69.4093 39.3803 69.9112 39.1638L69.9126 39.1624Z" fill="#181613"/>
<path d="M78.2446 31.3698C79.7758 31.2665 81.4969 31.6681 82.9571 32.1069C83.5724 32.2919 84.8952 32.6848 85.3985 32.9989C85.7727 33.2326 85.9967 33.8292 85.4297 33.7546C84.932 33.6886 83.3995 32.9386 82.7246 32.7321C81.5678 32.3765 80.1274 32.0008 78.9194 31.9678C78.5367 31.9577 77.4308 32.147 77.2536 32.0954C77.1657 32.0696 77.0707 32.0065 77.031 31.919C76.8722 31.4286 77.9327 31.3884 78.2432 31.3684L78.2446 31.3698Z" fill="#181613"/>
<path d="M89.6786 19.0944C89.904 19.331 89.7353 19.6236 89.5255 19.7985C89.3157 19.9735 87.7845 20.7679 87.5378 20.8368C87.3705 20.8826 87.1735 20.9271 87.0274 20.8009C86.6248 20.2416 88.6025 19.7325 88.8492 19.4271C88.353 19.1331 87.3138 18.9582 87.4584 18.2153C87.905 18.1221 88.146 18.4347 88.5132 18.5954C88.7471 18.6972 89.5595 18.9696 89.68 19.0958L89.6786 19.0944Z" fill="#181613"/>
<path d="M111.96 43.8531L111.225 43.7757C110.99 43.0214 110.394 42.1868 110.22 41.4325C110.139 41.0825 110.08 40.7943 110.515 40.8158L110.712 41.0137L111.96 43.8531Z" fill="#181613"/>
<path d="M87.9121 42.1237C87.7448 42.2298 87.4939 42.0548 87.3549 41.963C87.0359 41.7537 85.8054 40.6724 85.5232 40.377C85.1263 39.9626 85.312 39.6083 85.8805 39.8593C86.0875 39.9511 87.4868 41.1643 87.6938 41.3866C87.8199 41.5228 88.1247 41.9889 87.9135 42.1237H87.9121Z" fill="#181613"/>
<path d="M99.8806 26.4353C100.363 26.2918 101.831 27.5825 102.068 28.0227C102.213 28.2923 102.318 28.5031 101.946 28.615C101.694 28.6394 100.971 27.7388 100.711 27.5194C100.511 27.3502 99.183 26.6432 99.8806 26.4353Z" fill="#181613"/>
<path d="M120.693 42.9941L120.655 43.149C120.212 43.0716 119.284 43.562 119.299 42.8765C119.319 41.9501 120.336 42.7618 120.693 42.9927V42.9941Z" fill="#181613"/>
<path d="M22.9178 54.64C24.4432 52.2293 25.7844 50.6906 28.8992 51.1323C30.7209 51.3904 32.2493 52.4043 33.718 53.4511L34.115 53.4569C34.4184 52.9392 33.7846 52.6639 33.4245 52.4201C31.1817 50.9 28.6454 49.9277 25.9347 50.7322C25.8808 50.6677 26.6606 49.433 26.7485 49.2508C28.3916 45.8708 28.9729 40.9635 26.9512 37.6265C26.7683 37.3254 26.5982 36.9539 26.1644 37.1705C25.6426 37.4315 26.6379 38.4755 26.628 38.8512C26.5188 38.9544 26.0297 38.4869 25.8794 38.398C25.2542 38.0323 24.5439 37.7412 23.8081 37.7584C23.7344 37.7541 23.7613 37.6236 23.7797 37.5734C23.8265 37.4516 24.6899 36.4721 24.8487 36.3086C25.498 35.6389 26.4479 34.8445 27.2234 34.3325C27.8217 33.9367 28.5887 33.6643 29.1302 33.29C29.2437 33.2111 29.2819 33.0361 29.3854 33.0003C29.5201 32.9544 30.3807 32.8712 30.6203 32.8425C30.6968 32.8325 30.8811 32.7938 30.8811 32.8727C30.3367 34.0256 29.7583 35.1772 29.4507 36.4276C29.3613 36.7876 28.9856 38.2302 29.3869 38.3693C29.7881 38.5084 29.9625 38.1299 30.2262 37.9147C31.4199 36.9425 33.7265 35.332 35.1882 34.9606C35.3172 34.9276 35.459 34.8731 35.4363 35.0538C35.3597 35.6877 34.9685 36.7905 34.9826 37.3239C35.0081 38.246 36.07 37.1045 36.2969 36.9425C38.2831 35.5271 42.3959 33.9998 44.7976 34.5089C46.5513 34.8803 48.1193 37.6667 48.8253 39.1896C49.0309 39.6327 49.5129 41.1155 49.7766 41.355C50.0106 41.5672 50.1197 41.4999 50.3792 41.4138C52.7212 40.6394 54.1234 39.1036 56.9276 39.9081C59.369 40.6079 59.9914 42.1251 60.7952 44.3608C63.4407 51.7045 60.6052 60.7633 56.2627 66.9053C51.8635 73.1276 42.6922 77.4369 39.0728 67.9307L40.1531 67.3843C40.5075 68.3953 41.1866 69.4249 42.1124 69.977C43.8477 71.0124 46.2266 71.424 48.1959 71.0224C54.5643 69.7218 58.5467 61.7557 58.1639 55.6223C58.008 53.1213 57.1077 51.7489 56.2741 49.5606C56.1139 49.1419 55.9296 48.7862 56.0005 48.3115C56.5846 48.214 57.3856 48.607 57.6237 47.9215C57.8619 47.236 57.2636 46.9937 56.6795 46.8058C54.8252 46.2078 52.9793 47.0066 51.7969 48.4765C51.5148 48.8278 50.6953 49.9449 51.1348 50.3034C51.5516 50.6447 51.7444 50.0668 51.9046 49.7972C52.4264 50.1916 52.7255 49.7571 53.2189 49.6409C52.7935 51.5754 52.3002 53.0826 51.2865 54.7991C51.1405 54.802 51.0526 54.8823 50.9406 54.9569C49.8603 55.6854 48.7927 56.4684 47.6557 57.1065C43.3628 59.5186 38.8913 60.9784 34.7983 63.9584C30.3183 67.2194 26.0169 72.7103 24.0378 77.9374C23.9924 78.0578 24.0605 78.217 23.8464 78.1697C23.2779 75.8996 19.9278 75.1711 18.0521 74.3767C17.3234 74.0684 16.5777 73.7471 15.8844 73.3642C13.9733 72.3102 12.3231 70.7643 10.2433 70.0014C11.6553 69.2658 12.9639 68.2906 14.1874 67.2667C14.495 67.01 15.0494 66.3446 15.3513 66.1768C17.4553 65.0066 20.9117 65.9746 22.4584 67.7328C22.8823 68.2146 23.1092 68.7925 23.5118 69.2457L23.7712 69.1424C23.9726 68.913 23.7471 68.5502 23.6153 68.3207C23.7273 67.7342 23.3459 67.2982 22.9943 66.8766C22.1437 65.8585 21.1527 65.2347 19.8867 64.8604C19.0261 64.6066 17.6934 64.4273 16.813 64.5678C16.7833 64.3886 16.8726 64.3298 16.9647 64.2136C17.2256 63.8838 17.5176 63.5697 17.7714 63.2313C18.5157 62.2361 18.8248 61.2796 20.0965 60.8938C22.5633 60.1452 25.5746 61.5535 26.6294 63.8652L26.5528 64.02H26.7073C26.8676 64.2667 26.9498 64.1806 27.1709 64.1003C27.7763 63.8795 27.3552 63.0564 27.1355 62.6118C26.2225 60.7605 24.0193 59.6734 22.0345 59.563L20.1376 59.6448C21.0364 58.1362 21.3441 56.4884 23.1687 55.9492C25.6979 55.2007 26.9753 56.0195 29.1799 56.9086C29.2692 57.3374 29.8193 57.5496 30.1156 57.184C30.2361 57.0348 30.1056 56.999 30.1071 56.9875C30.1156 56.9115 30.0971 56.8269 30.1071 56.7523C30.1085 56.7423 30.2162 56.682 30.1836 56.596C30.1368 56.5831 30.056 56.6103 30.0291 56.596C30.0121 56.586 29.9582 56.5329 29.9511 56.5171C29.0835 54.5496 24.9451 54.4277 23.1545 54.7633C23.0057 54.792 22.8837 54.8838 22.9178 54.64ZM47.2658 53.9359C49.9921 51.1925 50.3862 46.6581 48.9019 43.1748C46.0423 36.4635 37.8507 35.4683 34.5134 42.2671V42.4463C34.3248 42.4047 34.3517 42.5424 34.2936 42.6528C32.3939 46.2666 33.7705 53.5745 37.4254 55.7198C40.421 57.4779 44.3297 56.9014 46.8377 54.5611C47.0135 54.3976 47.2871 54.2083 47.2644 53.9373L47.2658 53.9359Z" fill="#F5B698"/>
<path d="M6.28355 70.2954C10.7735 69.8351 13.9478 73.565 17.8962 75.2328C20.4268 76.3026 23.5061 76.5664 23.2297 80.163C23.1503 81.197 22.4613 83.3997 21.7978 84.1869C20.5346 85.6841 18.2109 84.957 16.6812 85.5794C16.0985 85.816 15.7625 86.2778 15.0806 86.2104C13.8996 86.0956 10.7182 84.1482 9.67618 83.3896C6.54725 81.1152 3.50339 76.7199 3.8238 72.6529C3.94997 71.0425 4.75666 70.4517 6.28355 70.2939L6.28355 70.2954ZM7.05196 73.8088C5.64416 74.0956 6.7514 76.4589 7.13703 77.2046C7.58219 78.065 8.66534 80.1214 9.23952 80.7854C10.049 81.7204 11.135 81.0406 11.2456 79.9264C11.3959 78.425 10.9706 77.2476 10.1497 76.033C9.58119 75.1912 8.16913 73.5808 7.05196 73.8088ZM18.5668 79.4403C18.5214 79.3843 18.3924 79.3614 18.3215 79.2625C18.1599 79.0387 17.9671 78.4895 17.7728 78.174C16.8953 76.7514 15.228 75.1424 13.6954 74.4799C11.5192 73.5406 11.0244 74.5832 11.8524 76.5779C12.4422 77.9991 13.884 81.2586 15.3216 81.8251C16.2431 82.1879 17.9415 81.8767 18.3725 80.8786C18.5001 80.5832 18.7709 79.6912 18.5668 79.4403Z" fill="#F4B292"/>
<path d="M27.2475 29.7823C27.2844 27.2469 26.3132 25.017 25.0373 22.9104C23.4395 20.2717 20.7671 17.5069 20.2354 14.3993C20.1886 14.1254 20.1234 12.8965 20.01 12.8119C19.3578 12.3272 19.5719 13.8372 19.6045 14.0996C19.8867 16.3769 21.0775 18.8033 21.5808 21.0906C22.2075 23.9372 21.965 27.9252 23.4267 30.4004C23.5075 30.538 24.2859 31.5318 24.232 31.5792C23.9513 31.6222 23.7344 31.3913 23.5359 31.2292C19.4103 27.842 16.4728 22.05 16.9676 16.6121C17.1717 14.3707 17.9855 12.2053 17.8168 9.92801C17.9529 9.90506 18.0578 9.94808 18.1811 9.98967C21.4334 11.091 25.0387 15.5236 26.0297 18.7803C26.6918 20.9558 26.6138 23.4783 27.3638 25.483C27.4502 25.7154 27.748 26.1384 27.7749 26.3234C27.8018 26.5084 27.6501 26.6174 27.6331 26.7809C27.5764 27.277 28.1435 27.4993 28.3944 27.8019C28.4823 27.908 29.1047 28.8961 29.1047 28.9649C29.1047 29.0882 29.0509 29.0911 28.9686 29.1413C28.8424 29.2187 27.3099 29.8497 27.2461 29.7823L27.2475 29.7823Z" fill="#F4B292"/>
<path d="M26.8052 40.4688C26.9498 40.5821 27.2007 40.5448 27.2376 40.5806C27.2702 40.6122 27.3751 41.3435 27.3921 41.4798C27.6629 43.5864 27.2362 46.0429 26.4337 47.9946C26.3501 48.1968 26.0793 48.9052 25.9701 49.0114C25.8383 49.1404 25.4668 49.1906 25.3151 49.4043C25.7078 48.2198 25.2882 46.6194 24.0009 46.2379C21.8998 45.6155 20.699 48.4937 21.8048 50.0209L23.0723 50.6533C20.5275 51.2198 18.622 49.4487 18.1017 47.0438C17.8139 45.7102 17.8877 44.5529 18.2605 43.2465C19.2841 39.6557 23.3119 36.6055 26.4366 39.9439C26.5557 40.0715 26.7159 40.3985 26.8052 40.4688Z" fill="#FEFEFE"/>
<path d="M57.6223 47.9172C57.3827 48.6027 56.5831 48.2097 55.999 48.3072C55.9281 48.7819 56.1125 49.1361 56.2727 49.5563C57.1077 51.7446 58.0065 53.117 58.1625 55.618C58.5467 61.7514 54.5643 69.7175 48.1944 71.0182C46.2252 71.4197 43.8463 71.0095 42.111 69.9727C41.1852 69.4206 40.5061 68.391 40.1517 67.38L39.0714 67.9264C38.7992 67.2093 38.5255 66.4866 38.4476 65.7108L40.0212 65.2806C41.0463 66.3446 40.7613 67.8704 41.7764 68.9818C44.2503 71.6879 49.5399 69.9856 52.0492 68.0382C54.2992 66.293 55.8247 62.89 56.3606 60.1266C56.9574 57.0492 56.4612 53.5831 55.3795 50.6117C55.0619 49.7384 54.4083 48.7188 54.1773 47.9186C54.1475 47.8154 54.1205 47.715 54.1432 47.6074C54.9187 47.3995 55.4943 47.2919 56.2897 47.5027C56.7618 47.6289 57.1233 47.9789 57.6195 47.9172H57.6223Z" fill="#DA9B81"/>
<path d="M55.5354 60.6601L54.3219 61.0344C53.8994 61.2839 53.6499 61.9937 53.6966 62.4727C53.7505 63.0305 54.1943 63.4134 54.3672 63.8852L52.5993 66.5669C52.4689 66.6515 51.7529 66.1682 51.5148 66.0951C49.8121 65.5731 48.6396 67.2696 49.0111 68.8685C48.9246 69.0105 47.6926 69.3461 47.582 69.2514C47.2857 67.7672 46.4847 67.261 45.0244 67.7744C44.8571 67.5879 45.8835 65.52 46.0735 65.2017C46.5811 64.3484 47.4827 63.2614 48.5021 63.085C48.3064 63.5124 47.9364 66.0363 48.814 65.7896C49.2932 65.6548 48.9983 64.6037 49.0437 64.1405C49.106 63.5152 49.5087 62.748 49.8957 62.2662C51.234 60.5984 53.5308 60.052 55.5354 60.6629V60.6601Z" fill="#DC804F"/>
<path d="M51.2851 54.7963C49.3541 58.0688 44.9322 59.259 41.6488 60.8006C37.8975 62.5616 34.8976 64.5334 32.1543 67.6912C29.4478 70.8073 26.7882 74.7223 24.8884 78.3992C24.6899 78.7835 24.3128 79.7873 24.1172 80.0426C24.0888 80.0798 24.0208 80.1472 24.0023 80.12C23.9981 79.5148 23.9938 78.7519 23.8464 78.1654C24.0605 78.2113 23.991 78.0536 24.0378 77.9331C26.0169 72.706 30.3183 67.2151 34.7983 63.9541C38.8913 60.9741 43.3628 59.5143 47.6557 57.1022C48.7927 56.4641 49.8603 55.6811 50.9406 54.9526C51.0526 54.8766 51.1405 54.7977 51.2865 54.7948L51.2851 54.7963Z" fill="#DA9B81"/>
<path d="M50.511 56.9846L51.1929 59.2275C51.1986 59.5516 49.5711 60.5583 49.2251 60.7246C48.6991 60.9784 47.5012 61.4617 46.9568 61.5649C46.8292 61.5893 46.8008 61.6151 46.6817 61.5248C46.6066 61.4674 45.746 60.2213 45.6553 60.0592C45.6085 59.976 45.5504 59.9029 45.566 59.7996L48.0909 58.5606L50.511 56.9846Z" fill="#FEFEFE"/>
<path d="M41.2362 61.8317C41.395 62.2547 41.4489 64.0501 41.1583 64.2925C40.9924 64.4302 39.1422 64.813 38.724 64.9565C38.4405 65.054 38.1612 65.1644 37.8847 65.2791C37.6678 65.3695 37.5133 65.6462 37.2581 65.4254C37.0681 65.2619 36.752 64.5578 36.9434 64.3269C37.1858 64.0329 38.4646 63.3059 38.8672 63.0678C39.6285 62.619 40.4395 62.2103 41.2376 61.8302L41.2362 61.8317Z" fill="#FEFEFE"/>
<path d="M21.8346 55.2638C21.6602 55.2968 21.7127 55.2552 21.6631 55.1648C21.3739 54.6299 20.8209 51.944 21.0974 51.508C21.1895 51.3632 21.4759 51.5109 21.639 51.5152C22.8015 51.5467 23.8237 51.3775 24.8118 50.7308C24.7239 51.3144 23.6862 51.9698 23.5004 52.3742C23.0808 53.2862 22.6923 53.8326 22.1423 54.6758C22.026 54.8536 21.8984 55.0601 21.8332 55.2638H21.8346Z" fill="#DA9B81"/>
<path d="M27.1695 64.0975C27.2759 63.2571 26.5117 62.4039 25.9333 61.869C24.2845 60.3446 21.9211 59.7652 19.7491 60.2671C19.6953 60.2256 20.0922 59.7165 20.1362 59.6419L22.0331 59.5602C24.0179 59.6706 26.2225 60.7561 27.1341 62.6089C27.3538 63.0535 27.7749 63.8766 27.1695 64.0975Z" fill="#DA9B81"/>
<path d="M16.8116 64.5664C17.692 64.4259 19.0247 64.6037 19.8852 64.8589C21.1513 65.2332 22.1423 65.857 22.9929 66.8752C23.3445 67.2968 23.7259 67.7328 23.6139 68.3193C23.5004 68.1214 23.1914 67.7227 23.0354 67.5363C21.4136 65.6061 18.7241 64.7786 16.2715 65.1128C16.4161 64.9005 16.5295 64.6123 16.813 64.5664H16.8116Z" fill="#DA9B81"/>
<path d="M52.0577 66.9914C52.0875 67.1118 52.0379 67.1161 51.9755 67.1807C51.7501 67.413 49.7298 68.7352 49.5852 68.6319C49.2308 66.9698 50.6514 66.0176 52.0577 66.9914Z" fill="#FEFEFE"/>
<path d="M44.8741 69.564C45.5603 69.7203 46.2607 69.5052 46.9568 69.4909C47.0021 67.6209 44.7309 67.7313 44.8741 69.564Z" fill="#FEFEFE"/>
<path d="M51.9032 49.7929C52.0989 49.4645 52.2293 49.1533 52.4816 48.8536C52.6248 48.683 53.2501 48.0663 53.4117 47.9961C53.5379 47.9401 53.5208 48.0319 53.5294 48.1136C53.5832 48.6328 53.3195 49.172 53.2174 49.6366C52.7255 49.7528 52.4249 50.1873 51.9032 49.7929Z" fill="#DA9B81"/>
<path d="M55.3809 61.3627C55.4504 61.4287 54.957 62.6706 54.8748 62.8441C54.8407 62.9158 54.7869 63.2141 54.6479 63.1596C54.5374 63.1151 54.3431 62.7609 54.3176 62.6347C54.1531 61.8288 54.5813 61.3326 55.3809 61.3627Z" fill="#FEFEFE"/>
<path d="M55.999 58.314C55.8332 58.3427 55.7864 58.2021 55.724 58.0831C55.4972 57.6486 55.5581 56.9488 55.999 56.672V58.314Z" fill="#F5B698"/>
<path d="M43.2466 69.0994C43.102 69.2342 42.3534 68.4957 42.2414 68.358C42.1705 68.2691 42.0543 68.2318 42.0869 68.0841C42.6086 68.1472 43.1261 68.5659 43.2451 69.0994H43.2466Z" fill="#F5B698"/>
<path d="M30.1071 56.9846C30.1071 56.9961 30.2361 57.0319 30.1156 57.1811C29.8178 57.5468 29.2692 57.3345 29.1799 56.9058C29.5031 57.0362 29.8235 57.2829 30.1071 56.9846Z" fill="#DA9B81"/>
<path d="M30.0291 56.5946C30.056 56.6103 30.1368 56.5831 30.1836 56.5946C30.2148 56.6792 30.1085 56.7394 30.1071 56.7509L30.0291 56.5946Z" fill="#DA9B81"/>
<path d="M26.7059 64.02H26.5514L26.628 63.8637C26.6407 63.8924 26.7003 64.0129 26.7059 64.02Z" fill="#DA9B81"/>
<path d="M69.4873 7.03698C69.5369 7.06279 69.5369 7.08861 69.4873 7.11585V7.03698Z" fill="#FEFEFE"/>
<path d="M29.9511 56.5157C27.5282 55.3484 24.9522 54.4708 22.3365 55.6538C22.4017 55.2537 22.7164 54.9569 22.9178 54.64C22.8823 54.8823 23.0057 54.7905 23.1545 54.7633C24.9451 54.4277 29.0835 54.5482 29.9511 56.5171V56.5157Z" fill="#DA9B81"/>
<path d="M23.4211 33.1437C23.4707 33.1695 23.4707 33.1953 23.4211 33.2226V33.1437Z" fill="#C98C3C"/>
<path d="M26.6662 38.9286C26.7159 38.9544 26.7159 38.9802 26.6662 39.0075V38.9286Z" fill="#F5B698"/>
<path d="M53.4485 32.9874L53.3706 32.9085C53.3706 32.9085 53.4372 32.9315 53.4485 32.9874Z" fill="#C98C3C"/>
<path d="M47.2658 53.9359C43.4252 57.8006 37.7274 56.16 35.1953 51.7217C33.5833 48.8981 33.2884 45.4822 34.5134 42.4463V42.2671C37.8521 35.4683 46.0437 36.4635 48.9033 43.1748C50.3877 46.6581 49.9935 51.1925 47.2672 53.9359H47.2658ZM39.8298 40.202C37.3361 40.4587 35.3838 42.6643 34.7827 45.0247C33.5876 49.7183 37.5501 56.2475 42.8368 53.4813C48.6892 50.4196 46.5555 39.5108 39.8313 40.202H39.8298Z" fill="#181613"/>
<path d="M34.5119 42.4463C33.287 45.4822 33.5833 48.8981 35.1939 51.7217C37.7273 56.1615 43.4238 57.8006 47.2644 53.9359C47.2871 54.2055 47.0121 54.3947 46.8377 54.5597C44.3297 56.9 40.421 57.4765 37.4254 55.7184C33.7705 53.5745 32.3939 46.2652 34.2936 42.6514C34.3517 42.5424 34.3234 42.4033 34.5105 42.4449L34.5119 42.4463Z" fill="#DA9B81"/>
<path d="M18.5668 79.4403C18.7709 79.6927 18.5001 80.5832 18.3725 80.8786C17.9415 81.8753 16.2431 82.1879 15.3216 81.8251C13.8854 81.2601 12.4422 78.0005 11.8524 76.5779C11.0244 74.5832 11.5206 73.5406 13.6954 74.4799C15.228 75.141 16.8953 76.7514 17.7728 78.174C17.9671 78.4895 18.1599 79.0387 18.3215 79.2625C18.3938 79.3614 18.5214 79.3843 18.5668 79.4403Z" fill="#181613"/>
<path d="M7.05196 73.8088C8.16913 73.5808 9.58119 75.1912 10.1497 76.033C10.9706 77.2476 11.3959 78.4235 11.2456 79.9264C11.135 81.0406 10.0476 81.7204 9.23952 80.7854C8.66534 80.1229 7.58361 78.0665 7.13703 77.2046C6.7514 76.4589 5.64416 74.097 7.05196 73.8088Z" fill="#181613"/>
<path d="M39.8298 40.202C46.5541 39.5108 48.6892 50.4196 42.8354 53.4813C37.5487 56.2461 33.5862 49.7183 34.7813 45.0247C35.3824 42.6643 37.3346 40.4587 39.8284 40.202H39.8298ZM39.0543 43.1691C35.9977 43.5864 34.8791 47.6562 35.9921 50.2116C37.7656 54.2843 43.0949 53.8097 44.0462 49.4674C44.7479 46.2637 42.5632 42.6887 39.0543 43.1691Z" fill="#0271E5"/>
<path d="M39.0543 43.1691C42.5632 42.6887 44.7479 46.2637 44.0462 49.4674C43.0963 53.8097 37.7656 54.2829 35.9921 50.2116C34.8791 47.6562 35.9977 43.5878 39.0543 43.1691ZM39.2089 43.9506C35.1669 44.5099 35.6249 51.8149 39.5761 52.215C44.8486 52.7499 44.4828 43.2207 39.2089 43.9506Z" fill="#FEFEFE"/>
<path d="M39.2089 43.9506C44.4828 43.2221 44.8486 52.7499 39.5761 52.215C35.6249 51.8149 35.1669 44.5099 39.2089 43.9506ZM39.2089 47.1514C38.293 47.2762 37.906 48.5338 38.0109 49.3441C38.1512 50.4354 39.328 51.825 40.4607 51.0807C42.0302 50.0482 40.9768 46.9105 39.2103 47.1528L39.2089 47.1514Z" fill="#0271E5"/>
<path d="M39.2089 47.1514C40.9754 46.9105 42.0287 50.0482 40.4593 51.0792C39.3265 51.8249 38.1498 50.4354 38.0095 49.3426C37.9046 48.5324 38.293 47.2747 39.2075 47.15L39.2089 47.1514Z" fill="#FEFEFE"/>
</g>
<defs>
<filter id="filter0_d_2010_19499" x="0" y="0" width="127" height="94" filterUnits="userSpaceOnUse" color-interpolation-filters="sRGB">
<feFlood flood-opacity="0" result="BackgroundImageFix"/>
<feColorMatrix in="SourceAlpha" type="matrix" values="0 0 0 0 0 0 0 0 0 0 0 0 0 0 0 0 0 0 127 0" result="hardAlpha"/>
<feOffset dy="4"/>
<feGaussianBlur stdDeviation="1.5"/>
<feComposite in2="hardAlpha" operator="out"/>
<feColorMatrix type="matrix" values="0 0 0 0 0 0 0 0 0 0 0 0 0 0 0 0 0 0 0.13 0"/>
<feBlend mode="normal" in2="BackgroundImageFix" result="effect1_dropShadow_2010_19499"/>
<feBlend mode="normal" in="SourceGraphic" in2="effect1_dropShadow_2010_19499" result="shape"/>
</filter>
</defs>
</svg>
