<svg width="28" height="29" viewBox="0 0 28 29" fill="none" xmlns="http://www.w3.org/2000/svg">
<path d="M20.2178 8.83466C18.3088 9.94993 16.4914 11.229 14.8368 12.6977C13.338 14.0281 11.9933 15.5193 10.7624 17.099C10.372 17.5999 9.99049 18.1071 9.61639 18.6197C9.3956 18.2163 9.16797 17.8168 8.92788 17.4245C8.31194 16.4182 7.60736 15.4737 6.87549 14.5494C6.69566 14.3222 6.29306 14.1941 6.01786 14.1941C5.72038 14.1941 5.36504 14.3262 5.16023 14.5494C4.94805 14.7805 4.79053 15.084 4.805 15.407C4.8203 15.7489 4.94943 15.9984 5.16023 16.2646C5.24604 16.373 5.33251 16.481 5.41643 16.5909C5.46404 16.6543 5.53444 16.7478 5.56024 16.7822C5.72707 17.0047 5.8908 17.2294 6.05061 17.457C6.33755 17.8655 6.61112 18.2833 6.87055 18.7099C7.42997 19.6296 7.92404 20.5872 8.41564 21.5443C8.60775 21.9183 9.05374 22.145 9.46291 22.145C9.91406 22.145 10.2639 21.9045 10.5102 21.5443C11.1296 20.6382 11.7658 19.7433 12.4331 18.8718C12.4643 18.8311 12.4958 18.7908 12.5267 18.75C12.4557 18.8435 12.4277 18.8804 12.4232 18.8862C12.4309 18.8761 12.4989 18.7868 12.5245 18.7541C12.5946 18.6645 12.665 18.5751 12.7358 18.4861C12.8992 18.2806 13.0644 18.0766 13.2318 17.8744C13.5447 17.4965 13.8649 17.1245 14.1933 16.76C14.8553 16.0253 15.5511 15.3211 16.2823 14.6553C16.6419 14.3279 17.0098 14.0098 17.3857 13.7013C17.5561 13.5614 17.7287 13.4243 17.9019 13.2879C17.8997 13.2892 17.8979 13.2903 17.8956 13.2916C17.8989 13.2897 17.902 13.2873 17.9052 13.2853C17.9248 13.2699 17.9443 13.2543 17.9638 13.239C17.975 13.2302 17.987 13.2222 17.9983 13.2153C18.0138 13.2025 18.0293 13.1897 18.0448 13.178C18.1551 13.0946 18.2659 13.0118 18.3774 12.9299C19.3609 12.2065 20.3881 11.5449 21.442 10.9291C21.9899 10.609 22.232 9.82022 21.8771 9.26971C21.5212 8.71752 20.8041 8.49211 20.2178 8.83466Z" fill="#81DD00"/>
<path d="M17.902 13.2883C18.0914 13.1787 18.0548 13.1814 17.9987 13.2154C17.9684 13.2404 17.9376 13.2656 17.9053 13.2856C17.9042 13.2865 17.9031 13.2874 17.902 13.2883Z" fill="#81DD00"/>
<path d="M23.534 5.12081C21.5339 3.35994 19.0463 2.23177 16.4264 1.82641C16.4761 1.62266 16.4804 1.40107 16.4205 1.21629C16.3256 0.922808 16.1437 0.639682 15.8631 0.491468C15.5561 0.329225 15.2694 0.31734 14.9286 0.369204C12.8299 0.688457 10.84 1.44723 9.02379 2.5158C7.58886 2.98348 6.20808 3.62326 4.92362 4.38952C4.21588 4.81174 3.53525 5.2772 2.88093 5.77811C2.61878 5.9788 2.41496 6.171 2.32355 6.50297C2.24359 6.79329 2.27969 7.17989 2.44582 7.43754C2.59614 7.67065 2.85273 7.8719 3.13848 7.97686C2.54904 8.84067 2.0373 9.75485 1.61948 10.7047C0.362822 13.5617 -0.140662 16.6866 0.452449 19.7734C1.05207 22.8939 2.98997 25.6924 5.95247 26.9725C9.06562 28.3176 12.6401 28.2611 15.882 27.4121C18.9743 26.6023 21.9385 24.9498 24.047 22.5201C26.1916 20.0488 27.4496 16.8151 27.3938 13.5282C27.3392 10.309 25.9546 7.25189 23.534 5.12081ZM8.52703 5.7478C8.54865 5.73071 8.57031 5.71367 8.59187 5.69655C8.71108 5.60195 8.57853 5.7136 8.52703 5.7478ZM13.359 25.4563C13.3642 25.4556 13.3686 25.4551 13.3708 25.455C13.3668 25.4553 13.3629 25.456 13.359 25.4563ZM24.9316 14.6509C24.9182 14.8157 24.8942 14.9799 24.8793 15.1446C24.8759 15.1684 24.8723 15.1922 24.8686 15.2159C24.8543 15.3056 24.8392 15.3953 24.823 15.4846C24.6928 16.2019 24.4977 16.9072 24.2431 17.5902C24.2112 17.6757 24.1783 17.7608 24.1445 17.8457C24.1325 17.8759 24.1057 17.9316 24.0854 17.9726C24.0966 17.9507 24.1117 17.9209 24.132 17.8812C24.0493 18.0432 23.9834 18.2152 23.904 18.3791C23.7448 18.7075 23.5712 19.0289 23.3834 19.3418C23.1959 19.6542 22.9945 19.9584 22.7794 20.2524C22.7336 20.3151 22.6828 20.3755 22.6395 20.4399C22.8248 20.1644 22.6643 20.4061 22.6119 20.4707C22.4872 20.6246 22.359 20.7757 22.2273 20.9237C21.7464 21.4645 21.2202 21.9647 20.6587 22.4212C20.5969 22.4715 20.5313 22.5189 20.4701 22.5703C20.4487 22.5865 20.4273 22.6027 20.4057 22.6186C20.2577 22.7284 20.1076 22.8353 19.9556 22.9392C19.651 23.1476 19.3387 23.3443 19.0195 23.5296C18.6996 23.7153 18.3731 23.8894 18.0408 24.0518C17.8862 24.1274 17.7304 24.2005 17.5735 24.2711C17.5155 24.2972 17.4571 24.3224 17.3988 24.3478C17.3458 24.3676 17.2935 24.3921 17.2413 24.413C16.5633 24.6846 15.8674 24.9112 15.1601 25.093C14.7997 25.1856 14.4363 25.2665 14.0708 25.3358C13.8881 25.3704 13.7049 25.4021 13.5212 25.4308C13.4562 25.441 13.3911 25.4505 13.326 25.46C13.2883 25.4646 13.2505 25.47 13.2129 25.4745C12.4638 25.5642 11.7085 25.6061 10.9541 25.5907C10.5724 25.5829 10.1909 25.5605 9.81102 25.5217C9.73135 25.5135 9.6519 25.5037 9.57234 25.4947C9.55682 25.4928 9.5413 25.4909 9.526 25.4886C9.32483 25.4584 9.12435 25.4234 8.92496 25.383C8.55501 25.3082 8.18858 25.2156 7.82826 25.103C7.66199 25.0511 7.49701 24.9948 7.33368 24.9342C7.2619 24.9076 7.1907 24.8795 7.11946 24.8515C7.08232 24.8351 7.00403 24.8016 6.99393 24.7969C6.66664 24.6476 6.34837 24.4784 6.0425 24.289C5.88349 24.1905 5.72793 24.0866 5.57623 23.9773C5.56587 23.9698 5.54076 23.9514 5.5139 23.9316C5.49035 23.9132 5.45389 23.8849 5.43866 23.8724C5.39788 23.839 5.35743 23.8051 5.31734 23.7708C5.05788 23.5489 4.81364 23.3094 4.5862 23.0549C4.48156 22.9377 4.38761 22.8109 4.28294 22.6942C4.29911 22.7122 4.31274 22.7275 4.32499 22.7412C4.30613 22.7189 4.2877 22.6964 4.27596 22.6803C4.2193 22.6023 4.16402 22.5234 4.11012 22.4435C3.92134 22.1635 3.74983 21.8722 3.59529 21.572C3.52329 21.4322 3.45497 21.2904 3.39027 21.1471C3.37879 21.1216 3.36788 21.0954 3.35673 21.0693C3.32961 21.0011 3.30228 20.933 3.27644 20.8642C3.03886 20.2315 2.8664 19.5751 2.7517 18.9093C2.73694 18.8237 2.72323 18.738 2.7104 18.6522C2.70957 18.6467 2.70888 18.6419 2.70812 18.637C2.68867 18.4654 2.67035 18.2938 2.65676 18.1217C2.62928 17.7731 2.6166 17.4233 2.61755 17.0736C2.61849 16.7237 2.63347 16.3739 2.66181 16.0253C2.67494 15.8638 2.69104 15.7026 2.70993 15.5417C2.71139 15.5293 2.71295 15.517 2.71448 15.5047C2.73043 15.4161 2.74035 15.3259 2.755 15.2372C2.86556 14.5676 3.02599 13.9061 3.22854 13.2585C3.329 12.9373 3.4401 12.6195 3.56135 12.3055C3.58733 12.2383 3.61376 12.1712 3.64065 12.1044C3.64647 12.0899 3.6589 12.0596 3.67209 12.0275C3.69204 11.9818 3.73391 11.8843 3.74329 11.8631C3.77749 11.7863 3.81234 11.7098 3.84778 11.6335C4.13131 11.023 4.45332 10.4305 4.81001 9.85963C4.98853 9.57389 5.17571 9.2936 5.3711 9.01912C5.46185 8.89162 5.55438 8.76532 5.64863 8.64041C5.66422 8.61973 5.68112 8.59879 5.69769 8.5776C5.74429 8.51912 5.79052 8.46035 5.83766 8.40231C6.25562 7.88785 6.70339 7.3976 7.17773 6.93456C7.41927 6.69879 7.66769 6.47004 7.92258 6.24877C8.05 6.13814 8.17906 6.0294 8.30968 5.92258C8.36566 5.87682 8.42192 5.83135 8.47847 5.78629C8.49439 5.7736 8.51038 5.76103 8.52633 5.74845C8.80942 5.58334 9.06722 5.34742 9.33988 5.16363C9.54617 5.02454 9.75559 4.89013 9.96788 4.76034C10.0751 4.7272 10.1825 4.69482 10.2903 4.66378C10.6764 4.5526 11.0665 4.45509 11.4597 4.37218C11.6559 4.33082 11.8529 4.2931 12.0506 4.25919C12.1353 4.24465 12.22 4.2308 12.3049 4.21768C12.3478 4.21103 12.3908 4.20489 12.4338 4.19849C13.2242 4.10977 14.0141 4.06343 14.8098 4.09516C15.1667 4.10937 15.5207 4.14248 15.8755 4.18126C15.8766 4.18141 15.8776 4.18155 15.8787 4.1817C15.9651 4.1946 16.0515 4.20834 16.1376 4.22302C16.3101 4.25239 16.482 4.28532 16.6531 4.3217C17.3385 4.46744 18.012 4.66897 18.6651 4.92295C18.7111 4.94083 18.7568 4.95933 18.8025 4.97787C18.8386 4.99938 18.8972 5.01698 18.9296 5.0313C19.0894 5.1022 19.2479 5.17642 19.4047 5.2538C19.7178 5.40819 20.0246 5.57563 20.3237 5.75554C20.6219 5.93486 20.9126 6.12666 21.1943 6.3308C21.2525 6.37296 21.31 6.41607 21.3676 6.45885C21.375 6.46473 21.383 6.47117 21.3925 6.47876C21.5374 6.59452 21.6796 6.71366 21.8188 6.83625C22.0778 7.06457 22.3267 7.30452 22.5636 7.5558C22.6734 7.67225 22.7805 7.79117 22.885 7.91242C22.9412 7.97769 22.9967 8.04355 23.0513 8.11017C23.086 8.15244 23.1714 8.271 23.1821 8.28503C23.5414 8.80058 23.881 9.31631 24.1547 9.88685C24.1929 9.9663 24.23 10.0462 24.2659 10.1267C24.2713 10.1389 24.2766 10.1511 24.282 10.1634C24.3455 10.3311 24.4113 10.4975 24.469 10.6674C24.585 11.0086 24.682 11.3561 24.7605 11.7079C24.7968 11.8709 24.8292 12.0349 24.8576 12.1996C24.8696 12.2687 24.8799 12.3382 24.8908 12.4075C24.8957 12.4472 24.9012 12.4869 24.9055 12.5264C24.9446 12.8848 24.9656 13.2452 24.9693 13.6057C24.9727 13.9543 24.96 14.3033 24.9316 14.6509Z" fill="#81DD00"/>
</svg>
