<svg width="47" height="59" viewBox="0 0 47 59" fill="none" xmlns="http://www.w3.org/2000/svg">
<path d="M31.8283 1.60768C31.4293 1.74733 31.0913 2.0241 30.6898 2.16375C29.8664 2.45068 28.6441 2.57256 27.7851 2.4329C27.6327 2.40751 27.3785 2.22215 27.2591 2.26532C27.193 2.29071 26.4332 3.20481 26.3315 3.34192C25.8207 4.03511 25.4065 4.82479 25.0812 5.62208C24.9567 5.93186 24.639 6.67583 24.6289 6.96784C24.6238 7.1278 24.6416 7.04655 24.7356 7.0694C29.0278 8.13839 32.4967 9.98943 34.6796 14.0115C38.1484 20.4076 34.8931 27.6594 28.7152 30.7293L29.132 31.8363C32.9719 30.5921 37.719 30.422 41.0023 33.0805C42.2196 31.4453 44.7837 31.5189 45.8688 33.2659C46.865 34.8706 46.0213 36.8486 44.1484 37.1229C44.0366 37.2016 44.1382 37.7043 43.9044 37.9862C42.8396 39.2507 40.3822 38.3747 40.156 36.6937C40.0951 36.2418 40.2907 35.0763 39.9273 34.8478C37.9553 34.4212 36.0798 33.695 34.3442 32.6743C32.7076 33.2481 31.1676 34.0809 29.4878 34.538L29.2743 35.9142C33.4572 36.2799 37.9756 38.5422 40.1967 42.1885C42.7608 46.3984 41.4953 51.1618 37.3174 53.6375L37.2336 55.0772C39.1853 55.0061 41.414 55.4581 42.5931 57.1568C42.8015 57.4564 43.4495 58.5635 42.8625 58.7285C42.7329 58.7641 42.2246 58.8047 42.0493 58.8149C39.9197 58.9444 37.63 58.8072 35.4877 58.8656C34.9642 58.6194 34.118 58.1648 34.2933 57.497C34.4356 56.9587 35.4013 56.0294 35.4217 55.9355C35.4445 55.8237 35.3251 55.5952 35.3251 55.4479C35.3251 55.2067 35.414 54.9223 35.3683 54.6633C29.7775 56.7175 21.8386 54.8969 18.0673 50.1995C16.9619 48.8207 16.479 47.6121 16.0572 45.9134C16.0343 45.8195 16.1156 45.8017 15.9555 45.8068C15.7395 45.8144 15.305 46.0175 15.0737 46.1013C13.7522 46.5812 12.4664 47.1805 11.2796 47.9244C11.6786 49.1051 12.4333 50.1843 12.8272 51.3574C13.2211 52.5305 13.9123 55.3235 13.8488 56.4992C13.8386 56.6718 13.7192 56.9283 13.7421 57.0222C13.7929 57.2507 14.507 57.9922 14.3037 58.2664C13.8844 58.4619 13.4219 58.3705 12.9848 58.401C11.1322 58.533 8.11571 58.7768 6.34444 58.533C6.22246 58.5152 5.85652 58.4086 5.8311 58.2893C6.53504 56.0015 9.16525 54.8614 11.427 55.4251C10.8654 53.7873 10.3114 52.0683 9.9378 50.3772C9.66588 49.1458 9.30756 47.9397 10.1792 46.8808C11.6557 45.0907 13.7573 44.0776 15.9606 43.4606C16.23 41.7238 17.1118 40.3196 18.2122 38.9993C17.9225 38.593 17.5438 38.2909 17.2541 37.8795C16.5603 36.8994 16.2249 35.8025 16.047 34.6218C14.7154 34.2231 13.4015 33.7534 12.2122 33.0272C11.1627 33.5528 10.1335 34.1266 9.0204 34.5177C8.20973 34.8021 7.36349 34.9696 6.5452 35.2261C6.24025 35.4699 6.4156 36.5592 6.36731 36.9857C6.18688 38.5397 4.28093 39.4309 2.96201 38.6057C2.48171 38.3061 2.41564 38.0674 2.40039 37.5063C0.547802 37.1914 -0.364514 35.3048 0.616416 33.6594C1.68375 31.8719 4.28093 31.7779 5.50836 33.4284C8.55789 30.9324 12.8984 30.9756 16.5476 31.9074C16.3113 31.6357 15.8462 31.5951 15.5108 31.458C12.0699 30.0564 9.1932 27.5375 7.89461 23.9903C7.76755 23.6425 7.22372 21.9742 7.29996 21.7406C7.33299 21.6391 7.47785 21.5553 7.46768 21.4436C7.45752 21.3318 7.2288 21.0018 7.17035 20.8418C6.13606 18.1046 6.66464 15.1515 8.69766 13.0313C9.23386 12.4727 9.92255 12.2163 10.4918 11.7821C10.8755 11.4901 11.2567 10.9772 11.6328 10.6395C13.1474 9.29116 14.6239 8.5802 16.4511 7.77529C16.5146 7.74736 16.5756 7.81591 16.5451 7.66864C16.1842 7.21413 16.0343 6.55395 15.6861 6.10706C15.155 5.42657 13.6125 4.3525 12.8806 3.72279C12.6697 3.54251 12.5045 3.30891 12.2834 3.13879C12.0598 3.22766 12.0115 3.40794 11.7624 3.50189C10.8806 3.82944 9.06106 3.42825 8.34442 2.79092H8.24531C8.05471 3.22766 7.5795 3.56283 7.09411 3.61107C6.24787 3.6974 4.9137 3.00675 5.50582 2.0241C5.91242 1.34614 7.09411 1.3563 7.77517 1.49341C7.96069 1.5315 8.19194 1.69909 8.34442 1.68385C8.46386 1.67116 8.54772 1.5442 8.65954 1.51119C10.0649 1.06938 11.8844 1.7651 13.0991 2.47099C13.8031 2.87979 16.5095 5.02284 16.9263 5.63224C17.2567 6.11468 17.5464 6.74947 17.8081 7.27761L17.9021 7.29539C19.6353 6.92975 21.4142 6.69107 23.188 6.86373C23.4548 6.11214 23.7496 5.36055 24.1308 4.65974C25.0456 2.97374 26.24 2.02918 27.7445 0.93734C28.6441 0.284776 30.0672 -0.141802 31.1777 0.0435566C31.4496 0.0892614 31.7292 0.353334 31.8918 0.373647C32.1129 0.401578 32.5958 0.27462 32.9261 0.302551C33.4191 0.343177 34.0468 0.627562 34.3416 1.03129C35.4801 2.58779 31.8995 3.47903 31.8486 1.61783L31.8283 1.60768ZM31.3887 1.1684C31.6275 0.927183 31.5665 0.678346 31.2565 0.553927C30.6847 0.322864 29.2489 0.66565 28.667 0.90433C28.5297 0.960192 27.376 1.53658 27.5386 1.74733C28.4255 2.05965 30.7228 1.84636 31.3912 1.17094L31.3887 1.1684ZM32.151 0.790068C31.8308 0.894174 32.5068 1.98855 32.6618 2.05711C32.9719 2.19676 33.8461 2.09012 33.996 1.72702C34.2654 1.07445 32.6059 0.640258 32.1536 0.790068H32.151ZM7.95052 2.09266C7.34316 1.85651 6.24533 1.8362 5.95817 2.52939C6.60365 3.43587 7.45752 2.79346 7.95052 2.09266ZM9.66334 1.97332C8.38 2.11805 8.67733 2.45322 9.66334 2.76553C10.3596 2.98644 11.4244 3.25813 11.8895 2.53955C11.9352 2.33134 10.9086 2.01648 10.718 1.98601C10.3825 1.93523 9.99879 1.93523 9.6608 1.97332H9.66334ZM23.038 7.62548C23.0177 7.52645 22.9542 7.5036 22.8652 7.48836C22.4713 7.41981 21.4421 7.46297 20.9974 7.48836C20.5527 7.51375 20.047 7.57723 19.6226 7.63563C19.3913 7.66864 18.0978 7.87431 18.0622 8.01143C18.1664 8.31105 18.1995 8.79857 17.8081 8.86966C17.1753 8.98646 17.1067 8.3466 16.9669 8.31359C16.4892 8.20187 14.0801 9.4816 13.5616 9.80915C12.8526 10.256 12.2275 10.8045 11.549 11.292C11.5312 11.4012 11.6455 11.3657 11.7192 11.3606C12.4054 11.3098 12.9492 11.1701 13.6938 11.2235C17.9657 11.5205 19.4599 16.6369 17.9479 20.1435C17.2211 21.8295 16.4206 23.6247 14.7789 24.5845C14.1868 24.9298 13.2694 25.4148 12.5858 25.265C13.2262 25.1253 15.0661 23.97 15.5286 23.4673L16.047 22.7055C13.709 24.7165 10.1792 24.7292 8.08775 22.3602C9.24657 27.4969 14.1411 31.0644 19.2058 31.7576C19.6454 31.8186 20.0444 31.8135 20.4764 31.8363C20.5603 31.8414 20.667 31.9049 20.7534 31.9049C20.7865 31.9049 20.8348 31.877 20.8221 31.8363C21.5107 31.7373 22.4281 31.8439 23.2007 31.7576C30.4154 30.9679 36.6821 24.8435 35.1853 17.2387C34.1561 12.0157 29.503 8.57004 24.4408 7.70673C24.2375 7.71435 24.1054 8.34406 23.9936 8.54465C23.9377 8.64368 23.3989 9.39781 23.3532 9.42574C23.2134 9.51461 22.9948 9.48922 22.8017 9.56539C22.5298 9.67204 21.2947 10.5455 21.2032 10.5277C21.1016 10.5074 21.1143 10.4008 21.127 10.3195C21.221 9.6111 22.3392 9.0474 22.9364 8.80365L23.038 7.62548ZM12.7256 11.9141C6.21229 12.2036 5.04585 22.7995 11.7573 23.5358C15.5006 23.9472 18.4129 20.1664 17.9098 16.5912C17.5337 13.9353 15.521 11.7897 12.7256 11.9141ZM27.7445 31.2142C25.2922 32.2324 22.6187 32.7098 19.958 32.4584C18.9898 32.367 18.0495 32.1106 17.0889 31.9785C16.6366 33.4385 16.6086 34.7665 17.188 36.191C18.5222 39.4716 22.6696 40.8249 25.7343 39.0983C27.3506 38.1868 28.545 36.6912 28.7788 34.8097C28.0443 34.9519 28.0875 35.4826 27.2388 35.3454C26.39 35.2083 25.7547 34.4821 26.1155 33.6341C26.2578 33.2963 26.8271 32.979 27.1422 32.7911C27.3328 32.6768 28.2985 32.2375 28.3341 32.1817C28.4103 32.0598 28.0189 31.1051 27.7419 31.2117L27.7445 31.2142ZM31.7597 31.8363C30.2781 32.0699 28.3341 32.6133 27.0583 33.3979C26.5196 33.7305 25.9783 34.0759 26.7407 34.604C26.9236 34.731 26.9668 34.6903 27.1219 34.7411C27.2845 34.7944 27.4344 34.9087 27.6225 34.8681L34.2755 32.1817C36.1434 32.8774 37.9248 33.7915 39.785 34.4999C39.9324 34.5558 40.0722 34.5024 40.2399 34.5964C40.8193 34.9214 40.5601 35.9421 40.6186 36.5008C40.7278 37.5901 41.8917 38.4483 42.9514 38.0725C43.2234 37.976 43.8587 37.585 43.6325 37.227C43.602 37.1787 42.8371 36.775 42.6744 36.6607C42.5118 36.5465 42.306 36.4017 42.1611 36.2799C42.1103 36.2367 42.0315 36.2799 42.0747 36.1224C42.2272 36.1326 42.3288 36.1884 42.4915 36.1656C42.8218 36.1148 43.5995 35.3327 43.7265 35.8253L43.6477 36.1047L42.7659 36.4678C43.4317 36.8105 43.8409 36.8486 44.5321 36.5388C47.2589 35.3099 45.231 31.5519 42.3314 32.6108C41.9375 32.7555 41.3149 33.1795 41.3123 33.6341H41.2107C40.6058 33.2963 40.0874 32.9713 39.4419 32.7022C36.9439 31.6637 34.4331 31.4123 31.7622 31.8363H31.7597ZM16.1868 33.2202C16.2096 33.0247 16.2147 32.8266 16.263 32.6311L16.2173 32.5194C13.0864 31.6307 9.46258 31.8313 6.51979 33.276C6.09031 33.4868 5.72437 33.7889 5.28473 33.9794H5.18308C5.17546 33.5096 4.52997 33.0805 4.1132 32.9383C1.24665 31.9709 -0.720292 35.5968 1.91501 36.8639C2.60623 37.1965 3.05349 37.166 3.72947 36.8131L2.84765 36.45L2.76887 36.1707C2.89594 35.6781 3.67356 36.4576 4.00393 36.5109C4.16657 36.5363 4.26822 36.4779 4.4207 36.4678C4.4639 36.6277 4.38258 36.5846 4.33429 36.6252C4.08017 36.8435 3.73201 37.0721 3.44739 37.2574C3.27967 37.3666 2.84257 37.491 2.82732 37.6789C2.84511 38.0903 3.24663 38.3239 3.59224 38.4381C4.59096 38.7682 5.7447 37.9405 5.86922 36.9096C5.93784 36.3383 5.66846 35.2718 6.25295 34.9417C6.42068 34.8478 6.56299 34.9011 6.70784 34.8452C7.40669 34.5786 8.08775 34.2536 8.78152 33.9794C8.8298 33.9591 8.88317 33.954 8.91875 33.9108C8.97211 33.8905 9.02548 33.8524 9.05597 33.8423C10.1309 33.4893 11.15 32.9459 12.2097 32.5295C13.4752 32.9663 14.7103 33.535 16.0216 33.8346C16.1639 33.8677 16.0953 33.8219 16.1182 33.7432C16.1715 33.563 16.1639 33.3954 16.1868 33.2202ZM33.4903 44.9079C33.4725 44.3975 33.7292 43.9303 33.7673 43.42C33.8944 41.673 33.3353 39.1999 32.4407 37.6942C31.9859 36.9273 31.9401 36.9273 31.0837 36.6988C30.5119 36.5465 29.9147 36.4703 29.3379 36.3332C30.6949 38.3315 30.5958 40.9951 29.7521 43.1787L31.1828 43.651L33.4878 44.9079H33.4903ZM29.4751 37.9912C29.3506 37.5342 29.193 37.0873 28.9567 36.6785C27.4599 39.9972 23.6047 41.5588 20.202 40.1698C19.7064 39.9667 19.2693 39.6569 18.7941 39.4538C18.0444 40.1597 17.4447 41.1576 17.1016 42.1275C17.0305 42.3307 16.8526 43.161 16.8145 43.2117C16.7535 43.293 16.6264 43.2067 16.5985 43.2854C16.5985 43.3996 18.6366 42.8639 18.8145 42.836C19.4218 42.7395 19.8157 42.7801 19.5209 43.5063C19.3557 43.9151 19.1829 43.9735 18.8856 44.2173C18.2655 44.7251 17.5819 45.1415 16.8196 45.403C16.6671 45.6493 17.3227 47.4902 17.5489 47.8178C20.3036 49.2549 23.8741 48.7116 26.423 47.0814C27.0812 46.6599 27.8436 46.0556 28.1587 45.3243C28.1867 45.3091 28.207 45.2786 28.2273 45.2558C28.2553 45.2405 28.2908 45.2177 28.2959 45.1872C28.3036 45.1491 28.3086 45.0933 28.2832 45.0603C27.7546 44.819 26.5297 43.6612 26.5679 43.0797C26.578 42.9324 26.8474 42.4475 26.9821 42.3865C27.3353 42.224 27.2845 42.4652 27.4599 42.5262C28.024 42.7217 28.761 42.7318 29.3328 42.9731C29.7267 41.2464 29.9503 39.7356 29.4725 37.9938L29.4751 37.9912ZM36.2577 48.7141C36.3823 48.742 36.395 48.6786 36.4534 48.5998C37.0277 47.8482 37.6402 45.6823 37.7698 44.7276C37.9604 43.3108 38.0468 40.4161 36.8753 39.4183C35.7673 38.4737 34.0849 37.7373 32.7279 37.2346C33.0151 37.9176 33.4522 38.4965 33.6987 39.205C34.1739 40.5736 34.2603 42.7496 34.0341 44.1766C33.9757 44.5473 33.9935 44.9333 33.5589 45.0171C34.7431 45.9947 35.7749 47.2515 36.2577 48.7192V48.7141ZM37.2285 52.8631C37.2793 52.9088 37.6554 52.6295 37.7342 52.5736C41.1624 50.1817 41.8307 46.0302 39.6783 42.4932C39.4851 42.1758 38.4839 40.7259 38.2298 40.6193C38.0824 40.5583 38.1357 40.7081 38.1434 40.7742C38.1739 41.0814 38.3085 41.4394 38.334 41.7594C38.5423 44.3798 37.935 46.99 36.4661 49.1635C36.8524 50.3646 37.0938 51.6037 37.2285 52.8605V52.8631ZM36.5347 55.3515C36.3314 54.869 36.5779 54.3434 36.6033 53.866C36.7558 50.9257 35.6224 47.442 33.2743 45.5732C32.146 44.6743 28.888 43.1229 27.4853 42.9172C27.3836 42.902 27.2845 42.8766 27.1879 42.9324C26.9973 43.1965 27.2413 43.4885 27.4014 43.6967C28.1028 44.6159 31.0227 46.1673 32.151 46.698C32.5576 46.8884 33.9553 47.5435 34.3035 47.5969C34.5475 47.635 34.8168 47.3683 34.8727 47.8559C34.8956 48.0565 34.794 48.2139 34.8016 48.3992C34.8245 48.9909 34.9337 49.7323 35.0227 50.329C35.287 52.1115 36.0265 53.828 35.841 55.6308L36.5322 55.3515H36.5347ZM18.8856 43.2498C15.8717 43.7221 12.6188 44.7657 10.5909 47.1576L10.9467 47.5309C11.7624 46.9849 12.6773 46.4695 13.5769 46.0759C14.9263 45.4843 16.5324 45.139 17.7979 44.4153C18.0114 44.2934 19.1804 43.5545 18.8856 43.2524V43.2498ZM20.3392 48.9909C19.493 48.9223 18.7153 48.8106 17.9174 48.5084C18.1054 48.7116 18.2071 48.968 18.3723 49.194C19.5133 50.7505 21.188 52.1445 22.8983 53.0408C23.1549 53.1754 23.9529 53.5969 24.1867 53.6248C24.4916 53.6604 24.7712 53.4903 25.0456 53.4192C26.4306 53.051 27.6479 52.4314 28.8321 51.6367C30.3671 50.6083 31.9071 49.2626 32.5144 47.4775L28.6441 45.398C28.2476 46.3197 27.2438 47.1652 26.3798 47.668C24.7026 48.643 22.2579 49.1508 20.3367 48.9959L20.3392 48.9909ZM13.2084 56.4611C12.812 53.3176 12.0394 50.1259 10.2682 47.4699C9.90984 47.8609 10.042 48.3942 10.1157 48.8664C10.4715 51.1161 11.4473 53.5461 12.0369 55.7323L13.211 56.4611H13.2084ZM26.2223 53.6934C26.0444 53.668 25.559 53.8381 25.3557 53.8991C25.2566 53.9295 25.2337 53.8559 25.254 54.0387C26.1359 54.2698 27.0202 54.5288 27.93 54.6532C28.4789 54.7294 29.7648 54.8842 30.2578 54.7852C30.4179 54.7548 30.4865 54.6405 30.5856 54.5922C31.442 54.1834 32.5958 53.5817 33.3759 53.0561C33.8766 52.7209 34.3315 52.3095 34.7228 51.85C34.4382 50.6159 34.2603 49.3667 34.3162 48.0945L33.0151 47.8178C31.9071 50.6946 28.9084 52.467 26.2248 53.6908L26.2223 53.6934ZM34.8727 52.3095C34.6644 52.2918 34.6186 52.5381 34.4916 52.6549C34.1434 52.9748 33.7317 53.244 33.3429 53.5131L31.0659 54.7294C32.4738 54.6786 33.8816 54.351 35.2107 53.8914L34.8727 52.3095ZM42.4864 58.2588C41.7367 56.555 39.7189 55.773 37.9553 55.6968C36.2755 55.6231 35.3098 56.5347 34.6008 57.949C35.2107 58.627 36.0748 58.4873 36.9159 58.4695C38.334 58.4391 39.785 58.3959 41.2005 58.3248C41.6274 58.3045 42.0696 58.3908 42.4838 58.2588H42.4864ZM13.1855 57.3142C11.1983 55.3261 7.7828 55.7146 6.42576 58.1877C6.83491 58.1268 7.24659 58.2639 7.63795 58.2613C7.7828 58.2613 7.92257 58.1902 8.05217 58.1877C9.73958 58.1623 11.6404 58.1725 13.3024 57.9719C13.3888 57.9617 13.6785 57.9389 13.6226 57.8094C13.4422 57.6824 13.3228 57.4539 13.183 57.3142H13.1855Z" fill="#040404"/>
<path d="M23.038 7.62548L22.9364 8.80365C22.3392 9.04994 21.221 9.6111 21.127 10.3195C21.1168 10.4008 21.1016 10.5074 21.2032 10.5277C21.2947 10.5455 22.5272 9.67204 22.8017 9.56539C22.9948 9.48922 23.2134 9.51461 23.3532 9.42574C23.3989 9.39527 23.9377 8.64368 23.9936 8.54465C24.1054 8.34406 24.2375 7.71181 24.4408 7.70673C29.503 8.5675 34.1586 12.0157 35.1853 17.2387C36.6821 24.8435 30.4154 30.9679 23.2007 31.7576C22.4281 31.8414 21.5107 31.7348 20.8221 31.8363C20.789 31.8414 20.7611 31.8719 20.7534 31.9049C20.667 31.9049 20.5603 31.8414 20.4764 31.8363C20.5171 31.6535 20.385 31.6992 20.2706 31.6662C16.8526 30.6709 14.0267 29.1728 11.6506 26.4432C11.5032 26.273 10.8425 25.4427 10.7866 25.3005C10.7154 25.1101 11.1449 25.2675 11.2313 25.2701C11.5413 25.2802 12.3317 25.3209 12.5833 25.2675C13.2669 25.4173 14.1817 24.9349 14.7764 24.587C16.418 23.6272 17.2185 21.8321 17.9453 20.1461C19.4574 16.6395 17.9631 11.5231 13.6913 11.226C13.6836 11.0737 13.7904 11.0432 13.8895 10.9746C14.385 10.6293 15.0127 10.3017 15.5591 10.0504C15.9022 10.1646 16.2351 10.2383 16.5756 10.383C16.9466 10.543 17.5311 10.9569 17.8411 11.0559C18.0012 11.1067 18.2096 11.1168 18.296 10.9492C18.6239 10.3017 16.9746 9.78122 16.5299 9.70505C16.4943 9.54508 16.6086 9.55777 16.7103 9.50953C17.5387 9.1185 18.9847 8.58274 19.8691 8.30343C20.8678 7.98858 22.0037 7.81845 23.0355 7.63055L23.038 7.62548ZM23.7318 25.4021C24.972 26.5574 26.9211 26.7402 28.5323 26.499C28.7483 26.466 29.6021 26.2908 29.719 26.1639C29.7648 26.1156 29.7826 26.0267 29.719 26.0242C27.9249 26.3264 25.869 26.433 24.357 25.265C28.2299 26.593 32.6161 24.8054 33.8054 20.7681C35.4674 15.1134 30.4763 9.62125 24.6899 10.6902C22.5933 11.0762 20.728 12.6886 19.7217 14.5447C19.6937 14.5955 19.6734 14.6209 19.6531 14.6818C19.6454 14.7021 19.6607 14.73 19.6531 14.7503C19.6226 14.763 19.5921 14.7884 19.5845 14.8189C19.5794 14.8392 19.5895 14.8672 19.5845 14.8875C19.4244 14.8519 19.4345 14.9662 19.3888 15.0677C17.986 18.1147 18.4714 21.3826 20.8297 23.777C20.7839 23.8558 20.7255 23.8532 20.6543 23.8786C20.0216 24.0817 18.4968 24.3204 17.8183 24.3661C16.7281 24.4372 15.5311 23.9091 14.7357 24.8841C14.6798 24.9527 14.6849 25.0365 14.6696 25.0568C14.5197 25.2675 14.3189 25.463 14.2707 25.7297C14.0267 27.078 14.6036 27.992 15.6074 28.7893C17.2439 30.0919 20.0953 30.1656 21.62 28.6472C22.3646 27.9057 23.2134 26.1765 22.8373 25.1253L23.7369 25.4021H23.7318Z" fill="#9D735D"/>
<path d="M12.7256 11.9141C18.4104 13.5239 19.3608 22.2205 12.8094 23.3784C12.474 23.4368 12.0826 23.3936 11.7548 23.5358C5.04331 22.7995 6.20975 12.2036 12.723 11.9141H12.7256ZM11.4676 15.182C7.8565 15.2556 8.52993 21.0652 12.1385 20.0089C14.8196 19.2243 14.3317 15.1236 11.4676 15.182Z" fill="#FEFEFE"/>
<path d="M29.4751 37.9912C29.9528 39.7331 29.7292 41.2439 29.3353 42.9705C28.761 42.7293 28.0266 42.7192 27.4624 42.5236C27.287 42.4627 27.3379 42.2215 26.9846 42.384C26.8499 42.4449 26.5806 42.9324 26.5704 43.0772C26.5323 43.6586 27.7572 44.814 28.2858 45.0577C28.3112 45.0907 28.3061 45.144 28.2985 45.1847C28.2705 45.205 28.2527 45.2304 28.2299 45.2532C28.207 45.2761 28.1867 45.3066 28.1612 45.3218C27.686 45.5986 27.3125 45.949 26.8245 46.2333C24.6797 47.4775 22.2757 47.7568 19.8208 47.7441C19.709 47.7391 19.6785 47.673 19.6302 47.5867C19.5082 47.3607 19.3075 46.4873 19.2363 46.1826C19.0838 45.5351 18.9898 44.8724 18.8856 44.2173C19.1855 43.971 19.3557 43.9151 19.5209 43.5063C19.8157 42.7801 19.4244 42.7395 18.8145 42.836C18.7331 42.5617 19.1499 41.0865 19.3405 41.0433C22.39 42.351 26.1918 41.4343 28.5399 39.172L29.4725 37.9963L29.4751 37.9912Z" fill="#9E745E"/>
<path d="M27.7445 31.2142C28.0215 31.1076 28.4154 32.0623 28.3366 32.1842C28.301 32.2401 27.3353 32.6793 27.1447 32.7936C26.8296 32.9815 26.2629 33.2963 26.1181 33.6366C25.7572 34.4872 26.4205 35.2185 27.2413 35.348C28.0621 35.4775 28.0469 34.9544 28.7813 34.8122C28.5475 36.6937 27.3531 38.1893 25.7369 39.1009C24.3468 39.4995 22.789 39.2075 21.4472 38.7174C19.3862 37.9633 17.6912 35.5994 18.1918 33.3598C20.1562 33.6417 22.268 33.5274 24.2147 33.1186C25.315 32.8875 26.2121 32.4813 27.193 31.9455C27.4903 31.783 27.7902 31.6129 27.7445 31.2168V31.2142Z" fill="#9E745E"/>
<path d="M20.3392 48.9909C22.2604 49.1458 24.7051 48.6379 26.3824 47.6629C27.2464 47.1601 28.2502 46.3146 28.6466 45.3929L32.517 47.4725C31.9096 49.2575 30.3671 50.6032 28.8347 51.6316C27.6479 52.4263 26.4332 53.0459 25.0482 53.4141C25.0914 53.2262 24.9465 53.2871 24.8449 53.2389C23.2718 52.5178 22.0342 51.5478 21.005 50.1563C20.7611 49.8263 20.4282 49.3819 20.3418 48.9858L20.3392 48.9909Z" fill="#9E745E"/>
<path d="M31.7597 31.8363C34.4306 31.4148 36.9413 31.6637 39.4394 32.7022C40.0849 32.9713 40.6033 33.2989 41.2081 33.6341H41.3098C41.3098 33.1795 41.9349 32.7555 42.3288 32.6108C45.2259 31.5519 47.2564 35.3099 44.5296 36.5388C43.8383 36.8512 43.4292 36.8105 42.7634 36.4678L43.6452 36.1047L43.724 35.8253C43.5969 35.3327 42.8193 36.1123 42.4889 36.1656C42.3263 36.191 42.2246 36.1326 42.0722 36.1224C42.029 36.2824 42.1103 36.2392 42.1586 36.2799C42.3034 36.4043 42.5118 36.5515 42.6719 36.6607C42.832 36.7699 43.602 37.1787 43.63 37.227C43.8561 37.585 43.2234 37.976 42.9489 38.0725C41.8892 38.4483 40.7278 37.5901 40.616 36.5008C40.5601 35.9421 40.8168 34.9214 40.2374 34.5964C40.0696 34.5024 39.9273 34.5558 39.7825 34.4999C37.9223 33.7889 36.1408 32.8748 34.273 32.1817L27.62 34.8681C27.4319 34.9113 27.282 34.797 27.1193 34.7411C27.1778 34.2333 27.7699 33.8677 28.1638 33.6061C29.2743 32.8647 30.545 32.3797 31.7571 31.8363H31.7597Z" fill="#9D735D"/>
<path d="M36.2577 48.7141C35.7724 47.2465 34.7431 45.9896 33.5589 45.012C33.9935 44.9282 33.9757 44.5423 34.0341 44.1716C34.2603 42.7445 34.1739 40.5685 33.6987 39.1999C33.4522 38.4915 33.0151 37.9125 32.7279 37.2295C34.0824 37.7323 35.7673 38.4711 36.8753 39.4132C38.0468 40.4111 37.9629 43.3057 37.7698 44.7225C37.6402 45.6773 37.0277 47.8432 36.4534 48.5948C36.395 48.6735 36.3823 48.737 36.2577 48.709V48.7141Z" fill="#9D735D"/>
<path d="M8.77898 33.9794C8.08521 34.2536 7.40415 34.5786 6.7053 34.8452C6.55791 34.9011 6.41814 34.8478 6.25041 34.9417C5.66592 35.2693 5.9353 36.3383 5.86668 36.9096C5.7447 37.9405 4.58842 38.7682 3.5897 38.4381C3.24409 38.3239 2.84003 38.0903 2.82478 37.6789C2.84003 37.491 3.27713 37.3666 3.44485 37.2574C3.72947 37.0746 4.07763 36.8435 4.33175 36.6252C4.38258 36.582 4.46136 36.6252 4.41816 36.4678C4.26568 36.4779 4.16403 36.5338 4.00139 36.5109C3.67102 36.4601 2.89339 35.6781 2.76633 36.1707L2.84511 36.45L3.72693 36.8131C3.05349 37.1635 2.60623 37.1965 1.91246 36.8639C-0.725375 35.5994 1.24157 31.9734 4.11066 32.9383C4.52997 33.0805 5.17291 33.5096 5.18054 33.9794H5.28219C5.72183 33.7889 6.08523 33.4868 6.51725 33.276C9.4575 31.8313 13.0813 31.6307 16.2147 32.5194L16.2605 32.6311C16.2122 32.8241 16.2097 33.0247 16.1842 33.2202C15.432 32.8952 14.629 32.4 13.7954 32.3213C12.1106 32.1664 10.6138 32.7479 9.22624 33.6341C9.1373 33.6925 9.02294 33.6925 9.05597 33.8423C9.02548 33.8524 8.97211 33.8905 8.91875 33.9108C8.873 33.9286 8.80693 33.9057 8.78152 33.9794H8.77898Z" fill="#9D735D"/>
<path d="M37.2285 52.8631C37.0938 51.6062 36.8524 50.3671 36.4661 49.1661C37.935 46.9951 38.5423 44.3823 38.334 41.7619C38.3085 41.4394 38.1739 41.0839 38.1434 40.7767C38.1357 40.7107 38.0849 40.5609 38.2298 40.6218C38.4839 40.7285 39.4851 42.1783 39.6783 42.4957C41.8282 46.0328 41.1598 50.1843 37.7342 52.5762C37.6554 52.632 37.2793 52.9113 37.2285 52.8656V52.8631Z" fill="#9D735D"/>
<path d="M26.2223 53.6934C28.9033 52.4695 31.9045 50.6972 33.0125 47.8203L34.3137 48.0971C34.2552 49.3692 34.4356 50.6185 34.7203 51.8525C34.3289 52.3121 33.874 52.7209 33.3734 53.0586C32.5932 53.5817 31.4395 54.186 30.5831 54.5948L27.3175 54.0209C26.9872 54.0184 26.4916 53.734 26.2223 53.6959V53.6934Z" fill="#9D735D"/>
<path d="M33.4903 44.9079L31.1854 43.651L29.7546 43.1787C30.5983 40.9951 30.6974 38.329 29.3404 36.3332C29.9147 36.4703 30.5145 36.5465 31.0862 36.6988C31.9427 36.9273 31.9859 36.9273 32.4433 37.6942C33.3378 39.1999 33.8969 41.673 33.7698 43.42C33.7317 43.9303 33.4776 44.3975 33.4928 44.9079H33.4903Z" fill="#9D735D"/>
<path d="M27.7445 31.2142C27.7902 31.6103 27.4929 31.7805 27.193 31.943C26.2121 32.4787 25.315 32.885 24.2147 33.1161C22.268 33.5249 20.1588 33.6391 18.1918 33.3573C17.6938 35.5968 19.3862 37.9633 21.4472 38.7149C22.7865 39.205 24.3468 39.497 25.7369 39.0983C22.6721 40.8275 18.5247 39.4716 17.1906 36.191C16.6112 34.7665 16.6366 33.436 17.0915 31.9785C18.0521 32.108 18.9923 32.367 19.9606 32.4584C22.6213 32.7098 25.2947 32.2324 27.747 31.2142H27.7445Z" fill="#714039"/>
<path d="M20.4764 31.8363C20.0444 31.8109 19.6454 31.8186 19.2058 31.7576C14.1411 31.0644 9.24657 27.4969 8.08775 22.3602C10.1792 24.7292 13.709 24.7165 16.047 22.7055L15.5286 23.4673C15.0686 23.97 13.2262 25.1253 12.5858 25.265C12.3317 25.3209 11.5439 25.2802 11.2338 25.2675C11.1474 25.265 10.7154 25.1076 10.7891 25.298C10.8425 25.4402 11.5058 26.2705 11.6532 26.4406C14.0292 29.1702 16.8551 30.6709 20.2731 31.6637C20.3875 31.6967 20.5196 31.651 20.479 31.8338L20.4764 31.8363Z" fill="#714039"/>
<path d="M36.5347 55.3515L35.8435 55.6308C36.0265 53.828 35.2895 52.109 35.0252 50.329C34.9363 49.7323 34.827 48.9934 34.8041 48.3992C34.7965 48.2139 34.8981 48.0565 34.8753 47.8559C34.8194 47.3683 34.55 47.635 34.306 47.5969C33.9579 47.5435 32.5602 46.891 32.1536 46.698C31.0253 46.1673 28.1079 44.6159 27.4039 43.6967C27.2438 43.4885 26.9999 43.1965 27.1905 42.9324C27.2896 42.8766 27.3862 42.902 27.4878 42.9172C28.8906 43.1229 32.1485 44.6743 33.2768 45.5732C35.6224 47.442 36.7558 50.9257 36.6059 53.866C36.5805 54.3434 36.334 54.869 36.5373 55.3515H36.5347Z" fill="#714039"/>
<path d="M29.4751 37.9912L28.5424 39.1669C26.1943 41.4318 22.3926 42.3459 19.343 41.0382C19.1524 41.0814 18.7357 42.5566 18.817 42.8309C18.6391 42.8588 16.6035 43.3946 16.601 43.2803C16.629 43.2016 16.7586 43.2879 16.817 43.2067C16.8526 43.1584 17.0305 42.3256 17.1042 42.1225C17.4472 41.155 18.047 40.1546 18.7967 39.4487C19.2693 39.6519 19.709 39.9642 20.2045 40.1648C23.6073 41.5537 27.4624 39.9921 28.9592 36.6734C29.1955 37.0848 29.3531 37.5291 29.4776 37.9862L29.4751 37.9912Z" fill="#714039"/>
<path d="M42.4864 58.2588C42.0722 58.3908 41.63 58.3045 41.203 58.3248C39.7876 58.3959 38.334 58.4391 36.9185 58.4695C36.0773 58.4873 35.2133 58.6244 34.6034 57.949C35.3098 56.5372 36.2781 55.6257 37.9578 55.6968C39.7215 55.773 41.7393 56.555 42.4889 58.2588H42.4864Z" fill="#714039"/>
<path d="M28.1612 45.3243C27.8461 46.0556 27.0837 46.6625 26.4256 47.0814C23.8767 48.709 20.3062 49.2549 17.5514 47.8178C17.3253 47.4928 16.6696 45.6493 16.8221 45.403C17.5845 45.1415 18.2681 44.7251 18.8881 44.2173C18.9923 44.8724 19.0864 45.5351 19.2388 46.1826C19.31 46.4873 19.5108 47.3607 19.6327 47.5867C19.6785 47.673 19.709 47.7391 19.8233 47.7441C22.2782 47.7594 24.6822 47.4775 26.8271 46.2333C27.315 45.949 27.6886 45.5986 28.1638 45.3218L28.1612 45.3243Z" fill="#714039"/>
<path d="M13.1855 57.3142C13.3253 57.4539 13.4447 57.6824 13.6252 57.8094C13.6811 57.9389 13.3914 57.9617 13.305 57.9719C11.643 58.175 9.73958 58.1648 8.05471 58.1877C7.92257 58.1877 7.78534 58.2613 7.64049 58.2613C7.24913 58.2613 6.83745 58.1268 6.4283 58.1877C7.7828 55.7146 11.2008 55.3235 13.1881 57.3142H13.1855Z" fill="#714039"/>
<path d="M13.2084 56.4611L12.0343 55.7323C11.4448 53.5461 10.4689 51.1187 10.1131 48.8664C10.0394 48.3942 9.9073 47.8609 10.2656 47.4699C12.0369 50.1259 12.812 53.3176 13.2059 56.4611H13.2084Z" fill="#714039"/>
<path d="M23.038 7.62548C22.0037 7.81337 20.8703 7.9835 19.8716 8.29835C18.9873 8.57766 17.5413 9.11342 16.7128 9.50445C16.6112 9.5527 16.4968 9.54 16.5324 9.69997C16.0572 9.61871 15.7268 9.59586 15.2872 9.83962C15.183 9.9615 15.4905 10.0224 15.5642 10.0453C15.0178 10.2967 14.3876 10.6242 13.8946 10.9695C13.7954 11.0381 13.6887 11.0686 13.6963 11.2209C12.9517 11.1701 12.4079 11.3073 11.7218 11.358C11.6481 11.3631 11.5312 11.4012 11.5515 11.2895C12.23 10.802 12.8552 10.256 13.5642 9.80661C14.0826 9.47906 16.4917 8.19933 16.9695 8.31105C17.1093 8.34406 17.1779 8.98392 17.8106 8.86712C18.202 8.79603 18.1664 8.30851 18.0648 8.00889C18.1004 7.87431 19.3913 7.6661 19.6251 7.63309C20.0495 7.57469 20.5781 7.50868 20.9999 7.48582C21.4421 7.46297 22.4739 7.41727 22.8678 7.48582C22.9567 7.50106 23.0228 7.52391 23.0406 7.62294L23.038 7.62548Z" fill="#714039"/>
<path d="M18.8856 43.2498C19.1804 43.552 18.014 44.2884 17.7979 44.4128C16.5324 45.139 14.9263 45.4818 13.5769 46.0734C12.6773 46.4695 11.7624 46.9824 10.9467 47.5283L10.5909 47.1551C12.6188 44.7632 15.8717 43.7221 18.8856 43.2473V43.2498Z" fill="#714039"/>
<path d="M20.3392 48.9909C20.4256 49.387 20.7585 49.8313 21.0025 50.1614C22.0317 51.5529 23.2693 52.5228 24.8423 53.244C24.944 53.2897 25.0863 53.2287 25.0456 53.4192C24.7712 53.4928 24.4916 53.6629 24.1867 53.6248C23.9529 53.5969 23.1549 53.1754 22.8983 53.0408C21.188 52.1445 19.5133 50.7505 18.3723 49.194C18.2071 48.9706 18.1029 48.7116 17.9174 48.5084C18.7153 48.8131 19.493 48.9223 20.3392 48.9909Z" fill="#714039"/>
<path d="M11.7573 23.5358C12.0852 23.3936 12.4765 23.4368 12.812 23.3784C19.3608 22.2205 18.4104 13.5239 12.7281 11.9141C15.5235 11.7897 17.5362 13.9353 17.9123 16.5912C18.418 20.1638 15.5032 23.9446 11.7599 23.5358H11.7573Z" fill="#D3B8BA"/>
<path d="M31.3887 1.1684C30.7203 1.84382 28.423 2.05711 27.5361 1.74479C27.3735 1.53658 28.5272 0.960192 28.6644 0.901791C29.2464 0.66565 30.6822 0.320325 31.254 0.551388C31.564 0.675807 31.625 0.924644 31.3861 1.16586L31.3887 1.1684Z" fill="#9D735D"/>
<path d="M16.1868 33.2202C16.1664 33.3954 16.1715 33.563 16.1182 33.7432C16.0953 33.8219 16.1639 33.8677 16.0216 33.8346C14.7103 33.5376 13.4752 32.9663 12.2097 32.5295C11.15 32.9434 10.1309 33.4868 9.05597 33.8423C9.02294 33.695 9.13475 33.6925 9.22624 33.6341C10.6138 32.7479 12.1131 32.1664 13.7954 32.3213C14.6315 32.3975 15.432 32.8952 16.1842 33.2202H16.1868Z" fill="#714039"/>
<path d="M34.8727 52.3095L35.2107 53.8914C33.8816 54.351 32.4738 54.6786 31.0659 54.7294L33.3429 53.5131C33.7292 53.244 34.1434 52.9748 34.4916 52.6549C34.6186 52.5381 34.6644 52.2918 34.8727 52.3095Z" fill="#9D735D"/>
<path d="M31.7597 31.8363C30.5475 32.3797 29.2769 32.8647 28.1663 33.6061C27.775 33.8677 27.1803 34.2333 27.1219 34.7411C26.9668 34.6903 26.9236 34.7284 26.7407 34.604C25.9783 34.0759 26.5196 33.7305 27.0583 33.3979C28.3341 32.6133 30.2781 32.0699 31.7597 31.8363Z" fill="#714039"/>
<path d="M26.2223 53.6934C26.4916 53.7315 26.9872 54.0159 27.3175 54.0184L30.5831 54.5922C30.484 54.6405 30.4154 54.7522 30.2553 54.7852C29.7622 54.8817 28.4764 54.7268 27.9275 54.6532C27.0177 54.5288 26.1359 54.2723 25.2515 54.0387C25.2312 53.8559 25.254 53.9295 25.3531 53.8991C25.5564 53.8381 26.0444 53.668 26.2197 53.6934H26.2223Z" fill="#714039"/>
<path d="M9.66334 1.97332C10.0013 1.93523 10.3851 1.93269 10.7205 1.98601C10.9111 2.01648 11.9378 2.33134 11.892 2.53955C11.4244 3.25813 10.3622 2.98644 9.66588 2.76553C8.67987 2.45322 8.38254 2.12059 9.66588 1.97332L9.66334 1.97332Z" fill="#9D735D"/>
<path d="M32.151 0.790068C32.6034 0.642797 34.2628 1.07445 33.9935 1.72702C33.8435 2.09012 32.9693 2.19676 32.6593 2.05711C32.5068 1.98855 31.8283 0.894174 32.1485 0.790068H32.151Z" fill="#9D735D"/>
<path d="M7.95052 2.09266C7.45752 2.796 6.60365 3.43841 5.95817 2.52939C6.24533 1.83366 7.34316 1.85651 7.95052 2.09266Z" fill="#9D735D"/>
<path d="M8.91875 33.9108C8.88063 33.954 8.8298 33.9616 8.78152 33.9794C8.80693 33.9057 8.87554 33.9286 8.91875 33.9108Z" fill="#714039"/>
<path d="M28.2299 45.2558C28.2527 45.2329 28.2731 45.205 28.2985 45.1872C28.2908 45.2177 28.2578 45.2405 28.2299 45.2558Z" fill="#714039"/>
<path d="M20.8221 31.8363C20.789 31.8414 20.7611 31.8719 20.7534 31.9049C20.7839 31.9049 20.8348 31.877 20.8221 31.8363Z" fill="#714039"/>
<path d="M19.7166 14.5421C20.7229 12.6886 22.5882 11.0762 24.6848 10.6877C30.4713 9.61871 35.4623 15.1109 33.8003 20.7656C32.6136 24.8054 28.2248 26.5904 24.3519 25.2625C25.8639 26.4305 27.9198 26.3238 29.714 26.0217C29.78 26.0242 29.7622 26.1131 29.714 26.1613C29.5945 26.2883 28.7432 26.4635 28.5272 26.4965C26.9135 26.7352 24.9669 26.5549 23.7267 25.3996C23.498 25.1863 23.2896 24.8359 23.0711 24.6353C22.2579 23.8786 21.526 23.5815 20.7509 22.5963C18.8119 20.1257 18.7052 17.7999 19.5718 14.8849C19.5768 14.8646 19.5667 14.8367 19.5718 14.8164C19.6022 14.8037 19.6302 14.7783 19.6404 14.7478C19.648 14.7275 19.6327 14.6996 19.6404 14.6793L19.709 14.5421H19.7166ZM21.5844 13.0212C21.5616 13.044 21.5387 13.0669 21.5158 13.0897C21.493 13.1126 21.4675 13.1354 21.4472 13.1583C18.6645 16.2485 19.2465 20.7377 22.3468 23.3606C23.4853 24.323 25.6225 25.199 27.1244 25.0542C32.8804 24.879 35.3022 18.4854 31.7597 14.0927C29.8563 11.7313 26.8449 10.7588 23.9224 11.65C22.85 11.9776 22.3849 12.2163 21.587 13.0186L21.5844 13.0212Z" fill="#040404"/>
<path d="M22.8297 25.1253C23.2058 26.174 22.3544 27.9032 21.6124 28.6472C20.0876 30.1681 17.2363 30.0919 15.5997 28.7893C14.5959 27.992 14.0191 27.078 14.263 25.7297C14.3113 25.463 14.5121 25.265 14.662 25.0568C15.5337 24.422 16.352 24.907 17.2592 24.9857C18.1664 25.0644 19.2744 24.907 20.1435 24.6886C21.1295 24.4423 21.8182 23.7618 22.6213 24.813C22.6594 24.8638 22.817 25.0898 22.8297 25.1253ZM20.3392 25.1279C20.667 26.207 21.8589 26.1055 22.1283 25.0339C21.6835 24.3204 20.9593 25.1203 20.3392 25.1279ZM17.7776 25.4732L15.77 25.2675C15.8158 26.3873 17.8996 26.9815 17.7776 25.4732ZM19.9936 25.265C19.6124 25.3132 19.2338 25.43 18.85 25.4707C18.7077 25.4859 18.23 25.392 18.2706 25.5672C18.573 26.9104 19.9352 26.4152 19.9936 25.265ZM21.7242 27.5477C20.8958 27.4131 20.7509 28.1317 20.7204 28.7919C21.1473 28.4745 21.5844 28.0885 21.7242 27.5477ZM18.0546 29.2083C17.8284 28.2967 16.8424 27.5883 16.5324 28.863L18.0546 29.2083ZM18.3316 29.2769H19.404C19.4828 29.2769 20.3722 29.0356 20.4078 29.0001C20.4485 28.8401 20.3773 28.8858 20.3214 28.8427C19.7979 28.4364 19.4981 28.0835 18.8526 28.5862C18.6162 28.769 18.5298 29.0636 18.3342 29.2769H18.3316Z" fill="#040404"/>
<path d="M19.5768 14.89C18.7103 17.8024 18.817 20.1308 20.756 22.6014C21.5311 23.5866 22.263 23.8837 23.0762 24.6404C23.2922 24.841 23.5006 25.1914 23.7318 25.4046L22.8322 25.1279C22.8195 25.0949 22.6619 24.8663 22.6238 24.8156C21.8208 23.7644 21.1321 24.4448 20.1461 24.6911C19.277 24.9095 18.1537 25.0644 17.2617 24.9882C16.3698 24.9121 15.5362 24.422 14.6646 25.0593C14.6798 25.0365 14.6747 24.9552 14.7306 24.8867C15.526 23.9116 16.723 24.4398 17.8132 24.3687C18.4917 24.323 20.0139 24.0868 20.6493 23.8812C20.7204 23.8583 20.7789 23.8583 20.8246 23.7796C18.4663 21.3877 17.9809 18.1173 19.3837 15.0703C19.432 14.9687 19.4218 14.8545 19.5794 14.89H19.5768Z" fill="#714039"/>
<path d="M16.5324 9.70251C16.9771 9.77868 18.6264 10.3017 18.2986 10.9467C18.2122 11.1168 18.0063 11.1067 17.8437 11.0533C17.5362 10.9543 16.9492 10.5404 16.5781 10.3805C16.2401 10.2357 15.9072 10.1596 15.5616 10.0478C15.4905 10.025 15.183 9.96404 15.2846 9.84216C15.7243 9.5984 16.0546 9.61871 16.5299 9.70251H16.5324Z" fill="#040404"/>
<path d="M19.648 14.6818C19.6683 14.6183 19.6912 14.5929 19.7166 14.5447L19.648 14.6818Z" fill="#714039"/>
<path d="M19.5768 14.8189C19.587 14.7859 19.615 14.763 19.6454 14.7503C19.6353 14.7808 19.6073 14.8062 19.5768 14.8189Z" fill="#714039"/>
<path d="M11.4676 15.182C14.3317 15.1236 14.8221 19.2269 12.1385 20.0089C8.52993 21.0652 7.8565 15.2556 11.4676 15.182ZM11.3279 15.5273C9.51849 15.6264 8.69003 17.8938 10.0623 19.1075C11.6557 20.5142 14.0521 19.0745 13.4371 17.0483C13.183 16.2129 12.2148 15.4791 11.3253 15.5273H11.3279Z" fill="#040404"/>
<path d="M27.1219 25.0568C25.6225 25.2015 23.4828 24.3255 22.3443 23.3632C19.2465 20.7402 18.662 16.251 21.4447 13.1608L21.5133 13.0923C21.5362 13.0694 21.559 13.0466 21.5819 13.0237C22.2198 12.7977 22.7738 12.4245 23.4142 12.1934C28.1638 10.4693 32.4255 13.4198 32.7279 18.3813C32.9236 21.6086 30.3899 24.747 27.1193 25.0593L27.1219 25.0568ZM22.2757 17.1727C22.1461 20.3035 26.8474 20.2882 26.8499 17.2083C26.8499 15.2658 24.4815 14.2298 23.0355 15.5476C22.4281 16.1012 22.9923 15.8955 23.1295 16.3551C23.2973 16.9112 22.8042 17.2717 22.2731 17.1727H22.2757Z" fill="#FEFEFE"/>
<path d="M27.1219 25.0568C30.3925 24.7445 32.9261 21.6061 32.7304 18.3788C32.428 13.4173 28.1663 10.4643 23.4167 12.1909C22.7763 12.4245 22.2223 12.7977 21.5844 13.0212C22.3824 12.2188 22.8449 11.9801 23.9199 11.6526C26.8449 10.7613 29.8537 11.7338 31.7571 14.0952C35.2997 18.488 32.8778 24.8816 27.1219 25.0568Z" fill="#D3B8BA"/>
<path d="M21.4472 13.1608C21.4701 13.1354 21.493 13.1151 21.5158 13.0923L21.4472 13.1608Z" fill="#D3B8BA"/>
<path d="M17.7776 25.4732C17.8996 26.9789 15.8158 26.3873 15.77 25.2675L17.7776 25.4732Z" fill="#F4FF92"/>
<path d="M22.1283 25.0339C21.6835 24.3204 20.9593 25.1203 20.3392 25.1279C20.667 26.207 21.8614 26.1055 22.1283 25.0339Z" fill="#F4FF92"/>
<path d="M19.9936 25.265C19.9352 26.4152 18.573 26.9129 18.2706 25.5672C18.23 25.392 18.7077 25.4859 18.85 25.4707C19.2338 25.4275 19.6099 25.3132 19.9936 25.265Z" fill="#F4FF92"/>
<path d="M18.3316 29.2769C18.5298 29.0636 18.6162 28.769 18.85 28.5862C19.4955 28.0835 19.7954 28.4364 20.3189 28.8427C20.3748 28.8858 20.4459 28.8427 20.4053 29.0001C20.3697 29.0382 19.4803 29.2769 19.4015 29.2769H18.3291L18.3316 29.2769Z" fill="#F4FF92"/>
<path d="M16.5324 28.863L18.0546 29.2083C17.8284 28.2967 16.8424 27.5883 16.5324 28.863Z" fill="#F4FF92"/>
<path d="M21.7242 27.5477C21.5844 28.0885 21.1473 28.4719 20.7204 28.7919C20.7509 28.1342 20.8983 27.4131 21.7242 27.5477Z" fill="#F4FF92"/>
<path d="M11.3279 15.5273C12.2173 15.4791 13.1855 16.2129 13.4397 17.0483C14.0547 19.0745 11.6582 20.5142 10.0649 19.1075C8.69257 17.8938 9.52103 15.6289 11.3304 15.5273H11.3279ZM11.2542 16.5608C10.5274 16.6903 10.1792 18.6454 11.7065 18.3331C12.2732 18.2163 12.5146 17.3657 12.1741 16.9289C12.0166 16.7258 11.5058 16.5151 11.2542 16.5608Z" fill="#FEFEFE"/>
<path d="M22.2757 17.1727C22.8068 17.2717 23.2973 16.9137 23.1321 16.3551C22.9948 15.8955 22.4307 16.1012 23.038 15.5476C24.4815 14.2298 26.8525 15.2658 26.8525 17.2083C26.8525 20.2882 22.1486 20.3035 22.2782 17.1727H22.2757Z" fill="#040404"/>
<path d="M11.2542 16.5608C11.5058 16.5151 12.014 16.7284 12.1741 16.9289C12.5146 17.3631 12.2732 18.2163 11.7065 18.3331C10.1792 18.648 10.5274 16.6903 11.2542 16.5608Z" fill="#040404"/>
</svg>
