<svg width="140" height="31" viewBox="0 0 140 31" fill="none" xmlns="http://www.w3.org/2000/svg">
<mask id="mask0_1388_2714" style="mask-type:luminance" maskUnits="userSpaceOnUse" x="1" y="4" width="22" height="22">
<path d="M1.14355 4.26141H22.3179V25.5952H1.14355V4.26141Z" fill="white"/>
</mask>
<g mask="url(#mask0_1388_2714)">
<path d="M22.0897 16.0859C21.5027 21.202 17.1113 25.2383 11.8141 25.2383C6.10746 25.2383 1.55664 20.6368 1.55664 14.9301C1.55664 9.22344 6.10746 4.60016 11.7779 4.60016C15.4917 4.60016 18.7816 6.52049 20.5788 9.43722L17.3613 11.767C15.9193 9.63287 13.8757 8.58213 11.8141 8.58213C8.47345 8.58213 5.82484 11.4264 5.82484 14.9482C5.82484 18.4483 8.47345 21.2563 11.8141 21.2563C14.8178 21.2563 17.3251 19.0896 17.8939 16.0859H22.0897Z" fill="white"/>
</g>
<path d="M37.749 18.1467C37.749 22.0018 34.5135 25.183 30.6366 25.183C26.7633 25.183 23.6328 22.0018 23.6328 18.1467C23.6328 14.2335 26.7633 11.0885 30.6366 11.0885C34.5135 11.0885 37.749 14.2516 37.749 18.1467ZM33.8722 18.1467C33.8722 16.2444 32.4844 14.8748 30.6366 14.8748C28.8938 14.8748 27.4735 16.2444 27.4735 18.1467C27.4735 20.067 28.8938 21.4148 30.6366 21.4148C32.47 21.4148 33.8722 20.0815 33.8722 18.1467Z" fill="white"/>
<path d="M39.543 6.84215C39.543 5.77328 40.5575 4.76239 41.7278 4.76239C43.0104 4.76239 44.0032 5.75517 44.0032 6.84215C44.0032 8.01246 43.0104 9.00886 41.7278 9.00886C40.5575 9.00886 39.543 8.01246 39.543 6.84215ZM43.6662 24.9005H39.8618V11.3893H43.6662V24.9005Z" fill="white"/>
<path d="M59.9673 24.9009H56.1992V18.1652C56.1992 15.9949 54.9383 14.8934 53.3911 14.8934C51.7027 14.8934 50.1556 15.9949 50.1556 18.1652V24.9009H46.333V11.3897H50.1374V12.3318C50.8838 11.4803 52.4672 11.1071 53.6919 11.1071C57.3912 11.1071 59.9492 14.2702 59.9492 18.1652V24.9009H59.9673Z" fill="white"/>
<path d="M63.0068 24.9001V4.9577H69.9381C74.6122 4.9577 78.2028 8.45778 78.2028 12.7948C78.2028 17.9145 74.8078 21.4327 69.5287 21.4327H67.1482V24.882H63.0068V24.9001ZM69.4236 17.7007C72.373 17.7007 74.0252 15.9072 74.0252 13.1318C74.0252 10.6969 72.5505 8.7259 69.67 8.7259H67.1482V17.7188H69.4236V17.7007Z" fill="white"/>
<path d="M92.7436 22.3751C91.5877 24.0816 89.2073 25.1831 86.8087 25.1831C82.7361 25.1831 79.4824 22.0019 79.4824 18.1467C79.4824 14.2336 82.6129 11.0886 86.4862 11.0886C89.8305 11.0886 92.4066 13.3278 93.2255 15.8532L85.671 21.2555C86.026 21.3968 86.3992 21.4149 86.7905 21.4149C87.9464 21.4149 89.0841 21.0091 89.7036 20.0489L92.7436 22.3751ZM83.4318 19.0344L88.3522 15.5343C87.8196 15.1249 87.2 14.893 86.4862 14.893C84.747 14.893 83.3231 16.2626 83.3231 18.1648C83.3231 18.4656 83.3412 18.7663 83.4318 19.0344Z" fill="white"/>
<path d="M108.28 4.9577V24.9001H104.475V23.94C103.888 24.7226 102.414 25.2008 101.186 25.2008C97.4898 25.2008 94.5586 22.0196 94.5586 18.1645C94.5586 14.2513 97.5804 11.1064 101.186 11.1064C102.396 11.1064 103.888 11.6933 104.475 12.331V4.9722H108.28V4.9577ZM104.653 18.1464C104.653 16.2441 103.338 14.8745 101.577 14.8745C99.8377 14.8745 98.4137 16.2441 98.4137 18.1464C98.4137 20.0667 99.8377 21.4145 101.577 21.4145C103.338 21.4145 104.653 20.0812 104.653 18.1464Z" fill="white"/>
<path d="M110.642 6.84215C110.642 5.77328 111.656 4.76239 112.83 4.76239C114.109 4.76239 115.105 5.75517 115.105 6.84215C115.105 8.01246 114.109 9.00886 112.83 9.00886C111.656 9.00886 110.642 8.01246 110.642 6.84215ZM114.768 24.9005H110.964V11.3893H114.768V24.9005Z" fill="white"/>
<path d="M130.607 11.3897V24.9009H126.802V23.9407C126.215 24.7233 124.741 25.2016 123.512 25.2016C119.817 25.2016 116.882 22.0204 116.882 18.1652C116.882 14.2521 119.904 11.1071 123.512 11.1071C124.723 11.1071 126.215 11.6941 126.802 12.3318V11.3897H130.607ZM126.962 18.1471C126.962 16.2449 125.647 14.8753 123.886 14.8753C122.143 14.8753 120.722 16.2449 120.722 18.1471C120.722 20.0674 122.143 21.4153 123.886 21.4153C125.647 21.4153 126.962 20.0819 126.962 18.1471Z" fill="white"/>
<path d="M132.473 21.0963H136.277V24.9008H132.473V21.0963Z" fill="#ED3A4D"/>
</svg>
