<svg width="146" height="27" viewBox="0 0 146 27" fill="none" xmlns="http://www.w3.org/2000/svg">
<path d="M23.2296 15.5056C22.8068 15.7575 22.3134 15.8034 21.9375 15.5972C21.4677 15.3224 21.1858 14.704 21.1858 13.8566V11.2687C21.1858 10.032 20.6924 9.13876 19.8467 8.90973C18.4136 8.49749 17.3329 10.2152 16.9335 10.8564L14.3963 14.8185V9.94034C14.3728 8.81812 13.9969 8.15396 13.2921 7.94783C12.8223 7.81042 12.1175 7.87913 11.4362 8.88684L5.77441 17.7272C5.02264 16.3301 4.62326 14.7727 4.62326 13.1925C4.62326 7.85622 9.01644 3.52765 14.3963 3.52765C19.7762 3.52765 24.1694 7.85622 24.1694 13.1925V13.2154V13.2383C24.2164 14.2689 23.8875 15.0934 23.2296 15.5056ZM26.3307 13.1925V13.1696V13.1467C26.3072 6.66529 20.9508 1.37482 14.3963 1.37482C7.8183 1.37482 2.46191 6.66529 2.46191 13.1925C2.46191 19.6968 7.8183 25.0102 14.3963 25.0102C17.4269 25.0102 20.293 23.8879 22.5014 21.8496C22.9477 21.4374 22.9712 20.7732 22.5484 20.338C22.149 19.9029 21.4677 19.88 21.0213 20.2693C21.0213 20.2693 21.0213 20.2693 20.9978 20.2922C19.2124 21.9412 16.8161 22.8802 14.3493 22.8802C11.4597 22.8802 8.87548 21.6435 7.09002 19.6739L12.188 11.7038V15.3911C12.188 17.1546 12.8928 17.7272 13.4801 17.8875C14.0674 18.0478 14.9601 17.9333 15.9234 16.4446L18.719 12.0244C18.813 11.887 18.8835 11.7496 18.9774 11.658V13.9024C18.9774 15.5514 19.6587 16.8798 20.8334 17.521C21.8906 18.1165 23.2297 18.0478 24.3338 17.3836C25.6964 16.5133 26.4247 15.0018 26.3307 13.1925ZM42.9637 9.16166C43.2456 9.32198 43.504 9.71132 43.504 10.0549C43.504 10.6045 43.0342 11.0625 42.4938 11.0625C42.3529 11.0625 42.2354 11.0167 42.118 10.9938C41.4836 10.5358 40.6849 10.2381 39.8391 10.2381C37.8422 10.2381 36.4797 11.8183 36.4797 13.7879C36.4797 15.7575 37.8657 17.3149 39.8391 17.3149C40.8258 17.3149 41.7186 16.9256 42.3764 16.3072C42.5408 16.1927 42.7523 16.124 42.9637 16.124C43.504 16.124 43.9269 16.5362 43.9269 17.063C43.9269 17.4065 43.7155 17.7043 43.4571 17.8646C42.4938 18.6662 41.2017 19.1929 39.8626 19.1929C36.8086 19.1929 34.3183 16.7424 34.3183 13.7192C34.3183 10.6961 36.8086 8.24556 39.8626 8.24556C40.9903 8.22266 42.071 8.5662 42.9637 9.16166ZM48.555 11.4519C50.6459 11.4519 52.3844 13.1696 52.3844 15.2995C52.3844 17.4065 50.6224 19.2158 48.555 19.2158C46.3702 19.2158 44.5612 17.4294 44.5612 15.2995C44.5612 13.1696 46.3702 11.4519 48.555 11.4519ZM48.5315 17.3149C49.4477 17.3149 50.223 16.4675 50.223 15.3224C50.223 14.1773 49.4477 13.4444 48.5315 13.4444C47.5448 13.4444 46.7226 14.1544 46.7226 15.3224C46.7226 16.4446 47.5448 17.3149 48.5315 17.3149ZM53.7 18.0249V12.6199C53.7 12.0244 54.1698 11.5435 54.7806 11.5435C55.368 11.5435 55.8613 12.0244 55.8613 12.6199V18.0249C55.8613 18.6204 55.368 19.1013 54.7806 19.1013C54.1933 19.1013 53.7 18.5975 53.7 18.0249ZM53.5355 9.5052C53.5355 8.79522 54.0993 8.24556 54.7806 8.24556C55.4854 8.24556 56.0493 8.81812 56.0493 9.5052C56.0493 10.1923 55.4854 10.7419 54.7806 10.7419C54.0758 10.719 53.5355 10.1694 53.5355 9.5052ZM59.9961 15.0934V18.0249C59.9961 18.6204 59.5027 19.1013 58.9154 19.1013C58.3281 19.1013 57.8347 18.6204 57.8347 18.0249V12.368C57.8347 11.9099 58.2106 11.5435 58.6805 11.5435C59.1503 11.5435 59.5027 11.9328 59.5027 12.368C60.3719 11.5664 61.1472 11.4519 61.8755 11.4519C64.0368 11.4519 65 13.0322 65 14.8415V18.0249C65 18.6204 64.5067 19.1013 63.9194 19.1013C63.3321 19.1013 62.8387 18.6204 62.8387 18.0249V15.0934C62.8387 14.1773 62.7212 13.3986 61.3587 13.3986C60.3954 13.3986 59.9961 14.1773 59.9961 15.0934ZM72.0009 16.2156C71.7425 16.2156 71.5781 16.1011 71.4371 15.9408L68.9234 13.2841V18.0249C68.9234 18.6204 68.43 19.1013 67.8427 19.1013C67.2554 19.1013 66.762 18.6204 66.762 18.0249V8.63491C66.8325 8.47459 66.9969 8.36007 67.1614 8.36007C67.3493 8.36007 67.5138 8.5204 67.6313 8.63491L71.6485 13.0321C71.766 13.1696 71.907 13.2383 72.0009 13.2383C72.0714 13.2383 72.2359 13.1696 72.3533 13.0321L76.3706 8.63491C76.4881 8.5204 76.629 8.36007 76.8405 8.36007C77.0284 8.36007 77.1929 8.47459 77.2399 8.63491V18.0249C77.2399 18.6204 76.77 19.1013 76.1592 19.1013C75.5719 19.1013 75.0785 18.6204 75.0785 18.0249V13.2841L72.5648 15.9408C72.3768 16.1011 72.2124 16.2156 72.0009 16.2156ZM82.3848 17.3149C83.348 17.3149 84.1703 16.4675 84.1703 15.3224C84.1703 14.1773 83.3245 13.4215 82.3848 13.4215C81.4451 13.4215 80.6698 14.2002 80.6698 15.3224C80.6698 16.4217 81.4216 17.3149 82.3848 17.3149ZM84.6871 18.2768L84.6401 18.0249C84.2173 18.8265 82.8782 19.1929 82.0324 19.1929C80.012 19.1929 78.5085 17.4065 78.5085 15.2766C78.5085 13.1696 80.0355 11.429 82.1499 11.429C82.5023 11.429 83.7239 11.5206 84.6636 12.597L84.7106 12.3451C84.7106 11.887 85.063 11.5206 85.5329 11.5206C86.0027 11.5206 86.3786 11.9099 86.3786 12.3451V18.2539C86.3786 18.712 86.0027 19.0784 85.5329 19.0784C85.0395 19.1013 84.6871 18.712 84.6871 18.2768ZM92.3223 13.3986H92.0874C90.7248 13.4673 90.4664 14.2231 90.4664 15.0934V18.0249C90.4664 18.6204 89.973 19.1013 89.3857 19.1013C88.7984 19.1013 88.305 18.6204 88.305 18.0249V12.368C88.305 11.9099 88.6809 11.5435 89.1508 11.5435C89.6206 11.5435 89.973 11.9328 89.973 12.368C90.7718 11.6351 91.4296 11.4748 92.0874 11.4519H92.2988C92.8157 11.4519 93.2855 11.887 93.2855 12.4367C93.309 12.9405 92.8392 13.3986 92.3223 13.3986ZM100.662 17.521C100.756 17.6814 100.827 17.8417 100.827 18.0249C100.827 18.5746 100.31 19.0784 99.7461 19.0784C99.3702 19.0784 99.0413 18.8036 98.7829 18.4829L96.2926 15.6659V18.002C96.2926 18.5975 95.7993 19.0784 95.2119 19.0784C94.6246 19.0784 94.1313 18.5975 94.1313 18.002V9.41359C94.1313 8.81813 94.6011 8.33717 95.2119 8.33717C95.8228 8.33717 96.2926 8.81813 96.2926 9.41359V14.7727L98.7829 12.0932C99.0413 11.8183 99.3467 11.5206 99.7226 11.5206C100.263 11.5206 100.756 12.0015 100.756 12.5512C100.756 12.7115 100.709 12.8947 100.615 13.0321L98.6419 15.1392L100.662 17.521ZM104.891 13.4215C104.304 13.4215 103.34 13.7192 103.34 14.6124H106.465C106.442 13.7192 105.455 13.4215 104.891 13.4215ZM107.71 15.9637H103.34C103.34 17.2233 104.586 17.4294 105.126 17.4294C105.525 17.4294 106.089 17.3607 106.536 17.1546C106.676 17.063 106.888 16.9943 107.099 16.9943C107.569 16.9943 107.969 17.3836 107.969 17.8646C107.969 18.1852 107.757 18.46 107.499 18.6204C106.841 19.1013 105.972 19.2158 105.149 19.2158C102.965 19.2158 101.156 18.0707 101.156 15.3911C101.156 13.2841 102.26 11.4519 104.844 11.4519C106.935 11.4519 108.509 12.7802 108.556 15.1392C108.556 15.5743 108.18 15.9637 107.71 15.9637ZM113.724 19.1929H113.137C111.493 19.1929 110.529 18.4829 110.529 15.9866V13.3986H109.965C109.449 13.3986 109.002 12.9405 109.002 12.4367C109.002 11.887 109.472 11.4519 109.965 11.4519H110.529V9.4594C110.529 8.86393 110.999 8.38298 111.61 8.38298C112.197 8.38298 112.691 8.86393 112.691 9.4594V11.4519H113.583C114.1 11.4519 114.547 11.887 114.547 12.4367C114.547 12.9405 114.077 13.3986 113.583 13.3986H112.691V15.5743C112.691 17.0172 112.761 17.3149 113.419 17.3149H113.724C114.241 17.3149 114.688 17.7272 114.688 18.2539C114.688 18.7578 114.241 19.1929 113.724 19.1929ZM124.179 9.16166C124.461 9.32198 124.719 9.71132 124.719 10.0549C124.719 10.6045 124.249 11.0625 123.709 11.0625C123.568 11.0625 123.45 11.0167 123.333 10.9938C122.699 10.5358 121.9 10.2381 121.054 10.2381C119.057 10.2381 117.695 11.8183 117.695 13.7879C117.695 15.7575 119.081 17.3149 121.054 17.3149C122.041 17.3149 122.934 16.9256 123.591 16.3072C123.756 16.1927 123.967 16.124 124.179 16.124C124.719 16.124 125.142 16.5362 125.142 17.063C125.142 17.4065 124.93 17.7043 124.672 17.8646C123.709 18.6662 122.417 19.1929 121.078 19.1929C118.024 19.1929 115.533 16.7424 115.533 13.7192C115.533 10.6961 118.024 8.24556 121.078 8.24556C122.205 8.22266 123.309 8.5662 124.179 9.16166ZM129.653 17.3149C130.616 17.3149 131.438 16.4675 131.438 15.3224C131.438 14.1773 130.592 13.4215 129.653 13.4215C128.689 13.4215 127.938 14.2002 127.938 15.3224C127.938 16.4217 128.713 17.3149 129.653 17.3149ZM131.955 18.2768L131.908 18.0249C131.485 18.8265 130.146 19.1929 129.3 19.1929C127.28 19.1929 125.776 17.4065 125.776 15.2766C125.776 13.1696 127.303 11.429 129.418 11.429C129.77 11.429 130.992 11.5206 131.931 12.597L131.978 12.3451C131.978 11.887 132.331 11.5206 132.801 11.5206C133.27 11.5206 133.646 11.9099 133.646 12.3451V18.2539C133.646 18.712 133.27 19.0784 132.801 19.0784C132.307 19.1013 131.955 18.712 131.955 18.2768ZM139.543 17.3149C140.506 17.3149 141.258 16.4217 141.258 15.3224C141.258 14.1773 140.483 13.4215 139.543 13.4215C138.58 13.4215 137.758 14.1773 137.758 15.3224C137.758 16.4675 138.58 17.3149 139.543 17.3149ZM137.758 18.5746V21.2541C137.758 21.8496 137.264 22.3306 136.677 22.3306C136.09 22.3306 135.596 21.8496 135.596 21.2541V12.368C135.596 11.9099 135.972 11.5435 136.442 11.5435C136.912 11.5435 137.264 11.9328 137.264 12.4596C138.063 11.658 139.05 11.4519 139.801 11.4519C141.892 11.4519 143.443 13.1696 143.443 15.2995C143.443 17.4065 141.963 19.2158 139.919 19.2158C139.285 19.1929 138.345 19.0097 137.758 18.5746Z" fill="white"/>
</svg>
