<svg width="192" height="65" viewBox="0 0 192 65" fill="none" xmlns="http://www.w3.org/2000/svg">
<path d="M74.3766 27.7218C74.1871 25.2271 72.1345 21.7376 67.0661 21.7376C62.7083 21.7376 59.282 24.7534 59.282 30.6744C59.282 36.5164 62.5188 39.5638 67.0188 39.5638C71.2661 39.5638 73.6661 36.9901 74.3766 33.3112H70.8398C70.4135 35.3954 69.0556 36.5006 67.0977 36.5006C64.0977 36.5006 62.8977 33.7691 62.8977 30.7217C62.8977 25.9376 65.3925 24.8007 67.0977 24.8007C70.0187 24.8007 70.5556 26.7112 70.8398 27.7218H74.3766ZM128.613 32.8375C128.613 28.306 125.566 26.2376 122.202 26.2376C118.839 26.2376 115.792 28.306 115.792 32.8375C115.792 37.369 118.839 39.4375 122.202 39.4375C125.581 39.4375 128.613 37.3533 128.613 32.8375ZM125.218 32.8375C125.218 34.4322 124.745 36.6585 122.202 36.6585C119.66 36.6585 119.187 34.448 119.187 32.8375C119.187 31.227 119.66 29.0165 122.202 29.0165C124.76 29.0165 125.218 31.227 125.218 32.8375ZM113.487 23.1586H110.187V26.5534H108.497V28.906H110.187V36.5164C110.187 38.1427 110.708 39.2322 113.55 39.2322H113.976C114.497 39.2322 115.018 39.2164 115.539 39.1848V36.6901C115.303 36.7059 115.066 36.7375 114.86 36.7375C113.518 36.7375 113.487 36.4533 113.487 35.727V28.906H115.539V26.5534H113.487V23.1586ZM75.3397 39.1059H78.6397V32.5691C78.6397 31.1796 79.1134 29.5691 81.687 29.5691C81.987 29.5691 82.3502 29.5691 82.6344 29.6165V26.2691C82.4291 26.2534 82.2081 26.2218 82.0028 26.2218C79.9976 26.2218 79.2397 27.4533 78.5608 28.7165H78.5134V26.5534H75.3555V39.1059H75.3397Z" fill="#4BA565"/>
<path d="M95.566 26.5692H92.0765L89.5029 35.8059H89.4555L86.7713 26.5692H83.0924L87.7187 39.6269C87.4029 41.348 86.7555 41.5216 85.5555 41.5216C85.2713 41.5216 85.0661 41.4901 84.924 41.4743V44.1111C85.3976 44.1269 85.9661 44.1585 86.4082 44.1585C89.2818 44.1585 89.7081 43.5427 91.2713 38.9006L95.566 26.5692Z" fill="#4BA565"/>
<path d="M99.387 33.1218C99.387 31.1165 99.9238 29.0955 102.197 29.0955C104.297 29.0955 105.008 30.9586 105.008 32.9323C105.008 34.4165 104.424 36.7217 102.292 36.7217C100.176 36.7217 99.387 34.9691 99.387 33.1218ZM99.387 26.5692H96.2291V44.0164H99.5133V37.5112H99.5607C99.9554 38.1901 100.792 39.4375 103.097 39.4375C106.824 39.4375 108.371 36.1375 108.371 32.6954C108.371 28.3534 105.924 26.2376 103.161 26.2376C100.95 26.2376 100.019 27.3902 99.4028 28.385H99.3554V26.5692H99.387Z" fill="#4BA565"/>
<path d="M18.8928 37.2428C22.3981 44.5374 28.2717 49.1321 33.6874 52.0058C33.7032 52.0216 34.1611 52.2584 34.1611 52.2584C34.1611 52.2584 34.619 52.0216 34.6348 52.0058C43.8084 47.1743 54.2767 37.3533 52.3504 17.9798L48.3083 16.2272C47.5505 22.2271 43.8558 27.2797 38.7084 30.9428C38.0137 31.4323 37.2874 31.906 36.5295 32.3481L37.2558 37.8112C37.3506 38.5375 36.6558 39.1533 35.9295 39.1533H32.2506C31.5243 39.1533 30.8138 38.5375 30.9243 37.8112L31.3032 34.8744C27.7664 36.2323 23.9612 37.0375 20.1875 37.227C19.7454 37.227 19.3191 37.2428 18.8928 37.2428Z" fill="#4BA565"/>
<path d="M15.9718 17.9799C15.2771 25.0693 16.2244 30.8797 18.1823 35.6481C18.8297 35.6639 19.4613 35.6481 20.1086 35.6165C24.0086 35.4271 27.9401 34.5271 31.5559 33.0429L31.8559 30.7376C30.7191 29.9798 29.9612 28.685 29.9612 27.2166C29.9612 24.8956 31.8559 23.0009 34.1769 23.0009C36.4979 23.0009 38.3927 24.8956 38.3927 27.2166C38.3927 28.2113 38.0453 29.1429 37.4453 29.8692C37.5558 29.7903 37.6664 29.7113 37.7769 29.6324C42.5137 26.2693 45.9242 21.6588 46.6979 16.2588C42.2611 17.4272 38.219 15.8957 35.7243 12.5957H34.2559H34.1138H32.6453C29.9612 16.1483 25.4928 17.6483 20.677 15.9588L15.9718 17.9799Z" fill="white"/>
<path d="M50.1873 10.4957C50.4557 10.4957 50.7084 10.6063 50.882 10.7799C51.0557 10.9536 51.1662 11.2062 51.1662 11.4747C51.1662 11.7431 51.0557 11.9957 50.882 12.1694C50.7084 12.3431 50.4557 12.4536 50.1873 12.4536C49.9189 12.4536 49.6663 12.3431 49.4926 12.1694C49.3189 11.9957 49.2084 11.7431 49.2084 11.4747C49.2084 11.2062 49.3189 10.9536 49.4926 10.7799C49.6663 10.622 49.9189 10.4957 50.1873 10.4957ZM49.8242 12.1062V10.8273H50.282C50.3768 10.8273 50.4399 10.8431 50.5031 10.8589C50.5505 10.8747 50.582 10.922 50.6136 10.9694C50.6452 11.0326 50.661 11.0957 50.661 11.1589C50.661 11.2536 50.6294 11.3326 50.582 11.3957C50.5347 11.4589 50.4557 11.4905 50.361 11.5062C50.4084 11.522 50.4399 11.5536 50.4557 11.5694C50.5031 11.6168 50.5347 11.6799 50.5663 11.7273L50.7557 12.0905C50.7715 12.0747 50.7873 12.0747 50.8031 12.0589C50.961 11.901 51.0557 11.6957 51.0557 11.4589C51.0557 11.222 50.961 11.0168 50.8031 10.8589C50.6452 10.701 50.4399 10.6063 50.2031 10.6063C49.9663 10.6063 49.761 10.701 49.6031 10.8589C49.4452 11.0168 49.3505 11.222 49.3505 11.4589C49.3505 11.6957 49.4452 11.901 49.6031 12.0589C49.761 12.2168 49.9663 12.3115 50.2031 12.3115C50.361 12.3115 50.5031 12.2641 50.6294 12.201L50.4399 11.822C50.3926 11.7115 50.3452 11.6483 50.3136 11.6168C50.282 11.5852 50.2663 11.5536 50.2347 11.5378C50.2031 11.522 50.1715 11.522 50.1242 11.522H49.9663V12.0905H49.8242V12.1062ZM49.9505 11.3957H50.2505C50.3136 11.3957 50.361 11.3799 50.3926 11.3799C50.4242 11.3641 50.4557 11.3326 50.4715 11.301C50.4873 11.2694 50.5031 11.222 50.5031 11.1905C50.5031 11.1273 50.4873 11.0799 50.4399 11.0484C50.4084 11.001 50.3452 10.9852 50.282 10.9852H49.9505V11.3957Z" fill="white"/>
<path d="M130.145 39.106H137.471C143.06 39.106 144.497 33.8797 144.497 30.2324C144.497 27.0272 143.313 22.1641 137.613 22.1641H130.145V39.106ZM179.739 26.5693H176.249L173.676 35.806H173.628L170.944 26.5693H167.265L171.892 39.6271C171.592 41.3481 170.928 41.5218 169.728 41.5218C169.444 41.5218 169.239 41.4902 169.081 41.4744V44.1112C169.555 44.127 170.123 44.1586 170.565 44.1586C173.439 44.1586 173.865 43.5428 175.428 38.9007L179.739 26.5693ZM166.16 22.1798H162.86V39.106H166.16V22.1798ZM157.571 26.5693V39.106H160.871V26.5693H157.571ZM160.871 22.0062H157.571V25.0693H160.871V22.0062ZM155.802 29.8535C155.802 26.7588 152.565 26.2219 150.797 26.2219C148.223 26.2219 145.571 26.7588 145.192 30.6113H148.381C148.476 29.885 148.76 28.8587 150.402 28.8587C151.255 28.8587 152.565 28.9377 152.565 30.3114C152.565 31.0219 151.934 31.2271 151.413 31.3061L148.444 31.7482C146.344 32.0482 144.797 33.3113 144.797 35.7587C144.797 38.3481 146.723 39.4218 148.618 39.4218C150.86 39.4218 151.918 38.3797 152.676 37.606C152.755 38.3165 152.802 38.506 152.992 39.0902H156.544V38.6165C156.15 38.4744 155.818 38.1429 155.818 36.6587V29.8535H155.802ZM152.565 34.6061C152.565 36.1376 151.081 37.085 149.613 37.085C148.981 37.085 148.081 36.7376 148.081 35.5692C148.081 34.1955 149.092 33.8955 150.323 33.6903C151.681 33.4692 152.234 33.264 152.565 33.0113V34.6061ZM133.602 25.1009H136.997C138.513 25.1009 140.881 25.5114 140.881 30.5008C140.881 33.2797 139.918 36.185 137.044 36.185H133.602V25.1009Z" fill="white"/>
<path d="M181.791 20.6166V21.9903C181.791 22.0218 181.776 22.0534 181.76 22.085C181.744 22.1166 181.712 22.1166 181.681 22.1166H181.46C181.428 22.1166 181.397 22.1008 181.365 22.085C181.334 22.0692 181.334 22.0376 181.334 21.9903V18.4692C181.334 18.4377 181.349 18.4061 181.365 18.3745C181.381 18.3429 181.412 18.3429 181.46 18.3429H182.723C183.07 18.3429 183.37 18.4377 183.591 18.6271C183.781 18.8166 183.907 19.085 183.907 19.4324V19.5113C183.907 19.764 183.844 19.985 183.686 20.1745C183.56 20.3324 183.37 20.4587 183.134 20.5376L183.86 21.9271C183.876 21.9429 183.876 21.9587 183.891 21.9745C183.891 21.9903 183.891 22.006 183.891 22.0218C183.891 22.0534 183.876 22.0692 183.86 22.085C183.844 22.1008 183.812 22.1166 183.797 22.1166H183.497C183.465 22.1166 183.434 22.1008 183.418 22.085C183.402 22.0692 183.386 22.0534 183.37 22.0218L182.644 20.6166H181.791ZM182.486 17.0798C183.37 17.0798 184.176 17.4429 184.76 18.0271C185.344 18.6113 185.707 19.4166 185.707 20.3008C185.707 21.185 185.344 21.9903 184.76 22.5745C184.176 23.1587 183.37 23.5218 182.486 23.5218C181.602 23.5218 180.797 23.1587 180.212 22.5745C179.628 21.9903 179.265 21.185 179.265 20.3008C179.265 19.4166 179.628 18.6113 180.212 18.0271C180.781 17.4429 181.602 17.0798 182.486 17.0798ZM184.444 18.3271C183.939 17.8219 183.244 17.5061 182.47 17.5061C181.697 17.5061 181.002 17.8219 180.497 18.3271C179.991 18.8324 179.676 19.5271 179.676 20.3008C179.676 21.0745 179.991 21.7692 180.497 22.2745C181.002 22.7797 181.697 23.0955 182.47 23.0955C183.244 23.0955 183.939 22.7797 184.444 22.2745C184.949 21.7692 185.265 21.0745 185.265 20.3008C185.265 19.5271 184.949 18.8324 184.444 18.3271ZM181.791 18.8008V20.1745H182.691C182.897 20.1745 183.086 20.1113 183.228 20.0008C183.339 19.8903 183.418 19.7482 183.418 19.5429V19.4482C183.418 19.2271 183.339 19.0692 183.228 18.9587C183.086 18.8324 182.897 18.785 182.691 18.785H181.791V18.8008Z" fill="white"/>
</svg>
