<svg width="137" height="24" viewBox="0 0 137 24" fill="none" xmlns="http://www.w3.org/2000/svg">
<g clip-path="url(#clip0_1388_2668)">
<mask id="mask0_1388_2668" style="mask-type:luminance" maskUnits="userSpaceOnUse" x="0" y="0" width="137" height="23">
<path d="M136.057 0.0524292H0.401855V22.3137H136.057V0.0524292Z" fill="white"/>
</mask>
<g mask="url(#mask0_1388_2668)">
<path d="M60.776 0.0524292H0.401855V22.3137H60.776V0.0524292Z" fill="#F6A330"/>
<path d="M6.24874 8.52106V19.4874H3.28076V8.52106H6.24874Z" fill="black"/>
<path d="M10.963 9.10003C11.7868 8.47198 12.6827 8.15796 13.6508 8.15796C14.3301 8.15796 14.9883 8.2868 15.6252 8.54447C16.2621 8.80215 16.8014 9.16041 17.243 9.61935C17.693 10.0703 18.0157 10.6097 18.2111 11.2378C18.4148 11.8658 18.5167 12.6509 18.5167 13.5929V19.4868H15.5488V13.7741C15.5488 12.5422 15.3577 11.7209 14.9756 11.3103C14.6019 10.9158 14.0881 10.7185 13.4343 10.7185C12.5766 10.7185 11.9311 10.9721 11.4981 11.4793C11.1414 11.898 10.963 12.7395 10.963 14.0035V19.4868H7.99512V8.52033H10.963V9.10003Z" fill="black"/>
<path d="M28.1354 10.7547L25.8298 11.8417C25.4901 11.3908 25.1972 11.0848 24.9509 10.9238C24.7046 10.7547 24.4116 10.6702 24.0719 10.6702C23.7068 10.6702 23.4138 10.7507 23.193 10.9117C22.9807 11.0728 22.8745 11.2861 22.8745 11.5518C22.8745 11.7933 22.951 11.9705 23.1038 12.0832C23.2652 12.1959 23.6771 12.3731 24.3394 12.6146L25.3967 12.9891C26.144 13.2628 26.7427 13.5768 27.1928 13.9311C27.8806 14.4705 28.2246 15.1952 28.2246 16.1051C28.2246 17.2081 27.766 18.126 26.8488 18.8587C26.0421 19.519 25.057 19.8491 23.8936 19.8491C22.3481 19.8491 21.1422 19.2895 20.276 18.1703C19.9703 17.7758 19.6688 17.2001 19.3716 16.4432L21.7918 15.5253C22.157 16.2097 22.4882 16.6807 22.7854 16.9384C23.0911 17.188 23.4647 17.3128 23.9064 17.3128C24.3139 17.3128 24.6409 17.2081 24.8872 16.9988C25.1334 16.7894 25.2566 16.5157 25.2566 16.1775C25.2566 15.944 25.1674 15.7629 24.9891 15.634C24.8107 15.4971 24.4074 15.316 23.779 15.0905L22.6071 14.6678C20.8832 14.0398 20.0212 13.0253 20.0212 11.6243C20.0212 10.5695 20.4501 9.71194 21.3078 9.05175C22.0976 8.45591 23.0274 8.15796 24.0974 8.15796C25.0061 8.15796 25.7788 8.36332 26.4158 8.77397C27.0611 9.18455 27.6344 9.84481 28.1354 10.7547Z" fill="black"/>
<path d="M32.1866 8.52106V19.4874H29.2188V8.52106H32.1866Z" fill="black"/>
<path d="M45.3464 19.4875H42.3785V18.787C41.3934 19.4955 40.3573 19.8498 39.2704 19.8498C37.47 19.8498 35.967 19.2097 34.7611 17.9295C33.7166 16.8264 33.1943 15.514 33.1943 13.9922C33.1943 12.2288 33.8694 10.7755 35.2196 9.63222C36.3746 8.64994 37.7248 8.15873 39.2704 8.15873C40.3573 8.15873 41.3934 8.51303 42.3785 9.22157V3.00165H45.3464V19.4875ZM39.2704 10.7192C38.2938 10.7192 37.4997 11.0895 36.8883 11.8303C36.4297 12.3939 36.2005 13.1146 36.2005 13.9922C36.2005 15.0228 36.5104 15.836 37.1303 16.4318C37.7248 17.0035 38.4551 17.2893 39.3214 17.2893C40.3319 17.2893 41.1302 16.919 41.7161 16.1782C42.1661 15.5985 42.3912 14.8658 42.3912 13.9801C42.3912 12.9736 42.0898 12.1685 41.4868 11.5646C40.9178 11.001 40.179 10.7192 39.2704 10.7192Z" fill="black"/>
<path d="M49.3979 15.0543C49.5678 15.6501 49.8141 16.1131 50.1367 16.4432C50.7057 17.0149 51.4233 17.3007 52.2895 17.3007C53.3001 17.3007 54.1196 16.9988 54.748 16.3949C54.8668 16.2741 55.0621 16.0165 55.3339 15.6219L57.8561 16.6123C57.2786 17.5141 56.7096 18.1784 56.1491 18.6051C55.0536 19.4344 53.7714 19.8491 52.3022 19.8491C50.4679 19.8491 48.9776 19.209 47.8311 17.9288C46.8376 16.8257 46.3408 15.5133 46.3408 13.9915C46.3408 12.9528 46.5913 11.9906 47.0924 11.105C47.6188 10.1629 48.3491 9.43012 49.2833 8.90677C50.175 8.40756 51.1388 8.15796 52.1748 8.15796C53.8647 8.15796 55.2447 8.72966 56.3147 9.87299C57.3847 11.0084 57.9197 12.4737 57.9197 14.2693C57.9197 14.4303 57.9155 14.692 57.907 15.0543H49.3979ZM54.9517 12.9528C54.4422 11.415 53.5166 10.646 52.1748 10.646C51.4785 10.646 50.8883 10.8473 50.4043 11.2499C49.9287 11.6444 49.5933 12.2121 49.3979 12.9528H54.9517Z" fill="black"/>
<path d="M63.6553 19.8401V3.35419H66.6233V9.57416C67.6083 8.86555 68.6444 8.51132 69.7314 8.51132C71.5317 8.51132 73.0351 9.14736 74.2407 10.4196C75.2849 11.5227 75.8073 12.8311 75.8073 14.3448C75.8073 16.1162 75.1325 17.5776 73.7822 18.729C72.6274 19.7112 71.2771 20.2024 69.7314 20.2024C68.6444 20.2024 67.6083 19.8481 66.6233 19.1396V19.8401H63.6553ZM69.6167 11.0718C68.6486 11.0718 67.8716 11.4421 67.2856 12.1829C66.8356 12.7546 66.6105 13.4752 66.6105 14.3448C66.6105 15.3674 66.912 16.1806 67.5149 16.7844C68.0924 17.3561 68.8142 17.642 69.6804 17.642C70.6907 17.642 71.5018 17.2676 72.1133 16.5188C72.5718 15.9551 72.8013 15.2305 72.8013 14.3448C72.8013 13.3222 72.4911 12.513 71.8712 11.9172C71.2855 11.3536 70.5342 11.0718 69.6167 11.0718Z" fill="white"/>
<path d="M79.77 8.8739V19.8403H76.8022V8.8739H79.77Z" fill="white"/>
<path d="M84.6118 11.4102V16.3016C84.6118 16.7123 84.65 16.9941 84.7259 17.1471C84.8114 17.3001 84.9679 17.3765 85.1975 17.3765C85.4862 17.3765 85.9405 17.2839 86.5603 17.0987V19.7679C85.9238 19.9531 85.3506 20.0457 84.8406 20.0457C83.8131 20.0457 83.0236 19.7236 82.4719 19.0794C81.9195 18.4273 81.6434 17.5013 81.6434 16.3016V11.4102H80.4336V8.87397H81.6434V6.51886L84.6118 5.4198V8.87397H86.3948V11.4102H84.6118Z" fill="white"/>
<path d="M95.6942 12.6058C95.0403 11.9617 94.5311 11.547 94.1659 11.3618C93.8006 11.1685 93.3297 11.0719 92.7523 11.0719C91.6823 11.0719 90.8496 11.4423 90.2555 12.1831C89.7971 12.7467 89.5675 13.4673 89.5675 14.3449C89.5675 15.3756 89.8778 16.1888 90.4976 16.7846C91.0834 17.3563 91.8389 17.6421 92.7648 17.6421C93.3422 17.6421 93.8514 17.5254 94.2932 17.2919C94.7349 17.0503 95.2233 16.6276 95.7582 16.0237L97.7451 17.8354C96.9388 18.6808 96.1485 19.2887 95.3763 19.6591C94.6034 20.0214 93.7283 20.2025 92.7523 20.2025C90.858 20.2025 89.3129 19.5665 88.1156 18.2943C87.0791 17.1832 86.5615 15.8708 86.5615 14.3571C86.5615 12.5857 87.2363 11.1243 88.5866 9.97292C89.7331 8.99864 91.1216 8.51154 92.7523 8.51154C93.7032 8.51154 94.5568 8.68865 95.3123 9.04296C96.0769 9.38919 96.8623 9.97292 97.6692 10.7941L95.6942 12.6058Z" fill="white"/>
<path d="M103.542 8.51154C105.317 8.51154 106.808 9.14758 108.013 10.4197C109.058 11.5228 109.58 12.8312 109.58 14.3449C109.58 16.1163 108.905 17.5777 107.555 18.7291C106.408 19.7114 105.037 20.2025 103.441 20.2025C101.58 20.2025 100.048 19.5665 98.8422 18.2943C97.8057 17.1912 97.2881 15.8627 97.2881 14.3087C97.2881 12.5776 97.9629 11.1363 99.3132 9.98496C100.46 9.00268 101.869 8.51154 103.542 8.51154ZM103.377 11.0719C102.391 11.0719 101.594 11.4423 100.982 12.1831C100.524 12.7467 100.294 13.4673 100.294 14.3449C100.294 15.3756 100.604 16.1888 101.224 16.7846C101.818 17.3563 102.557 17.6421 103.441 17.6421C104.468 17.6421 105.283 17.2677 105.886 16.5189C106.345 15.9553 106.574 15.2306 106.574 14.3449C106.574 13.3224 106.264 12.5132 105.644 11.9174C105.058 11.3537 104.302 11.0719 103.377 11.0719Z" fill="white"/>
<path d="M113.53 8.8739V19.8403H110.562V8.8739H113.53Z" fill="white"/>
<path d="M118.244 9.45354C119.068 8.82556 119.964 8.51154 120.932 8.51154C121.611 8.51154 122.269 8.64036 122.906 8.89797C123.543 9.15564 124.082 9.51392 124.524 9.97292C124.974 10.4238 125.297 10.9632 125.492 11.5913C125.696 12.2193 125.798 13.0043 125.798 13.9464V19.8402H122.829V14.1276C122.829 12.8957 122.639 12.0744 122.256 11.6637C121.883 11.2692 121.369 11.0719 120.715 11.0719C119.858 11.0719 119.212 11.3255 118.779 11.8328C118.422 12.2515 118.244 13.0929 118.244 14.3571V19.8402H115.276V8.87384H118.244V9.45354Z" fill="white"/>
<path d="M135.416 11.1082L133.111 12.1951C132.771 11.7443 132.478 11.4383 132.232 11.2773C131.985 11.1082 131.692 11.0236 131.353 11.0236C130.988 11.0236 130.695 11.1041 130.474 11.2652C130.261 11.4262 130.155 11.6396 130.155 11.9052C130.155 12.1469 130.232 12.324 130.385 12.4367C130.546 12.5494 130.958 12.7266 131.62 12.9681L132.678 13.3425C133.425 13.6162 134.024 13.9303 134.474 14.2846C135.162 14.8241 135.505 15.5487 135.505 16.4585C135.505 17.5616 135.047 18.4795 134.129 19.2122C133.323 19.8724 132.338 20.2025 131.174 20.2025C129.629 20.2025 128.423 19.6429 127.557 18.5237C127.251 18.1292 126.949 17.5536 126.652 16.7967L129.073 15.8788C129.438 16.5632 129.769 17.0342 130.066 17.2919C130.372 17.5415 130.746 17.6663 131.187 17.6663C131.595 17.6663 131.922 17.5616 132.168 17.3522C132.415 17.1429 132.538 16.8692 132.538 16.531C132.538 16.2975 132.448 16.1163 132.27 15.9875C132.092 15.8506 131.688 15.6694 131.06 15.444L129.888 15.0213C128.164 14.3932 127.302 13.3787 127.302 11.9777C127.302 10.923 127.731 10.0655 128.588 9.40526C129.379 8.80942 130.308 8.51154 131.378 8.51154C132.287 8.51154 133.059 8.71683 133.697 9.12748C134.342 9.53813 134.915 10.1983 135.416 11.1082Z" fill="white"/>
</g>
</g>
<defs>
<clipPath id="clip0_1388_2668">
<rect width="137" height="23" fill="white" transform="translate(0 0.0524292)"/>
</clipPath>
</defs>
</svg>
