<svg width="195" height="32" viewBox="0 0 195 32" fill="none" xmlns="http://www.w3.org/2000/svg">
<path d="M10.7981 6.48372C9.40803 6.48372 8.30888 7.06679 7.56533 8.20054C6.78946 9.33429 6.40153 10.9215 6.40153 12.9299C6.40153 17.1086 7.9856 19.2141 11.1537 19.2141C12.1236 19.2141 13.0288 19.0522 13.9663 18.8254C14.8391 18.5663 15.7766 18.2423 16.6818 17.8536V22.8421C14.8714 23.6196 12.8025 24.0083 10.5395 24.0083C7.24205 24.0083 4.7528 23.0689 3.03942 21.1577C1.32604 19.2465 0.356201 16.4931 0.356201 12.8975C0.356201 10.63 0.808792 8.65404 1.64932 6.93722C2.48985 5.2204 3.71831 3.92469 5.27005 2.98529C6.82179 2.0459 8.76147 1.59239 10.8628 1.59239C13.2227 1.59239 15.421 2.07829 17.587 3.11486L15.7766 7.74704C15.0008 7.35833 14.1602 7.06679 13.3844 6.80765C12.5438 6.5809 11.671 6.48372 10.7981 6.48372ZM36.5635 15.2622C36.5635 18.0156 35.82 20.1859 34.3652 21.7084C32.8781 23.2309 30.8415 24.0083 28.1906 24.0083C25.6367 24.0083 23.6323 23.2308 22.1129 21.6436C20.5935 20.0563 19.85 17.9508 19.85 15.2298C19.85 12.4764 20.5935 10.3709 22.0483 8.81602C23.5353 7.29355 25.6367 6.51612 28.2875 6.51612C29.9686 6.51612 31.391 6.87243 32.6518 7.55268C33.9449 8.23293 34.9148 9.26952 35.5937 10.5976C36.2402 11.9581 36.5635 13.4806 36.5635 15.2622ZM25.669 15.2622C25.669 16.6875 25.863 17.8212 26.2509 18.5663C26.6388 19.3113 27.2854 19.7 28.2229 19.7C29.0957 19.7 29.7423 19.3113 30.1302 18.5663C30.5182 17.7888 30.6798 16.6875 30.6798 15.2622C30.6798 13.8369 30.4858 12.7679 30.1302 12.0229C29.7423 11.2779 29.0957 10.9539 28.2229 10.9539C27.35 10.9539 26.7035 11.3103 26.3155 12.0229C25.863 12.7032 25.669 13.7721 25.669 15.2622ZM45.7123 23.7167H39.9256V6.87244H45.7123V23.7167ZM39.764 2.66136C39.764 1.78676 40.0226 1.1389 40.5075 0.685395C40.9924 0.231894 41.8006 0.0375366 42.8675 0.0375366C43.9343 0.0375366 44.7425 0.231894 45.2274 0.685395C45.7123 1.1389 45.9709 1.75436 45.9709 2.59657C45.9709 4.3134 44.9364 5.15561 42.8675 5.15561C40.7985 5.2204 39.764 4.37819 39.764 2.66136ZM60.3892 23.7167V14.5172C60.3892 13.3834 60.2276 12.5412 59.9043 12.0229C59.6133 11.4398 59.0638 11.1483 58.3849 11.1483C57.415 11.1483 56.7038 11.537 56.2836 12.3144C55.831 13.0919 55.637 14.42 55.637 16.3636V23.7491H49.8503V6.90483H54.2146L54.9581 8.97798H55.3137C55.7986 8.20055 56.4775 7.58508 57.3827 7.19637C58.2556 6.80765 59.2577 6.61329 60.4215 6.61329C62.2965 6.61329 63.719 7.16397 64.7535 8.23294C65.788 9.3019 66.3375 10.8568 66.3375 12.8003V23.7815H60.4539L60.3892 23.7167ZM83.1481 18.5663C83.1481 20.3803 82.5662 21.7084 81.3377 22.6478C80.1092 23.5872 78.3312 24.0407 76.0359 24.0407C74.8075 24.0407 73.7406 23.9759 72.8031 23.8463C71.8656 23.6844 70.9281 23.4576 69.9906 23.1013V18.4367C70.8634 18.8254 71.8656 19.1817 72.9324 19.4085C73.9993 19.6676 74.9368 19.7972 75.842 19.7972C77.1351 19.7972 77.717 19.5057 77.717 18.9226C77.717 18.6311 77.523 18.3719 77.1674 18.1452C76.8118 17.9184 75.7773 17.4649 74.1286 16.7523C72.6092 16.1044 71.51 15.4242 70.8958 14.5819C70.3139 13.7397 69.9583 12.7679 69.9583 11.4722C69.9583 9.88497 70.5402 8.65405 71.7686 7.84423C72.9971 6.96962 74.6782 6.51612 76.8765 6.51612C78.0079 6.51612 79.0424 6.67808 79.9799 6.90483C80.9498 7.16397 81.9843 7.4879 83.0188 7.9414L81.4347 11.6666C80.6588 11.3103 79.8506 11.0187 78.9778 10.792C78.1049 10.5328 77.3937 10.4033 76.8765 10.4033C75.9389 10.4033 75.454 10.6624 75.454 11.0835C75.454 11.3751 75.6157 11.6342 75.9389 11.8286C76.2622 12.0229 77.2321 12.4116 78.8484 13.0595C80.0123 13.5454 80.9174 14.0313 81.467 14.4848C82.0489 14.9383 82.5015 15.5213 82.7601 16.1692C82.9864 16.8818 83.1481 17.6269 83.1481 18.5663ZM96.4349 24.0083C95.5943 24.0083 94.8185 23.8463 94.1396 23.6196C93.4607 23.328 92.8141 22.8421 92.1352 22.0971H91.8766C92.0706 23.2632 92.1352 24.0083 92.1352 24.2998V31.0375H86.3485V6.87244H91.0684L91.909 9.04276H92.1676C93.2344 7.42311 94.7215 6.5809 96.6288 6.5809C98.5038 6.5809 99.9586 7.35833 100.993 8.88079C102.06 10.4033 102.577 12.5736 102.577 15.2298C102.577 17.9508 102.028 20.0887 100.896 21.676C99.797 23.2309 98.3099 24.0083 96.4349 24.0083ZM94.4952 11.1159C93.6547 11.1159 93.0081 11.4074 92.6848 12.0553C92.3292 12.6384 92.1352 13.5778 92.1352 14.7763V15.2298C92.1352 16.6551 92.3292 17.7241 92.7171 18.3719C93.1051 19.0198 93.687 19.3437 94.5275 19.3437C95.271 19.3437 95.8206 19.0522 96.1439 18.4043C96.4995 17.7564 96.6288 16.6875 96.6288 15.1974C96.6288 13.7721 96.4672 12.7355 96.1439 12.0877C95.8206 11.4398 95.2711 11.1159 94.4952 11.1159ZM114.021 24.0083C111.209 24.0083 109.075 23.2632 107.491 21.8056C105.972 20.3155 105.196 18.1776 105.196 15.3918C105.196 12.5412 105.939 10.3709 107.362 8.8484C108.784 7.32593 110.853 6.54851 113.504 6.54851C116.058 6.54851 117.965 7.19636 119.355 8.52447C120.745 9.85258 121.424 11.7314 121.424 14.2256V16.8495H111.047C111.112 17.7888 111.435 18.5339 112.082 19.0522C112.728 19.6028 113.601 19.8296 114.732 19.8296C115.767 19.8296 116.704 19.7324 117.545 19.5381C118.418 19.3437 119.323 18.9874 120.358 18.5663V22.745C119.42 23.1985 118.483 23.5224 117.545 23.7167C116.543 23.9111 115.347 24.0083 114.021 24.0083ZM113.698 10.5328C113.019 10.5328 112.405 10.7272 111.985 11.1807C111.532 11.6342 111.241 12.2497 111.209 13.1891H116.22C116.22 12.3468 115.961 11.699 115.541 11.2131C115.023 10.792 114.409 10.5328 113.698 10.5328ZM135.649 23.7167L134.517 21.514H134.42C133.644 22.4858 132.836 23.1337 132.028 23.49C131.187 23.8463 130.153 24.0407 128.892 24.0407C127.308 24.0407 126.047 23.5548 125.174 22.6154C124.237 21.676 123.784 20.3155 123.784 18.5663C123.784 16.7847 124.431 15.4242 125.659 14.5819C126.888 13.7073 128.698 13.1891 131.058 13.0919L133.871 12.9947V12.7355C133.871 11.3427 133.192 10.6624 131.802 10.6624C130.573 10.6624 128.989 11.0511 127.146 11.8933L125.465 8.03858C127.437 7.002 129.894 6.51612 132.868 6.51612C135.034 6.51612 136.715 7.0668 137.879 8.13576C139.043 9.20473 139.657 10.6948 139.657 12.606V23.6196H135.681L135.649 23.7167ZM131.381 19.8944C132.06 19.8944 132.674 19.6352 133.192 19.2141C133.677 18.7606 133.935 18.1776 133.935 17.4973V16.1692L132.61 16.234C130.702 16.2988 129.765 17.0114 129.765 18.3395C129.7 19.4085 130.25 19.8944 131.381 19.8944ZM149.259 14.2256C149.938 13.0919 150.552 12.2497 151.069 11.6018L154.851 6.84005H161.349L155.498 14.0313L161.673 23.7167H155.045L151.36 17.6593L149.485 19.0846V23.652H143.634V0.52343H149.485V9.62584C149.485 11.2131 149.388 12.7355 149.129 14.1932H149.259V14.2256ZM171.791 24.0083C168.979 24.0083 166.845 23.2632 165.261 21.8056C163.742 20.3155 162.966 18.1776 162.966 15.3918C162.966 12.5412 163.709 10.3709 165.132 8.8484C166.554 7.32593 168.623 6.54851 171.274 6.54851C173.828 6.54851 175.735 7.19636 177.125 8.52447C178.516 9.85258 179.194 11.7314 179.194 14.2256V16.8495H168.785C168.849 17.7888 169.173 18.5339 169.819 19.0522C170.466 19.6028 171.339 19.8296 172.47 19.8296C173.505 19.8296 174.442 19.7324 175.283 19.5381C176.156 19.3437 177.061 18.9874 178.095 18.5663V22.745C177.158 23.1985 176.22 23.5224 175.283 23.7167C174.313 23.9111 173.117 24.0083 171.791 24.0083ZM171.436 10.5328C170.757 10.5328 170.143 10.7272 169.722 11.1807C169.27 11.6342 168.979 12.2497 168.946 13.1891H173.957C173.957 12.3468 173.699 11.699 173.278 11.2131C172.761 10.792 172.179 10.5328 171.436 10.5328ZM192.578 6.54851C193.063 6.54851 193.548 6.61329 194.001 6.64569L194.356 6.71048L193.807 12.1849C193.322 12.0877 192.675 11.9905 191.835 11.9905C190.542 11.9905 189.636 12.2821 189.087 12.8651C188.505 13.4482 188.214 14.2904 188.214 15.3594V23.6196H182.427V6.77526H186.759L187.632 9.49626H187.923C188.408 8.62165 189.087 7.87662 189.927 7.32594C190.865 6.84005 191.738 6.54851 192.578 6.54851Z" fill="url(#paint0_linear_1519_67)"/>
<defs>
<linearGradient id="paint0_linear_1519_67" x1="-1.24167" y1="15.5537" x2="195.054" y2="15.5537" gradientUnits="userSpaceOnUse">
<stop stop-color="white"/>
<stop offset="1" stop-color="white" stop-opacity="0.25"/>
</linearGradient>
</defs>
</svg>
