<svg width="51" height="72" viewBox="0 0 51 72" fill="none" xmlns="http://www.w3.org/2000/svg">
<path d="M31.22 70.7595C32.0879 70.2823 32.8404 69.981 33.3922 69.7901C34.3454 69.4637 34.7919 69.4235 35.0979 69.0067C35.5143 68.4391 35.2986 67.6807 35.1682 67.0128C35.0679 66.4854 35.123 65.1897 35.2384 62.6031C35.3588 59.8308 35.6799 59.1176 35.4541 57.0534C35.3488 56.1193 35.2936 55.6421 35.0277 55.1298C34.4809 54.0852 33.5578 53.593 31.0494 52.5684C26.755 50.8156 27.036 51.2576 25.7868 50.5042C24.1112 49.4947 23.5392 48.656 22.1596 48.656C21.3669 48.656 20.5091 48.9322 19.8117 49.1532C18.9438 49.4345 18.2515 49.7559 17.7649 50.0121C22.2499 56.9279 26.7349 63.8437 31.2149 70.7595H31.22Z" fill="#663E16" stroke="black" stroke-width="2.14932" stroke-linecap="round" stroke-linejoin="round"/>
<path d="M17.77 50.0114C18.5927 49.4941 19.6462 50.7095 22.6162 52.1961C27.6531 54.7123 30.6682 54.2402 31.4608 56.44C31.6264 56.892 31.4809 56.8619 31.3404 58.9863C31.1648 61.6532 31.2501 63.9384 31.3404 66.5098C31.4659 69.9552 31.6515 70.4474 31.22 70.7537C30.2167 71.4619 28.4156 69.3475 23.7049 66.992C19.6111 64.9479 18.4222 65.2743 17.5242 63.7174C16.5459 62.0198 17.6345 61.0656 17.6446 56.3144C17.6546 52.2764 16.872 50.5638 17.765 50.0063L17.77 50.0114Z" fill="#80521A" stroke="black" stroke-width="2.14932" stroke-linecap="round" stroke-linejoin="round"/>
<path d="M17.4088 59.8806C18.2466 60.4632 19.5459 61.317 21.2366 62.1758C22.7767 62.9593 23.8353 63.336 25.7166 64.0994C27.0561 64.6418 28.9926 65.4454 31.3405 66.5152" stroke="black" stroke-width="2.14932" stroke-linecap="round" stroke-linejoin="round"/>
<path d="M23.0627 61.2672C23.3487 61.1668 23.4841 61.3978 24.2517 61.6489C25.1447 61.9402 25.4005 61.7745 25.5811 62.0306C25.832 62.3872 25.3755 62.7539 25.2801 63.9241C25.225 64.6121 25.3504 64.8934 25.1547 65.024C24.929 65.1797 24.638 64.8833 23.6798 64.5468C22.847 64.2555 22.6513 64.3309 22.4456 64.0697C22.1446 63.683 22.2701 63.1255 22.4005 62.5479C22.5209 62.0055 22.6563 61.4028 23.0677 61.2622L23.0627 61.2672Z" fill="#FFCC00" stroke="black" stroke-width="1.7911" stroke-linecap="round" stroke-linejoin="round"/>
<path d="M23.8703 50.8503C23.9054 49.7755 24.0659 48.4497 24.7231 48.2337C25.1295 48.1031 25.4355 48.4798 26.2934 48.9469C28.255 50.0166 29.3788 49.5295 29.9055 50.328C30.1664 50.7298 30.3069 51.4882 29.4791 53.0853" fill="#663E16"/>
<path d="M23.8703 50.8503C23.9054 49.7755 24.0659 48.4497 24.7231 48.2337C25.1295 48.1031 25.4355 48.4798 26.2934 48.9469C28.255 50.0166 29.3788 49.5295 29.9055 50.328C30.1664 50.7298 30.3069 51.4882 29.4791 53.0853" stroke="black" stroke-width="2.14932" stroke-linecap="round" stroke-linejoin="round"/>
<path d="M21.6429 31.2532C21.5074 31.8709 21.3168 32.8001 21.1362 33.9351C20.2583 39.4849 21.1362 40.3135 21.3971 40.5195C21.4774 40.5847 21.9238 40.9363 22.265 40.7907C22.9422 40.4994 22.4255 38.5406 22.591 36.2906C22.6713 35.1907 22.9422 33.6489 23.8051 31.8157C23.4289 31.7353 23.0376 31.6449 22.6312 31.5395C22.2901 31.449 21.959 31.3536 21.6479 31.2532H21.6429Z" fill="black" stroke="black" stroke-width="2.14932" stroke-linecap="round" stroke-linejoin="round"/>
<path d="M26.0526 40.8708C25.9824 41.4986 25.8871 42.4429 25.8219 43.588C25.5108 49.198 26.469 49.9312 26.755 50.112C26.8403 50.1673 27.3219 50.4736 27.643 50.2928C28.2902 49.9362 27.5778 48.0378 27.5075 45.7827C27.4724 44.6778 27.5878 43.1158 28.26 41.2073C27.8788 41.1672 27.4774 41.1169 27.061 41.0516C26.7098 40.9964 26.3737 40.9361 26.0526 40.8708Z" fill="black" stroke="black" stroke-width="2.14932" stroke-linecap="round" stroke-linejoin="round"/>
<path d="M39.6734 37.0891C39.6032 37.7169 39.5079 38.6611 39.4427 39.8062C39.1316 45.4162 40.0898 46.1495 40.3758 46.3303C40.4611 46.3855 40.9427 46.6919 41.2638 46.5111C41.9109 46.1545 41.1985 44.256 41.1283 42.001C41.0932 40.8961 41.2086 39.3341 41.8808 37.4256C41.4996 37.3854 41.0982 37.3352 40.6818 37.2699C40.3306 37.2147 39.9945 37.1544 39.6734 37.0891Z" fill="black" stroke="black" stroke-width="2.14932" stroke-linecap="round" stroke-linejoin="round"/>
<path d="M2.33333 27.2804C2.39855 21.1029 7.23978 17.517 7.98227 16.9846C13.5961 12.9667 20.7701 14.7948 25.3856 15.9651C27.9341 16.6129 30.7636 17.9991 36.4226 20.7765C45.1317 25.0455 46.1 26.4919 46.4913 27.2302C48.7438 31.4691 47.8709 37.4708 44.2287 41.2778C39.8189 45.8833 33.0011 45.5418 28.6164 43.4274C24.8086 41.5942 22.8922 38.4452 22.1698 37.0841C17.2834 40.3085 11.1378 40.2281 6.96886 37.0037C2.36343 33.4479 2.33334 27.7324 2.33836 27.2754L2.33333 27.2804Z" fill="#FFDF00" stroke="black" stroke-width="2.86576" stroke-linecap="round" stroke-linejoin="round"/>
<path d="M22.1648 37.0892C22.0392 36.4664 21.9388 35.698 21.9388 34.8241C21.9388 33.694 22.0995 32.7297 22.2803 31.9915" stroke="black" stroke-width="2.86576" stroke-linecap="round" stroke-linejoin="round"/>
<path d="M9.33672 38.4198C8.59423 36.5264 7.48545 32.8902 8.13764 28.4253C9.37679 19.9526 15.9538 15.3571 17.1779 14.5334C18.0709 14.5837 19.0142 14.6741 20.0025 14.8046C22.0092 15.0809 23.8102 15.4978 25.3755 15.9648C23.8604 16.7584 19.6112 19.2444 17.1228 24.4928C13.8017 31.489 16.1345 38.0582 16.596 39.2837C15.4372 39.4796 13.7214 39.6152 11.7298 39.1933C10.7966 38.9924 9.99392 38.7111 9.3317 38.4198H9.33672Z" fill="black" stroke="black" stroke-width="2.14932" stroke-linecap="round" stroke-linejoin="round"/>
<path d="M37.7018 21.4141C36.0162 21.9364 31.9475 23.4531 28.6716 27.4961C24.322 32.8651 24.4574 38.8869 24.5376 40.4137C25.0644 40.9812 25.7718 41.6442 26.6798 42.287C27.613 42.945 28.501 43.397 29.2284 43.7084C29.0328 42.061 28.6916 37.3099 31.491 32.4131C35.0379 26.2155 41.0279 24.3019 42.3524 23.9102C41.64 23.4983 40.9076 23.0865 40.145 22.6797C39.3172 22.2327 38.4995 21.8108 37.7018 21.4141Z" fill="black" stroke="black" stroke-width="2.14932" stroke-linecap="round" stroke-linejoin="round"/>
<path d="M47.6 24.2117C46.1501 23.7648 44.5547 24.7943 44.1634 26.2307C43.8524 27.3758 44.324 28.7369 45.2872 29.2592C46.8174 30.0829 49.3408 28.6515 49.4411 26.8083C49.5013 25.7385 48.7388 24.5633 47.6 24.2168V24.2117Z" fill="white" stroke="black" stroke-width="2.14932" stroke-linecap="round" stroke-linejoin="round"/>
<path d="M41.7653 28.2647C40.3155 27.8177 38.7201 28.8473 38.3288 30.2837C38.0178 31.4288 38.4893 32.7899 39.4526 33.3122C40.9827 34.1359 43.5061 32.7045 43.6064 30.8613C43.6666 29.7915 42.9041 28.6163 41.7653 28.2697V28.2647Z" fill="white" stroke="black" stroke-width="2.14932" stroke-linecap="round" stroke-linejoin="round"/>
<path d="M13.1141 36.0396C12.9787 36.6573 12.788 37.5865 12.6074 38.7215C11.7295 44.2712 12.6074 45.0999 12.8683 45.3058C12.9486 45.3711 13.3951 45.7227 13.7362 45.577C14.4135 45.2857 13.8967 43.327 14.0622 41.077C14.1425 39.9771 14.4135 38.4352 15.2764 36.6021C14.9001 36.5217 14.5088 36.4313 14.1024 36.3258C13.7613 36.2354 13.4302 36.14 13.1191 36.0396H13.1141Z" fill="black" stroke="black" stroke-width="2.14932" stroke-linecap="round" stroke-linejoin="round"/>
<path opacity="0.58" d="M25.1645 20.0431C25.1645 17.7077 25.4705 13.9007 27.387 9.80245C28.0341 8.41628 31.4054 1.1941 34.7868 1.72647C37.5811 2.16342 39.7434 7.678 38.7501 11.8817C38.4491 13.1624 36.3269 15.3773 32.0827 19.807C31.4606 20.4549 30.4623 21.4694 29.1078 21.5096C28.2198 21.5347 27.2766 21.1429 26.7699 20.927C26.0776 20.6357 25.5357 20.2992 25.1645 20.0431Z" fill="white" stroke="black" stroke-width="2.14932" stroke-linecap="round" stroke-linejoin="round"/>
<path opacity="0.58" d="M21.6328 20.1636C19.9873 19.0335 16.9321 16.5424 15.5123 12.3237C15.2514 11.5552 13.1092 5.1768 16.1845 2.60535C17.5792 1.44016 19.7514 1.29954 21.2766 1.82688C25.5107 3.30346 27.5877 10.9676 26.775 20.9219C25.8419 20.7311 24.8485 20.5603 23.8101 20.4147C23.0626 20.3092 22.3351 20.2289 21.6378 20.1636H21.6328Z" fill="white" stroke="black" stroke-width="2.14932" stroke-linecap="round" stroke-linejoin="round"/>
</svg>
