<svg width="9" height="9" viewBox="0 0 9 9" fill="none" xmlns="http://www.w3.org/2000/svg">
<rect x="0.5" y="0.5" width="8" height="8" rx="4" stroke="black"/>
<path d="M5.12295 2.36965C5.14029 2.41012 5.14607 2.45347 5.14029 2.49972C5.13451 2.54018 5.12584 2.58065 5.11428 2.62111C5.1085 2.6558 5.09694 2.69048 5.07959 2.72516C5.06225 2.75407 5.0478 2.78297 5.03624 2.81188C5.01312 2.84656 4.9871 2.87835 4.9582 2.90726C4.93508 2.93616 4.91195 2.96506 4.88883 2.99397C4.87149 2.99975 4.85704 3.01131 4.84548 3.02865C4.83391 3.04021 4.81946 3.05178 4.80212 3.06334C4.76166 3.09224 4.69807 3.12114 4.61136 3.15005C4.52465 3.17317 4.45528 3.18473 4.40325 3.18473C4.37435 3.18473 4.35123 3.17895 4.33388 3.16739C4.2992 3.16739 4.26451 3.16739 4.22983 3.16739C4.19515 3.16161 4.16335 3.15872 4.13445 3.15872C4.11711 3.14716 4.09687 3.1356 4.07375 3.12403C4.05641 3.11247 4.04196 3.10091 4.0304 3.08935C4.00149 3.07779 3.9697 3.07201 3.93501 3.07201C3.90611 3.07201 3.87721 3.07201 3.8483 3.07201C3.82518 3.05467 3.79628 3.04021 3.76159 3.02865C3.73269 3.01131 3.70379 2.99686 3.67488 2.9853L3.62286 2.82922C3.62864 2.78297 3.63442 2.73384 3.6402 2.68181C3.64598 2.624 3.6402 2.5662 3.62286 2.50839C3.60551 2.49683 3.60551 2.48238 3.62286 2.46503C3.6402 2.42457 3.6402 2.3841 3.62286 2.34364C3.60551 2.30317 3.60551 2.26271 3.62286 2.22224C3.62864 2.21068 3.63153 2.19334 3.63153 2.17022C3.61418 2.13553 3.61418 2.10374 3.63153 2.07484C3.64887 2.04015 3.66332 2.01125 3.67488 1.98812C3.6691 1.97078 3.66621 1.95344 3.66621 1.9361C3.66621 1.91298 3.66621 1.89563 3.66621 1.88407C3.67199 1.87829 3.67488 1.87251 3.67488 1.86673C3.68066 1.85517 3.68933 1.8465 3.7009 1.84072C3.74714 1.82916 3.78472 1.80892 3.81362 1.78002C3.8483 1.74533 3.88588 1.71932 3.92634 1.70198C3.96681 1.6673 4.01016 1.63839 4.05641 1.61527C4.10844 1.59215 4.15757 1.56902 4.20382 1.5459C4.25006 1.5459 4.29053 1.5459 4.32521 1.5459C4.3599 1.5459 4.39458 1.55168 4.42926 1.56324C4.44661 1.56902 4.46684 1.57191 4.48996 1.57191C4.51309 1.57191 4.53621 1.57191 4.55933 1.57191C4.64026 1.56035 4.70385 1.59215 4.75009 1.6673C4.76166 1.6962 4.78189 1.71354 4.81079 1.71932C4.8397 1.7251 4.86571 1.73377 4.88883 1.74533C4.94664 1.79736 4.98421 1.86384 5.00156 1.94477C5.01312 1.97945 5.02468 2.01414 5.03624 2.04882C5.05358 2.08351 5.06514 2.11819 5.07092 2.15287C5.08249 2.18756 5.09116 2.22513 5.09694 2.2656C5.1085 2.30028 5.11717 2.33497 5.12295 2.36965ZM5.07092 4.364C5.05936 4.39868 5.05358 4.43915 5.05358 4.48539C5.05358 4.52586 5.05358 4.56921 5.05358 4.61546C5.05936 4.65592 5.05936 4.69928 5.05358 4.74552C5.0478 4.78599 5.04491 4.82645 5.04491 4.86692L4.98421 4.95363C5.01312 4.98253 5.03046 5.01433 5.03624 5.04901C5.04202 5.08369 5.04491 5.12127 5.04491 5.16173C5.04491 5.2022 5.04491 5.24555 5.04491 5.2918C5.04491 5.33227 5.04202 5.37562 5.03624 5.42187C5.03046 5.46233 5.0189 5.50569 5.00156 5.55193C4.98421 5.59818 4.96976 5.64731 4.9582 5.69934C4.9582 5.75715 4.95531 5.82652 4.94953 5.90745C4.94953 5.9826 4.95242 6.05774 4.9582 6.13289C4.96398 6.24273 4.9582 6.35545 4.94086 6.47107C4.92352 6.5809 4.88883 6.68495 4.8368 6.78322C4.8368 6.82947 4.84259 6.87571 4.85415 6.92196C4.86571 6.96243 4.87727 7.00578 4.88883 7.05203C4.88883 7.05781 4.88594 7.06359 4.88016 7.06937C4.87438 7.08093 4.87149 7.09249 4.87149 7.10405C4.84259 7.14452 4.8079 7.1792 4.76744 7.20811C4.76166 7.20811 4.75587 7.211 4.75009 7.21678H4.71541C4.65182 7.21678 4.58534 7.21967 4.51598 7.22545C4.45239 7.23701 4.38013 7.23412 4.2992 7.21678C4.27608 7.20522 4.25006 7.19076 4.22116 7.17342C4.19804 7.15608 4.17202 7.14163 4.14312 7.13007C4.12 7.13007 4.09109 7.12718 4.05641 7.12139C4.02751 7.12139 3.9986 7.1185 3.9697 7.11272C3.92345 7.0607 3.87721 7.00578 3.83096 6.94797C3.81362 6.93641 3.79339 6.92774 3.77026 6.92196C3.74714 6.91618 3.72402 6.90751 3.7009 6.89595C3.66043 6.86704 3.64598 6.8208 3.65754 6.75721C3.6691 6.69362 3.68355 6.63871 3.7009 6.59246C3.71824 6.51731 3.71535 6.44505 3.69222 6.37568L3.65754 6.25429C3.65754 6.20804 3.65465 6.16469 3.64887 6.12422C3.64309 6.08376 3.64309 6.04329 3.64887 6.00283C3.65465 5.94502 3.65465 5.8901 3.64887 5.83808C3.64887 5.78605 3.64887 5.73113 3.64887 5.67333C3.65465 5.5924 3.65754 5.51436 3.65754 5.43921C3.65754 5.35828 3.65754 5.28024 3.65754 5.20509C3.65754 5.17619 3.66043 5.15884 3.66621 5.15306C3.69511 5.10682 3.70957 5.06346 3.70957 5.023C3.70957 4.97675 3.70957 4.93051 3.70957 4.88426C3.70379 4.83801 3.70379 4.79177 3.70957 4.74552C3.72113 4.6935 3.72113 4.64725 3.70957 4.60679C3.70957 4.55476 3.70957 4.50562 3.70957 4.45938C3.70957 4.40735 3.71246 4.35533 3.71824 4.3033C3.72402 4.2744 3.72691 4.24549 3.72691 4.21659C3.73269 4.1819 3.7298 4.14433 3.71824 4.10386C3.77026 4.08074 3.81362 4.0634 3.8483 4.05184C3.88877 4.04028 3.92634 4.0345 3.96103 4.0345C3.98415 4.0345 4.00727 4.0345 4.0304 4.0345C4.0593 4.0345 4.08531 4.03161 4.10844 4.02582C4.16624 4.01426 4.21538 4.0027 4.25584 3.99114C4.28475 3.99692 4.30787 4.00848 4.32521 4.02582C4.34833 4.03739 4.37146 4.04895 4.39458 4.06051C4.43505 4.06051 4.47551 4.05184 4.51598 4.0345C4.55644 4.02872 4.59112 4.03161 4.62003 4.04317C4.65471 4.05473 4.68073 4.08363 4.69807 4.12988C4.70385 4.13566 4.70674 4.14144 4.70674 4.14722C4.71252 4.153 4.7183 4.15878 4.72408 4.16456L4.78478 4.19925C4.82524 4.20503 4.85993 4.19925 4.88883 4.1819C4.91773 4.15878 4.94664 4.14433 4.97554 4.13855C5.01023 4.13855 5.03046 4.153 5.03624 4.1819C5.05358 4.22237 5.06514 4.28307 5.07092 4.364Z" fill="black"/>
</svg>
