<svg width="18" height="18" viewBox="0 0 18 18" fill="none" xmlns="http://www.w3.org/2000/svg">
<path d="M5.5013 0.666016H12.5013C15.168 0.666016 17.3346 2.83268 17.3346 5.49935V12.4993C17.3346 13.7812 16.8254 15.0106 15.919 15.917C15.0126 16.8235 13.7832 17.3327 12.5013 17.3327H5.5013C2.83464 17.3327 0.667969 15.166 0.667969 12.4993V5.49935C0.667969 4.21747 1.17719 2.98809 2.08362 2.08167C2.99005 1.17524 4.21942 0.666016 5.5013 0.666016ZM5.33464 2.33268C4.53899 2.33268 3.77592 2.64875 3.21332 3.21136C2.65071 3.77397 2.33464 4.53703 2.33464 5.33268V12.666C2.33464 14.3243 3.6763 15.666 5.33464 15.666H12.668C13.4636 15.666 14.2267 15.3499 14.7893 14.7873C15.3519 14.2247 15.668 13.4617 15.668 12.666V5.33268C15.668 3.67435 14.3263 2.33268 12.668 2.33268H5.33464ZM13.3763 3.58268C13.6526 3.58268 13.9175 3.69243 14.1129 3.88778C14.3082 4.08313 14.418 4.34808 14.418 4.62435C14.418 4.90062 14.3082 5.16557 14.1129 5.36092C13.9175 5.55627 13.6526 5.66602 13.3763 5.66602C13.1 5.66602 12.8351 5.55627 12.6397 5.36092C12.4444 5.16557 12.3346 4.90062 12.3346 4.62435C12.3346 4.34808 12.4444 4.08313 12.6397 3.88778C12.8351 3.69243 13.1 3.58268 13.3763 3.58268ZM9.0013 4.83268C10.1064 4.83268 11.1662 5.27167 11.9476 6.05307C12.729 6.83447 13.168 7.89428 13.168 8.99935C13.168 10.1044 12.729 11.1642 11.9476 11.9456C11.1662 12.727 10.1064 13.166 9.0013 13.166C7.89623 13.166 6.83643 12.727 6.05502 11.9456C5.27362 11.1642 4.83464 10.1044 4.83464 8.99935C4.83464 7.89428 5.27362 6.83447 6.05502 6.05307C6.83643 5.27167 7.89623 4.83268 9.0013 4.83268ZM9.0013 6.49935C8.33826 6.49935 7.70238 6.76274 7.23353 7.23158C6.76469 7.70042 6.5013 8.33631 6.5013 8.99935C6.5013 9.66239 6.76469 10.2983 7.23353 10.7671C7.70238 11.236 8.33826 11.4993 9.0013 11.4993C9.66434 11.4993 10.3002 11.236 10.7691 10.7671C11.2379 10.2983 11.5013 9.66239 11.5013 8.99935C11.5013 8.33631 11.2379 7.70042 10.7691 7.23158C10.3002 6.76274 9.66434 6.49935 9.0013 6.49935Z" fill="white"/>
</svg>
