<svg width="366" height="457" viewBox="0 0 366 457" fill="none" xmlns="http://www.w3.org/2000/svg">
<path d="M295.695 438.023C295.695 446.106 283.694 453.041 221.009 453.041C158.325 453.041 68.6953 446.106 68.6953 438.023C68.6953 429.939 152.93 417.768 201.34 430.705C264.024 430.705 295.695 429.939 295.695 438.023Z" fill="#007AB5"/>
<path d="M136.79 119C138.149 116.248 141.159 113.677 144.109 112.412C148.597 110.483 151.475 109.61 155.349 106.26C155.904 105.779 158.65 102.574 158.108 102.151C156.236 101.819 150.877 105.925 149.977 105.746C148.504 105.452 149.946 100.936 150.911 100.173C146.893 100.689 142.838 99.7514 139.122 98.4226C123.318 92.7717 122.335 78.8285 116.425 66.1694C115.792 64.8166 112.921 60.3456 113.009 59.4845C113.049 59.0826 113.139 58.7665 113.587 58.6028C113.911 58.4847 119.654 59.2013 120.48 59.3536C125.377 60.252 135.61 64.9982 139.626 67.8587C147.185 73.2439 151.285 79.8901 155.188 87.8226C156.322 87.9814 156.222 86.9668 156.937 86.3082C160.245 83.253 164.753 81.5476 169.286 80.7376C171.432 80.3559 178.647 80.0632 179.809 79.225C180.418 78.7979 179.951 78.3098 179.731 77.8447C178.114 74.3714 171.424 69.6176 181.221 69.6868C188.56 69.7384 196.336 73.3068 203.286 75.1509L203.928 74.82C204.267 74.2065 204.361 72.8981 204.818 72.439C207.016 70.2252 212.276 77.0032 213.15 76.3253C213.647 74.5009 215.267 72.5633 216.551 71.0996C218.966 68.3463 223.27 63.9814 226.028 61.5399C227.348 60.372 229.599 58.5226 229.759 61.3052C228.117 66.8099 227.133 72.5026 227.429 78.2184C231.668 77.2616 235.892 77.1045 240.207 76.758C241.638 76.6418 245.896 75.1482 246.386 77.2387C246.877 79.3292 241.648 80.8727 241.871 83.3472C241.998 83.8656 248.575 85.3077 248.086 86.9732C260.092 75.2366 278.194 68.9303 295.526 70.7601C298.467 71.0714 302.991 72.6361 305.474 71.7329C307.637 70.9476 310.024 68.5827 309.708 72.9191C308.62 87.8006 292.214 101.439 277.524 105.387C271.326 107.054 266.403 106.794 260.065 106.282C262.581 109.763 265.131 113.309 266.97 117.171C268.194 119.743 270.557 125.367 271.005 127.993C271.186 129.053 270.911 130.192 269.538 130.197C267.877 130.2 266.428 128.064 264.76 128.283C267.459 135.199 267.281 143.004 269.176 150.026C270.805 156.047 274.869 161.871 276.451 168.003C276.76 172.275 268.354 165.848 266.685 165.649L274.593 191.584C274.174 194.504 269.658 191.56 267.891 191.491C267.076 194.431 273.154 213.838 272.288 214.715C269.436 215.286 269.589 211.314 267.544 210.168C268.85 217.217 271.835 224.952 271.45 232.171C271.351 234.009 271.253 235.935 268.754 235.683C268.306 242.268 266.71 248.794 266.259 255.379C266.076 258.078 265.945 261.291 265.976 263.977C266.035 268.737 267.307 275.515 266.44 280.05C266.134 281.641 265.133 282.301 263.428 281.686C262.509 281.356 262.823 280.351 261.8 280.658C260.699 286.903 258.47 292.9 257.456 299.171C256.068 307.754 256.274 316.036 257.401 324.627L256 326.129C259.365 338.729 262.585 351.479 263.202 364.529L270.089 364.447C289.233 361.49 309.257 352.8 323.766 340.771C326.572 338.444 330.038 334.057 333.525 333.067C339.439 331.39 336.523 342.034 335.855 344.795C328.778 374.027 296.231 401.9 267.106 413.007C261.944 414.975 257.017 415.92 251.8 417.39C251.444 417.491 251.317 418.31 250.892 418.675C248.831 420.453 246.746 421.341 244.406 422.685C244.277 422.76 243.889 422.673 243.668 422.734L243.688 423.072C244.048 423.091 244.455 422.974 244.798 423.007C249.581 423.446 251.422 428.567 255.08 429.994C257.485 430.934 260.923 430.727 263.583 431.705C266.316 432.711 270.538 435.761 268.661 438.808C266.685 442.016 259.843 439.259 256.926 438.503C255.977 444.925 245.959 441.909 241.752 440.122C241.317 444.06 236.334 444.483 232.954 444.027C229.447 443.557 223.52 440.275 220.436 438.467C215.882 435.798 217.574 430.442 218.55 426.354C205.09 422.582 195.438 411.705 190.842 399.704C188.871 400.652 185.627 400.242 183.241 400.166C178.493 400.016 173.695 399.561 168.987 399.003C161.264 402.956 160.614 411.37 154.443 416.778C152.29 418.666 150.727 417.928 151.605 421.605C151.941 423.014 153.618 424.689 154.02 426.398C154.519 428.523 154.418 430.834 153.168 432.736C150.664 436.547 147.285 435.66 143.326 436.112C134.585 437.103 120.029 439.332 111.67 438.186C110.161 437.98 108.944 437.028 107.981 436.922C105.986 436.702 102.165 437.915 100.767 436.793C97.45 434.124 100.532 429.723 102.944 427.534C106.935 423.914 113.785 423.181 117.916 419.543C114.22 417.281 111.205 414.242 108.759 410.836C98.9548 397.195 97.6279 381.545 99.458 365.502C99.6937 363.437 100.912 359.401 100.745 357.721C100.49 355.176 97.8263 349.786 97.1118 346.486C92.2125 323.885 99.9135 300.823 110.535 280.591C107.143 280.999 103.625 278.957 100.448 278.521C95.3279 277.82 88.0558 278.303 83.1827 276.839C76.4925 274.827 71.7269 270.71 66.4862 266.869C61.9645 263.554 57.1233 260.602 53.0037 256.822L52.4624 256.855C52.406 257.664 51.9516 258.278 51.0142 257.812C49.7351 257.178 47.5741 251.848 46.2524 250.351C44.1486 247.966 39.5012 245.445 36.8851 242.953C30.423 236.797 28.2657 230.802 27.97 222.23C27.7383 215.487 28.5053 208.926 32.5945 203.11L17.4029 153.085C18.2125 149.9 20.2872 149.13 23.4864 148.757C28.3549 148.192 33.5988 148.233 38.533 147.848C43.4672 147.464 51.8713 145.602 56.1553 146.931C59.0846 147.842 60.201 150.173 61.17 152.662C62.7679 156.774 63.6908 161.19 65.1347 165.355C68.8022 175.926 72.7913 186.392 76.3584 196.998C77.1937 199.48 77.8949 202.061 79.0482 204.435C80.1827 208.178 81.4026 211.92 82.7117 215.611C83.0585 216.589 83.4359 217.786 84.0144 218.641C84.9034 222 86.4185 224.982 86.4806 228.509C86.6268 236.646 76.9717 236.325 70.552 236.052C71.4431 237.325 73.3071 237.858 74.7977 238.375C80.3169 240.291 87.4989 241.015 93.3733 240.471C95.0143 240.32 97.9076 239.024 99.968 238.746C109.89 237.406 121.379 238.497 129.82 232.155C130.441 231.686 133.858 228.63 134.174 228.202C134.426 227.857 134.612 227.608 134.435 227.172L126.89 222.236C127.197 223.735 127.177 228.602 125.653 229.392C123.014 230.765 113.867 229.416 111.366 227.516C109.506 226.098 108.914 223.688 107.908 222.716C107.519 222.34 105.078 221.355 104.241 220.696C103.897 220.426 101.6 218.132 101.478 217.915C101.412 217.795 100.644 215.566 100.597 215.357C99.9379 212.297 102.085 208.296 103.709 205.689C101.356 205.148 98.4923 204.477 96.5083 203.157C94.0933 201.548 92.5237 198.513 89.2465 197.946L89.0446 196.602C95.5942 193.247 101.839 192.504 108.975 194.482C114.334 195.967 119.829 198.541 125.35 200.212C130.036 201.631 134.906 203.047 139.737 203.994C141.608 204.361 146.259 205.37 147.88 205.391C149.794 205.413 150.033 203.728 151.19 202.593C153.794 200.034 156.728 197.778 160.129 196.178C155.817 191.999 151.588 187.769 148.138 182.922C147.889 182.937 147.644 182.952 147.396 182.967L149.866 180.743C150.346 180.482 150.84 180.24 151.308 179.964C154.687 179.839 153.758 179.456 154.521 177.694C154.605 177.499 155.099 176.692 155.2 176.616C155.422 176.45 156.131 176.42 156.632 175.999C157.239 175.49 158.689 173.879 159.117 173.612C159.176 173.577 160.097 173.226 160.209 173.2C165.493 172.011 172.316 172.17 177.413 170.137C180.398 168.947 188.494 161.89 190.274 159.264C190.249 159.916 189.978 161.187 189.679 161.719C188.293 164.188 184.43 166.896 182.299 168.91C183.286 169.077 184.57 168.565 185.545 168.302C196.338 165.397 208.426 160.806 217.526 154.63C224.658 149.79 228.877 142.518 239.144 144.853C240.384 145.135 241.439 145.904 242.735 146.034C244.97 147.881 249.079 150.594 248.799 153.78C248.818 154.08 248.054 154.054 247.89 154.001C247.744 153.956 246.381 152.122 246.065 151.704C244.318 149.395 244.426 149.316 241.731 147.823C241.268 147.566 241.29 147.482 240.576 147.203C239.126 146.632 237.731 146.001 236.039 146.098C236.678 167.765 223.751 190.855 201.276 199.013C201.028 199.025 200.783 199.044 200.534 199.059C200.126 199.081 199.593 199.028 199.442 199.471C199.209 199.457 198.938 199.502 198.7 199.517C197.863 199.577 197.666 199.922 197.608 199.929C181.819 202.097 168.763 196.347 161.252 183.276C160.037 181.163 159.35 178.482 158.208 176.578C156.507 173.744 156.454 179.909 155.737 180.647C155.618 180.768 153.019 182.071 152.663 182.214C151.999 182.479 150.409 182.069 150.752 182.923C151.139 183.892 154.83 187.935 155.813 188.975C156.909 190.138 161.215 194.445 162.391 194.899C162.954 195.118 164.723 195.216 164.872 195.413C165.095 195.71 164.828 196.528 165.209 197.069C165.445 197.403 170.048 199.926 170.841 200.325C187.717 208.81 206.123 207.576 223.558 200.762C231.043 197.835 241.359 192.043 246.299 186.055C254.32 176.324 258.408 160.552 256.629 148.509C253.76 129.093 237.7 126.621 224.938 141.412C223.793 142.74 222.281 145.559 221.187 146.51C220.711 146.926 220.428 147.168 219.71 147.095C218.598 146.183 224.665 139.08 225.667 138.087C229.297 134.476 234.454 130.642 239.914 130.311C239.988 129.115 237.714 129.65 236.845 128.955C234.862 127.375 238.517 125.452 239.168 124.141C236.865 123.639 233.977 124.741 232.078 123.313C231.5 122.011 234.409 118.185 235.051 116.675C236.061 114.306 236.759 111.528 236.769 108.966C236.313 107.599 229.589 110.667 228.156 109.03C227.26 107.903 228.836 103.898 228.872 102.131C228.898 100.833 228.832 99.4166 228.224 98.243C226.084 97.7876 216.88 102.659 215.839 101.334L216.574 95.8055C210.677 96.5975 205.383 97.4699 199.848 99.5869C197.016 100.67 193.936 103.714 193.859 98.9297C187.786 100.867 181.667 103.936 177.491 108.562C177.25 108.641 177.009 108.842 176.77 108.952C175.013 109.218 173.337 109.86 171.639 110.303C171.542 109.725 171.905 109.076 171.904 108.559C173.551 104.655 176.929 101.278 180.496 98.765C180.863 98.5048 183.373 96.5952 183.188 98.0265C182.948 99.8574 174.518 105.318 174.505 108.4C175.421 107.63 176.23 106.608 177.15 105.832C181.552 102.12 188.598 97.9933 194.545 97.1887C196.273 96.9562 196.735 97.08 196.445 98.7587C198.934 97.554 201.571 96.4322 204.266 95.6935C206.572 95.0611 215.596 93.2345 217.336 94.0884C217.586 94.2094 217.849 94.2631 217.933 94.5622L217.897 99.1794C218.456 99.6587 226.649 95.2966 228.78 96.0061C232.565 97.2673 230.668 104.962 229.975 107.768C231.983 107.246 237.831 105.481 238.552 108.115C239.696 112.286 236.212 117.729 234.921 121.631C236.394 121.705 242.35 121.829 243.015 122.856C244.268 124.802 239.738 125.64 239.752 127.551C240.855 127.762 244.791 128.539 245.443 129.098C245.959 129.538 245.723 130.364 246.288 130.777C246.806 131.154 248.766 131.741 249.697 132.33C254.652 135.463 257.745 142.621 258.505 148.004C260.593 162.745 255.25 179.117 244.711 190.307C244.437 191.034 246.42 190.716 247.207 191.346C249.811 193.421 244.433 193.145 243.308 193.407C239.465 194.305 234.268 198.5 231.989 201.457C221.641 214.883 228.624 230.155 209.667 238.738C205.046 240.831 198.32 243.487 193.585 240.591C190.411 238.649 185.488 233.068 182.351 230.388C177.34 226.111 171.203 220.639 165.872 216.889C163.348 215.113 160.663 213.553 158.076 211.873C151.472 207.583 144.194 207.249 136.655 205.387C130.459 203.855 124.301 201.934 118.42 199.59L117.706 200.645C111.205 198.479 105.296 205.05 103.434 210.185C101.572 215.319 103.063 216.971 107.561 219.945C107.281 217.388 109.048 214.827 110.666 212.842C111.797 211.451 115.501 207.547 117.397 207.983L118.052 208.76C113.789 212.73 106.718 218.51 111.933 224.343C115.007 227.781 120.75 227.264 125.141 227.161C124.37 225.334 124.541 223.115 125.917 221.591L121.115 222.225C120.801 221.172 121.68 220.133 122.43 219.383L124.614 218.559C124.973 218.559 125.421 218.446 125.728 218.491C125.718 219.226 126.919 219.698 127.517 220.093C133.445 223.993 139.395 227.924 146.08 230.307C148.651 231.224 151.614 234.91 153.388 236.931C158.548 242.809 162.739 249.43 167.841 255.299C167.98 255.503 168.1 255.739 168.254 255.964C168.581 256.448 168.92 256.748 169.059 256.952C170.021 258.37 171.217 259.888 172.301 261.245C173.045 262.175 172.734 261.617 173.086 261.887C173.229 261.996 174.846 264.135 175.227 264.609C178.572 268.734 181.815 272.938 185.193 277.036C185.865 277.077 185.484 276.267 185.4 275.904C184.692 272.933 182.767 269.948 183.257 266.793L188.575 277.704C189.794 278.856 198.594 282.526 200.436 282.854C204.339 283.547 210.694 279.862 212.338 280.256C214.436 280.758 211.435 284.035 210.618 284.643C215.42 284.508 219.624 281.226 223.81 279.11C224.678 278.67 226.824 278.111 227.237 277.828C227.597 277.581 227.629 276.255 228.773 276.967L229.111 279.533L247.898 265.163C249.884 264.226 250.38 266.126 250.646 266.12C255.058 260.559 257.766 253.047 259.121 246.263C259.615 243.789 260.828 230.846 262.03 229.986C262.474 229.649 262.852 230.072 263.155 230.117C262.727 237.31 261.949 244.974 260.124 251.989C259.081 255.996 254.994 266.77 251.581 269.178C250.17 270.174 248.514 270.25 248.356 268.339L247.808 268.373C243.869 271.447 240.076 274.745 236.008 277.669C234.607 278.677 229.211 282.674 227.866 282.633C225.171 282.548 227.566 279.907 226.822 278.643C225.354 280.616 222.908 281.469 220.984 282.966C221.545 283.692 221.901 284.542 222.108 285.41C224.415 295.032 221.656 307.898 218.185 317.176C213.517 329.665 202.659 342.184 193.507 352.199C192.223 353.602 190.345 354.744 189.679 356.579C187.036 359.568 185.883 363.781 185.505 367.548L184.395 367.616C183.432 356.337 194.14 349.076 201.042 341.211C209.774 331.257 215.828 321.418 218.98 308.835C221.07 300.498 222.182 292.259 219.502 283.928C216.093 285.449 212.07 287.099 208.263 286.369C207.14 285.09 210.017 283.529 210.471 282.411C207.434 283.196 204.29 284.428 201.091 284.358C197.745 284.283 191.945 282.458 189.659 280.227L189.775 281.95C188.958 283.179 186.495 280.848 185.734 280.299C180.487 276.522 175.167 269.383 170.98 264.273C166.937 259.338 163.929 253.462 158.111 250.29C156.174 249.233 153.93 248.581 151.972 247.569C148.341 245.69 145.484 243.231 142.879 240.246C142.033 240.098 142.151 241.191 142.02 241.335C118.218 267.401 93.9832 305.364 98.5571 340.736C103.573 379.533 139.925 395.73 178.301 397.996C182.206 398.226 186.169 398.104 190.002 398.367C186.703 388.343 186.062 378.817 187.801 368.444L188.543 368.398C188.082 372.192 187.427 377.513 187.839 381.225C187.946 382.197 188.207 382.66 188.336 383.267C188.574 386.59 189.004 388.317 189.955 391.46C193.523 403.261 204.44 418.783 217.45 422.896C222.872 424.609 224.551 422.845 229.654 422.203C241.192 420.752 247.062 422.374 253.076 411.324C258.878 400.661 257.94 391.482 259.043 380.251C259.51 375.487 260.962 370.679 261.029 365.86C261.098 360.962 260.122 354.625 259.297 349.735C257.865 341.242 255.189 332.981 253.4 324.57C253.499 323.173 254.987 323.37 255.081 323.006C255.296 322.163 254.543 320.361 254.437 319.299C253.286 307.525 255.261 298.76 257.724 287.468C258.818 285.807 258.815 283.588 259.242 281.847C260.161 278.105 260.102 274.688 264.285 279.12C264.455 272.514 263.582 265.892 263.823 259.284C264.071 252.502 265.538 245.769 266.247 239.041C266.415 237.442 265.926 232.401 267.351 232.076L269.257 232.517C268.817 223.035 266.209 213.806 263.481 204.75L264.301 204.189C266.556 204.793 267.126 207.18 268.896 208.358C268.014 204.551 266.679 200.773 266.009 196.918C265.697 195.118 264.927 191.97 265.924 190.391C267.304 188.205 270.435 190.466 272.298 190.875C273.064 189.985 266.029 172.91 265.261 170.234C262.2 159.588 266.089 162.782 273.24 166.63C273.514 166.696 273.435 166.355 273.403 166.1C272.825 161.863 268.365 155.42 267.039 150.784C265.692 146.077 265.334 140.793 264.416 135.952C264.033 133.928 262.101 128.265 262.494 126.764C262.605 126.339 262.943 126.008 263.365 125.82L267.658 127.24C266.093 121.986 263.98 116.768 260.967 112.097C260.333 111.108 257.269 106.713 256.585 106.254C255.256 105.359 248.467 106.709 248.25 107.908C251 112.425 251.221 117.869 249.695 122.812C247.509 119.304 247.404 114.848 245.802 110.958C245.244 109.601 244.262 108.9 244.213 108.77C244.031 108.303 244.668 105.991 244.31 104.831L245.191 100.976C248.756 95.9688 255.043 92.8486 260.844 90.4301C267.741 87.5547 275.243 86.2587 282.312 83.509C287.284 81.5755 292.663 79.2399 296.931 76.1798C297.922 75.8497 299.05 76.5858 298.897 77.6506C297.814 78.1005 292.775 84.2505 291 85.7253C285.784 90.0541 279.029 93.0762 272.395 94.9942C264.324 97.3298 255.002 97.6373 249.105 104.021C251.345 103.706 253.222 103.173 255.565 103.108C264.636 102.87 269.079 105.343 278.795 102.2C291.939 97.947 303.667 88.145 306.198 75.1276C306.263 74.794 306.791 74.3243 306.481 73.7283C303.708 74.9187 300.748 73.9018 297.905 73.5623C275.743 70.9251 249.732 79.9309 242.986 101.454C242.506 102.989 242.774 104.969 240.578 104.71C240.542 103.667 240.309 102.489 240.421 101.474C240.975 96.5022 244.032 92.0867 247.013 88.0817C241.722 86.6717 235.394 84.8182 241.249 79.1063C239.469 79.266 237.653 79.2408 235.871 79.4355C233.946 79.6452 226.209 81.5642 225.139 80.7865C224.453 80.2865 224.631 76.8334 224.657 75.8017C224.742 72.1165 225.585 68.48 226.036 64.8391C221.375 68.6394 217.393 73.0196 213.722 77.6374C212.501 77.8959 207.647 74.3895 206.83 74.3254C205.47 74.2153 206.616 77.692 203.753 77.5978C195.547 75.4946 187.325 71.6808 178.612 72.23C180.581 74.6991 185.776 80.6411 179.724 81.8008C173.101 83.0683 167.136 82.1814 160.927 85.6804C159.183 86.6652 157.908 88.1695 156.21 89.18C156.576 90.9706 159.096 91.7292 158.706 93.8292C161.8 92.7428 165.609 90.4526 168.797 89.8296C170.438 89.5104 171.706 90.2505 170.243 91.3575C169.169 92.1713 164.976 93.1633 163.193 94.0775C159.953 95.737 156.535 98.6183 154.321 101.35C157.083 100.135 169.089 96.9465 171.268 98.0588C172.63 98.752 169.024 101.084 168.48 101.678C168.115 102.078 164.456 106.39 164.7 106.585L171.774 107.606C171.949 107.776 171.851 108.02 171.877 108.221C169.178 108.9 165.907 108.273 163.084 108.094L162.561 107.296L168.382 99.8013C166.558 100.252 163.657 100.249 162.033 100.97C160.53 101.635 159.52 104.566 158.481 105.903C156.746 108.14 154.379 109.381 151.925 110.831L157.579 112.038L159.514 113.124C159.087 113.233 158.28 113.83 157.701 113.926L156.959 113.971C151.059 111.423 142.977 113.242 139.353 118.504L138.632 118.894C138.058 118.998 137.302 118.874 136.777 119.007L136.79 119ZM119.877 67.863C124.507 78.48 124.876 88.0709 136.407 94.4904C139.707 96.3265 143.329 98.0003 147.3 98.2802C147.694 98.3068 148.669 98.4912 148.537 97.9002C137.059 95.9339 136.918 83.9106 131.631 76.2404C130.75 74.9631 129.3 73.2673 128.157 72.1899C126.656 70.7793 122.114 68.8069 123.733 66.9455L127.777 69.1069C129.652 71.2616 132.27 71.9413 133.803 73.5971C139.784 80.0457 143.506 89.7199 151.902 93.8209C153.825 94.7619 156.45 96.4428 157.998 94.2117C153.038 92.0525 151.569 86.2564 149.127 82.0793C143.227 71.9901 134.082 66.2138 122.532 62.5181C120.588 61.8954 118.641 61.181 116.508 61.508C117.77 63.5291 118.935 65.6988 119.877 67.863ZM150.413 98.1277L148.932 98.2183L148.953 98.5562L150.452 98.8131L150.41 98.1279L150.413 98.1277ZM80.1304 234.061C83.0676 233.371 84.8068 230.469 84.5708 227.786L58.1674 149.94C56.9636 148.47 54.9286 148.103 53.0582 147.967L21.3677 150.427L19.6209 152.423C22.9558 152.536 26.1615 151.544 29.4168 151.138C36.0866 150.305 45.3505 148.981 51.8897 149.921C53.5477 150.159 55.3869 150.398 56.4043 151.781L81.8701 227.651C82.3953 229.644 82.089 231.507 80.9482 233.244C80.6294 233.73 80.0418 233.563 80.1268 234.059L80.1304 234.061ZM52.9535 234.343L78.081 234.184C81.7726 231.92 81.6258 229.298 80.6249 225.673C77.7894 215.409 73.0378 204.932 69.5599 194.781C64.7552 180.757 60.7927 166.483 55.6763 152.558C55.1331 151.555 53.2341 151.456 52.0421 151.24C44.6687 149.901 38.8752 151.095 31.7096 152.035C27.7135 152.561 23.697 153.035 19.6913 153.461L34.0867 199.912C34.6604 200.02 34.6945 199.739 34.9953 199.518C36.2021 198.635 37.3084 197.116 38.7936 196.093C42.1937 193.755 47.305 192.133 51.4575 191.594C51.8381 193.792 50.3731 195.758 49.6005 197.761L50.7336 198.412C51.2507 199.825 46.3895 206.706 46.8189 207.079C51.062 204.445 56.7217 203.243 59.7459 207.993C60.3736 208.982 60.7906 211.552 60.9358 211.692C61.0449 211.8 63.0012 212.054 63.9425 212.751C70.052 217.277 64.417 224.969 60.0546 228.555L52.9565 234.336L52.9535 234.343ZM187.955 169.768L168.115 174.26C170.401 175.438 172.93 179.293 174.977 180.252C175.487 180.49 175.87 180.66 176.464 180.487L186.406 176.341L187.951 169.765L187.955 169.768ZM191.197 198.575C191.295 193.364 196.353 191.936 201.138 193.126C202.515 193.467 205.022 195.183 205.398 195.227C205.807 195.278 208.185 194.21 208.436 193.909C209.006 193.225 208.603 191.712 208.856 190.657C209.397 188.386 211.917 187.138 214.196 186.856C215.393 186.707 217.169 187.086 217.789 186.893C218.138 186.783 220.404 184.403 220.662 183.975C221.521 182.557 220.39 182.553 220.038 181.373C219.578 179.829 219.824 177.992 221.164 176.892C215.33 174.511 208.291 173.839 202.596 177.03C197.684 179.784 195.79 183.625 191.984 186.64C191.505 187.022 190.379 187.667 190.107 186.733C189.726 185.419 196.081 178.998 197.387 177.834C191.652 177.65 186.192 180.938 183.162 185.298C182.665 186.013 180.857 189.065 180.957 189.702C181.069 190.412 182.454 191.094 182.998 191.996C183.994 193.653 184.097 196.055 184.508 197.919L191.191 198.582L191.197 198.575ZM221.854 181.855C222.457 182.382 225.028 178.437 225.279 177.962C226.461 175.728 223.076 176.249 221.976 177.87C220.982 179.328 221.591 180.34 221.854 181.855ZM50.0721 193.409L48.0331 193.534L47.8908 194.224L49.8028 195.15L50.0721 193.409ZM34.8502 236.836C38.9112 242.784 44.4848 245.03 48.0907 249.516C48.8343 250.443 50.6185 255.031 50.9052 255.195C51.0822 255.295 51.7214 254.853 52.1056 254.877C53.2036 254.952 62.3391 262.305 64.0455 263.557C65.7697 264.821 72.5131 270.269 73.599 270.76C74.4844 271.159 75.7213 271.159 76.9501 271.642C78.9105 272.409 81.2015 274.615 82.4152 275.073C83.8071 275.596 94.7121 276.691 96.3797 276.583C97.3156 276.522 97.7891 275.885 98.451 275.87C100.604 275.817 105.711 278.037 108.171 278.479C108.762 278.586 110.662 278.815 111.181 278.808C112.393 278.791 112.44 277.384 112.91 276.63C121.43 262.995 130.238 250.031 141.659 238.242L142.025 231.655L136.538 228.59C135.71 228.571 134.838 230.241 134.313 230.748C123.744 240.952 114.819 238.943 101.213 240.724C99.0302 241.009 96.7639 241.887 94.6082 242.171C88.3617 242.997 78.3576 242.722 72.357 240.924C69.2244 239.984 65.4939 236.758 62.7841 236.305C60.951 235.999 51.5834 236.465 51.1472 235.981C50.9676 235.783 50.7118 234.952 50.7282 234.663C50.7939 233.391 58.0942 227.955 59.5539 226.516C62.2704 223.839 65.475 220.261 64.3506 216.349C63.7947 214.411 62.8425 212.923 60.4193 213.134C54.8899 213.619 48.2325 220.907 45.3511 225.02C45.1121 225.358 45.0295 225.795 44.9957 226.193C44.1074 226.361 44.1581 226.184 44.2836 225.444C44.4338 224.547 45.2693 222.401 45.8418 221.65C47.1005 219.997 51.3508 215.975 53.1177 214.697C54.8845 213.419 56.693 212.488 58.8771 211.885C59.3024 211.298 58.4709 210.049 58.1395 209.493C56.5826 206.887 54.7838 206.192 51.6315 206.94C49.9845 207.329 45.4899 210.375 44.1035 211.559C41.8956 213.447 40.4457 216.385 39.3375 218.935L38.5884 218.81C38.5224 218.066 38.531 217.314 38.4515 216.574C39.5867 214.967 40.0045 213.141 41.3517 211.595C41.8019 211.079 44.1693 209.397 44.2551 209.236C44.4509 208.863 44.2279 207.786 44.4853 206.968C45.1871 204.757 49.0744 199.996 49.2045 198.382C49.2748 197.521 48.5637 197.178 48.0351 196.637C43.3772 191.879 36.1413 200.601 34.0476 204.298C28.507 214.089 28.4997 227.535 34.8464 236.83L34.8502 236.836ZM99.8001 202.454C99.7064 203.436 104.19 204.683 104.538 204.611C106.836 201.244 110.651 198.088 115.197 198.399C114.662 197.808 113.327 197.49 112.516 197.185C107.837 195.423 101.442 193.552 96.5798 195.729C94.907 196.478 93.9227 197.144 94.6152 198.911C95.3076 200.679 97.7726 202.544 99.8003 202.457L99.8001 202.454ZM210.218 192.586L215.576 188.978C215.581 188.046 212.568 189.064 212.042 189.343C210.755 190.03 210.352 191.272 210.217 192.583L210.218 192.586ZM180.669 192.42C179.199 191.236 174.075 191.02 174.489 193.55C174.712 194.909 180.654 197.027 182.191 197.411C182.534 196.921 181.312 192.936 180.669 192.417L180.669 192.42ZM203.001 196.48C203.46 195.834 200.863 194.769 200.39 194.643C196.854 193.693 193.112 194.743 192.696 198.493C196.258 198.522 199.665 197.537 203 196.477L203.001 196.48ZM170.571 202.275C170.514 202.228 169.555 202.093 169.081 201.824C167.977 201.201 162.586 197.641 161.977 197.688C157.582 199.456 153.951 202.703 151.071 206.223C153.305 206.111 158.004 209.466 159.601 209.165C160.547 208.987 165.396 205.314 166.735 204.516C167.921 203.809 168.867 203.517 170.065 202.99C170.381 202.854 171.277 202.859 170.571 202.272L170.571 202.275ZM168.226 206.558C165.945 207.858 163.833 209.423 161.571 210.759C162.739 213.48 166.074 213.767 168.597 215.512C173.545 218.93 179.44 224.246 184.09 228.212C187.068 230.752 192.482 236.757 195.508 238.404C198.813 240.208 202.368 239.458 205.881 238.571C210.443 237.417 213.221 235.741 216.189 232.307C224.143 223.094 221.492 209.881 229.318 200.406C213.888 207.5 197.058 210.419 180.302 206.174C178.622 205.747 175.182 204.192 173.816 204.149C171.946 204.089 169.712 205.712 168.223 206.561L168.226 206.558ZM159.249 248.566C155.798 244.597 152.871 239.543 149.309 235.726C148.925 235.315 146.053 232.594 145.804 232.441C145.336 232.153 145.021 232.09 144.464 232.2C141.728 239.369 149.738 243.956 155.314 247.016L159.245 248.566L159.249 248.566ZM333.702 341.542C334.244 339.233 335.117 336.919 335.136 334.547C331.304 334.579 330.475 337.508 328.204 339.815C326.783 341.261 324.815 342.558 323.428 344.072C325.923 344.687 328.689 345.284 330.328 347.276C330.218 347.711 330.501 348.482 330.434 348.997C329.926 349.139 329.692 348.89 329.3 348.724C328.177 348.244 327.501 347.202 326.21 346.65C325.203 346.22 322.554 345.584 321.508 345.749C319.085 346.129 311.527 353.381 308.005 353.834C307.53 354.503 311.357 355.908 312.061 356.353C315.075 358.267 316.797 360.653 317.566 363.953C318.22 366.778 317.906 369.349 317.704 372.236C323.92 364.882 329.592 355.907 332.447 346.889C333.016 345.086 333.28 343.355 333.705 341.545L333.702 341.542ZM101.135 370.287C100.061 390.487 105.774 419.783 132.564 421.224C139.917 421.62 150.69 418.77 155.524 413.07C159.629 408.229 159.91 404.225 165.395 399.277C165.648 399.049 166.097 399.247 165.817 398.462C140.425 395.531 113.768 383.657 102.81 361.202C102.235 361.297 102.269 361.745 102.16 362.139C101.597 364.17 101.248 368.116 101.135 370.287ZM315.176 367.551C315.171 367.25 315.525 366.728 315.464 366.005C315.325 364.353 314.267 361.635 313.177 360.304C312.088 358.973 307.388 355.755 305.658 355.696C304.392 355.653 298.327 358.896 296.523 359.624C291.405 361.693 286.151 363.552 280.732 364.829L286.426 367.095C291.517 369.268 298.6 376.531 299.64 381.633C300.07 383.737 300.665 388.88 297.899 389.686C297.719 387.479 298.586 385.73 298.258 383.446C297.281 376.58 289.392 369.671 282.632 367.406C276.876 365.477 273.228 366.438 267.448 367.02L262.954 366.605L262.603 371.596C262.771 372.226 263.807 372.448 264.075 372.755C268.52 377.839 270.764 390.599 270.408 397.071C270.376 397.66 269.388 401.387 268.745 399.544C268.318 398.318 268.567 395.903 268.378 394.435C267.624 388.595 266.608 382.258 263.957 376.908C263.555 376.099 263.249 374.507 261.954 374.615C260.692 380.233 261.22 385.95 260.757 391.617C260.367 396.405 258.932 403.168 257.274 407.723C256.481 409.902 255.04 411.92 254.313 414.12C270.561 409.832 285.904 401.33 298.697 391.165C301.965 388.569 313.507 378.582 314.548 375.39C315.325 373.006 315.2 370.022 315.166 367.558L315.176 367.551ZM147.059 420.682C138.536 423.784 131.578 424.159 122.813 421.738C121.944 421.496 120.403 420.491 119.769 420.675C115.293 424.534 106.397 425.672 102.942 430.13C101.562 431.914 100.608 433.525 102.203 435.463L107.901 435.177C110.484 432.718 113.757 429.64 117.791 429.389C117.778 429.796 118.034 430.119 117.624 430.458C116.691 431.238 114.392 432.092 113.055 433.191C112.19 433.9 111.475 434.718 110.721 435.521C111.249 436.227 112.004 435.839 112.601 435.926C115.783 436.384 119.343 435.827 122.643 435.657C125.726 435.497 128.845 435.325 131.923 435.089C136.653 434.723 143.639 434.533 148.054 433.762C151.614 433.142 152.504 430.209 151.765 427.288C151.125 424.753 148.326 422.62 149.24 419.864C148.999 419.672 147.507 420.521 147.056 420.685L147.059 420.682ZM223.386 426.029C222.302 426.184 221.138 426.1 220.047 426.237C221.059 429.712 217.642 433.674 221.42 436.514C222.262 437.147 222.866 437.697 224.102 437.732C226.735 439.552 229.266 441.492 232.635 442.158C234.502 442.525 237.555 442.655 238.85 441.321C241.444 438.648 235.59 435.178 236.68 433.495C238.103 431.303 240.896 437.344 241.236 437.72C242.9 439.551 250.957 441.118 253.303 440.091C255.938 438.934 253.535 436.517 255.62 435.971C257.012 435.607 264.098 439.287 266.579 437.893C265.447 433.192 259.261 433.837 255.391 432.955C251.59 432.087 249.173 428.562 246.498 426.158C245.406 425.176 243.368 424.312 243.316 423.079C237.162 425.024 230.617 424.664 224.259 425.611C223.785 425.681 223.446 426.016 223.382 426.026L223.386 426.029Z" fill="#0B0908"/>
<path d="M96.8423 129.737C90.3821 137.568 91.7344 149.949 93.8984 159.011C94.3722 161.001 96.0053 167.139 96.97 168.611C99.8187 172.95 110.015 174.754 115.141 175.204C117.113 175.378 119.226 175.128 121.009 175.279C126.051 175.706 131.094 176.719 136.232 176.538C138.21 176.968 139.746 181.464 141.422 182.455C142.95 183.36 145.666 183.063 147.409 182.957C147.657 182.942 147.902 182.927 148.151 182.911L146.136 183.716C140.211 188.615 133.722 192.917 127.701 197.701C126.85 198.374 125.443 199.107 125.363 200.199C119.842 198.527 114.347 195.954 108.988 194.469C101.852 192.49 95.6071 193.234 89.0575 196.589L89.2593 197.933C92.5331 198.5 94.1027 201.535 96.5211 203.143C98.5051 204.464 101.365 205.135 103.722 205.676C102.098 208.282 99.9507 212.284 100.609 215.343C100.653 215.553 101.425 217.781 101.49 217.901L86.4933 228.493C86.4311 224.966 84.9161 221.984 84.0271 218.625C83.8047 217.782 84.1162 215.335 82.7244 215.595C81.4153 211.903 80.1954 208.162 79.0608 204.418C78.667 203.12 78.5575 201.666 78.0328 200.183C77.6894 199.205 77.1078 197.742 76.3677 196.982C72.8007 186.379 68.8149 175.91 65.144 165.339C63.7 161.173 62.7771 156.758 61.1792 152.646C60.2103 150.157 59.0936 147.823 56.1645 146.915C51.8839 145.586 43.286 147.462 38.5422 147.832C33.7984 148.201 28.3606 148.173 23.4956 148.74L96.8391 129.74L96.8423 129.737Z" fill="#AFE3FC" fill-opacity="0.52"/>
<path d="M160.27 113.071L163.826 116.305L164.554 116.087L163.98 112.841L165.514 112.95C170.501 124.312 166.39 136.529 154.212 141.94C156.864 143.125 159.847 143.63 162.352 145.132C162.94 145.486 165.567 147.252 165.009 148.018C161.568 146.46 157.407 144.617 153.606 144.041C148.843 143.318 145.463 145.138 140.84 145.694C137.461 146.1 133.615 146.219 130.246 146.003C133.031 148.803 136.589 151.771 138.341 155.28C138.505 155.606 139.001 156.298 138.531 156.546C133.09 151.712 128.408 144.496 119.773 145.259C121.121 149.148 120.876 153.344 122.107 157.275C123.844 162.817 127.921 164.46 123.888 171.027C123.568 171.547 121.836 173.057 122.242 173.435C126.029 173.79 129.86 174.3 133.669 174.46C139.544 174.709 146.408 175.366 151.319 171.934L160.458 164.88C160.807 165.166 158.765 167.586 158.421 167.95C156.332 170.147 153.372 172.04 150.956 173.928C153.643 174.556 156.617 172.963 159.129 173.599C158.702 173.866 157.252 175.476 156.645 175.986C156.144 176.406 155.439 176.437 155.213 176.603C154.906 175.832 154.215 175.988 153.519 175.996C148.874 176.033 144.2 176.985 139.563 176.527L142.902 181.448L149.876 180.733L147.405 182.957C145.662 183.064 142.947 183.36 141.419 182.455C139.742 181.464 138.206 176.968 136.229 176.538C131.091 176.716 126.047 175.706 121.005 175.279C119.223 175.129 117.109 175.375 115.137 175.204C110.012 174.754 99.8151 172.947 96.9666 168.611C96.0018 167.139 94.3688 161.001 93.895 159.011C91.731 149.949 90.3785 137.565 96.8389 129.737C97.1753 129.539 97.5433 129.412 97.9309 129.325C99.66 128.937 101.27 128.277 103.083 128.318C109.66 128.471 115.784 138.828 119.148 143.256C123.534 143.352 127.807 144.504 132.204 144.498C138.077 144.491 144.967 143.46 150.456 141.479C150.804 141.353 151.3 141.371 151.164 140.926C140.869 141.147 133.178 133.057 134.939 123.535C135.204 122.108 135.976 120.831 136.066 119.39C136.395 119.306 136.662 119.033 136.787 119C137.312 118.867 138.071 118.991 138.642 118.887C137.205 123.212 136.002 126.332 137.962 130.773C141.215 138.153 151.231 141.124 158.475 136.618C162 134.424 165.804 127.51 165.723 123.571C165.634 119.269 161.305 115.972 157.708 113.922C158.286 113.827 159.097 113.229 159.521 113.12C159.743 113.066 160.037 113.13 160.263 113.075L160.27 113.071ZM164.77 116.596L164.791 116.941C165.026 116.812 165.019 116.695 164.77 116.596ZM100.126 130.306C99.3965 130.493 98.6226 131.08 98.0606 131.555C90.9846 137.531 94.4988 159.329 98.2411 166.546C100.368 170.647 107.972 172.232 112.512 172.833C117.803 173.533 120.68 174.212 122.592 168.666C124.003 164.579 121.309 162.82 120.001 159.49C117.961 154.286 118.938 148.321 116.677 143.195C114.555 138.387 106.585 128.646 100.127 130.309L100.126 130.306Z" fill="#4F88A4"/>
<path d="M136.069 119.39C135.983 120.831 135.207 122.108 134.942 123.535C133.181 133.056 140.876 141.147 151.167 140.925C151.3 141.371 150.807 141.353 150.46 141.479C144.967 143.46 138.077 144.491 132.207 144.498C127.81 144.504 123.537 143.352 119.151 143.256C115.788 138.828 109.663 128.47 103.087 128.318L103.066 127.974C113.864 125.82 125.306 122.121 136.069 119.39Z" fill="#AFE3FC" fill-opacity="0.52"/>
<path d="M103.066 127.974L103.087 128.318C101.273 128.277 99.6634 128.937 97.9343 129.325C98.9275 127.688 101.435 128.299 103.066 127.974Z" fill="#77592F"/>
<path d="M244.415 422.669L244.807 422.991C244.464 422.958 244.057 423.075 243.698 423.055L243.677 422.717C243.902 422.656 244.287 422.744 244.415 422.669Z" fill="#FCB38C"/>
<path d="M171.893 108.214C171.867 108.013 171.965 107.772 171.791 107.599L164.717 106.577C164.476 106.38 168.131 102.07 168.496 101.671C169.037 101.073 172.646 98.7447 171.285 98.0514C169.109 96.939 157.099 100.127 154.338 101.342C156.552 98.6109 159.974 95.7326 163.21 94.0702C164.992 93.156 169.186 92.164 170.26 91.3502C171.719 90.2434 170.451 89.5033 168.813 89.8222C165.626 90.4452 161.816 92.7355 158.722 93.8219C159.113 91.7218 156.593 90.9632 156.227 89.1726C157.925 88.1622 159.199 86.6578 160.943 85.6731C167.152 82.1709 173.118 83.061 179.741 81.7934C185.793 80.6338 180.598 74.6917 178.629 72.2226C187.342 71.6735 195.56 75.4843 203.77 77.5904C206.632 77.6846 205.49 74.2109 206.846 74.3181C207.664 74.3853 212.518 77.8886 213.739 77.63C217.41 73.0122 221.392 68.6321 226.052 64.8317C225.602 68.4726 224.758 72.106 224.673 75.7943C224.648 76.826 224.469 80.2791 225.156 80.7791C226.225 81.5568 233.963 79.6378 235.887 79.4281C237.666 79.2337 239.485 79.2586 241.266 79.0989C235.411 84.8108 241.739 86.6675 247.029 88.0744C244.052 92.0792 240.991 96.4917 240.438 101.467C240.326 102.482 240.558 103.659 240.595 104.703C240.599 104.763 240.222 105.144 240.304 105.859C240.631 108.688 243.338 109.939 245.819 110.948C247.42 114.837 247.529 119.293 249.712 122.802C251.237 117.855 251.017 112.414 248.266 107.898C248.484 106.699 255.272 105.348 256.601 106.243C257.285 106.702 260.346 111.098 260.984 112.086C263.997 116.761 266.11 121.975 267.675 127.23L263.382 125.81C262.959 125.994 262.621 126.328 262.51 126.754C262.117 128.255 264.049 133.921 264.433 135.942C265.354 140.783 265.712 146.064 267.056 150.774C268.382 155.409 272.838 161.85 273.419 166.09C273.455 166.344 273.534 166.685 273.257 166.62C266.102 162.769 262.216 159.577 265.277 170.224C266.046 172.899 273.08 189.975 272.315 190.865C270.452 190.459 267.323 188.194 265.94 190.38C264.943 191.959 265.714 195.107 266.025 196.908C266.695 200.762 268.03 204.541 268.912 208.348C267.146 207.172 266.572 204.785 264.318 204.179L263.498 204.739C266.226 213.799 268.834 223.028 269.274 232.507L267.368 232.065C265.942 232.39 266.432 237.432 266.263 239.03C265.551 245.758 264.087 252.492 263.839 259.274C263.598 265.882 264.471 272.5 264.302 279.11C260.115 274.678 260.177 278.094 259.258 281.837C257.748 283.406 258.145 285.591 257.74 287.458C255.281 298.749 253.306 307.514 254.454 319.289C254.556 320.351 255.309 322.152 255.098 322.996C255.007 323.359 253.516 323.162 253.417 324.56C255.206 332.973 257.881 341.235 259.313 349.724C260.139 354.618 261.111 360.955 261.045 365.85C260.978 370.668 259.526 375.477 259.059 380.241C257.957 391.475 258.894 400.651 253.093 411.314C247.079 422.363 241.209 420.742 229.67 422.193C224.564 422.835 222.888 424.602 217.467 422.886C204.457 418.772 193.54 403.25 189.971 391.449C189.668 388.891 189.272 386.281 188.742 383.759C188.675 383.44 188.358 383.291 188.353 383.257C188.306 382.607 188.498 381.549 187.855 381.214C187.443 377.502 188.098 372.182 188.56 368.388C188.753 366.798 189.593 364.667 188.986 363.179C190.045 359.324 191.522 355.715 193.527 352.191C202.679 342.176 213.537 329.657 218.205 317.168C219.115 317.296 218.949 316.698 219.195 316.198C222.207 310.143 224.331 304.26 225.767 297.7C226.718 293.357 227.647 288.881 226.267 284.544C229.377 284.772 231.437 283.591 233.954 282.178C238.886 279.41 243.558 275.191 248.244 271.988C249.474 271.149 250.926 270.809 252.307 269.758C260.409 263.579 264.365 249.102 265.199 239.783C265.365 237.928 265.857 233.461 265.491 231.889C265.125 230.317 264.523 230.306 263.168 230.11C262.861 230.065 262.487 229.641 262.043 229.979C260.841 230.836 259.628 243.782 259.134 246.256C257.779 253.039 255.068 260.553 250.659 266.113C250.393 266.119 249.898 264.222 247.912 265.155L229.124 279.526L228.786 276.96C227.642 276.247 227.611 277.574 227.25 277.821C226.837 278.103 224.691 278.666 223.823 279.102C219.637 281.219 215.434 284.5 210.631 284.636C211.451 284.028 214.449 280.751 212.351 280.248C210.707 279.855 204.352 283.54 200.449 282.847C198.608 282.519 189.807 278.852 188.588 277.696L183.27 266.786C182.78 269.941 184.705 272.926 185.413 275.897C185.5 276.259 185.881 277.07 185.206 277.029C181.829 272.931 178.585 268.724 175.24 264.602C174.856 264.131 173.239 261.989 173.099 261.88L173.047 261.205L172.315 261.237C171.227 259.881 170.034 258.363 169.072 256.944L169.009 255.912L168.267 255.957C168.113 255.732 167.993 255.495 167.854 255.292C162.574 247.516 153.329 232.174 144.73 227.331C140.897 225.172 129.574 219.028 125.737 218.484C125.431 218.439 124.983 218.552 124.624 218.552C124.501 218.55 124.313 218.102 123.501 218.405C122.81 218.666 122.785 219.029 122.44 219.376C121.693 220.126 120.811 221.169 121.124 222.218L125.927 221.585C124.551 223.108 124.38 225.328 125.151 227.154C120.76 227.258 115.017 227.774 111.943 224.336C106.728 218.506 113.799 212.726 118.062 208.753L117.406 207.976C115.511 207.543 111.807 211.444 110.676 212.835C109.058 214.82 107.291 217.381 107.571 219.938C103.073 216.964 101.581 215.312 103.444 210.178C105.306 205.043 111.218 198.472 117.716 200.638L118.43 199.583C124.311 201.927 130.466 203.852 136.665 205.38C144.204 207.242 151.482 207.576 158.086 211.866C160.672 213.546 163.358 215.106 165.882 216.882C171.21 220.632 177.346 226.105 182.361 230.381C185.497 233.057 190.421 238.642 193.594 240.584C198.33 243.48 205.056 240.827 209.677 238.731C228.633 230.145 221.651 214.876 231.999 201.45C234.278 198.493 239.474 194.298 243.318 193.4C244.443 193.138 249.821 193.411 247.217 191.339C246.43 190.712 244.447 191.027 244.72 190.3C255.259 179.107 260.602 162.738 258.515 147.997C257.751 142.611 254.661 135.453 249.707 132.323C248.772 131.734 246.816 131.147 246.297 130.77C245.732 130.357 245.969 129.532 245.453 129.091C244.801 128.532 240.865 127.755 239.762 127.544C239.744 125.634 244.278 124.795 243.025 122.85C242.36 121.822 236.407 121.695 234.93 121.624C236.226 117.722 239.706 112.279 238.562 108.108C237.841 105.477 231.993 107.239 229.985 107.761C230.681 104.955 232.578 97.2602 228.79 95.9991C226.663 95.2894 218.47 99.6515 217.907 99.1724L217.942 94.5553C217.859 94.2593 217.596 94.2056 217.346 94.0815C215.606 93.2244 206.578 95.0544 204.276 95.6866C201.581 96.4252 198.944 97.5471 196.455 98.7517C196.745 97.0731 196.283 96.9461 194.555 97.1818C188.607 97.9832 181.562 102.113 177.159 105.825C176.24 106.601 175.435 107.623 174.515 108.393C174.528 105.311 182.958 99.8536 183.197 98.0196C183.387 96.588 180.873 98.4979 180.506 98.7581C176.939 101.274 173.561 104.651 171.914 108.552C171.914 108.441 171.907 108.318 171.893 108.208L171.893 108.214ZM233.975 246.068C232.973 245.226 229.663 250.599 228.701 251.06L222.67 256.085C225.213 255.755 227.823 253.808 229.682 252.195C230.526 251.465 235.12 247.032 233.975 246.072L233.975 246.068ZM246.277 288.85L245.159 289.071C244.477 289.598 245.43 297.508 245.417 299.09C245.354 306.216 243.155 313.438 241.133 320.256C241.653 320.04 242.113 318.96 242.339 318.471C244.853 313.046 247.712 300.306 247.398 294.493C247.356 293.707 246.555 288.989 246.28 288.85L246.277 288.85ZM229.87 325.095L231.283 317.753C230.072 319.234 229.494 322.401 229.155 324.346C229.026 325.089 228.982 325.26 229.87 325.095ZM233.738 363.895C232.602 357.216 232.325 350.187 233.608 343.519C233.152 343.718 232.638 344.25 232.396 344.646C230.622 347.54 230.728 358.038 231.451 361.354C231.689 362.455 232.195 364.303 233.741 363.892L233.738 363.895ZM219.623 370.636C219.451 371.125 218.332 371.71 218.618 372.424C219.223 372.14 219.728 371.513 220.015 370.957C222.253 366.655 221.776 359.201 223.477 354.507C220.799 354.801 221.484 359.231 221.168 361.276C220.774 363.83 220.404 368.391 219.623 370.636Z" fill="#C08F4B"/>
<path d="M142.043 241.331L145.257 247.667C149.565 252.401 155.646 253.668 160.015 258.57C167.187 266.616 169.758 276.633 179.818 283.232C183.246 285.478 185.867 285.429 189.511 286.626C199.371 289.861 199.316 290.58 210.339 289.697C211.686 289.589 213.396 290.071 215.014 289.376C215.853 290.063 214.044 303.724 213.667 305.763C209.62 327.681 186.718 343.105 182.568 364.951C180.914 373.658 181.594 381.528 183.555 390.115C180.282 390.511 177.042 390.218 173.788 389.914C141.539 386.883 112.917 369.306 99.5522 341.699C99.3017 341.179 99.5858 340.461 98.5737 340.729C93.9998 305.357 118.235 267.394 142.036 241.328L142.043 241.331ZM109.88 324.493C109.442 327.268 111.26 328 113.957 327.34C118.081 326.336 115.691 317.598 112.37 318.835C110.022 319.711 115.147 323.001 113.688 325.407C113.24 325.967 112.523 326.074 111.812 325.963C110.418 325.744 111.227 324.223 109.88 324.493Z" fill="#EEB79B"/>
<path d="M48.0353 196.64C47.238 196.676 47.0508 197.135 46.665 197.643C45.2734 199.468 38.3053 213.626 38.0679 215.498C37.9691 216.284 38.4429 216.489 38.4517 216.577C38.5278 217.317 38.5225 218.069 38.5886 218.813L39.3377 218.938C40.4493 216.388 41.8958 213.45 44.1037 211.562C45.4869 210.381 49.9815 207.336 51.6317 206.943C54.784 206.195 56.583 206.894 58.1397 209.496C58.4202 210.616 57.5442 210.093 56.8806 210.248C51.6496 211.478 47.0026 216.891 45.8452 221.649C45.2727 222.401 44.4372 224.547 44.287 225.444C44.1615 226.184 44.1108 226.361 44.9992 226.193C45.0329 225.794 45.1157 225.361 45.3545 225.02C48.2359 220.907 54.8967 213.618 60.4227 213.134C62.846 212.922 63.7947 214.411 64.354 216.348C65.4784 220.261 62.2772 223.839 59.5573 226.515C58.0974 227.952 50.7973 233.391 50.7316 234.663C50.7152 234.952 50.971 235.783 51.1506 235.981C51.5868 236.465 60.9546 236.002 62.7875 236.305C65.4973 236.757 69.2278 239.984 72.3604 240.924C78.361 242.721 88.3651 242.997 94.6116 242.17C96.7707 241.886 99.0336 241.009 101.217 240.723C114.822 238.94 123.747 240.948 134.316 230.748C135.218 231.187 135.877 231.914 136.687 232.473C137.754 233.213 139.2 233.001 138.456 234.631C132.774 240.608 128.181 247.355 123.042 253.711C121.686 255.392 120.053 256.965 118.69 258.646C115.561 262.508 112.109 267.956 108.686 271.37C108.37 271.684 108.151 272.071 107.613 272.098C98.9522 269.934 89.8162 270.835 81.0719 269.149C62.6984 265.608 49.8063 249.633 36.9733 238.085C36.3802 237.551 35.7499 236.854 34.8434 236.837C28.4967 227.542 28.5005 214.096 34.0446 204.305C36.1383 200.608 43.3708 191.886 48.0321 196.643L48.0353 196.64Z" fill="#C08F4B"/>
<path d="M177.505 108.562C181.677 103.935 187.8 100.866 193.872 98.9288C193.95 103.717 197.027 100.672 199.861 99.586C205.397 97.4691 210.69 96.5935 216.587 95.8047L215.853 101.333C216.897 102.657 226.098 97.7868 228.237 98.2422C228.846 99.4158 228.912 100.832 228.885 102.13C228.85 103.897 227.274 107.902 228.17 109.029C229.603 110.666 236.327 107.598 236.783 108.965C236.772 111.524 236.075 114.305 235.065 116.674C234.423 118.184 231.513 122.01 232.092 123.313C233.99 124.74 236.882 123.638 239.181 124.14C238.53 125.448 234.879 127.37 236.859 128.954C237.728 129.649 240.002 129.114 239.928 130.31C234.468 130.644 229.311 134.475 225.681 138.086C224.679 139.082 218.612 146.183 219.723 147.094C220.442 147.17 220.721 146.928 221.201 146.509C222.294 145.555 223.806 142.739 224.952 141.411C237.713 126.62 253.77 129.092 256.643 148.508C258.422 160.554 254.334 176.323 246.312 186.054C241.373 192.046 231.057 197.837 223.572 200.761C206.136 207.578 187.73 208.809 170.855 200.324C170.062 199.926 165.459 197.402 165.223 197.068C164.841 196.527 165.109 195.709 164.886 195.412C164.734 195.215 162.965 195.117 162.405 194.898C161.232 194.44 156.923 190.137 155.827 188.974C154.844 187.931 151.152 183.891 150.765 182.922C150.422 182.069 152.012 182.475 152.676 182.213C153.03 182.071 155.632 180.767 155.751 180.646C156.468 179.908 156.521 173.743 158.222 176.577C159.363 178.482 160.054 181.162 161.266 183.275C168.78 196.346 181.836 202.096 197.622 199.928L198.714 199.516C198.952 199.501 199.223 199.456 199.456 199.47C199.586 199.478 200.052 200.004 200.59 199.743L200.548 199.058C200.796 199.043 201.045 199.024 201.293 199.012C208.05 198.706 220.123 190.249 225.069 185.642C236.799 174.712 240.302 163.556 239.923 148.434C239.907 147.77 239.461 147.078 240.593 147.199C241.307 147.478 241.284 147.562 241.748 147.819C241.779 148.495 242.307 148.745 242.752 149.146C243.684 149.982 244.895 151.29 246.082 151.699C246.398 152.117 247.764 153.951 247.907 153.997C248.071 154.05 248.835 154.076 248.816 153.776C249.096 150.586 244.987 147.877 242.752 146.03C241.852 145.286 241.606 144.503 239.965 143.639C230.5 138.662 223.863 146.4 216.472 150.808C209.546 154.937 199.533 160.038 191.573 161.79C191.01 161.914 190.097 162.34 189.693 161.715C189.992 161.183 190.262 159.912 190.287 159.26C191.171 157.954 193.165 154.415 190.883 153.696C189.27 157.266 187.187 160.515 184.194 163.256L169.84 166.04C177.411 160.007 185.223 154.217 192.974 148.386C196.185 149.606 200.896 149.264 204.309 148.687C205.211 148.534 209.983 147.662 209.622 146.511C209.337 145.597 206.996 146.488 206.106 146.565C202.707 146.858 199.242 147.07 195.858 146.83L195.837 146.486C197.005 145.641 198.543 144.416 199.75 143.483C212.745 146.732 227.268 138.68 228.748 125.891C230.236 113.027 219.682 102.265 206.151 101.975C200.875 101.86 195.937 101.896 191.432 104.948C190.991 105.051 190.363 105.572 189.619 105.75C185.847 106.65 181.084 107.42 177.498 108.565L177.505 108.562Z" fill="#EEB79B"/>
<path d="M189.626 105.747C180.012 112.903 177.461 125.094 184.672 134.564C187.983 138.91 194.285 142.511 200.085 142.768C199.956 142.947 199.884 143.38 199.756 143.479C198.546 144.412 197.012 145.638 195.844 146.483C195.719 146.573 195.229 146.438 195.101 146.528L190.534 144.538C180.316 136.97 178.324 127.317 180.479 115.739C180.577 115.217 180.726 114.799 179.951 114.983C174.402 124.644 181.434 145.4 193.68 147.652C193.591 148.034 193.271 148.168 192.981 148.385C185.229 154.217 177.418 160.007 169.846 166.039L160.225 173.193C160.114 173.218 159.192 173.57 159.133 173.605C156.621 172.97 153.646 174.562 150.96 173.934C153.373 172.046 156.335 170.153 158.425 167.956C158.769 167.592 160.811 165.176 160.462 164.886L151.323 171.94C146.411 175.373 139.548 174.715 133.673 174.466C129.86 174.306 126.033 173.793 122.246 173.441C121.84 173.064 123.572 171.557 123.892 171.033C127.925 164.466 123.848 162.826 122.111 157.281C120.879 153.347 121.125 149.154 119.776 145.265C128.411 144.499 133.094 151.718 138.535 156.552C139.009 156.304 138.508 155.609 138.345 155.286C136.593 151.777 133.035 148.809 130.25 146.009C133.618 146.225 137.465 146.107 140.843 145.7C145.466 145.141 148.847 143.324 153.61 144.047C157.41 144.623 161.572 146.466 165.013 148.024C165.567 147.258 162.941 145.489 162.355 145.138C159.851 143.637 156.868 143.131 154.216 141.947C166.394 136.535 170.504 124.315 165.517 112.956L163.984 112.847L164.558 116.093L163.83 116.312L160.273 113.078C163.961 112.193 167.619 111.29 171.281 110.331C171.392 111.297 171.327 112.3 171.461 113.264C171.533 113.773 171.233 114.277 172.065 114.083C173.874 112.885 175.005 109.767 176.784 108.961C177.023 108.851 177.264 108.649 177.505 108.571C181.091 107.426 185.855 106.656 189.626 105.756L189.626 105.747Z" fill="#A1C5D8"/>
<path d="M52.9535 234.343L60.0516 228.561C64.414 224.976 70.049 217.284 63.9395 212.757C62.9982 212.06 61.0419 211.806 60.9328 211.699C60.791 211.558 60.374 208.988 59.7429 208C56.7187 203.25 51.0587 204.449 46.8159 207.086C46.3865 206.713 51.2509 199.828 50.7306 198.418L49.5974 197.768C50.3666 195.765 51.8353 193.802 51.4545 191.6C47.3054 192.139 42.1906 193.762 38.7906 196.1C37.3019 197.123 36.1991 198.642 34.9923 199.524C34.6915 199.745 34.654 200.027 34.0836 199.919L19.6883 153.468C23.694 153.042 27.7137 152.564 31.7066 152.041C38.8754 151.098 44.6689 149.904 52.0391 151.247C53.2311 151.462 55.1301 151.561 55.6732 152.565C60.7897 166.489 64.7522 180.764 69.5569 194.787C73.0347 204.939 77.7864 215.415 80.6219 225.679C81.6228 229.304 81.7694 231.923 78.078 234.19L52.9504 234.349L52.9535 234.343ZM26.71 154.141C20.9532 154.931 22.38 165.123 28.3601 164.354C34.3303 163.589 32.2533 153.38 26.71 154.141ZM29.6909 166.39C25.9093 167.407 26.7669 173.995 30.3421 175.076C37.12 177.124 35.9095 164.716 29.6909 166.39Z" fill="#4F96FD"/>
<path d="M142.043 241.331C142.175 241.186 142.056 240.094 142.903 240.242C145.511 243.226 148.364 245.686 151.995 247.565C153.954 248.58 156.197 249.228 158.134 250.286C163.956 253.457 166.964 259.333 171.004 264.269C175.191 269.378 180.511 276.517 185.758 280.294C186.519 280.841 188.978 283.175 189.798 281.946L189.682 280.222C191.968 282.453 197.769 284.279 201.115 284.353C204.311 284.424 207.457 283.188 210.495 282.406C210.04 283.525 207.163 285.086 208.287 286.364C212.094 287.095 216.113 285.445 219.526 283.923C222.202 292.254 221.09 300.494 219.004 308.831C215.851 321.414 209.798 331.252 201.065 341.207C194.163 349.075 183.455 356.336 184.419 367.611L185.529 367.543C185.91 363.777 187.06 359.563 189.702 356.574C188.997 358.51 188.519 361.576 188.211 363.696C188.141 364.169 187.689 365.05 188.374 365.293C188.143 366.325 187.997 367.395 187.821 368.436C186.082 378.809 186.723 388.339 190.022 398.359C186.189 398.096 182.227 398.221 178.321 397.988C139.945 395.722 103.596 379.525 98.5771 340.728C99.5892 340.461 99.3051 341.178 99.5556 341.699C112.921 369.306 141.543 386.883 173.791 389.913C177.045 390.218 180.285 390.511 183.558 390.114C181.598 381.527 180.918 373.658 182.572 364.951C186.718 343.105 209.623 327.681 213.67 305.762C214.048 303.727 215.856 290.063 215.018 289.375C213.396 290.071 211.689 289.585 210.343 289.696C199.32 290.58 199.375 289.861 189.514 286.626C185.87 285.432 183.249 285.481 179.821 283.232C169.762 276.633 167.19 266.613 160.018 258.57C155.649 253.668 149.568 252.401 145.26 247.666L142.047 241.33L142.043 241.331Z" fill="#D29D83"/>
<path d="M101.135 370.287C101.946 370.2 102.145 370.72 102.546 371.19C108.591 378.288 112.789 384.909 121.025 390.284C131.047 396.828 144.516 401.585 156.465 403.871C150.575 411.528 141.819 417.532 132.567 421.223C105.777 419.782 100.065 390.486 101.138 370.287L101.135 370.287Z" fill="#C08F4B"/>
<path d="M298.268 383.442C295.521 385.344 293.029 387.553 290.342 389.531C280.553 396.739 269.851 402.208 258.753 407.449C258.378 407.627 257.565 408.415 257.283 407.716C258.942 403.161 260.38 396.398 260.767 391.611L263.963 376.904C266.614 382.254 267.634 388.591 268.385 394.431C268.574 395.9 268.325 398.318 268.752 399.54C269.395 401.387 270.383 397.656 270.415 397.068C270.774 390.595 268.527 377.836 264.082 372.751L265.279 367.194C265.989 367.011 266.732 367.09 267.455 367.017C273.235 366.435 276.883 365.473 282.639 367.403C289.396 369.668 297.288 376.576 298.265 383.442L298.268 383.442Z" fill="#FCB38C"/>
<path d="M168.226 206.558C169.675 207.173 171.217 206.467 172.726 206.783C174.021 207.056 176.925 208.948 178.459 209.564C193.449 215.604 205.776 213.803 220.435 207.508L213.457 224.18C210.539 229.826 207.048 234.464 200.542 236.805C198.89 237.401 197.004 237.393 195.507 238.401C192.482 236.751 187.068 230.746 184.09 228.208C179.44 224.243 173.545 218.93 168.597 215.508C166.074 213.764 162.739 213.477 161.571 210.756C163.83 209.42 165.945 207.854 168.226 206.555L168.226 206.558Z" fill="#EEB79B"/>
<path d="M101.135 370.287C101.251 368.115 101.601 364.17 102.16 362.139C102.269 361.749 102.235 361.297 102.81 361.202C113.768 383.657 140.425 395.531 165.817 398.462C166.094 399.25 165.648 399.049 165.395 399.277C159.913 404.224 159.629 408.229 155.524 413.07C150.693 418.77 139.917 421.62 132.564 421.224C141.816 417.532 150.571 411.529 156.461 403.871C144.513 401.582 131.043 396.828 121.021 390.284C112.789 384.909 108.591 378.288 102.543 371.19C102.142 370.72 101.942 370.2 101.131 370.287L101.135 370.287Z" fill="#77592F"/>
<path d="M112.909 276.627C111.836 277.016 111.213 277.713 111.181 278.805C110.662 278.812 108.762 278.582 108.171 278.476C105.714 278.034 100.604 275.814 98.4509 275.866C97.7889 275.882 97.3154 276.519 96.3795 276.58C94.7119 276.688 83.8103 275.593 82.415 275.07C81.2015 274.615 78.9103 272.406 76.95 271.639C75.7177 271.156 74.4808 271.156 73.5988 270.757C72.5129 270.265 65.7661 264.818 64.0453 263.554C62.3355 262.302 53.2034 254.949 52.1054 254.874C51.7176 254.847 51.0818 255.288 50.905 255.191C50.6151 255.032 48.8341 250.44 48.0905 249.513C44.4846 245.026 38.911 242.781 34.85 236.833C35.7565 236.85 36.3834 237.547 36.9799 238.081C49.8131 249.632 62.705 265.604 81.0785 269.145C89.8228 270.832 98.9588 269.93 107.62 272.094C108.158 272.068 108.377 271.68 108.692 271.366C112.116 267.955 115.568 262.505 118.697 258.643C120.06 256.962 121.689 255.388 123.048 253.708C128.188 247.352 132.777 240.605 138.462 234.627C139.206 232.997 137.757 233.206 136.693 232.469C135.883 231.907 135.224 231.184 134.323 230.744C134.848 230.237 135.717 228.567 136.548 228.586L142.035 231.651L141.669 238.238C130.248 250.031 121.44 262.992 112.92 276.626L112.909 276.627Z" fill="#77592F"/>
<path d="M157.714 113.919C161.311 115.968 165.641 119.266 165.73 123.568C165.81 127.506 162.003 134.421 158.482 136.614C151.237 141.124 141.222 138.149 137.968 130.77C136.009 126.328 137.212 123.209 138.649 118.883L139.37 118.493L156.976 113.961L157.718 113.915L157.714 113.919ZM143.442 125.915C140.43 126.939 142.204 134.707 146.705 133.173C149.373 132.265 147.937 124.384 143.442 125.915Z" fill="#AFE3FC"/>
<path d="M168.226 206.558C169.715 205.709 171.95 204.086 173.819 204.146C175.181 204.189 178.625 205.744 180.305 206.17C197.058 210.419 213.891 207.497 229.321 200.403C221.495 209.874 224.146 223.091 216.192 232.304C213.228 235.737 210.45 237.416 205.884 238.567C202.371 239.454 198.816 240.204 195.511 238.4C197.007 237.396 198.894 237.401 200.545 236.805C207.051 234.461 210.539 229.826 213.46 224.179L220.438 207.508C205.78 213.806 193.453 215.603 178.462 209.564C176.928 208.948 174.024 207.056 172.73 206.783C171.22 206.463 169.675 207.173 168.23 206.558L168.226 206.558Z" fill="#D29D83"/>
<path d="M147.059 420.682C146.059 423.995 147.651 426.284 148.289 429.111C148.763 431.218 146.79 431.25 144.833 431.772C138.907 433.355 132.566 433.648 126.481 434.385C121.862 434.944 117.293 435.94 112.601 435.923C112.004 435.836 111.249 436.227 110.721 435.518C111.474 434.714 112.19 433.897 113.055 433.188C114.392 432.092 116.687 431.235 117.624 430.455C118.033 430.113 117.778 429.793 117.79 429.386C113.757 429.633 110.484 432.715 107.901 435.174L102.202 435.459C100.604 433.522 101.558 431.908 102.942 430.127C106.4 425.668 115.296 424.531 119.768 420.672C120.4 420.488 121.941 421.494 122.813 421.735C131.578 424.159 138.536 423.78 147.059 420.679L147.059 420.682Z" fill="#FCB38C"/>
<path d="M306.218 75.1138C303.686 88.1279 291.959 97.9331 278.815 102.186C269.099 105.329 264.656 102.856 255.585 103.095C253.242 103.156 251.364 103.689 249.125 104.007C255.021 97.6234 264.344 97.3159 272.415 94.9803C279.052 93.0589 285.807 90.0401 291.019 85.7114C292.794 84.2367 297.837 78.0895 298.917 77.6368C299.206 77.5176 299.899 77.6115 300.398 77.3939C302.285 76.5748 304.172 75.5274 306.214 75.1171L306.218 75.1138Z" fill="#EEB79B"/>
<path d="M315.176 367.551C310.13 372.319 305.584 377.818 299.647 381.63C298.607 376.527 291.524 369.265 286.433 367.091L280.738 364.825C286.154 363.549 291.412 361.69 296.53 359.621C298.33 358.892 304.398 355.649 305.665 355.692C307.391 355.751 312.087 358.96 313.184 360.3C314.281 361.64 315.332 364.349 315.47 366.002C315.532 366.724 315.177 367.246 315.182 367.547L315.176 367.551Z" fill="#FCB38C"/>
<path d="M223.386 426.029C223.45 426.019 223.785 425.685 224.262 425.614C230.624 424.667 237.166 425.027 243.32 423.082C243.371 424.315 245.409 425.179 246.501 426.161C249.177 428.565 251.59 432.094 255.395 432.958C259.265 433.84 265.451 433.195 266.583 437.896C264.102 439.29 257.016 435.61 255.624 435.974C253.538 436.517 255.942 438.937 253.306 440.094C249.243 440.358 245.31 436.275 241.24 437.723C240.899 437.347 238.107 431.306 236.683 433.498C235.59 435.178 241.447 438.651 238.853 441.324C235.631 440.697 223.992 436.829 222.402 434.578C220.58 431.992 224.134 428.82 223.389 426.032L223.386 426.029Z" fill="#FCB38C"/>
<path d="M315.176 367.551C315.214 370.014 315.335 372.999 314.558 375.383C313.517 378.575 301.974 388.562 298.706 391.158C285.914 401.323 270.571 409.829 254.323 414.113C255.049 411.91 256.491 409.892 257.283 407.716C257.565 408.415 258.375 407.627 258.753 407.449C269.848 402.209 280.553 396.739 290.342 389.531C293.029 387.553 295.521 385.344 298.268 383.442C298.592 385.723 297.729 387.472 297.909 389.683C300.675 388.879 300.077 383.737 299.65 381.63C305.591 377.818 310.134 372.319 315.179 367.551L315.176 367.551Z" fill="#DC804F"/>
<path d="M297.925 73.5484C291.668 75.6525 285.848 78.7061 279.673 80.9827C267.17 85.5928 250.375 87.7523 245.211 100.959L244.329 104.814C244.129 104.163 242.523 102.759 243.006 101.44C249.752 79.9139 275.763 70.9112 297.925 73.5484Z" fill="#EEB79B"/>
<path d="M263.175 230.116C264.527 230.312 265.147 230.395 265.498 231.895C265.85 233.394 265.373 237.937 265.206 239.789C264.372 249.105 260.416 263.582 252.314 269.764C250.937 270.815 249.482 271.155 248.252 271.994C243.565 275.197 238.893 279.413 233.961 282.184C231.447 283.596 229.384 284.778 226.275 284.55C227.654 288.887 226.725 293.362 225.775 297.706C224.338 304.266 222.214 310.146 219.202 316.204C218.953 316.704 219.122 317.302 218.212 317.174C221.68 307.897 224.442 295.03 222.135 285.409C221.924 284.54 221.572 283.69 221.011 282.964C222.936 281.467 225.381 280.614 226.849 278.641C227.593 279.905 225.199 282.546 227.893 282.632C229.235 282.673 234.631 278.675 236.035 277.667C240.103 274.743 243.896 271.446 247.835 268.374L248.383 268.341C248.541 270.249 250.197 270.173 251.609 269.176C255.022 266.768 259.108 255.995 260.151 251.988C261.977 244.972 262.755 237.311 263.182 230.115L263.175 230.116Z" fill="#77592F"/>
<path d="M80.1304 234.061C80.042 233.566 80.6329 233.73 80.9519 233.247C82.0961 231.51 82.3988 229.647 81.8737 227.654L56.4079 151.784C55.3905 150.401 53.5513 150.162 51.8932 149.924C45.3506 148.984 36.0904 150.312 29.4204 151.141C26.1617 151.547 22.9559 152.539 19.6245 152.426L21.3713 150.43L53.0618 147.97C54.9322 148.106 56.9672 148.473 58.171 149.943L84.5744 227.789C84.8104 230.472 83.0712 233.374 80.134 234.064L80.1304 234.061Z" fill="#4F88A4"/>
<path d="M122.529 62.5183C134.078 66.2108 143.223 71.9904 149.123 82.0795C151.566 86.2566 153.034 92.0527 157.994 94.2119C156.447 96.443 153.822 94.7621 151.899 93.8211C143.502 89.7232 139.78 80.0459 133.799 73.5973C132.266 71.9415 129.648 71.2618 127.774 69.1071C127.612 68.9205 127.52 68.2478 127.116 67.7939C125.571 66.0533 123.891 64.3938 122.526 62.5185L122.529 62.5183Z" fill="#EEB79B"/>
<path d="M122.529 62.5183C123.894 64.3904 125.571 66.0501 127.12 67.7937C127.523 68.2476 127.616 68.9203 127.777 69.1069L123.733 66.9455C122.114 68.8069 126.656 70.7793 128.157 72.1899C129.303 73.2671 130.75 74.9631 131.631 76.2404C136.918 83.9075 137.059 95.9307 148.537 97.9002C148.669 98.4912 147.694 98.3099 147.3 98.2802C143.329 98.0003 139.708 96.3297 136.407 94.4904C135.23 92.2835 133.28 90.4536 131.978 88.3272C128.13 82.0618 126.247 74.5763 121.288 68.7624C120.887 68.2925 120.688 67.7722 119.877 67.8598C118.934 65.6956 117.77 63.526 116.508 61.5049C118.641 61.1778 120.584 61.8925 122.532 62.5149L122.529 62.5183Z" fill="#D29D83"/>
<path d="M297.925 73.5484C300.768 73.8879 303.728 74.9048 306.501 73.7145C306.811 74.3104 306.283 74.7801 306.218 75.1138C304.179 75.527 302.289 76.5746 300.401 77.3906C299.902 77.6081 299.21 77.5111 298.92 77.6334C299.077 76.5715 297.945 75.8325 296.954 76.1626C292.682 79.2197 287.307 81.5582 282.335 83.4918C275.263 86.2416 267.764 87.5374 260.867 90.4129C255.066 92.8313 248.779 95.9516 245.214 100.959C250.378 87.7521 267.17 85.5928 279.676 80.9825C285.851 78.7059 291.671 75.6523 297.928 73.5482L297.925 73.5484Z" fill="#D29D83"/>
<path d="M329.299 348.721C327.845 351.802 325.601 354.786 323.494 357.533C321.83 359.704 319.966 362.525 317.562 363.953C316.796 360.65 315.072 358.267 312.057 356.353C311.354 355.908 307.526 354.501 308.001 353.834C311.527 353.384 319.082 346.129 321.505 345.749C322.547 345.584 325.2 346.22 326.207 346.65C327.495 347.202 328.17 348.245 329.296 348.724L329.299 348.721Z" fill="#FCB38C"/>
<path d="M170.571 202.275C171.277 202.862 170.378 202.857 170.065 202.994C168.867 203.517 167.922 203.813 166.735 204.519C165.393 205.318 160.544 208.99 159.602 209.168C158.004 209.469 153.305 206.114 151.071 206.226C153.951 202.709 157.583 199.463 161.978 197.691C162.586 197.645 167.977 201.204 169.081 201.827C169.556 202.096 170.514 202.228 170.571 202.278L170.571 202.275Z" fill="#77592F"/>
<path d="M159.527 113.117L157.592 112.031L151.939 110.824C154.392 109.374 156.759 108.132 158.494 105.896C159.533 104.558 160.543 101.628 162.047 100.962C163.67 100.242 166.571 100.245 168.395 99.7941L162.574 107.288L163.098 108.087C165.921 108.266 169.188 108.896 171.89 108.214C171.904 108.324 171.911 108.448 171.911 108.558C171.912 109.075 171.549 109.725 171.645 110.302C171.528 110.332 171.392 110.296 171.274 110.325C167.612 111.284 163.953 112.187 160.266 113.072C160.041 113.127 159.746 113.062 159.524 113.117L159.527 113.117Z" fill="#EEB79B"/>
<path d="M333.702 341.542C333.276 343.352 333.016 345.083 332.443 346.887C329.589 355.905 323.916 364.879 317.7 372.233C317.903 369.346 318.217 366.775 317.562 363.95C319.966 362.525 321.826 359.701 323.494 357.53C325.601 354.782 327.841 351.802 329.299 348.718C329.689 348.884 329.923 349.136 330.433 348.991C330.504 348.479 330.221 347.707 330.328 347.27C330.611 346.152 333.042 342.831 333.701 341.535L333.702 341.542Z" fill="#DC804F"/>
<path d="M112.519 197.184C110.909 197.999 109.094 198.323 107.427 199.056C104.941 200.149 102.601 202.33 99.8035 202.454C97.7794 202.543 95.3141 200.672 94.6184 198.908C93.9227 197.144 94.9104 196.478 96.583 195.726C101.445 193.548 107.84 195.42 112.519 197.181L112.519 197.184Z" fill="#C08F4B"/>
<path d="M147.059 420.682C147.507 420.518 149.002 419.666 149.243 419.86C148.325 422.617 151.128 424.753 151.768 427.284C152.507 430.206 151.614 433.139 148.057 433.759C143.642 434.53 136.656 434.72 131.926 435.085C129.727 434.608 126.964 435.015 124.661 435.178C124.035 435.223 122.996 435.058 122.647 435.653C119.346 435.824 115.786 436.381 112.604 435.923C117.296 435.94 121.865 434.947 126.485 434.385C132.569 433.648 138.91 433.358 144.837 431.772C146.79 431.25 148.766 431.218 148.292 429.11C147.655 426.287 146.062 423.995 147.062 420.682L147.059 420.682Z" fill="#DC804F"/>
<path d="M159.249 248.566L155.317 247.016C149.741 243.956 141.732 239.369 144.467 232.2C145.024 232.089 145.339 232.153 145.808 232.441C146.056 232.597 148.929 235.315 149.313 235.726C152.874 239.543 155.801 244.596 159.252 248.566L159.249 248.566Z" fill="#D29D83"/>
<path d="M125.745 218.489C129.577 219.035 140.904 225.178 144.737 227.337C153.333 232.18 162.581 247.522 167.861 255.297C162.759 249.429 158.568 242.807 153.408 236.93C151.63 234.905 148.672 231.223 146.101 230.306C139.418 227.922 133.468 223.991 127.537 220.091C126.936 219.697 125.735 219.225 125.748 218.489L125.745 218.489Z" fill="#77592F"/>
<path d="M136.407 94.4904C124.876 88.0709 124.504 78.4802 119.877 67.863C120.688 67.7753 120.887 68.2956 121.288 68.7655C126.25 74.5792 128.133 82.0616 131.978 88.3303C133.283 90.4565 135.234 92.2865 136.407 94.4936L136.407 94.4904Z" fill="#EEB79B"/>
<path d="M330.328 347.276C328.689 345.284 325.923 344.687 323.428 344.072C324.815 342.558 326.782 341.258 328.204 339.815C330.475 337.508 331.3 334.579 335.136 334.547C335.117 336.922 334.244 339.236 333.702 341.542C333.043 342.837 330.608 346.159 330.328 347.276Z" fill="#FCB38C"/>
<path d="M223.386 426.029C224.13 428.814 220.576 431.989 222.399 434.575C223.989 436.829 235.627 440.694 238.85 441.321C237.555 442.655 234.502 442.525 232.635 442.158C229.263 441.492 226.735 439.552 224.102 437.732C223.185 437.097 222.889 436.272 221.42 436.514C217.642 433.674 221.059 429.712 220.047 426.237C221.138 426.1 222.302 426.184 223.386 426.029Z" fill="#DC804F"/>
<path d="M155.217 176.605C155.115 176.681 154.622 177.488 154.538 177.683C153.273 178.014 152.35 179.348 151.325 179.953C150.857 180.229 150.362 180.472 149.883 180.732L142.909 181.448L139.57 176.527C144.211 176.984 148.881 176.033 153.526 175.996C154.219 175.991 154.913 175.832 155.22 176.602L155.217 176.605Z" fill="#AFE3FC"/>
<path d="M48.0353 196.64C48.5672 197.181 49.275 197.525 49.2047 198.385C49.0746 200 45.1837 204.758 44.4855 206.972C44.2281 207.789 44.4511 208.866 44.2553 209.239C44.1729 209.4 41.8021 211.082 41.3519 211.598C40.0047 213.145 39.5867 214.967 38.4517 216.577C38.4429 216.489 37.9657 216.284 38.0679 215.498C38.3053 213.626 45.2768 199.468 46.665 197.643C47.051 197.138 47.2347 196.68 48.0353 196.64Z" fill="#77592F"/>
<path d="M156.972 113.964L139.366 118.497C142.987 113.235 151.073 111.416 156.972 113.964Z" fill="white"/>
<path d="M45.842 221.653C46.9992 216.891 51.6462 211.478 56.8773 210.251C57.541 210.097 58.4169 210.62 58.1365 209.499C58.4678 210.056 59.2994 211.304 58.874 211.891C56.69 212.494 54.911 213.405 53.1146 214.704C51.3183 216.002 47.1009 220.004 45.8388 221.656L45.842 221.653Z" fill="#77592F"/>
<path d="M112.519 197.184C113.327 197.49 114.666 197.807 115.201 198.399C110.655 198.091 106.84 201.247 104.541 204.611C104.194 204.683 99.7098 203.436 99.8035 202.454C102.601 202.334 104.941 200.149 107.427 199.056C109.094 198.323 110.912 197.999 112.519 197.184Z" fill="#77592F"/>
<path d="M263.967 376.904L260.77 391.61C261.23 385.943 260.706 380.229 261.967 374.608C263.259 374.5 263.568 376.092 263.97 376.901L263.967 376.904Z" fill="#EEB79B"/>
<path d="M244.33 104.817C244.688 105.974 244.05 108.286 244.233 108.756C244.285 108.886 245.264 109.59 245.822 110.944C243.338 109.933 240.634 108.682 240.307 105.855C240.222 105.141 240.598 104.76 240.598 104.7C242.794 104.958 242.526 102.978 243.006 101.443C242.526 102.762 244.129 104.167 244.33 104.817Z" fill="#77592F"/>
<path d="M253.303 440.094C250.957 441.122 242.9 439.555 241.237 437.723C245.306 436.276 249.239 440.358 253.303 440.094Z" fill="#DC804F"/>
<path d="M188.989 363.182C188.808 363.846 188.505 364.708 188.374 365.293C187.693 365.049 188.144 364.169 188.211 363.696C188.519 361.576 188.997 358.51 189.702 356.574C190.369 354.74 192.25 353.597 193.531 352.194C191.522 355.718 190.048 359.327 188.989 363.182Z" fill="#EEB79B"/>
<path d="M176.784 108.951C175.005 109.757 173.873 112.876 172.064 114.074C171.232 114.271 171.533 113.767 171.46 113.255C171.326 112.29 171.391 111.288 171.281 110.321C171.399 110.292 171.534 110.328 171.652 110.299C173.354 109.855 175.026 109.214 176.783 108.948L176.784 108.951Z" fill="#4F88A4"/>
<path d="M267.458 367.017C266.735 367.089 265.992 367.014 265.282 367.194L264.085 372.751C263.817 372.444 262.785 372.222 262.613 371.592L262.964 366.601L267.458 367.017Z" fill="#EEB79B"/>
<path d="M189.975 391.452C189.024 388.309 188.594 386.583 188.356 383.26C188.365 383.294 188.678 383.443 188.746 383.762C189.276 386.284 189.672 388.897 189.975 391.452Z" fill="#D29D83"/>
<path d="M131.922 435.082C128.845 435.318 125.729 435.49 122.643 435.65C122.993 435.055 124.031 435.22 124.657 435.175C126.957 435.012 129.724 434.605 131.922 435.082Z" fill="#EEB79B"/>
<path d="M188.563 368.391L187.821 368.436C187.997 367.395 188.143 366.325 188.374 365.293C188.505 364.708 188.808 363.846 188.989 363.182C189.596 364.67 188.756 366.8 188.563 368.391Z" fill="#77592F"/>
<path d="M154.538 177.683C153.774 179.445 154.703 179.829 151.325 179.953C152.35 179.348 153.273 178.014 154.538 177.683Z" fill="white"/>
<path d="M79.0606 204.415C77.9074 202.042 77.2061 199.46 76.3709 196.979C77.1076 197.739 77.6892 199.202 78.036 200.179C78.5573 201.663 78.6702 203.117 79.064 204.415L79.0606 204.415Z" fill="#A1C5D8"/>
<path d="M257.747 287.454C258.152 285.588 257.758 283.403 259.265 281.833C258.838 283.574 258.841 285.793 257.747 287.454Z" fill="#EEB79B"/>
<path d="M50.0721 193.409L49.8028 195.15L47.8908 194.224L48.0329 193.531L50.0721 193.409Z" fill="#77592F"/>
<path d="M82.7244 215.595C84.1196 215.335 83.8047 217.782 84.0271 218.625C83.4486 217.769 83.0712 216.572 82.7244 215.595Z" fill="#A1C5D8"/>
<path d="M112.909 276.627C111.836 277.016 111.213 277.713 111.181 278.805C112.389 278.788 112.44 277.381 112.909 276.627Z" fill="#C08F4B"/>
<path d="M124.631 218.558L122.447 219.382C122.792 219.035 122.817 218.672 123.509 218.411C124.32 218.104 124.508 218.556 124.631 218.558Z" fill="#77592F"/>
<path d="M221.421 436.517C222.889 436.275 223.185 437.1 224.102 437.735C222.863 437.7 222.262 437.15 221.421 436.517Z" fill="#EEB79B"/>
<path d="M188.356 383.26C188.227 382.653 187.966 382.19 187.859 381.217C188.501 381.552 188.31 382.609 188.356 383.26Z" fill="#77592F"/>
<path d="M168.271 255.963L169.013 255.918L169.076 256.951C168.937 256.747 168.598 256.447 168.271 255.963Z" fill="#77592F"/>
<path d="M150.413 98.1277L150.452 98.8131L148.953 98.5562L148.933 98.2215L150.413 98.1277Z" fill="#D29D83"/>
<path d="M172.318 261.243L173.051 261.211L173.103 261.886C172.751 261.616 173.062 262.174 172.318 261.243Z" fill="#77592F"/>
<path d="M100.126 130.306C106.585 128.643 114.555 138.384 116.677 143.192C118.938 148.318 117.961 154.286 120.001 159.486C121.308 162.817 124.003 164.576 122.592 168.662C120.68 174.209 117.803 173.529 112.512 172.829C107.971 172.229 100.365 170.647 98.2409 166.543C94.502 159.326 90.9844 137.528 98.0604 131.551C98.6224 131.076 99.3963 130.49 100.126 130.303L100.126 130.306ZM98.3878 144.549C94.3072 145.873 98.1664 156.338 98.6371 159.171C98.7983 160.131 99.0216 161.322 99.1293 162.244C99.2234 163.056 98.7178 163.784 99.0721 164.939C99.9913 167.954 103.945 167.062 104.435 163.916C104.845 161.289 102.965 149.943 101.826 147.407C101.348 146.349 99.8625 144.025 98.3878 144.549ZM107.564 144.862C107.186 144.657 107.265 143.72 106.165 144.064C105.483 144.517 104.766 145.312 104.626 146.091C103.951 149.866 107.701 161.786 111.459 163.68C114.837 165.384 116.445 161.961 115.685 159.25C112.828 154.337 112.978 147.802 107.564 144.865L107.564 144.862Z" fill="#A1C5D8"/>
<path d="M164.791 116.941C165.026 116.812 165.019 116.695 164.77 116.596L164.791 116.941Z" fill="#A1C5D8"/>
<path d="M246.277 288.85C246.552 288.989 247.353 293.704 247.394 294.494C247.709 300.306 244.85 313.046 242.336 318.471C242.109 318.96 241.649 320.041 241.13 320.256C243.152 313.438 245.354 306.216 245.414 299.09C245.426 297.508 244.474 289.598 245.156 289.071L246.273 288.851L246.277 288.85Z" fill="#0B0908"/>
<path d="M233.738 363.895C232.192 364.307 231.685 362.455 231.447 361.357C230.728 358.041 230.619 347.544 232.393 344.649C232.635 344.254 233.152 343.718 233.605 343.522C232.322 350.191 232.598 357.217 233.735 363.898L233.738 363.895Z" fill="#0B0908"/>
<path d="M233.975 246.068C235.12 247.032 230.526 251.462 229.682 252.192C227.823 253.805 225.212 255.752 222.67 256.082L228.701 251.057C229.667 250.595 232.973 245.226 233.975 246.065L233.975 246.068Z" fill="#0B0908"/>
<path d="M219.623 370.636C220.404 368.391 220.774 363.83 221.168 361.276C221.484 359.235 220.799 354.801 223.477 354.507C221.776 359.198 222.253 366.655 220.015 370.957L219.623 370.636Z" fill="#0B0908"/>
<path d="M229.87 325.095C228.985 325.26 229.026 325.089 229.155 324.346C229.494 322.401 230.068 319.234 231.283 317.753L229.87 325.095Z" fill="#0B0908"/>
<path d="M220.015 370.957C219.728 371.513 219.223 372.14 218.618 372.424C218.332 371.71 219.451 371.125 219.623 370.636L220.015 370.957Z" fill="#77592F"/>
<path d="M109.88 324.493C111.227 324.223 110.418 325.744 111.812 325.963C112.523 326.074 113.24 325.967 113.688 325.407C115.147 323.001 110.022 319.711 112.37 318.835C115.69 317.595 118.081 326.333 113.957 327.34C111.26 327.996 109.442 327.268 109.88 324.493Z" fill="#0B0908"/>
<path d="M191.439 104.945C202.027 102.487 208.519 100.689 215.942 109.483C220.182 114.507 221.383 122.741 218.751 128.472C216.83 132.656 210.743 139.269 205.934 140.527C203.944 141.049 201.877 140.446 200.831 142.719C200.584 142.715 200.332 142.775 200.089 142.765C194.285 142.511 187.986 138.906 184.675 134.561C177.464 125.094 180.015 112.899 189.629 105.743C190.373 105.565 191.001 105.045 191.442 104.941L191.439 104.945ZM196.957 105.054C175.25 107.895 180.529 142.843 201.563 139.562C222.151 136.352 220.057 102.03 196.957 105.054Z" fill="#4F88A4"/>
<path d="M242.755 146.027C241.459 145.897 240.404 145.128 239.164 144.845C228.897 142.51 224.675 149.783 217.546 154.622C208.446 160.796 196.358 165.387 185.565 168.295C184.59 168.557 183.303 169.073 182.319 168.902C184.454 166.889 188.313 164.18 189.7 161.712C190.1 162.337 191.017 161.91 191.58 161.787C199.54 160.032 209.553 154.934 216.479 150.805C223.873 146.396 230.51 138.659 239.971 143.636C241.61 144.499 241.859 145.283 242.759 146.026L242.755 146.027Z" fill="#D29D83"/>
<path d="M240.592 147.195C239.461 147.071 239.906 147.767 239.923 148.431C240.302 163.553 236.799 174.709 225.069 185.639C220.123 190.246 208.053 198.703 201.293 199.009C223.768 190.85 236.692 167.761 236.056 146.094C237.748 145.997 239.143 146.628 240.593 147.199L240.592 147.195Z" fill="#D29D83"/>
<path d="M199.756 143.476C199.883 143.376 199.956 142.944 200.085 142.765C200.328 142.775 200.581 142.716 200.827 142.72C209.923 142.841 218.314 138.857 222.248 131.015C228.579 118.387 220.492 104.552 206.157 101.971C219.689 102.262 230.242 113.023 228.754 125.888C227.275 138.673 212.751 146.728 199.756 143.479L199.756 143.476Z" fill="#D29D83"/>
<path d="M206.157 101.971C220.492 104.555 228.579 118.387 222.248 131.015C218.317 138.857 209.927 142.841 200.827 142.72C201.874 140.446 203.94 141.049 205.931 140.528C210.74 139.266 216.83 132.656 218.747 128.472C221.376 122.742 220.179 114.508 215.938 109.483C208.515 100.689 202.024 102.49 191.435 104.945C195.94 101.893 200.878 101.857 206.154 101.971L206.157 101.971Z" fill="#0B0908"/>
<path d="M190.294 159.257C188.514 161.882 180.418 168.939 177.433 170.13C172.333 172.16 165.51 172.001 160.229 173.192L169.85 166.039L184.204 163.256C187.197 160.515 189.281 157.268 190.893 153.695C193.175 154.412 191.181 157.954 190.298 159.26L190.294 159.257Z" fill="#D29D83"/>
<path d="M192.98 148.382C193.271 148.165 193.591 148.031 193.68 147.648C193.794 147.67 193.927 147.611 194.051 147.626C194.843 147.72 196.045 148.1 195.864 146.824C199.248 147.064 202.713 146.851 206.112 146.558C207.003 146.481 209.343 145.59 209.628 146.504C209.989 147.655 205.218 148.53 204.315 148.681C200.903 149.26 196.191 149.599 192.98 148.379L192.98 148.382Z" fill="#D29D83"/>
<path d="M246.082 151.696C244.895 151.287 243.684 149.979 242.751 149.143C242.307 148.742 241.779 148.492 241.748 147.816C244.446 149.308 244.335 149.388 246.082 151.696Z" fill="#D29D83"/>
<path d="M195.843 146.48L195.864 146.824C196.042 148.1 194.843 147.72 194.051 147.626C194.29 147.224 194.711 146.793 195.101 146.525C195.232 146.435 195.722 146.569 195.843 146.48Z" fill="#0B0908"/>
<path d="M200.551 199.051L200.593 199.737C200.055 199.995 199.589 199.472 199.459 199.464C199.609 199.02 200.142 199.073 200.551 199.051Z" fill="#D29D83"/>
<path d="M198.717 199.509L197.625 199.921C197.682 199.915 197.88 199.57 198.717 199.509Z" fill="#D29D83"/>
<path d="M193.68 147.648C181.433 145.396 174.402 124.638 179.951 114.979C180.722 114.796 180.574 115.217 180.479 115.736C178.328 127.314 180.316 136.967 190.534 144.535L195.101 146.525C194.711 146.793 194.29 147.224 194.051 147.626C193.927 147.611 193.794 147.67 193.68 147.648Z" fill="#4F88A4"/>
<path d="M26.71 154.141C32.2533 153.38 34.3269 163.589 28.3601 164.354C22.38 165.123 20.9566 154.931 26.71 154.141ZM24.4353 158.008C24.1773 160.547 25.8813 164.271 29.0925 162.642C29.5927 162.386 30.0281 162.074 29.8584 161.479C27.1849 162.736 26.5891 162.269 25.3004 160.028C25.2238 159.893 25.0469 159.793 24.9083 159.706C24.8468 159.371 24.7699 158.618 24.824 158.329C24.8672 158.086 25.9298 156.3 25.8109 156.199C24.9135 156.051 24.4898 157.447 24.4319 158.008L24.4353 158.008Z" fill="#0B0908"/>
<path d="M29.6909 166.39C35.9095 164.716 37.1166 177.124 30.3421 175.076C26.7669 173.995 25.9127 167.407 29.6909 166.39ZM29.8734 167.697C27.5273 168.164 28.491 172.52 29.869 173.374C30.7353 173.908 32.6012 174.136 32.4123 172.724C28.9532 173.373 28.5859 169.941 29.87 167.697L29.8734 167.697Z" fill="#0B0908"/>
<path d="M146.705 133.173C149.373 132.265 147.937 124.384 143.442 125.915C140.43 126.939 142.204 134.707 146.705 133.173Z" fill="#4F88A4"/>
<path d="M191.197 198.575L184.515 197.912C184.103 196.049 183.997 193.649 183.004 191.989C182.46 191.084 181.075 190.402 180.964 189.695C180.863 189.058 182.672 186.006 183.168 185.291C186.198 180.931 191.662 177.643 197.393 177.827C196.087 178.991 189.732 185.412 190.113 186.726C190.386 187.664 191.508 187.015 191.99 186.634C195.797 183.618 197.69 179.778 202.602 177.024C208.297 173.832 215.336 174.504 221.171 176.886C219.83 177.985 219.584 179.826 220.044 181.367C220.397 182.546 221.528 182.55 220.668 183.969C220.411 184.397 218.144 186.779 217.796 186.886C217.175 187.08 215.399 186.7 214.202 186.85C211.92 187.132 209.4 188.38 208.862 190.65C208.609 191.709 209.013 193.218 208.443 193.903C208.192 194.206 205.814 195.271 205.404 195.22C205.029 195.173 202.522 193.46 201.145 193.12C196.36 191.929 191.302 193.361 191.204 198.568L191.197 198.575Z" fill="#DC804F"/>
<path d="M187.955 169.768L186.41 176.344L176.468 180.49C175.873 180.66 175.491 180.493 174.981 180.255C172.93 179.296 170.405 175.441 168.119 174.263L187.958 169.771L187.955 169.768Z" fill="white"/>
<path d="M203.001 196.48C199.666 197.54 196.258 198.525 192.696 198.496C193.109 194.743 196.854 193.693 200.391 194.646C200.863 194.772 203.46 195.837 203.001 196.483L203.001 196.48Z" fill="white"/>
<path d="M180.669 192.42C181.313 192.939 182.537 196.924 182.191 197.414C180.651 197.027 174.709 194.909 174.489 193.553C174.075 191.02 179.199 191.236 180.67 192.423L180.669 192.42Z" fill="white"/>
<path d="M221.854 181.855C221.587 180.34 220.982 179.328 221.976 177.87C223.076 176.252 226.461 175.731 225.279 177.962C225.028 178.437 222.457 182.382 221.854 181.855Z" fill="white"/>
<path d="M210.218 192.586C210.353 191.275 210.755 190.034 212.042 189.346C212.565 189.067 215.577 188.046 215.577 188.981L210.218 192.59L210.218 192.586Z" fill="white"/>
<path d="M107.564 144.862C112.978 147.799 112.828 154.334 115.685 159.247C116.445 161.958 114.837 165.378 111.459 163.677C107.701 161.783 103.951 149.863 104.625 146.088C104.766 145.309 105.479 144.514 106.165 144.06C107.268 143.717 107.189 144.657 107.564 144.859L107.564 144.862Z" fill="#4F88A4"/>
<path d="M98.3878 144.549C99.8625 144.025 101.347 146.346 101.826 147.407C102.968 149.942 104.849 161.289 104.435 163.916C103.941 167.065 99.9914 167.957 99.0721 164.939C98.7213 163.784 99.2268 163.056 99.1293 162.244C99.0216 161.322 98.7981 160.128 98.6371 159.171C98.163 156.338 94.3038 145.874 98.3878 144.549Z" fill="#4F88A4"/>
<path d="M196.957 105.054C220.061 102.03 222.151 136.352 201.563 139.562C180.525 142.84 175.25 107.895 196.957 105.054ZM193.986 111.439C181.769 113.534 182.772 133.771 193.543 134.791C209.757 136.328 208.938 108.875 193.986 111.439Z" fill="#4F96FD"/>
<path d="M24.8274 158.329C24.7733 158.618 24.8504 159.374 24.9117 159.706C24.9384 159.863 25.1279 160 25.3038 160.027C26.5891 162.269 27.1883 162.736 29.8618 161.479C30.0315 162.074 29.5962 162.386 29.0959 162.642C25.8815 164.274 24.1809 160.549 24.4387 158.007L24.8308 158.329L24.8274 158.329Z" fill="#A1C5D8"/>
<path d="M24.4353 158.008C24.4932 157.446 24.9169 156.051 25.8143 156.199C25.9332 156.299 24.8706 158.086 24.8274 158.329L24.4353 158.008Z" fill="#4F88A4"/>
<path d="M24.9117 159.706C24.9384 159.863 25.1279 160 25.3038 160.027C25.2272 159.893 25.0503 159.793 24.9117 159.706Z" fill="#4F88A4"/>
<path d="M29.8734 167.697C28.5892 169.938 28.9564 173.37 32.4157 172.724C32.6046 174.136 30.7387 173.907 29.8724 173.374C28.4912 172.524 27.5307 168.164 29.8768 167.697L29.8734 167.697Z" fill="#A1C5D8"/>
<path d="M193.543 134.791C209.757 136.328 208.938 108.875 193.986 111.439C181.769 113.531 182.775 133.77 193.543 134.791ZM194.468 113.124C185.572 114.486 183.649 128.173 191.49 132.178C200.702 136.886 208.175 122.707 201.022 115.595C199.523 114.105 196.692 112.782 194.468 113.124Z" fill="#AFE3FC"/>
<path d="M194.468 113.124C196.692 112.785 199.523 114.105 201.022 115.595C208.175 122.71 200.702 136.886 191.49 132.178C183.649 128.173 185.572 114.483 194.468 113.124ZM191.836 119.136C187.733 120.088 188.728 129.206 193.078 128.718C197.429 128.23 196.593 118.034 191.836 119.136Z" fill="#4F96FD"/>
<path d="M191.836 119.136C196.593 118.034 197.578 128.211 193.078 128.718C188.579 129.225 187.736 120.088 191.836 119.136Z" fill="#AFE3FC"/>
<path d="M345.918 46.2715C345.35 45.9594 344.858 45.7624 344.497 45.6376C343.874 45.4241 343.582 45.3978 343.382 45.1252C343.11 44.754 343.251 44.2581 343.336 43.8212C343.402 43.4764 343.365 42.629 343.29 40.9375C343.211 39.1244 343.001 38.658 343.149 37.3081C343.218 36.6972 343.254 36.3851 343.428 36.0501C343.785 35.367 344.389 35.0451 346.03 34.375C348.838 33.2287 348.654 33.5178 349.471 33.0251C350.567 32.3649 350.941 31.8164 351.843 31.8164C352.362 31.8164 352.923 31.9971 353.379 32.1416C353.946 32.3255 354.399 32.5357 354.717 32.7032C351.784 37.226 348.851 41.7487 345.921 46.2715H345.918Z" fill="#663E16" stroke="black" stroke-width="1.4056" stroke-linecap="round" stroke-linejoin="round"/>
<path d="M354.713 32.7033C354.175 32.365 353.486 33.1598 351.543 34.132C348.249 35.7776 346.278 35.4688 345.759 36.9074C345.651 37.2031 345.746 37.1833 345.838 38.5727C345.953 40.3168 345.897 41.8112 345.838 43.4929C345.756 45.746 345.634 46.0679 345.917 46.2683C346.573 46.7314 347.751 45.3486 350.831 43.8082C353.509 42.4714 354.286 42.6849 354.873 41.6667C355.513 40.5565 354.801 39.9325 354.795 36.8253C354.788 34.1846 355.3 33.0646 354.716 32.7L354.713 32.7033Z" fill="#80521A" stroke="black" stroke-width="1.4056" stroke-linecap="round" stroke-linejoin="round"/>
<path d="M354.951 39.1572C354.403 39.5382 353.553 40.0966 352.448 40.6582C351.44 41.1706 350.748 41.417 349.518 41.9162C348.642 42.2709 347.375 42.7965 345.84 43.4961" stroke="black" stroke-width="1.4056" stroke-linecap="round" stroke-linejoin="round"/>
<path d="M351.254 40.0646C351.067 39.9989 350.979 40.15 350.477 40.3142C349.893 40.5047 349.725 40.3963 349.607 40.5638C349.443 40.797 349.742 41.0368 349.804 41.8021C349.84 42.252 349.758 42.436 349.886 42.5214C350.034 42.6232 350.224 42.4294 350.851 42.2093C351.395 42.0188 351.523 42.0681 351.658 41.8973C351.855 41.6444 351.773 41.2798 351.687 40.9021C351.609 40.5474 351.52 40.1532 351.251 40.0613L351.254 40.0646Z" fill="#FFCC00" stroke="black" stroke-width="1.17133" stroke-linecap="round" stroke-linejoin="round"/>
<path d="M350.724 33.2518C350.701 32.5489 350.596 31.6818 350.166 31.5406C349.9 31.4552 349.7 31.7015 349.139 32.007C347.856 32.7065 347.121 32.388 346.777 32.9102C346.606 33.1729 346.514 33.6689 347.056 34.7134" fill="#663E16"/>
<path d="M350.724 33.2518C350.701 32.5489 350.596 31.6818 350.166 31.5406C349.9 31.4552 349.7 31.7015 349.139 32.007C347.856 32.7065 347.121 32.388 346.777 32.9102C346.606 33.1729 346.514 33.6689 347.056 34.7134" stroke="black" stroke-width="1.4056" stroke-linecap="round" stroke-linejoin="round"/>
<path d="M352.18 20.4355C352.268 20.8395 352.393 21.4472 352.511 22.1895C353.085 25.8188 352.511 26.3608 352.34 26.4954C352.288 26.5381 351.996 26.7681 351.773 26.6728C351.33 26.4823 351.668 25.2014 351.56 23.7299C351.507 23.0106 351.33 22.0023 350.766 20.8034C351.012 20.7509 351.268 20.6917 351.533 20.6228C351.756 20.5636 351.973 20.5012 352.176 20.4355H352.18Z" fill="black" stroke="black" stroke-width="1.4056" stroke-linecap="round" stroke-linejoin="round"/>
<path d="M349.299 26.7256C349.345 27.1361 349.407 27.7536 349.45 28.5025C349.653 32.1713 349.027 32.6508 348.84 32.7691C348.784 32.8052 348.469 33.0055 348.259 32.8873C347.836 32.6541 348.302 31.4126 348.348 29.9378C348.371 29.2152 348.295 28.1937 347.855 26.9456C348.105 26.9194 348.367 26.8865 348.64 26.8438C348.869 26.8077 349.089 26.7683 349.299 26.7256Z" fill="black" stroke="black" stroke-width="1.4056" stroke-linecap="round" stroke-linejoin="round"/>
<path d="M340.389 24.252C340.435 24.6625 340.497 25.28 340.54 26.0289C340.743 29.6976 340.117 30.1772 339.93 30.2954C339.874 30.3315 339.559 30.5319 339.349 30.4137C338.926 30.1805 339.392 28.9389 339.437 27.4642C339.46 26.7416 339.385 25.7201 338.945 24.472C339.195 24.4457 339.457 24.4129 339.729 24.3702C339.959 24.3341 340.179 24.2947 340.389 24.252Z" fill="black" stroke="black" stroke-width="1.4056" stroke-linecap="round" stroke-linejoin="round"/>
<path d="M364.811 17.8376C364.768 13.7977 361.602 11.4526 361.116 11.1044C357.445 8.47681 352.753 9.67238 349.735 10.4377C348.068 10.8614 346.218 11.7679 342.517 13.5842C336.822 16.376 336.188 17.322 335.933 17.8048C334.459 20.5769 335.03 24.5019 337.412 26.9915C340.296 30.0034 344.755 29.7801 347.622 28.3973C350.112 27.1984 351.366 25.1391 351.838 24.249C355.034 26.3576 359.053 26.305 361.779 24.1964C364.791 21.871 364.811 18.1332 364.807 17.8343L364.811 17.8376Z" fill="#FFDF00" stroke="black" stroke-width="1.87413" stroke-linecap="round" stroke-linejoin="round"/>
<path d="M351.841 24.2527C351.923 23.8454 351.989 23.3429 351.989 22.7714C351.989 22.0324 351.884 21.4018 351.766 20.9189" stroke="black" stroke-width="1.87413" stroke-linecap="round" stroke-linejoin="round"/>
<path d="M360.231 25.123C360.717 23.8848 361.442 21.5068 361.015 18.5869C360.205 13.0459 355.904 10.0406 355.103 9.50195C354.519 9.5348 353.902 9.59391 353.256 9.67931C351.944 9.85996 350.766 10.1326 349.742 10.438C350.733 10.957 353.512 12.5828 355.139 16.0151C357.311 20.5904 355.786 24.8865 355.484 25.688C356.242 25.8161 357.364 25.9047 358.666 25.6288C359.276 25.4975 359.801 25.3135 360.234 25.123H360.231Z" fill="black" stroke="black" stroke-width="1.4056" stroke-linecap="round" stroke-linejoin="round"/>
<path d="M341.678 14.001C342.78 14.3426 345.441 15.3345 347.584 17.9785C350.428 21.4896 350.34 25.4277 350.287 26.4262C349.943 26.7974 349.48 27.2309 348.886 27.6513C348.276 28.0816 347.695 28.3772 347.219 28.5809C347.347 27.5035 347.57 24.3964 345.74 21.194C343.42 17.141 339.503 15.8896 338.637 15.6334C339.103 15.364 339.582 15.0947 340.08 14.8287C340.622 14.5364 341.156 14.2605 341.678 14.001Z" fill="black" stroke="black" stroke-width="1.4056" stroke-linecap="round" stroke-linejoin="round"/>
<path d="M335.206 15.8307C336.154 15.5384 337.198 16.2117 337.454 17.1511C337.657 17.9 337.349 18.7901 336.719 19.1317C335.718 19.6703 334.068 18.7342 334.002 17.5288C333.963 16.8292 334.461 16.0607 335.206 15.834V15.8307Z" fill="white" stroke="black" stroke-width="1.4056" stroke-linecap="round" stroke-linejoin="round"/>
<path d="M339.023 18.4811C339.971 18.1888 341.014 18.8621 341.27 19.8015C341.473 20.5503 341.165 21.4405 340.535 21.782C339.534 22.3207 337.884 21.3846 337.819 20.1792C337.779 19.4796 338.278 18.711 339.023 18.4844V18.4811Z" fill="white" stroke="black" stroke-width="1.4056" stroke-linecap="round" stroke-linejoin="round"/>
<path d="M357.758 23.5654C357.846 23.9694 357.971 24.5771 358.089 25.3194C358.663 28.9487 358.089 29.4907 357.919 29.6253C357.866 29.668 357.574 29.8979 357.351 29.8027C356.908 29.6122 357.246 28.3312 357.138 26.8598C357.085 26.1405 356.908 25.1321 356.344 23.9333C356.59 23.8807 356.846 23.8216 357.112 23.7526C357.335 23.6935 357.551 23.6311 357.755 23.5654H357.758Z" fill="black" stroke="black" stroke-width="1.4056" stroke-linecap="round" stroke-linejoin="round"/>
<path opacity="0.58" d="M349.877 13.1043C349.877 11.577 349.677 9.08735 348.424 6.4072C348 5.50068 345.796 0.777569 343.584 1.12573C341.757 1.41148 340.343 5.01786 340.993 7.76699C341.189 8.60453 342.577 10.053 345.353 12.9499C345.76 13.3736 346.413 14.0371 347.298 14.0634C347.879 14.0798 348.496 13.8236 348.827 13.6823C349.28 13.4918 349.634 13.2718 349.877 13.1043Z" fill="white" stroke="black" stroke-width="1.4056" stroke-linecap="round" stroke-linejoin="round"/>
<path opacity="0.58" d="M352.187 13.1834C353.263 12.4444 355.261 10.8153 356.19 8.05635C356.361 7.55382 357.762 3.3825 355.75 1.70083C354.838 0.93883 353.418 0.846868 352.42 1.19174C349.651 2.15738 348.293 7.16953 348.824 13.6794C349.435 13.5546 350.084 13.4429 350.763 13.3477C351.252 13.2787 351.728 13.2261 352.184 13.1834H352.187Z" fill="white" stroke="black" stroke-width="1.4056" stroke-linecap="round" stroke-linejoin="round"/>
<path d="M55.4492 63.4359C53.7764 63.4261 51.3405 63.6171 48.5965 64.5768C44.5808 65.9822 41.9492 68.3277 40.6041 69.7184C40.5259 68.0241 40.208 65.6982 39.1759 63.147C37.1216 58.074 33.4874 55.1997 31.7559 54" stroke="black" stroke-width="3.62845" stroke-linecap="round" stroke-linejoin="round"/>
<path d="M29.6895 85.7277C27.19 85.4143 23.6047 85.2478 19.4129 86.0117C14.5901 86.8931 10.8972 88.6608 8.56406 90.0123C8.61298 88.1418 8.47113 85.6591 7.70809 82.868C6.33364 77.8293 3.65314 74.387 1.99989 72.5801" stroke="black" stroke-width="3.62845" stroke-linecap="round" stroke-linejoin="round"/>
</svg>
