<svg width="76" height="81" viewBox="0 0 76 81" fill="none" xmlns="http://www.w3.org/2000/svg">
<path fill-rule="evenodd" clip-rule="evenodd" d="M42.137 3.82886C60.802 3.82886 71.8328 22.6345 71.8328 41.3202C71.8328 59.4738 60.2706 77.0565 42.137 77.0565C21.5634 77.0565 3.39233 61.9167 3.39233 41.3202C3.39233 20.2533 21.0935 3.82886 42.137 3.82886Z" fill="#F0FCFF" stroke="black" stroke-width="6.65927"/>
<path d="M52.9117 42.3549C54.1442 41.1224 54.1442 39.1242 52.9117 37.8917L32.827 17.8069C31.5945 16.5744 29.5962 16.5744 28.3637 17.8069C27.1312 19.0394 27.1312 21.0377 28.3637 22.2702L46.2168 40.1233L28.3637 57.9764C27.1312 59.2089 27.1312 61.2072 28.3637 62.4397C29.5962 63.6722 31.5945 63.6722 32.827 62.4397L52.9117 42.3549ZM47.5276 43.2793L50.6801 43.2793L50.6801 36.9673L47.5276 36.9673L47.5276 43.2793Z" fill="black"/>
</svg>
