<svg width="77" height="81" viewBox="0 0 77 81" fill="none" xmlns="http://www.w3.org/2000/svg">
<path fill-rule="evenodd" clip-rule="evenodd" d="M33.9443 3.64551C15.2793 3.64551 4.24851 22.4512 4.24851 41.1368C4.24851 59.2905 15.8107 76.8732 33.9443 76.8732C54.5179 76.8732 72.689 61.7333 72.689 41.1368C72.689 20.0699 54.9878 3.64551 33.9443 3.64551Z" fill="#F0FCFF" stroke="black" stroke-width="6.65927"/>
<path d="M23.1696 42.1713C21.9371 40.9388 21.9371 38.9406 23.1696 37.7081L43.2543 17.6233C44.4868 16.3908 46.4851 16.3908 47.7176 17.6233C48.9501 18.8558 48.9501 20.8541 47.7176 22.0866L29.8645 39.9397L47.7176 57.7928C48.9501 59.0253 48.9501 61.0236 47.7176 62.2561C46.4851 63.4886 44.4868 63.4886 43.2543 62.2561L23.1696 42.1713ZM28.5537 43.0957L25.4012 43.0957L25.4012 36.7837L28.5537 36.7837L28.5537 43.0957Z" fill="black"/>
</svg>
