<svg width="162" height="9" viewBox="0 0 162 9" fill="none" xmlns="http://www.w3.org/2000/svg">
<path d="M2.37024 3.08426C4.04496 3.16799 5.43757 3.64829 7.01083 4.19551C9.24755 4.9735 11.5978 5.21054 13.9273 4.76447C17.2414 4.12986 20.5608 2.00647 23.9997 2.29304C25.1862 2.39193 26.3894 2.69281 27.5646 2.88868C28.1665 2.989 28.8451 2.98379 29.4226 3.16427C30.7177 3.56898 31.6338 4.53756 32.863 5.01339C35.3398 5.97216 37.9356 6.05517 40.5707 5.95573C41.909 5.90523 43.1362 5.71583 44.4556 6.00018C46.4911 6.43887 48.603 6.68291 50.6786 6.83585C53.3362 7.03167 56.0183 6.951 58.653 6.75583C60.0985 6.64876 61.4935 6.16264 62.9291 5.96462C64.003 5.8165 65.9106 5.51689 66.8585 4.92449C67.3495 4.61757 68.4104 4.84448 68.9565 4.84448C70.3092 4.84448 71.6285 5.16452 72.9837 5.16452C74.0835 5.16452 75.1456 5.13653 76.2285 5.33343C77.6839 5.59804 79.244 5.41189 80.6824 5.72459C82.3937 6.0966 84.0998 5.32454 85.8209 5.32454C87.6313 5.32454 89.0309 4.90061 90.7637 4.51555C93.3066 3.95046 95.9242 3.48344 98.4891 4.07994C99.5789 4.33337 100.578 4.97448 101.512 5.57346C102.621 6.2849 104.029 6.22697 105.281 6.40912C108.892 6.93436 112.385 6.44468 116.02 6.44468C117.253 6.44468 118.239 6.20304 119.425 5.97351C120.577 5.75056 121.759 5.95941 122.901 5.76904C124.193 5.5538 125.429 5.62396 126.724 5.449C127.321 5.36835 127.866 5.00456 128.395 4.85337C128.948 4.69546 129.717 4.98663 130.28 5.0045C132.766 5.08342 135.24 5.75449 137.659 6.28466C139.275 6.63896 140.934 6.76472 142.584 6.76472C143.455 6.76472 143.875 6.53083 144.664 6.2491C145.942 5.79247 146.932 5.04992 148.095 4.39998C149.05 3.86682 150.066 3.68557 151.029 3.27984C151.829 2.94313 153.226 3.36229 154.034 3.47542C154.975 3.60711 155.881 3.76436 156.808 3.97326C157.664 4.16629 158.629 4.04438 159.51 4.04438" stroke="#EDF8FE" stroke-width="3.88443" stroke-linecap="round"/>
</svg>
