<svg width="2128" height="275" viewBox="0 0 2128 275" fill="none" xmlns="http://www.w3.org/2000/svg">
<g clip-path="url(#clip0_2033_1426)">
<path opacity="0.5" d="M1091.72 173.592C883.163 155.32 300.305 148.776 5.14373 142.741L0.00369324 226.097C498.72 238.637 1561.59 233.389 2121.3 249.593L2128.08 139.542C1803.78 127.443 1173.1 143.893 971.397 131.017C936.814 128.811 638.776 95.8291 608.817 109.024C733.285 124.843 1480.67 197.577 1091.75 173.594L1091.72 173.592Z" fill="url(#paint0_linear_2033_1426)"/>
<path d="M1616.01 151.718C1616.01 138.685 1626.55 128.122 1639.56 128.122C1644.84 128.122 1649.72 129.866 1653.65 132.819C1658.35 123.284 1668.15 116.724 1679.47 116.724C1684.06 116.724 1688.4 117.8 1692.25 119.716C1698.36 104.078 1713.55 93 1731.32 93C1752.32 93 1769.72 108.458 1772.79 128.64C1774.56 128.302 1776.37 128.122 1778.23 128.122C1794.12 128.122 1807.01 141.036 1807.01 156.965C1807.01 172.893 1794.12 185.808 1778.23 185.808C1777.47 185.808 1776.71 185.777 1775.96 185.72C1768.33 196.213 1755.97 203.037 1742.03 203.037C1729.22 203.037 1717.75 197.276 1710.05 188.198C1704.8 195.294 1696.39 199.895 1686.9 199.895C1677.42 199.895 1669.32 195.461 1664.06 188.589C1660.26 191.217 1655.66 192.759 1650.69 192.759C1638.6 192.759 1628.65 183.633 1627.31 171.878C1620.53 167.735 1616.01 160.26 1616.01 151.723V151.718Z" fill="white" stroke="black" stroke-width="1.88394" stroke-linecap="round" stroke-linejoin="round"/>
</g>
<defs>
<linearGradient id="paint0_linear_2033_1426" x1="259.01" y1="619.5" x2="1723.01" y2="182.998" gradientUnits="userSpaceOnUse">
<stop offset="0.34" stop-color="white"/>
<stop offset="0.909292" stop-color="white" stop-opacity="0"/>
</linearGradient>
<clipPath id="clip0_2033_1426">
<rect width="2128" height="275" fill="white"/>
</clipPath>
</defs>
</svg>
