<svg width="404" height="326" viewBox="0 0 404 326" fill="none" xmlns="http://www.w3.org/2000/svg">
<mask id="mask0_189_112" style="mask-type:alpha" maskUnits="userSpaceOnUse" x="0" y="0" width="404" height="326">
<rect width="404" height="326" fill="#D9D9D9"/>
</mask>
<g mask="url(#mask0_189_112)">
<mask id="path-2-inside-1_189_112" fill="white">
<path d="M364.497 123.746C364.497 146.201 359.875 168.416 350.919 189.007C341.963 209.599 328.864 228.127 312.438 243.437C296.012 258.748 276.61 270.513 255.441 278.002C234.271 285.49 211.787 288.541 189.387 286.965C166.987 285.388 145.152 279.218 125.24 268.838C105.328 258.458 87.7655 244.091 73.6459 226.63C59.5264 209.17 49.1519 188.99 43.1682 167.347C37.1845 145.704 35.7197 123.061 38.865 100.827L69.1676 105.114C66.6106 123.189 67.8014 141.597 72.6659 159.192C77.5304 176.787 85.9644 193.192 97.443 207.387C108.922 221.581 123.199 233.261 139.387 241.7C155.574 250.138 173.326 255.154 191.536 256.436C209.746 257.718 228.024 255.237 245.234 249.149C262.444 243.062 278.217 233.497 291.571 221.05C304.925 208.603 315.573 193.541 322.854 176.801C330.136 160.06 333.893 142.001 333.893 123.746H364.497Z"/>
</mask>
<path d="M364.497 123.746C364.497 146.201 359.875 168.416 350.919 189.007C341.963 209.599 328.864 228.127 312.438 243.437C296.012 258.748 276.61 270.513 255.441 278.002C234.271 285.49 211.787 288.541 189.387 286.965C166.987 285.388 145.152 279.218 125.24 268.838C105.328 258.458 87.7655 244.091 73.6459 226.63C59.5264 209.17 49.1519 188.99 43.1682 167.347C37.1845 145.704 35.7197 123.061 38.865 100.827L69.1676 105.114C66.6106 123.189 67.8014 141.597 72.6659 159.192C77.5304 176.787 85.9644 193.192 97.443 207.387C108.922 221.581 123.199 233.261 139.387 241.7C155.574 250.138 173.326 255.154 191.536 256.436C209.746 257.718 228.024 255.237 245.234 249.149C262.444 243.062 278.217 233.497 291.571 221.05C304.925 208.603 315.573 193.541 322.854 176.801C330.136 160.06 333.893 142.001 333.893 123.746H364.497Z" fill="#FF7100" stroke="black" stroke-width="2.90174" mask="url(#path-2-inside-1_189_112)"/>
<mask id="path-3-inside-2_189_112" fill="white">
<path d="M400.749 122.874C400.749 154.644 393.176 185.955 378.658 214.213C364.14 242.471 343.095 266.862 317.268 285.362C291.441 303.862 261.577 315.94 230.15 320.593C198.723 325.246 166.64 322.341 136.56 312.119C106.481 301.896 79.271 284.651 57.1873 261.813C35.1036 238.974 18.7821 211.2 9.57599 180.794C0.369864 150.388 -1.45565 118.225 4.2508 86.9727C9.95724 55.7201 23.0313 26.2779 42.3889 1.08723L72.0323 23.8666C56.2954 44.3455 45.6668 68.2808 41.0277 93.6878C36.3886 119.095 37.8726 145.242 45.3568 169.961C52.841 194.68 66.1097 217.258 84.0629 235.825C102.016 254.392 124.136 268.412 148.59 276.722C173.043 285.033 199.126 287.394 224.674 283.611C250.223 279.829 274.502 270.01 295.498 254.97C316.494 239.93 333.602 220.102 345.405 197.129C357.207 174.157 363.364 148.701 363.364 122.874L400.749 122.874Z"/>
</mask>
<path d="M400.749 122.874C400.749 154.644 393.176 185.955 378.658 214.213C364.14 242.471 343.095 266.862 317.268 285.362C291.441 303.862 261.577 315.94 230.15 320.593C198.723 325.246 166.64 322.341 136.56 312.119C106.481 301.896 79.271 284.651 57.1873 261.813C35.1036 238.974 18.7821 211.2 9.57599 180.794C0.369864 150.388 -1.45565 118.225 4.2508 86.9727C9.95724 55.7201 23.0313 26.2779 42.3889 1.08723L72.0323 23.8666C56.2954 44.3455 45.6668 68.2808 41.0277 93.6878C36.3886 119.095 37.8726 145.242 45.3568 169.961C52.841 194.68 66.1097 217.258 84.0629 235.825C102.016 254.392 124.136 268.412 148.59 276.722C173.043 285.033 199.126 287.394 224.674 283.611C250.223 279.829 274.502 270.01 295.498 254.97C316.494 239.93 333.602 220.102 345.405 197.129C357.207 174.157 363.364 148.701 363.364 122.874L400.749 122.874Z" fill="#FF0037" stroke="black" stroke-width="2.90174" mask="url(#path-3-inside-2_189_112)"/>
<mask id="path-4-inside-3_189_112" fill="white">
<path d="M334.223 124.257C334.223 142.614 330.444 160.775 323.122 177.608C315.8 194.442 305.091 209.588 291.662 222.103C278.233 234.619 262.372 244.237 245.065 250.357C227.758 256.478 209.377 258.97 191.065 257.679C172.754 256.389 154.904 251.342 138.627 242.855C122.35 234.367 107.994 222.619 96.4538 208.344C84.9132 194.068 76.4349 177.569 71.5465 159.875C66.6581 142.181 65.4642 123.67 68.0393 105.494L92.8094 109.004C90.716 123.78 91.6865 138.828 95.6606 153.213C99.6347 167.598 106.527 181.01 115.909 192.616C125.291 204.222 136.962 213.772 150.194 220.672C163.427 227.572 177.938 231.674 192.824 232.724C207.711 233.773 222.654 231.747 236.724 226.771C250.793 221.795 263.688 213.977 274.605 203.802C285.523 193.627 294.228 181.314 300.181 167.629C306.134 153.944 309.206 139.181 309.206 124.257H334.223Z"/>
</mask>
<path d="M334.223 124.257C334.223 142.614 330.444 160.775 323.122 177.608C315.8 194.442 305.091 209.588 291.662 222.103C278.233 234.619 262.372 244.237 245.065 250.357C227.758 256.478 209.377 258.97 191.065 257.679C172.754 256.389 154.904 251.342 138.627 242.855C122.35 234.367 107.994 222.619 96.4538 208.344C84.9132 194.068 76.4349 177.569 71.5465 159.875C66.6581 142.181 65.4642 123.67 68.0393 105.494L92.8094 109.004C90.716 123.78 91.6865 138.828 95.6606 153.213C99.6347 167.598 106.527 181.01 115.909 192.616C125.291 204.222 136.962 213.772 150.194 220.672C163.427 227.572 177.938 231.674 192.824 232.724C207.711 233.773 222.654 231.747 236.724 226.771C250.793 221.795 263.688 213.977 274.605 203.802C285.523 193.627 294.228 181.314 300.181 167.629C306.134 153.944 309.206 139.181 309.206 124.257H334.223Z" fill="#FFEC00" stroke="black" stroke-width="2.90174" mask="url(#path-4-inside-3_189_112)"/>
<mask id="path-5-inside-4_189_112" fill="white">
<path d="M310.533 123.766C310.533 148.162 302.428 171.867 287.49 191.155C272.553 210.444 251.63 224.223 228.01 230.327C204.39 236.432 179.411 234.515 156.999 224.879C134.586 215.243 116.01 198.434 104.19 177.092L122.198 167.118C131.808 184.468 146.909 198.133 165.13 205.967C183.35 213.8 203.657 215.358 222.859 210.396C242.061 205.433 259.071 194.231 271.214 178.551C283.358 162.87 289.947 143.599 289.947 123.766H310.533Z"/>
</mask>
<path d="M310.533 123.766C310.533 148.162 302.428 171.867 287.49 191.155C272.553 210.444 251.63 224.223 228.01 230.327C204.39 236.432 179.411 234.515 156.999 224.879C134.586 215.243 116.01 198.434 104.19 177.092L122.198 167.118C131.808 184.468 146.909 198.133 165.13 205.967C183.35 213.8 203.657 215.358 222.859 210.396C242.061 205.433 259.071 194.231 271.214 178.551C283.358 162.87 289.947 143.599 289.947 123.766H310.533Z" fill="#A8FF00" stroke="black" stroke-width="2.90174" mask="url(#path-5-inside-4_189_112)"/>
<mask id="path-6-inside-5_189_112" fill="white">
<path d="M290.791 124.052C290.791 144.072 284.14 163.525 271.881 179.354C259.623 195.183 242.453 206.49 223.07 211.499C203.686 216.509 183.188 214.936 164.796 207.028C146.403 199.12 131.159 185.326 121.46 167.812L136.238 159.627C144.124 173.865 156.516 185.079 171.468 191.508C186.421 197.937 203.085 199.215 218.843 195.143C234.601 191.071 248.559 181.878 258.525 169.01C268.49 156.142 273.897 140.327 273.897 124.052H290.791Z"/>
</mask>
<path d="M290.791 124.052C290.791 144.072 284.14 163.525 271.881 179.354C259.623 195.183 242.453 206.49 223.07 211.499C203.686 216.509 183.188 214.936 164.796 207.028C146.403 199.12 131.159 185.326 121.46 167.812L136.238 159.627C144.124 173.865 156.516 185.079 171.468 191.508C186.421 197.937 203.085 199.215 218.843 195.143C234.601 191.071 248.559 181.878 258.525 169.01C268.49 156.142 273.897 140.327 273.897 124.052H290.791Z" fill="#00FFB6" stroke="black" stroke-width="2.90174" mask="url(#path-6-inside-5_189_112)"/>
<mask id="path-7-inside-6_189_112" fill="white">
<path d="M274.506 125.818C274.506 142.122 269.089 157.964 259.106 170.855C249.124 183.746 235.141 192.954 219.355 197.034C203.569 201.113 186.876 199.833 171.897 193.393C156.918 186.953 144.504 175.719 136.605 161.456L148.64 154.79C155.062 166.385 165.154 175.518 177.331 180.753C189.508 185.989 203.079 187.03 215.913 183.713C228.746 180.397 240.113 172.911 248.229 162.431C256.345 151.951 260.748 139.072 260.748 125.818H274.506Z"/>
</mask>
<path d="M274.506 125.818C274.506 142.122 269.089 157.964 259.106 170.855C249.124 183.746 235.141 192.954 219.355 197.034C203.569 201.113 186.876 199.833 171.897 193.393C156.918 186.953 144.504 175.719 136.605 161.456L148.64 154.79C155.062 166.385 165.154 175.518 177.331 180.753C189.508 185.989 203.079 187.03 215.913 183.713C228.746 180.397 240.113 172.911 248.229 162.431C256.345 151.951 260.748 139.072 260.748 125.818H274.506Z" fill="#6A51E8" stroke="black" stroke-width="2.90174" mask="url(#path-7-inside-6_189_112)"/>
<mask id="path-8-inside-7_189_112" fill="white">
<path d="M262 125.873C262 139.3 257.534 152.345 249.304 162.954C241.075 173.563 229.551 181.133 216.546 184.472L213.732 173.512C224.304 170.797 233.673 164.643 240.363 156.018C247.053 147.393 250.684 136.788 250.684 125.873H262Z"/>
</mask>
<path d="M262 125.873C262 139.3 257.534 152.345 249.304 162.954C241.075 173.563 229.551 181.133 216.546 184.472L213.732 173.512C224.304 170.797 233.673 164.643 240.363 156.018C247.053 147.393 250.684 136.788 250.684 125.873H262Z" fill="#C264F4" stroke="black" stroke-width="2.90174" mask="url(#path-8-inside-7_189_112)"/>
</g>
</svg>
