<svg width="28" height="28" viewBox="0 0 28 28" fill="none" xmlns="http://www.w3.org/2000/svg">
<path d="M18.4465 13.1726C18.636 13.0629 18.5993 13.0656 18.5433 13.0997C18.513 13.1247 18.4822 13.1499 18.4499 13.1699C18.4488 13.1708 18.4477 13.1717 18.4465 13.1726Z" fill="#FF0037"/>
<path d="M24.0785 5.00533C22.0785 3.24447 19.5908 2.11629 16.971 1.71093C17.0207 1.50718 17.0249 1.28559 16.9651 1.10081C16.8701 0.80733 16.6883 0.524203 16.4077 0.375989C16.1007 0.213746 15.8139 0.201862 15.4731 0.253726C13.3745 0.572978 11.3846 1.33175 9.56834 2.40032C8.13341 2.86801 6.75264 3.50778 5.46818 4.27404C4.76043 4.69626 4.07981 5.16173 3.42549 5.66263C3.16334 5.86333 2.95952 6.05552 2.86811 6.38749C2.78815 6.67781 2.82424 7.06441 2.99037 7.32206C3.1407 7.55518 3.39729 7.75642 3.68303 7.86138C3.09359 8.72519 2.58185 9.63937 2.16404 10.5892C0.907378 13.4463 0.403894 16.5712 0.997005 19.6579C1.59662 22.7784 3.53452 25.577 6.49702 26.857C9.61017 28.2021 13.1847 28.1456 16.4266 27.2966C19.5189 26.4868 22.483 24.8344 24.5916 22.4046C26.7361 19.9333 27.9942 16.6996 27.9383 13.4128C27.8837 10.1935 26.4991 7.13641 24.0785 5.00533ZM9.07158 5.63232C9.09321 5.61524 9.11487 5.59819 9.13642 5.58107C9.25563 5.48647 9.12308 5.59812 9.07158 5.63232ZM13.9035 25.3408C13.9087 25.3402 13.9132 25.3397 13.9153 25.3395C13.9114 25.3398 13.9074 25.3405 13.9035 25.3408ZM25.4762 14.5354C25.4628 14.7003 25.4388 14.8644 25.4239 15.0291C25.4204 15.0529 25.4169 15.0767 25.4131 15.1004C25.3989 15.1902 25.3837 15.2798 25.3675 15.3692C25.2374 16.0864 25.0423 16.7917 24.7876 17.4747C24.7558 17.5602 24.7228 17.6454 24.6891 17.7302C24.6771 17.7604 24.6502 17.8161 24.63 17.8571C24.6411 17.8352 24.6562 17.8054 24.6765 17.7657C24.5938 17.9277 24.528 18.0997 24.4486 18.2637C24.2894 18.592 24.1157 18.9135 23.9279 19.2263C23.7404 19.5387 23.5391 19.8429 23.324 20.1369C23.2781 20.1996 23.2274 20.26 23.184 20.3244C23.3694 20.049 23.2088 20.2906 23.1565 20.3552C23.0318 20.5091 22.9036 20.6602 22.7719 20.8083C22.2909 21.349 21.7647 21.8493 21.2033 22.3057C21.1415 22.356 21.0759 22.4034 21.0147 22.4548C20.9933 22.471 20.9718 22.4872 20.9503 22.5032C20.8023 22.6129 20.6522 22.7198 20.5002 22.8238C20.1956 23.0321 19.8832 23.2289 19.5641 23.4142C19.2442 23.5998 18.9176 23.7739 18.5853 23.9364C18.4307 24.0119 18.275 24.085 18.1181 24.1556C18.06 24.1817 18.0016 24.2069 17.9433 24.2323C17.8904 24.2521 17.8381 24.2766 17.7858 24.2975C17.1079 24.5691 16.412 24.7958 15.7046 24.9775C15.3443 25.0701 14.9809 25.1511 14.6153 25.2203C14.4327 25.2549 14.2494 25.2866 14.0658 25.3153C14.0008 25.3255 13.9357 25.335 13.8706 25.3446C13.8328 25.3491 13.7951 25.3546 13.7575 25.3591C13.0084 25.4487 12.2531 25.4906 11.4987 25.4752C11.1169 25.4674 10.7354 25.445 10.3556 25.4062C10.2759 25.398 10.1965 25.3882 10.1169 25.3792C10.1014 25.3773 10.0859 25.3754 10.0706 25.3731C9.86938 25.3429 9.66891 25.3079 9.46952 25.2676C9.09957 25.1927 8.73314 25.1001 8.37282 24.9876C8.20654 24.9356 8.04157 24.8794 7.87824 24.8188C7.80646 24.7921 7.73526 24.764 7.66402 24.736C7.62687 24.7197 7.54859 24.6861 7.53849 24.6815C7.2112 24.5321 6.89293 24.3629 6.58705 24.1735C6.42804 24.075 6.27249 23.9712 6.12079 23.8618C6.11043 23.8544 6.08531 23.8359 6.05846 23.8161C6.0349 23.7977 5.99845 23.7694 5.98322 23.7569C5.94244 23.7235 5.90199 23.6896 5.8619 23.6553C5.60243 23.4334 5.3582 23.1939 5.13075 22.9394C5.02612 22.8222 4.93217 22.6954 4.82749 22.5787C4.84367 22.5968 4.8573 22.612 4.86954 22.6257C4.85068 22.6034 4.83225 22.5809 4.82051 22.5648C4.76385 22.4869 4.70857 22.4079 4.65467 22.328C4.4659 22.0481 4.29439 21.7567 4.13985 21.4565C4.06785 21.3167 3.99952 21.1749 3.93483 21.0316C3.92334 21.0061 3.91244 20.9799 3.90128 20.9539C3.87417 20.8856 3.84684 20.8175 3.821 20.7487C3.58341 20.116 3.41096 19.4596 3.29625 18.7938C3.2815 18.7083 3.26779 18.6226 3.25496 18.5367C3.25412 18.5312 3.25343 18.5264 3.25267 18.5215C3.23323 18.3499 3.21491 18.1784 3.20132 18.0062C3.17384 17.6576 3.16116 17.3078 3.1621 16.9581C3.16305 16.6083 3.17802 16.2584 3.20637 15.9098C3.21949 15.7483 3.23559 15.5871 3.25449 15.4262C3.25594 15.4139 3.25751 15.4015 3.25903 15.3892C3.27499 15.3006 3.28491 15.2104 3.29956 15.1217C3.41012 14.4521 3.57055 13.7906 3.7731 13.143C3.87355 12.8219 3.98466 12.504 4.1059 12.19C4.13189 12.1228 4.15831 12.0558 4.18521 11.9889C4.19102 11.9744 4.20345 11.9441 4.21665 11.912C4.2366 11.8663 4.27847 11.7688 4.28785 11.7477C4.32205 11.6708 4.3569 11.5943 4.39234 11.518C4.67586 10.9075 4.99788 10.315 5.35456 9.74415C5.53309 9.45841 5.72026 9.17812 5.91565 8.90364C6.00641 8.77614 6.09894 8.64984 6.19318 8.52493C6.20877 8.50425 6.22567 8.48331 6.24225 8.46212C6.28884 8.40364 6.33507 8.34488 6.38221 8.28683C6.80018 7.77237 7.24795 7.28212 7.72228 6.81908C7.96383 6.58332 8.21225 6.35456 8.46713 6.13329C8.59456 6.02266 8.72362 5.91392 8.85424 5.8071C8.91021 5.76134 8.96647 5.71588 9.02303 5.67081C9.03895 5.65812 9.05493 5.64555 9.07089 5.63297C9.35398 5.46786 9.61177 5.23194 9.88443 5.04815C10.0907 4.90906 10.3001 4.77465 10.5124 4.64487C10.6196 4.61172 10.7271 4.57934 10.8349 4.5483C11.221 4.43712 11.611 4.33961 12.0042 4.2567C12.2005 4.21534 12.3975 4.17762 12.5951 4.14371C12.6798 4.12917 12.7646 4.11532 12.8495 4.1022C12.8924 4.09555 12.9354 4.08941 12.9783 4.08301C13.7687 3.99429 14.5586 3.94796 15.3543 3.97968C15.7113 3.9939 16.0652 4.02701 16.4201 4.06579C16.4211 4.06593 16.4222 4.06608 16.4233 4.06622C16.5097 4.07912 16.596 4.09286 16.6822 4.10755C16.8546 4.13691 17.0265 4.16984 17.1977 4.20622C17.8831 4.35196 18.5566 4.5535 19.2096 4.80747C19.2556 4.82536 19.3014 4.84385 19.3471 4.86239C19.3831 4.88391 19.4418 4.9015 19.4741 4.91582C19.634 4.98673 19.7924 5.06094 19.9493 5.13832C20.2624 5.29271 20.5691 5.46015 20.8683 5.64006C21.1664 5.81939 21.4572 6.01118 21.7389 6.21533C21.797 6.25749 21.8545 6.30059 21.9122 6.34337C21.9195 6.34926 21.9275 6.35569 21.937 6.36328C22.0819 6.47904 22.2242 6.59818 22.3633 6.72077C22.6224 6.94909 22.8712 7.18904 23.1081 7.44033C23.2179 7.55677 23.3251 7.67569 23.4296 7.79694C23.4858 7.86222 23.5413 7.92807 23.5959 7.99469C23.6306 8.03696 23.7159 8.15552 23.7266 8.16955C24.086 8.6851 24.4255 9.20083 24.6993 9.77137C24.7374 9.85082 24.7745 9.93075 24.8104 10.0112C24.8159 10.0234 24.8212 10.0357 24.8265 10.0479C24.89 10.2156 24.9558 10.382 25.0136 10.5519C25.1295 10.8931 25.2266 11.2406 25.305 11.5924C25.3414 11.7555 25.3737 11.9195 25.4022 12.0841C25.4142 12.1533 25.4245 12.2227 25.4354 12.292C25.4403 12.3317 25.4457 12.3714 25.45 12.4109C25.4892 12.7693 25.5102 13.1297 25.5138 13.4902C25.5172 13.8389 25.5045 14.1878 25.4762 14.5354Z" fill="#FF0037"/>
<path d="M19.3581 19.2963C19.3823 19.3326 19.3883 19.3749 19.3762 19.4232C19.3641 19.4595 19.346 19.4957 19.3218 19.532C19.2856 19.5561 19.2493 19.5924 19.2131 19.6407C19.1768 19.677 19.1345 19.7072 19.0862 19.7314C19.0137 19.7797 18.9412 19.8341 18.8686 19.8945C18.7961 19.9549 18.7236 20.0154 18.6511 20.0758C18.494 20.1966 18.355 20.3175 18.2342 20.4383C18.1254 20.5471 17.9925 20.6982 17.8354 20.8915C17.8112 20.9157 17.781 20.9399 17.7448 20.964C17.7206 21.0003 17.6904 21.0305 17.6541 21.0547C17.642 21.0668 17.6179 21.0788 17.5816 21.0909C17.5574 21.103 17.5333 21.1151 17.5091 21.1272C17.497 21.1151 17.4789 21.103 17.4547 21.0909C17.4305 21.0909 17.4064 21.0849 17.3822 21.0728C17.2855 20.9761 17.1828 20.8794 17.074 20.7828C16.9774 20.6861 16.8746 20.5954 16.7659 20.5108C16.6088 20.4021 16.4698 20.2812 16.3489 20.1483C16.2281 20.0033 16.1012 19.8643 15.9683 19.7314C15.932 19.6951 15.9018 19.6528 15.8776 19.6045C15.8656 19.5441 15.8474 19.4897 15.8233 19.4413C15.7749 19.4172 15.7205 19.393 15.6601 19.3688C15.6118 19.3326 15.5634 19.2963 15.5151 19.2601C15.4668 19.2117 15.4184 19.1573 15.3701 19.0969C15.3338 19.0365 15.2976 18.9761 15.2613 18.9156C15.2009 18.819 15.1405 18.7283 15.08 18.6437C15.0196 18.5591 14.9471 18.4745 14.8625 18.39C14.8142 18.3295 14.7779 18.2631 14.7537 18.1906C14.7296 18.118 14.6812 18.0576 14.6087 18.0093C14.5362 17.9851 14.4577 17.967 14.3731 17.9549C14.2885 17.9307 14.2099 17.9126 14.1374 17.9005C14.0286 17.9247 13.9441 18.0032 13.8836 18.1362C13.7265 18.4745 13.4667 18.7525 13.1042 18.97C13.0075 19.0305 12.9229 19.109 12.8504 19.2057C12.7779 19.3024 12.6933 19.399 12.5966 19.4957C12.4516 19.7253 12.2763 19.9247 12.0709 20.0939C11.8775 20.2631 11.66 20.4202 11.4183 20.5652C11.3821 20.6015 11.3398 20.6377 11.2914 20.674C11.2431 20.7102 11.1887 20.7525 11.1283 20.8009L10.5663 20.9822C10.373 20.8976 10.2098 20.7767 10.0769 20.6196C9.95605 20.4625 9.81103 20.3417 9.64184 20.2571C9.54516 20.112 9.46661 19.967 9.40618 19.822C9.34576 19.677 9.29742 19.532 9.26116 19.387C9.32159 19.254 9.37597 19.1332 9.42431 19.0244C9.48473 18.9156 9.5512 18.825 9.62371 18.7525C9.76873 18.6437 9.85937 18.5108 9.89562 18.3537C9.95605 18.2812 10.0044 18.2026 10.0406 18.118C10.089 18.0939 10.1252 18.0818 10.1494 18.0818C10.1857 18.0818 10.2219 18.0757 10.2582 18.0637C10.3428 18.0395 10.3851 17.9972 10.3851 17.9368C10.3851 17.8643 10.4092 17.8159 10.4576 17.7918C10.5059 17.7555 10.5542 17.7313 10.6026 17.7192C10.6388 17.7072 10.6691 17.7072 10.6932 17.7192C10.7295 17.7192 10.7657 17.7132 10.802 17.7011C10.8141 17.6769 10.8262 17.6588 10.8382 17.6467C10.8503 17.6226 10.8564 17.6044 10.8564 17.5924C10.8564 17.5198 10.8624 17.4534 10.8745 17.393C10.8866 17.3204 10.9228 17.26 10.9833 17.2117C10.9833 17.0787 11.0195 16.9821 11.092 16.9216C11.1766 16.8612 11.2673 16.7947 11.3639 16.7222C11.4002 16.6256 11.4364 16.5289 11.4727 16.4322C11.509 16.3355 11.5392 16.257 11.5633 16.1965C11.6117 16.0757 11.6781 15.9911 11.7627 15.9428C11.8473 15.8944 11.8957 15.8219 11.9078 15.7252C11.8957 15.7132 11.8896 15.695 11.8896 15.6709C11.8292 15.6104 11.7627 15.55 11.6902 15.4896C11.6298 15.4171 11.5694 15.3446 11.509 15.2721C11.4485 15.1995 11.3941 15.127 11.3458 15.0545C11.2975 14.9699 11.237 14.8974 11.1645 14.837C11.1162 14.7887 11.0799 14.7222 11.0558 14.6376C11.0316 14.553 10.9953 14.4986 10.947 14.4745C10.9108 14.4382 10.8624 14.408 10.802 14.3838C10.7899 14.3234 10.7718 14.269 10.7476 14.2207C10.7355 14.1723 10.7234 14.1179 10.7113 14.0575C10.6993 14.0454 10.6811 14.0334 10.657 14.0213C10.6328 13.9971 10.6086 13.979 10.5845 13.9669C10.4636 13.9065 10.3548 13.8279 10.2582 13.7312C10.1615 13.6225 10.0648 13.5258 9.96813 13.4412C9.91979 13.4049 9.88354 13.3626 9.85937 13.3143C9.78686 13.1451 9.69018 13.0001 9.56933 12.8792C9.44848 12.7463 9.32159 12.6073 9.18866 12.4623C9.12823 12.3536 9.06781 12.2387 9.00738 12.1179C8.94696 11.985 8.89258 11.852 8.84424 11.7191C8.7959 11.6224 8.74151 11.5257 8.68109 11.4291C8.63275 11.3203 8.59045 11.2115 8.5542 11.1028C8.53003 11.0786 8.51794 11.0242 8.51794 10.9396C8.61462 10.8067 8.72943 10.704 8.86236 10.6315C8.9953 10.5469 9.09802 10.4381 9.17053 10.3052C9.24304 10.2931 9.3095 10.2931 9.36993 10.3052C9.44244 10.3173 9.50286 10.2991 9.5512 10.2508C9.58746 10.2145 9.64184 10.1964 9.71435 10.1964C9.87145 10.1601 10.0286 10.1179 10.1857 10.0695C10.3428 10.0091 10.4999 9.96679 10.657 9.94262C10.6811 9.93054 10.7113 9.91845 10.7476 9.90637C10.7839 9.89428 10.8141 9.88824 10.8382 9.88824C11.0074 9.86407 11.1404 9.90032 11.237 9.997C11.2612 10.0212 11.2854 10.0453 11.3096 10.0695C11.3458 10.0816 11.37 10.0997 11.3821 10.1239C11.4667 10.2447 11.5573 10.3535 11.654 10.4502C11.7627 10.5348 11.8715 10.6133 11.9803 10.6858C12.0649 10.8671 12.1192 10.988 12.1434 11.0484C12.1676 11.1088 12.1978 11.1572 12.234 11.1934C12.2703 11.2176 12.3428 11.2659 12.4516 11.3384C12.4637 11.3505 12.4757 11.3686 12.4878 11.3928C12.4999 11.4049 12.506 11.423 12.506 11.4472C12.5422 11.6285 12.6449 11.7372 12.8141 11.7735C12.8866 11.7977 12.9289 11.8097 12.941 11.8097C13.0014 11.8581 13.0316 11.9245 13.0316 12.0091C13.0437 12.0816 13.0921 12.1481 13.1767 12.2085C13.2492 12.2085 13.3096 12.2327 13.3579 12.281C13.3942 12.2931 13.4244 12.3052 13.4486 12.3173C13.4848 12.3173 13.509 12.3173 13.5211 12.3173C13.6298 12.4019 13.6963 12.5107 13.7205 12.6436C13.7567 12.7644 13.8232 12.8611 13.9199 12.9336H14.0105C14.1072 12.8974 14.2039 12.8611 14.3006 12.8249C14.3972 12.7886 14.4939 12.7524 14.5906 12.7161C14.6389 12.6557 14.6812 12.5953 14.7175 12.5348C14.7537 12.4744 14.796 12.414 14.8444 12.3536C14.9048 12.2569 14.9713 12.1602 15.0438 12.0635C15.1163 11.9548 15.1888 11.8581 15.2613 11.7735C15.3338 11.6768 15.3882 11.5741 15.4245 11.4653C15.4607 11.3566 15.509 11.2599 15.5695 11.1753C15.6299 11.0786 15.6903 10.994 15.7507 10.9215C15.8233 10.8369 15.9018 10.7463 15.9864 10.6496C16.071 10.3958 16.1918 10.1541 16.3489 9.92449C16.5181 9.69488 16.7115 9.4834 16.929 9.29004C17.062 9.33838 17.1828 9.38067 17.2916 9.41693C17.4003 9.45318 17.5091 9.50757 17.6179 9.58008C17.7508 9.70092 17.9321 9.79156 18.1617 9.85199C18.2221 9.86407 18.2765 9.8822 18.3248 9.90637C18.3732 9.93054 18.4215 9.94866 18.4698 9.96075C18.5544 10.0333 18.6088 10.1058 18.633 10.1783C18.6692 10.2508 18.6995 10.3293 18.7236 10.4139C18.7478 10.426 18.772 10.4381 18.7961 10.4502C18.8324 10.4623 18.8626 10.4744 18.8868 10.4864C18.9109 10.5348 18.9351 10.5892 18.9593 10.6496C18.9955 10.6979 19.0257 10.7523 19.0499 10.8127C19.0862 10.8611 19.1285 10.9094 19.1768 10.9578C19.2372 10.994 19.2735 11.0484 19.2856 11.1209C19.2735 11.1813 19.2493 11.2478 19.2131 11.3203C19.1889 11.3807 19.1647 11.4411 19.1406 11.5016V11.8822C19.0922 11.9668 19.0318 12.0273 18.9593 12.0635C18.8989 12.0877 18.8384 12.1179 18.778 12.1542C18.7659 12.1783 18.7478 12.2025 18.7236 12.2267C18.7115 12.2387 18.6934 12.2569 18.6692 12.281C18.5967 12.414 18.5182 12.5409 18.4336 12.6617C18.3611 12.7826 18.2704 12.9034 18.1617 13.0243C18.0892 13.1089 18.0227 13.1995 17.9623 13.2962C17.9019 13.3929 17.8354 13.4895 17.7629 13.5862V13.8037C17.7145 13.8521 17.6602 13.9065 17.5997 13.9669C17.5514 14.0152 17.5091 14.0757 17.4728 14.1482C17.4245 14.2207 17.3701 14.2811 17.3097 14.3294C17.2493 14.3778 17.207 14.4442 17.1828 14.5288C17.1465 14.6134 17.0922 14.6799 17.0197 14.7282C16.9471 14.7645 16.8867 14.843 16.8384 14.9639C16.8263 15.0122 16.8142 15.0727 16.8021 15.1452C16.8021 15.2177 16.79 15.2962 16.7659 15.3808C17.0559 15.7554 17.3097 16.1543 17.5272 16.5772V16.7947C17.5876 16.8552 17.642 16.9096 17.6904 16.9579C17.7508 17.0062 17.7991 17.0546 17.8354 17.1029C18.065 17.393 18.3067 17.6467 18.5605 17.8643C18.6088 17.9126 18.6511 17.967 18.6874 18.0274C18.7357 18.0757 18.7599 18.1362 18.7599 18.2087C18.772 18.257 18.7961 18.3054 18.8324 18.3537C18.8686 18.402 18.8928 18.4443 18.9049 18.4806C19.0016 18.6014 19.0801 18.7344 19.1406 18.8794C19.201 19.0244 19.2735 19.1634 19.3581 19.2963Z" fill="#FF0037"/>
</svg>
