<svg width="112" height="14" viewBox="0 0 112 14" fill="none" xmlns="http://www.w3.org/2000/svg">
<path d="M14.0917 10.6676L11.5227 1.05397H13.4252L15.1748 8.70372L17.23 1.05397H19.1879L21.1876 8.70372L22.9372 1.05397H24.8534L22.2151 10.6676H20.1044L18.1742 3.5398L16.1885 10.6676H14.0917ZM28.2978 10.8324C27.6034 10.8324 26.9879 10.6859 26.4508 10.3929C25.9139 10.1 25.4926 9.68796 25.1872 9.15689C24.8818 8.62587 24.729 8.0124 24.729 7.31657C24.729 6.61158 24.877 5.98443 25.1732 5.43505C25.4787 4.88573 25.8955 4.45997 26.4231 4.1578C26.96 3.84651 27.5895 3.69087 28.3117 3.69087C28.9873 3.69087 29.5845 3.83733 30.1029 4.13032C30.6213 4.42331 31.0242 4.82618 31.3109 5.3389C31.6074 5.84248 31.7553 6.40557 31.7553 7.02817C31.7553 7.12891 31.7509 7.23418 31.7416 7.34405C31.7416 7.4539 31.7369 7.56836 31.7277 7.68741H26.4926C26.5295 8.21844 26.7146 8.63504 27.0479 8.93716C27.3904 9.23933 27.8025 9.39038 28.2838 9.39038C28.6448 9.39038 28.9457 9.31255 29.1864 9.15689C29.4365 8.99212 29.6216 8.78153 29.7419 8.52514H31.5471C31.4175 8.95547 31.1998 9.34921 30.8944 9.70626C30.5982 10.0542 30.228 10.3289 29.7835 10.5303C29.3485 10.7317 28.8533 10.8324 28.2978 10.8324ZM28.3117 5.11917C27.8765 5.11917 27.4923 5.24279 27.159 5.48999C26.8257 5.72805 26.6129 6.09428 26.5203 6.58872H29.9502C29.9225 6.14006 29.7559 5.78298 29.4502 5.51743C29.1448 5.25191 28.7654 5.11917 28.3117 5.11917ZM36.9162 10.8324C36.3978 10.8324 35.9441 10.7363 35.5555 10.544C35.1666 10.3517 34.852 10.0816 34.6111 9.73374L34.4167 10.6676H32.8338V0.7793H34.6111V4.83077C34.8333 4.52865 35.125 4.26309 35.486 4.03424C35.8562 3.80533 36.333 3.69087 36.9162 3.69087C37.5644 3.69087 38.1429 3.84651 38.6521 4.1578C39.1613 4.4691 39.5639 4.89486 39.8601 5.43505C40.1565 5.97525 40.3045 6.58869 40.3045 7.27537C40.3045 7.9621 40.1565 8.57549 39.8601 9.11569C39.5639 9.64671 39.1613 10.0679 38.6521 10.3792C38.1429 10.6813 37.5644 10.8324 36.9162 10.8324ZM36.5413 9.29424C37.106 9.29424 37.5736 9.10656 37.9438 8.73115C38.3143 8.35577 38.4994 7.87053 38.4994 7.27537C38.4994 6.68026 38.3143 6.19039 37.9438 5.80588C37.5736 5.42134 37.106 5.22902 36.5413 5.22902C35.9673 5.22902 35.4952 5.42134 35.125 5.80588C34.764 6.18126 34.5834 6.6665 34.5834 7.26166C34.5834 7.85677 34.764 8.34659 35.125 8.73115C35.4952 9.10656 35.9673 9.29424 36.5413 9.29424ZM44.6973 10.8324C44.0586 10.8324 43.4801 10.7226 42.9617 10.5028C42.4432 10.2739 42.0265 9.92599 41.7118 9.45906C41.3972 8.99212 41.2305 8.40614 41.2118 7.70113H42.9617C42.9709 8.16806 43.1236 8.56178 43.4198 8.88225C43.7253 9.19354 44.1512 9.34921 44.6973 9.34921C45.2157 9.34921 45.6138 9.20726 45.8916 8.92345C46.1694 8.63958 46.3082 8.2825 46.3082 7.85218C46.3082 7.34864 46.1231 6.96867 45.7526 6.71228C45.3916 6.44677 44.9243 6.314 44.3503 6.314H43.6281V4.87196H44.364C44.8361 4.87196 45.2297 4.76209 45.5443 4.54236C45.8592 4.32264 46.0164 3.99758 46.0164 3.56723C46.0164 3.21018 45.8961 2.92636 45.6555 2.71576C45.424 2.49602 45.1002 2.38615 44.6834 2.38615C44.2297 2.38615 43.8735 2.51891 43.6141 2.78444C43.3643 3.04995 43.2255 3.37499 43.1976 3.75955H41.4619C41.4988 2.87142 41.809 2.17099 42.3922 1.65826C42.9846 1.14554 43.7484 0.88917 44.6834 0.88917C45.35 0.88917 45.9101 1.0082 46.3635 1.24625C46.8263 1.47515 47.1736 1.78187 47.4051 2.16641C47.6462 2.55096 47.766 2.97671 47.766 3.44366C47.766 3.98386 47.6136 4.44162 47.3079 4.81705C47.0114 5.18326 46.6415 5.43047 46.1971 5.55867C46.7431 5.66854 47.1876 5.93406 47.5303 6.3552C47.8727 6.76724 48.0441 7.28914 48.0441 7.92086C48.0441 8.45193 47.9143 8.93716 47.6552 9.37666C47.3961 9.81614 47.0162 10.1686 46.5167 10.4341C46.0259 10.6997 45.4195 10.8324 44.6973 10.8324ZM49.3728 10.6676V1.05397H52.9694C53.747 1.05397 54.3905 1.18216 54.8999 1.43852C55.4086 1.69489 55.7883 2.04739 56.0384 2.49602C56.288 2.94466 56.4133 3.44823 56.4133 4.00675C56.4133 4.53778 56.2928 5.0276 56.0524 5.47625C55.8112 5.91575 55.4363 6.27283 54.9276 6.54752C54.4184 6.81303 53.7656 6.94577 52.9694 6.94577H51.1504V10.6676H49.3728ZM51.1504 5.51743H52.8583C53.4787 5.51743 53.9229 5.38468 54.1916 5.11917C54.4689 4.84448 54.6082 4.47369 54.6082 4.00675C54.6082 3.53065 54.4689 3.15983 54.1916 2.89429C53.9229 2.61963 53.4787 2.48229 52.8583 2.48229H51.1504V5.51743ZM59.2901 10.8324C58.6977 10.8324 58.2114 10.7409 57.8322 10.5578C57.4523 10.3655 57.1703 10.1137 56.9847 9.80242C56.7996 9.49108 56.7074 9.14776 56.7074 8.77235C56.7074 8.14063 56.9571 7.62787 57.4573 7.23418C57.957 6.84051 58.7067 6.64361 59.7066 6.64361H61.4565V6.47884C61.4565 6.01186 61.322 5.66854 61.0536 5.44882C60.7851 5.22902 60.4518 5.11917 60.0539 5.11917C59.6927 5.11917 59.378 5.20613 59.1095 5.38014C58.8412 5.54491 58.6743 5.79211 58.6097 6.12176H56.8738C56.9202 5.62735 57.0866 5.19702 57.3736 4.83077C57.67 4.46451 58.0497 4.18528 58.5126 3.99299C58.9754 3.79157 59.4939 3.69087 60.0676 3.69087C61.0489 3.69087 61.8222 3.93349 62.3865 4.41873C62.9512 4.90403 63.2337 5.59069 63.2337 6.47884V10.6676H61.7203L61.5534 9.56893C61.3496 9.93516 61.0629 10.2373 60.6927 10.4754C60.3317 10.7134 59.8641 10.8324 59.2901 10.8324ZM59.6927 9.45906C60.2021 9.45906 60.595 9.29424 60.873 8.96464C61.1598 8.63504 61.3406 8.22761 61.4149 7.74231H59.9012C59.4289 7.74231 59.0913 7.82929 58.8875 8.00328C58.6837 8.16806 58.5818 8.37407 58.5818 8.62128C58.5818 8.88679 58.6837 9.0928 58.8875 9.23933C59.0913 9.38579 59.3596 9.45906 59.6927 9.45906ZM65.1438 13.689L66.7405 10.2144H66.324L63.6441 3.85568H65.5741L67.5045 8.64876L69.5177 3.85568H71.4066L67.0322 13.689H65.1438ZM72.1517 10.6676V3.85568H73.7212L73.8736 4.77585C74.0961 4.44621 74.3878 4.18528 74.7488 3.99299C75.119 3.79157 75.5445 3.69087 76.0261 3.69087C77.0906 3.69087 77.8452 4.0983 78.2894 4.91316C78.5395 4.53778 78.8728 4.2402 79.2893 4.02047C79.7153 3.80075 80.1782 3.69087 80.678 3.69087C81.576 3.69087 82.2656 3.95638 82.7472 4.4874C83.2287 5.01847 83.4692 5.7967 83.4692 6.82216V10.6676H81.6917V6.98697C81.6917 6.40099 81.576 5.95236 81.3446 5.64106C81.1222 5.32977 80.7749 5.17413 80.303 5.17413C79.8215 5.17413 79.4326 5.34807 79.1366 5.69602C78.8499 6.04391 78.7064 6.52917 78.7064 7.15178V10.6676H76.9289V6.98697C76.9289 6.40099 76.813 5.95236 76.5816 5.64106C76.3502 5.32977 75.9934 5.17413 75.5124 5.17413C75.04 5.17413 74.6559 5.34807 74.3594 5.69602C74.0727 6.04391 73.9292 6.52917 73.9292 7.15178V10.6676H72.1517ZM88.0865 10.8324C87.3922 10.8324 86.7769 10.6859 86.2398 10.3929C85.7029 10.1 85.2816 9.68796 84.9759 9.15689C84.6703 8.62587 84.5178 8.0124 84.5178 7.31657C84.5178 6.61158 84.666 5.98443 84.962 5.43505C85.2677 4.88573 85.6842 4.45997 86.2121 4.1578C86.7492 3.84651 87.3785 3.69087 88.1005 3.69087C88.7761 3.69087 89.3735 3.83733 89.8919 4.13032C90.4101 4.42331 90.8127 4.82618 91.0997 5.3389C91.3961 5.84248 91.5443 6.40557 91.5443 7.02817C91.5443 7.12891 91.5396 7.23418 91.5306 7.34405C91.5306 7.4539 91.5259 7.56836 91.5167 7.68741H86.2814C86.3182 8.21844 86.5038 8.63504 86.8372 8.93716C87.1795 9.23933 87.5913 9.39038 88.0728 9.39038C88.4338 9.39038 88.7345 9.31255 88.9756 9.15689C89.2253 8.99212 89.4104 8.78153 89.5307 8.52514H91.3359C91.2063 8.95547 90.9888 9.34921 90.6831 9.70626C90.3872 10.0542 90.0165 10.3289 89.5723 10.5303C89.1371 10.7317 88.6423 10.8324 88.0865 10.8324ZM88.1005 5.11917C87.6653 5.11917 87.2813 5.24279 86.948 5.48999C86.6147 5.72805 86.4019 6.09428 86.3093 6.58872H89.7392C89.7115 6.14006 89.5446 5.78298 89.239 5.51743C88.9335 5.25191 88.5544 5.11917 88.1005 5.11917ZM92.6228 10.6676V3.85568H94.1918L94.3308 5.0093C94.5438 4.60645 94.8492 4.28598 95.2471 4.04795C95.6546 3.80992 96.1312 3.69087 96.6773 3.69087C97.5291 3.69087 98.191 3.95638 98.6633 4.4874C99.1354 5.01847 99.3716 5.7967 99.3716 6.82216V10.6676H97.5941V6.98697C97.5941 6.40099 97.4735 5.95236 97.2331 5.64106C96.992 5.32977 96.617 5.17413 96.1078 5.17413C95.6081 5.17413 95.1965 5.34807 94.8722 5.69602C94.5575 6.04391 94.4003 6.52917 94.4003 7.15178V10.6676H92.6228ZM103.723 10.6676C103.001 10.6676 102.422 10.4937 101.987 10.1457C101.553 9.79783 101.335 9.17978 101.335 8.29168V5.32518H100.154V3.85568H101.335L101.543 2.02907H103.112V3.85568H104.973V5.32518H103.112V8.3054C103.112 8.63504 103.182 8.8639 103.32 8.99212C103.469 9.1111 103.719 9.17065 104.07 9.17065H104.931V10.6676H103.723ZM108.929 10.8324C108.318 10.8324 107.781 10.7363 107.318 10.544C106.855 10.3426 106.485 10.0679 106.207 9.71998C105.93 9.37207 105.763 8.96923 105.708 8.51143H107.499C107.554 8.77694 107.703 9.00584 107.943 9.19809C108.193 9.3812 108.513 9.47277 108.902 9.47277C109.29 9.47277 109.572 9.39497 109.748 9.23933C109.933 9.08369 110.026 8.90514 110.026 8.70372C110.026 8.41073 109.897 8.21385 109.637 8.11315C109.378 8.00328 109.017 7.89796 108.554 7.79727C108.258 7.73318 107.957 7.65535 107.651 7.56378C107.346 7.47221 107.064 7.35777 106.805 7.22046C106.555 7.07395 106.351 6.89081 106.193 6.67109C106.036 6.44218 105.958 6.16296 105.958 5.83331C105.958 5.22902 106.198 4.72089 106.68 4.30887C107.17 3.89688 107.855 3.69087 108.735 3.69087C109.55 3.69087 110.198 3.87853 110.679 4.25396C111.17 4.62935 111.461 5.14665 111.554 5.80588H109.874C109.772 5.30229 109.387 5.05049 108.721 5.05049C108.387 5.05049 108.128 5.11458 107.943 5.24279C107.767 5.37097 107.679 5.53119 107.679 5.72346C107.679 5.92488 107.814 6.0851 108.082 6.20415C108.351 6.32318 108.707 6.43305 109.152 6.53375C109.633 6.6436 110.073 6.76724 110.471 6.90458C110.878 7.03275 111.202 7.22959 111.443 7.4951C111.683 7.75148 111.804 8.12228 111.804 8.60756C111.813 9.02873 111.702 9.40868 111.47 9.74746C111.239 10.0862 110.906 10.3517 110.471 10.544C110.035 10.7363 109.522 10.8324 108.929 10.8324Z" fill="url(#paint0_linear_971_2333)"/>
<path d="M5.39074 7.46934C4.28878 6.48894 2.60101 6.58782 1.62098 7.69021C0.64095 8.79259 0.739791 10.481 1.84175 11.4614C2.94369 12.4419 4.63149 12.343 5.61151 11.2406C6.59154 10.1382 6.4927 8.44977 5.39074 7.46934Z" fill="url(#paint1_linear_971_2333)"/>
<path d="M4.78183 6.23164C5.35101 7.21789 6.61162 7.55579 7.59748 6.98639C8.58334 6.41698 8.92111 5.15586 8.35193 4.16961C7.78275 3.18337 6.52215 2.84546 5.53629 3.41487C4.55043 3.98427 4.21263 5.2454 4.78183 6.23164Z" fill="url(#paint2_linear_971_2333)"/>
<path d="M2.538 4.26311C3.62461 4.26311 4.50549 3.38189 4.50549 2.29482C4.50549 1.20777 3.62461 0.326538 2.538 0.326538C1.45136 0.326538 0.570475 1.20777 0.570475 2.29482C0.570475 3.38189 1.45136 4.26311 2.538 4.26311Z" fill="url(#paint3_linear_971_2333)"/>
<path d="M0.511378 6.47779C0.932147 6.89873 1.61435 6.89873 2.03512 6.47779C2.4559 6.05686 2.4559 5.37439 2.03512 4.95345C1.61435 4.53252 0.932147 4.53252 0.511378 4.95345C0.0906085 5.37439 0.0906085 6.05686 0.511378 6.47779Z" fill="url(#paint4_linear_971_2333)"/>
<defs>
<linearGradient id="paint0_linear_971_2333" x1="1.3344" y1="2.77521" x2="111.537" y2="10.3916" gradientUnits="userSpaceOnUse">
<stop offset="0.015625" stop-color="#2143AE"/>
<stop offset="0.489583" stop-color="#4C58CC"/>
<stop offset="1" stop-color="#1082EB"/>
</linearGradient>
<linearGradient id="paint1_linear_971_2333" x1="75.509" y1="8.61453" x2="75.2421" y2="-1.12114" gradientUnits="userSpaceOnUse">
<stop stop-color="#2143AE"/>
<stop offset="1" stop-color="#1082EB"/>
</linearGradient>
<linearGradient id="paint2_linear_971_2333" x1="104.32" y1="3.6677" x2="99.0072" y2="29.2864" gradientUnits="userSpaceOnUse">
<stop stop-color="#1D43AE"/>
<stop offset="1" stop-color="#1082EB"/>
</linearGradient>
<linearGradient id="paint3_linear_971_2333" x1="37.3987" y1="6.15122" x2="38.8854" y2="18.3223" gradientUnits="userSpaceOnUse">
<stop stop-color="#1D43AE"/>
<stop offset="1" stop-color="#1082EB"/>
</linearGradient>
<linearGradient id="paint4_linear_971_2333" x1="2.03514" y1="4.95355" x2="0.510803" y2="6.47729" gradientUnits="userSpaceOnUse">
<stop stop-color="#1082EB"/>
<stop offset="1" stop-color="#1D43AE"/>
</linearGradient>
</defs>
</svg>
